<?xml version="1.0"?>
<svg xmlns="http://www.w3.org/2000/svg" version="1.2" baseProfile="tiny" width="320" height="29" viewBox="0 0 320 29" stroke-linecap="butt" stroke-linejoin="round">
<style>
  path {shape-rendering: crispEdges;}
</style>
<g id="layer1">
<path d="M 1 11 1 1.01 80.5 1.01 80.5 11 1 11 Z" fill="#ffffff"/>
<path d="M 80.5 11 80.5 1.01 160 1.01 160 11 80.5 11 Z" fill="rgb(200, 200, 200)"/>
<path d="M 160 11 160 1.01 239.5 1.01 239.5 11 160 11 Z" fill="rgb(145, 145, 145)"/>
<path d="M 239.5 11 239.5 1.01 319 1.01 319 11 239.5 11 Z" fill="#5A5A5A"/>
</g>
<g id="layer2" fill="none" stroke="black" stroke-width="1">
<path d="M 80.5 1.01 80.5 17" stroke="rgba(0,0,0,0.3)"/>
<path d="M 160 1.01 160 17" stroke="rgba(0,0,0,0.3)"/>
<path d="M 239.5 1.01 239.5 17" stroke="rgba(0,0,0,0.3)"/>
</g>
<g id="layer3" font-family="sans-serif" font-size="12" text-anchor="middle">
<text y="0" x="0" font-family="sans-serif" font-size="10" text-anchor="middle" fill="#555" transform="translate(80.5 28)">25</text>
<text y="0" x="0" font-family="sans-serif" font-size="10" text-anchor="middle" fill="#555" transform="translate(160 28)">50</text>
<text y="0" x="0" font-family="sans-serif" font-size="10" text-anchor="middle" fill="#555" transform="translate(239.5 28)">75%</text>
</g>
</svg>