<?xml version="1.0" encoding="utf-8"?>
<!-- Generator: Adobe Illustrator 28.0.0, SVG Export Plug-In . SVG Version: 6.00 Build 0)  -->
<svg version="1.1" id="Layer_1" xmlns="http://www.w3.org/2000/svg" xmlns:xlink="http://www.w3.org/1999/xlink" x="0px" y="0px"
	 viewBox="0 0 200 36" style="enable-background:new 0 0 200 36;" xml:space="preserve">
<style type="text/css">
	.st0{fill:#542788;}
	.st1{fill:#998EC3;}
	.st2{fill:#D8DAEB;}
	.st3{fill:#F7F7F7;}
	.st4{fill:#FEE0B6;}
	.st5{fill:#F1A340;}
	.st6{fill:#B35806;}
	.st7{font-family:'Helvetica-Bold';}
	.st8{font-size:12px;}
	.st9{font-family:'Helvetica-Light';}
	.st10{font-size:9px;}
</style>
<g id="layer16">
	<path class="st0" d="M1,23V13h28.3v10H1z"/>
	<path class="st1" d="M29.3,23V13h28.3v10H29.3z"/>
	<path class="st2" d="M57.6,23V13h28.3v10H57.6z"/>
	<path class="st3" d="M85.9,23V13h28.3v10H85.9z"/>
	<path class="st4" d="M114.1,23V13h28.3v10H114.1z"/>
	<path class="st5" d="M142.4,23V13h28.3v10H142.4z"/>
	<path class="st6" d="M170.7,23V13H199v10H170.7z"/>
</g>
<text transform="matrix(1 0 0 1 0 10.3186)" class="st7 st8">Population Change, 2010-2020</text>
<text transform="matrix(1 0 0 1 18.682 32.5054)" class="st9 st10">+15</text>
<text transform="matrix(1 0 0 1 46.8596 32.5057)" class="st9 st10">+10</text>
<text transform="matrix(1 0 0 1 77.539 32.505)" class="st9 st10">+5</text>
<text transform="matrix(1 0 0 1 105.7164 32.5053)" class="st9 st10">+5</text>
<text transform="matrix(1 0 0 1 131.3923 32.505)" class="st9 st10">+10</text>
<text transform="matrix(1 0 0 1 159.5699 32.505)" class="st9 st10">+15</text>
</svg>
