<?xml version="1.0"?>
<svg xmlns="http://www.w3.org/2000/svg" version="1.2" baseProfile="tiny" width="800" height="1030" viewBox="0 0 800 1030" stroke-linecap="round" stroke-linejoin="round">
<g id="district">
<path d="M 798.37 340.03 799 339.99 797.74 344.67 788.45 379.66 784.59 394.13 782.44 402.17 780.57 405.05 780.22 406.4 778.19 413.41 776.97 415.08 776.55 415.65 776.43 415.83 775.52 417.08 774.03 419.12 766.23 429.7 765.46 430.83 758.8 439.99 756.25 443.47 748.95 453.48 748.43 453.48 747.2 453.47 746.93 453.52 746.71 453.56 746.23 453.64 745.75 453.7 744.93 453.72 744.38 453.86 743.85 454.25 743.73 454.28 743.52 454.32 740.79 454.04 740.42 454.1 738.96 455.36 738.9 455.46 738.59 455.96 738.21 456.51 737.23 458.69 734.5 463.45 734 464.76 731.47 468.26 729.91 470.7 729.38 471.58 729.36 471.61 729.26 472.03 729.22 472.23 729.18 472.43 729.03 473.12 728.98 473.28 728.89 473.7 728.76 474.25 728.49 475.44 728.39 475.92 728.28 476.2 723.85 475.12 722.13 474.7 722.02 474.67 712.85 472.43 708.97 471.49 705.51 470.65 702.92 470.02 702.29 469.86 701.7 469.72 696.8 468.52 689.59 466.76 677.33 463.78 673.92 462.94 673.76 463.43 671.65 469.71 671.01 471.61 669.82 475.15 669.75 475.36 668.47 479.2 667.16 483.11 664.42 491.25 664.06 492.34 663.59 493.75 663.26 494.72 662.71 496.36 662.12 498.13 661.39 500.29 660.88 501.82 660.78 502.09 660.35 503.39 659.5 505.93 658.89 507.75 658.84 507.86 656.71 514.11 656.57 514.67 654.96 519.47 653.63 523.44 652.74 526.08 652.7 526.2 651.67 529.28 651.57 529.57 651.14 530.83 650.69 532.2 650.68 532.22 649.36 536.17 647.36 542.1 646.79 543.82 646.54 544.55 646.32 545.22 646.11 545.83 650.55 549.67 662.5 559.71 665.97 562.64 666.89 563.74 667.95 564.64 668.69 565.25 676.19 571.55 676.34 571.32 681.72 575.83 681.6 576.08 680.6 578.21 679.61 580.25 678.46 582.67 676.66 585.47 675.3 586.48 671.32 589.18 671.19 589.27 670.8 589.53 670.67 589.62 670.38 589.82 669.79 590.22 666.94 592.55 662.84 600.93 660.49 604.41 658.59 606.9 657.86 607.83 657.44 608.38 656.87 609.11 656.8 609.21 656.62 609.44 656.26 609.89 656.23 609.92 656.09 610.1 656.07 610.12 656.02 610.19 656 610.21 655.93 610.28 655.91 610.32 655.89 610.33 654.52 611.81 653.98 612.38 653.54 612.85 653.41 612.97 651.88 614.2 649.88 615.44 649.75 615.51 649.45 615.67 649.43 615.69 649.34 615.74 649.31 615.75 649.23 615.79 649 615.92 648.92 615.96 648.34 616.3 646.33 617.91 645.31 618.94 643.82 619.86 639.91 621.06 637.79 621.71 636.75 622.03 636.2 622.19 633.58 622.55 631.03 622.68 628.84 621.95 628.03 621.71 627.66 621.59 625.92 621.04 623.18 620.23 619.24 619.06 618.11 618.7 616.37 618.05 614.25 617.18 611.89 616.23 608.67 614.98 606.79 614.28 604.01 613.56 600.68 613.21 598.67 614.38 597.03 616.92 596.18 617.74 595.72 618.11 594.29 619.2 594.01 619.35 593.86 619.41 594.48 624.86 594.62 625.99 594.63 626.11 594.65 626.32 594.67 626.69 594.69 627 594.83 628.42 594.93 629.32 594.95 629.55 595.23 632.54 595.76 637.32 596.62 644.99 597 646.92 598.34 649.4 602.59 654.17 605.12 657.57 610.14 663.74 611.29 665.15 611.71 665.05 614.63 664.77 617.26 664.6 619.93 664.05 621.86 663.09 623.84 661.99 625.35 661.21 628.32 660.7 631.81 659.95 632.85 659.75 633.69 659.78 634.44 660 638.49 662.4 642.34 663.08 643.28 667.06 643.29 667.12 643.34 667.33 644.54 669.57 644.27 671.24 645.15 675.05 647.02 676.85 647.38 679.3 648.3 680.55 648.63 682.52 651.32 684.51 652.52 684.77 653.9 685.74 655.58 687.93 657.73 688.69 658.94 689.74 659.5 689.3 661.23 690.82 663.49 690.56 664.91 690.88 665.07 691.03 667.46 692.18 671.23 691.45 670.47 696.21 668.16 698.08 663.89 699.8 663.18 698.08 659.85 699.47 657.94 699.12 655.81 698.87 654.87 700.6 654.32 700.98 653.56 698.28 655.5 697.75 655.47 696.67 655.99 696.68 656.14 696.67 656.23 696.64 656.26 696.63 656.33 696.59 656.39 696.54 656.49 696.45 656.55 696.35 656.59 696.23 656.61 696.13 656.66 694.85 656.65 694.79 656.62 694.7 656.57 694.58 656.51 694.5 656.44 694.43 656.39 694.39 656.24 694.33 656.18 694.31 656.11 694.3 655.48 694.29 655.5 694.53 655.55 695.09 655.57 695.27 655.58 695.3 655.58 695.51 653.87 695.45 653.2 696.63 651.24 696.59 651.34 691.7 650.17 691.53 647.52 691.69 643.72 693.48 643.94 694.09 644.29 696.03 644.89 697.39 645.56 698.19 647.08 699.1 649.65 699.71 650.7 700.09 652.09 700.93 652.95 701.94 654.29 704.85 654.38 705.09 654.5 705.38 654.63 705.71 654.98 706.32 655.21 706.7 655.68 707.25 655.99 707.53 656.36 707.87 656.92 708.39 657.27 708.69 660.86 711.94 660.71 712.12 659.98 712.78 660.75 714.77 661.86 715.59 665.04 715.75 665.42 714.33 670.07 715.21 672.51 715.2 677.19 715.23 679.54 714.88 681.21 714.51 684.96 713.92 688.63 712.31 691.79 711.49 695.09 712.04 698.61 711.23 700.35 710.83 700.67 715.54 700.51 719.28 700.53 720.9 701.18 726.46 702.64 731.6 702.7 731.85 703.26 733.85 704.06 736.03 704.17 737.46 704.11 740.39 704.85 742.33 705.73 744.54 706.74 747.24 706.81 747.44 707.69 749.96 707.48 752.66 707.44 752.8 709.72 753.29 711.85 754.25 716.84 755.09 718.61 756.14 720.14 756.83 721.67 756.83 724.66 756.82 726.41 756.2 727.39 757.72 729.06 758.55 729.2 758.57 729.62 758.6 729.76 758.61 729.78 758.62 729.86 758.62 729.88 758.62 730.02 758.63 730.43 758.66 730.46 758.66 730.57 758.67 730.62 758.67 730.77 758.68 731.39 758.7 731.59 758.71 734.08 758.75 736.14 758.8 740.37 760 738.86 764.76 737.51 767.48 735 772.18 733.7 773.34 732.3 775.86 729.85 777.36 728.5 778.87 726.63 781.87 725.2 785.19 721.94 786.42 720.43 787.65 719.24 789.9 718.15 795.03 716.36 799.37 713.57 802.28 713.45 802.44 713.33 802.6 707.56 807.97 706.88 808.53 704.94 810.26 704.36 810.77 703.97 811.1 701.47 813.07 701.13 813.42 701.69 815.67 701.5 821.24 702.81 826.04 703.66 829.09 703.95 830.14 704.75 833.05 705.31 838.38 705.64 839.98 706.34 844.96 706.79 849.01 700.87 848.53 699.56 848.45 697.44 848.72 691.84 850.3 690.19 850.68 688.66 850.57 687.15 850.39 686.58 849.6 685.35 847.89 682.18 843.43 679.78 847.1 679.71 847.19 677.31 850.59 675.66 852.28 672.54 854.52 671.45 856.08 668.7 858.26 665.56 859.1 664.71 859.27 663.87 859.44 661.38 859.93 660.76 860.06 659.5 860.31 657.67 860.69 657.13 860.8 656.93 860.84 656.33 860.96 656.13 861.01 654.39 861.34 653.08 861.58 651.86 861.62 653.05 864.17 653.16 864.3 653.35 864.52 653.92 865.3 654.53 866.21 655.92 868.24 657.85 870.95 660.78 873.13 661.88 873.76 664.77 874.75 666.71 875.15 667.5 875.32 667.91 875.41 668.47 875.53 669.11 875.66 669.76 875.8 673.47 877.14 675.01 877.94 675.68 878.29 677.97 879.7 677.17 880.31 677.53 880.88 677.07 881.82 674.96 884.17 673.35 884.3 673.28 885.49 672.36 888.51 673.18 890.01 672.02 893.43 671.88 896.76 669.54 903.86 668.59 905.13 667.66 908.36 665.02 909.24 660.96 909.64 659.79 910.34 663.52 915.95 665.45 917.87 666.71 919.04 666.74 919.07 666.83 919.16 666.87 919.19 667.06 919.38 667.36 919.66 667.65 919.93 667.85 920.11 668.02 920.27 668.3 920.53 669.34 921.5 669.64 921.79 669.87 921.99 670.09 922.21 670.3 922.41 670.46 922.58 670.64 922.77 670.65 922.79 670.89 923.11 671.01 923.29 671.14 923.49 671.26 923.71 671.39 923.97 671.55 924.38 671.8 925.08 672.1 925.9 674.71 932.29 675.55 934.53 676.11 935.91 677.07 938.16 677.52 939.2 678.59 941.78 679.72 943.17 682.61 946.6 685.35 949.83 686.89 951.1 688.1 951.97 688.98 952.57 691.08 952.77 696 953 698.32 953.01 698.65 953.21 699.1 953.64 688.95 954.14 687.57 954.15 686.15 954.18 683.8 954.76 682.19 956.2 681.02 958.19 681.02 958.21 680.81 959.58 680.81 961.22 680.85 962.51 680.91 964.58 682.74 964.59 684.25 964.59 684.23 966.85 684.35 968 686.04 970.52 686.92 971.82 688.05 973.52 689.87 976.77 691.6 979.27 692.28 980.65 693.15 983.13 693.73 984.14 694.47 985.4 695.03 986.36 695.71 987.51 696.94 989.77 697.4 991.38 697.46 992.1 696.85 996.03 695.65 1000.08 696.16 1001.77 696.91 1003.86 697.25 1004.77 699.22 1010.21 699.63 1011.33 700.5 1013.69 702.04 1017.75 703.64 1020.4 706.66 1023.6 707.99 1025.59 708.88 1028.41 708.94 1028.62 706.05 1027.51 702.6 1026.21 690.02 1021.46 683.22 1018.89 667.77 1013.06 666.28 1012.49 661.24 1010.57 652.55 1007.28 651.18 1006.76 627.4 997.72 621.59 995.5 619.88 994.84 615.56 993.2 613.23 992.3 610.02 991.09 596.58 985.94 587.46 982.46 568.74 975.31 560.44 972.13 555.26 970.16 553.76 969.58 545.53 966.43 545 966.24 543.7 965.73 530.08 960.01 522.69 956.88 515.89 953.98 514.64 953.44 513.13 952.81 511.31 952.02 510.45 951.66 509.78 951.38 509.69 951.34 503.38 948.65 497.29 946.22 485.46 941.61 477.34 938.47 477.09 938.39 472.71 936.68 466.84 934.4 447.81 927.07 452 912.26 456.58 896.1 459.41 886.26 459.77 884.97 462.11 876.95 462.18 876.71 467.34 859 467.84 857.3 468.16 856.2 468.23 855.97 468.26 855.86 468.31 855.68 468.33 855.6 468.38 855.43 468.5 855.04 468.64 854.55 468.71 854.33 469.2 852.63 469.38 852.1 472.66 841.8 474.82 835.04 475.18 833.91 476.05 831.2 476.35 830.24 477.32 827.2 478.87 822.36 478.93 822.17 480.3 817.89 480.68 816.7 486.54 798.33 494.43 772.25 497.19 763.07 498.49 758.55 501.26 748.81 503.41 741.28 504.3 737.96 505.07 735.29 505.15 735 510.3 717.04 512.22 710.3 513.18 706.93 513.38 706.22 514.29 703.04 514.35 702.83 514.46 702.42 515.04 700.41 515.11 700.14 517.81 690.66 520.26 678.02 520.93 674.59 521.08 673.84 521.16 673.42 521.78 670.23 522.05 668.8 522.38 667.1 522.4 667.02 523.86 659.49 524.2 657.8 526.79 652.51 528.79 648.45 529.17 647.67 529.22 647.52 529.29 647.34 529.32 647.24 529.47 646.85 531.31 641.7 531.61 640.83 531.79 640.35 533.25 636.27 533.77 634.78 534.51 632.74 534.54 632.66 536.43 627.38 536.51 627.17 536.57 626.98 536.78 626.39 536.9 626.05 536.91 626.03 536.94 625.94 536.96 625.9 537.07 625.59 537.13 625.43 537.52 624.33 538.06 622.81 538.54 621.49 538.77 620.85 538.82 620.67 538.98 620.2 539.16 619.66 539.78 617.72 540.18 616.46 542.22 610.11 542.63 608.83 542.74 608.47 543.57 605.91 544.4 603.32 544.49 603.03 544.73 602.27 545.26 600.64 545.36 600.31 545.44 600.05 545.54 599.74 545.84 598.82 545.93 598.55 546 598.32 546.05 598.14 546.45 596.91 547.55 593.51 548.21 591.44 548.83 589.5 548.96 589.09 549.71 586.71 550.03 583.7 550.42 580.08 548.77 580.23 548.04 583.13 549.79 583.57 549.25 586.7 546.52 585.93 545.6 584.98 544.95 585.54 544.18 586.44 540.44 585.84 540.26 587.14 539.42 587.03 538.66 586.95 538.54 587.91 538.36 589.16 536.99 588.92 535.76 588.78 534.3 592.17 535.92 582.75 534.08 582.51 532.1 581.32 530.44 580.85 530.3 582.17 529.03 592.65 527.76 597.95 525.87 596.89 522.92 598.19 521.58 597.84 520.02 599.73 522.62 602.31 524.79 602.26 526.1 603.05 526.95 601.51 528.57 601.47 527.98 606.09 525.8 607.51 526.45 607.79 527.82 610.67 527.65 612.33 526.43 609.87 525.59 609.87 525.73 612.11 527.99 622.63 527.84 624.83 533.48 626.27 533.48 626.45 528.2 625.16 522.13 621.16 517.57 616.77 512.26 613.36 510.54 612.73 509.2 612.89 506.5 616.03 499.59 618.43 492.6 622.81 483.43 622.4 482.59 626.39 482.85 631.27 483.59 635.64 484.94 639.55 485.26 642.77 484.8 646.81 483.77 652.02 483.74 654.11 484.92 660.67 484.97 663.71 482.44 663.64 478.02 663.08 475.41 661.19 471.67 657.16 468.61 656.29 467.13 656.2 463.6 656.56 458.99 658.86 448.76 664.6 446.5 665.13 441.51 665.02 431.41 665.15 429.91 665.17 416.2 665.33 415.25 667.44 410 692.44 407.65 740.24 407.87 740.57 408.05 740.87 393.1 740.09 376.21 739.2 373.36 738.9 364.62 737.99 361.57 738.05 358.96 738.6 351.31 740.96 342.24 741.72 337.87 742.09 329.43 743.47 324.67 744.82 321.22 746.12 315.73 748.89 315.05 749.26 314.29 749.67 314.5 749.9 316.44 752.12 322.37 758.1 325.88 761.83 327.84 763.94 328.2 765.73 329.08 770.1 330.88 773.56 337.37 778.87 338.81 780.4 339.57 782.21 341.55 790.57 344.5 798.39 346.2 808.59 347.55 815.06 348.35 819.59 344.77 819.16 342.86 819.25 342.15 820.69 340.52 821.14 339.3 819.8 336.75 820.51 334.87 819.76 333.04 820.26 330.12 821.99 327.6 822.18 326.26 823.73 326.11 823.87 325.98 824 325.43 824.35 324.95 824.84 322.82 827.59 321.62 828.43 319.19 828.85 317.6 830.2 319.32 832.45 318.34 835.4 316.79 837.01 315.65 839.16 312.97 842.16 311.5 846.06 308.79 849.5 303.92 852.62 296.17 849.15 294.52 849.42 292.2 849.65 288.55 848.79 285.59 849.13 284.82 849 282.79 848.84 279.8 849.94 277.48 846.74 275.59 843.99 275.22 839.64 274.29 835.79 272.53 832.23 271.73 829.67 269.48 826.47 267.01 828.21 265.66 830.31 261.45 834.61 255.9 837.86 253.39 838.65 251.38 838.47 250.25 837.06 246.5 833.38 244.68 832.25 238.92 829.86 236.05 830.13 235.05 830.99 231.52 835.69 228.93 837.62 229.04 841.73 229.14 842.92 228.64 843.21 225.74 847.68 219.79 850.46 217.81 852.49 214.67 854.32 211.68 858.51 203.77 865.71 200.82 869.61 193.33 869.73 190.77 868.56 188.99 866.93 184.7 865.42 180.46 862.73 179.71 860.73 179.74 857.85 178.85 856.41 176.89 852.74 174.5 852.89 164.79 852.4 163.62 852.43 163.42 852.43 159.86 850.89 156.09 850.72 156.27 854.59 156.11 854.61 155.85 854.66 155.62 854.76 155.42 854.88 155.25 854.99 155.1 855.06 154.98 855.15 154.82 855.28 154.7 855.43 154.67 855.46 154.56 855.58 154.43 855.73 154.21 855.99 154.08 856.19 154.04 856.27 154.01 856.32 153.87 856.6 153.81 856.75 153.73 856.97 153.57 857.24 153.46 857.56 153.35 857.75 153.19 858.04 153.15 858.15 152.98 858.33 152.86 858.43 152.72 858.51 152.59 858.59 152.35 858.71 152.12 858.79 151.85 858.82 151.61 858.84 151.34 858.87 151 858.89 150.37 858.95 150.19 858.95 150.05 858.98 149.9 859.04 149.81 859.06 149.61 859.11 149.24 859.25 149.09 859.3 148.92 859.44 148.73 859.62 148.54 859.79 148.34 859.89 148.19 859.96 148.07 860.01 147.92 860.04 147.86 860.08 147.76 860.15 147.7 860.2 147.64 860.28 147.56 860.4 147.47 860.52 147.39 860.66 147.2 860.93 147.11 861.08 146.99 861.24 146.77 861.45 146.45 861.67 146.3 861.76 146.13 861.83 145.98 861.86 145.85 861.91 145.59 861.99 145.23 862.03 144.83 862.02 144.54 862.03 144.16 861.99 143.99 861.94 143.89 861.92 143.59 861.9 143.52 861.89 143.24 861.89 143.15 861.89 143.04 861.88 142.71 861.89 142.59 861.92 142.47 861.95 142.22 862.04 141.98 862.19 141.68 862.38 141.58 862.42 141.49 862.43 141.39 862.43 141.28 862.42 141.22 862.4 141.18 862.37 141.1 862.33 141.04 862.28 140.94 862.14 140.84 861.99 140.81 861.94 140.75 861.83 140.67 861.72 140.62 861.66 140.57 861.6 140.54 861.53 140.51 861.45 140.5 861.39 140.48 861.23 140.45 861.13 140.41 861.05 140.33 860.87 140.31 860.79 140.19 860.32 140.14 860.16 140.06 859.99 139.99 859.83 139.91 859.6 139.85 859.47 139.76 859.3 139.73 859.21 139.7 859.08 139.65 858.92 139.63 858.76 139.63 858.62 139.59 858.28 139.48 857.72 139.44 857.58 139.35 857.25 139.29 856.91 139.28 856.83 139.27 856.81 139.15 856.41 138.85 855.5 138.8 855.35 138.74 855.18 138.67 855.01 138.58 854.84 138.51 854.74 140.27 852.3 140.03 850.6 137.87 849.17 137.07 844.45 135.91 841.22 137.24 840.04 138.69 839.86 135.6 836.48 134.76 833.2 134.85 829.82 135.61 828.98 139.62 827.54 141 828.14 142.66 827.13 143.06 821.15 144.24 818.06 143.49 817.06 144.66 813.64 143.72 812.84 144.48 811.86 146.62 811.93 148.04 809.95 150.54 809.05 150.85 807.2 151.97 801.49 153.03 798.4 154.44 795.71 152.11 792.19 151.48 789.87 150.35 789.75 150.05 788.29 151.78 784.09 153.62 781.81 154.58 779.26 154 778.92 154.72 777.82 156.33 778.79 158.02 776.81 156.82 774.9 157.16 768.92 157.84 768.58 157.26 766.47 158.61 763.07 157.55 761.58 155.54 761.64 153.8 760.22 153.44 758.99 152.03 758.47 149.84 759.11 147.48 754.77 147.1 753.09 147.09 752.79 147.19 751.77 145.96 750.11 142.61 742.6 142.29 741.05 141.65 739.17 140.46 738.45 138.72 740.08 135.31 741.05 133.79 742.28 132.37 741.26 129.3 742.08 127.67 741.13 124.56 740.22 123.28 740.71 120.92 737.58 116.41 734.27 114.91 732.59 113.15 731.94 113.44 730.19 111.62 726.51 111.69 723.44 109.92 720.48 106.37 719.43 104.06 719.22 103.39 714.82 101.38 709.78 101.2 708.24 101.34 705.2 101.03 702.98 99.53 699.43 99.76 692.89 93.41 692.21 91.77 691.31 88.41 688.52 85.2 687.51 76.64 686.72 71.41 685.12 69.44 685.13 65.21 686.03 60.72 685.09 57.82 684.63 55.1 684.81 51.58 684.15 47.88 682.64 43.99 682.47 40.02 682.3 32.86 682.78 22.31 684 21.18 683.92 13.88 681.41 11.81 680.32 7.94 677.1 5.73 676.17 2.79 676.83 1 676.75 1.85 672.17 4.61 668.42 6.49 665.79 6.86 662.12 8.41 658.36 10.02 649.46 10.78 645.14 11.74 640.25 14.15 633.84 15.29 630.64 15.39 628.18 15.33 625.85 17.52 620.4 18.02 618.66 18.87 615.57 19.77 612.27 19.55 608.49 20.06 604.37 22.28 590.87 25.31 584.69 48.86 584.71 53.85 584.71 62.28 584.72 121.09 584.76 125.64 584.76 140.35 584.76 158.87 584.78 159.47 584.6 159.57 580.1 160.07 578.3 160.35 576.43 160.01 575.42 159.28 574.55 158.4 573.85 157.27 573.13 155.85 572.45 153.88 572.02 150.4 570.33 149.44 570.04 146.69 569.56 145.65 568.78 144.9 567.79 143.96 565.95 143.55 563.46 143.52 561.39 143.85 560.16 144.94 558.28 145.33 556.56 145.71 553.79 145.74 552.53 145.59 552 143.97 548.73 143.5 547.39 143.33 545.9 143.42 544.53 143.78 542.86 144.09 541.99 145.05 539.98 145.3 538.93 145.29 538.15 145.05 536.96 144.79 535.56 144.53 534.81 142.92 531.76 142.01 530.38 139.75 527.33 138.63 525.57 137.87 524.17 137.44 523.11 136.9 520.56 136.35 518.7 135.1 515.48 134.85 513.83 134.74 511.75 134.87 509.99 135.23 506.73 136.53 503.42 136.84 501.52 135.52 498.6 132.22 494.83 127.22 491.78 122.93 489.59 122.71 487.03 124.2 483.14 125.53 482.35 127.37 482.4 127.96 482.27 128.07 472.37 128.08 472.05 128.12 468.02 128.12 467.89 128.13 467.81 128.21 459.57 127.87 458.82 127.5 457.6 127.9 457.47 127.95 454.83 127.62 454.04 127.96 454.1 128.15 454.14 128.28 454.15 128.28 454.11 128.28 454.05 128.33 450.44 128.47 438.12 128.25 436.06 127.89 435.59 127.95 431.17 128.56 430.11 128.59 426.77 128.7 417.59 128.71 416.57 128.83 405.56 129.11 404.66 128.95 404.47 128.86 404.37 128.8 404.3 128.76 404.25 128.67 404.18 128.61 404.14 128.57 404.11 128.46 404.05 128.36 404 128.25 403.95 128.21 403.93 128.41 403.45 128.6 402.99 128.71 402.99 128.83 402.94 129.48 402.65 129.06 402.36 128.85 402.03 128.71 401.82 128.71 401.79 128.67 401.61 127.58 395.23 128.93 395.28 129.09 384.4 129.16 377.27 129.25 370.6 129.26 369.47 129.51 348.2 129.56 346.61 129.58 346.06 129.88 336.4 130.29 323.42 130.32 323.43 130.44 323.48 130.54 323.53 130.67 323.61 130.71 323.64 131.03 321.99 130.34 322.1 130.39 320.29 130.52 316.28 130.55 315.33 130.7 310.63 130.72 310.14 130.76 308.82 130.79 307.78 130.86 305.62 130.88 305.18 131.08 298.57 132.17 298.08 131.16 296.24 131.3 290.58 131.56 280.02 131.81 269.23 131.87 266.89 131.24 266.8 130.77 266.7 131.33 265.28 131.37 265.2 131.41 265.09 131.46 264.98 131.49 264.87 131.51 264.75 131.53 264.64 131.54 264.54 131.55 264.3 131.58 263.85 131.6 263.41 131.61 263.36 131.61 263.32 131.76 261.97 132.11 261.45 132.89 256.23 131.92 256.23 132.12 254.75 132 253.51 131.65 253.18 132.05 252.58 132.1 252.57 132.12 252.56 132.15 252.56 132.17 252.56 132.28 252.55 132.26 252.38 132.25 252.18 132.24 252.07 132.3 252.06 132.3 252.05 132.28 252 132.23 251.8 132.16 251.54 132.14 251.46 132.12 251.36 132.05 251.06 131.98 250.8 132.07 250.79 132.1 250.65 132.17 250.29 132.19 250.23 132.27 250.13 132.33 250.06 132.35 249.98 132.43 249.59 132.35 249.57 132.28 249.56 132.28 249.39 132.32 247.68 132.33 247.37 132.34 247.07 132.35 246.62 132.94 246.28 133.04 242.87 133.19 237.66 132.56 237.65 132.71 231.44 132.76 229.24 132.81 227.21 132.86 224.95 132.89 223.74 132.93 221.96 132.94 221.83 132.94 221.55 132.95 221.28 132.95 220.95 132.97 220.41 132.97 220.28 132.99 219.64 132.99 219.35 133 219.03 133.02 217.84 133.02 217.71 133.91 217.47 133.95 214.99 134.06 212.39 133.88 207.59 133.88 207.5 133.88 206.9 134.15 206.99 134.18 206.62 134.18 206.61 134.11 206.56 134.04 206.54 133.99 206.53 133.98 206.53 133.81 206.48 133.52 206.35 133.37 206.29 133.36 206.23 133.35 206.08 135.02 205.19 134.46 204.52 133.98 203.89 133.9 200.16 133.37 199.2 133.39 197.89 133.42 196.72 133.42 196.6 133.88 196.61 134.06 196.61 134.06 195.98 134.07 195.4 134 195.4 133.83 195.4 133.81 195.4 133.75 195.4 133.67 195.4 133.6 195.4 133.49 195.4 133.47 195.4 133.46 195.4 133.44 195.4 133.7 181.35 133.79 176.73 134.01 164.95 134.02 164.24 134.06 162.5 134.08 161.2 134.08 161.14 134.17 156.24 134.17 156.19 134.37 145.52 134.41 143.23 134.44 141.92 134.44 141.82 134.72 126.78 134.86 119.69 135.14 104.29 135.63 78.17 135.73 72.74 136.06 55.06 136.46 34.03 136.59 26.75 136.92 9.14 136.35 7.31 136.39 4.4 136.43 1 137.58 1.02 149.44 1.27 155.01 1.38 176.89 1.84 185.25 2.01 191.1 2.13 216.74 2.67 242.53 3.2 246.43 3.28 256.6 3.5 259.53 3.55 260.75 3.57 268.57 3.71 283.53 3.98 301.9 4.31 307.66 4.4 307.78 4.41 326.62 4.52 357.41 4.95 363.83 5.08 375.48 5.31 381.26 5.43 400.11 5.81 403.75 5.88 405.96 5.93 414.44 6.1 423.05 6.2 430.15 6.29 442.88 6.49 448.89 6.58 449.35 6.6 455.12 6.69 456.72 6.71 473.01 6.97 485.8 7.18 498.7 7.38 500.26 7.41 500.41 7.41 516.97 7.76 520.15 7.87 521.32 7.9 521.74 7.91 521.81 7.91 524.77 7.98 527.93 8.06 533.3 8.19 538.77 8.31 553.06 8.64 553.38 8.65 553.83 8.68 570.04 9.12 573.74 9.23 573.82 9.23 573.97 9.23 582.84 9.48 590 9.68 599.26 9.94 611.8 10.29 618.47 10.43 628.22 10.65 640.9 10.92 645.52 11.02 646.99 11.08 648.03 11.13 659.82 11.64 676 12.35 676.01 16.08 676.01 20.24 676.01 35.09 675.99 36.34 675.72 52.53 675.64 58.85 675.27 95.4 675.24 98.06 674.7 136.64 674.43 157.66 674.37 162.17 673.62 218.83 673.57 218.97 672.88 219.76 673.37 222.59 675.57 226.12 673.7 227.62 671.72 227.57 670.17 228.68 670.62 229.7 676.34 231.31 681.21 233.35 682.47 233.02 686.32 230.71 688.6 232.29 688.64 234.86 690.14 237.57 689.93 239.12 687.59 242.62 687.78 243.81 689 243.82 691.43 241.74 693.15 242.26 697.38 245.36 694.85 247.23 693.37 249.27 693.47 250.99 694.41 252.27 695.93 252.46 698.48 254.64 700.56 253.9 701.01 252.29 703.02 251.29 704 252.39 706 252.45 706.21 252.46 706.54 252.47 707.44 252.5 719.12 252.83 725.63 253.02 737.08 253.36 733.64 273.85 733.59 275.95 733.7 280.21 733.71 280.79 733.78 283.46 733.89 287.02 734.06 295.18 734.19 300.43 734.45 311.03 740.66 315.47 740.72 315.52 750.41 322.43 757.2 319.91 774.42 313.55 789.36 340.52 790.78 340.44 795.4 340.19 798.37 340.03 Z" opacity="0.5" fill="rgba(0,0,0,0.2)" stroke="rgba(0,0,0,0.8)" stroke-width="1"/>
</g>
<g id="roads" fill="none" stroke="black" stroke-width="1">
<path d="M 703.92 252.3 605.52 359.58 600.9 360.1 582.84 362.14 512.67 321.6 463.18 301.31 353.91 296.19 287.97 273.28 257.05 273.23" stroke="#aaa" stroke-width="0.6"/>
<path d="M 244.69 270.69 137.56 247.61 132.3 248.59" stroke="#aaa" stroke-width="0.6"/>
<path d="M 244.69 270.69 308.53 316.47 368.29 377.43 444.62 410.46 449.49 426.9 461.15 466.3 475.6 491.68 576.78 473.84 644.98 514.36 653.5 523.82" stroke="#aaa" stroke-width="0.6"/>
<path d="M 588.79 610.11 616.14 565.17 647.37 542.07" stroke="#aaa" stroke-width="0.6"/>
<path d="M 702.69 731.79 688 740.54 652.53 761.66 633.95 772.72 633 773.28 622.97 769.61" stroke="#aaa" stroke-width="0.6"/>
<path d="M 485.87 404.52 539.16 391.38 556.91 371.68" stroke="#aaa" stroke-width="0.6"/>
<path d="M 231.78 835.34 229.41 764.9" stroke="#aaa" stroke-width="0.6"/>
<path d="M 667.13 1012.82 680.68 985.55 680.62 957.15 681.79 956.89 M 695.75 953.81 698.6 953.18" stroke="#aaa" stroke-width="0.6"/>
<path d="M 572.84 336.7 571.04 308.3 556.83 290.82 556.81 275.53" stroke="#aaa" stroke-width="0.6"/>
<path d="M 147.09 752.85 152.81 753.82" stroke="#aaa" stroke-width="0.6"/>
<path d="M 229.41 764.9 241.93 732.15 242.35 727.1 243.76 710.29 272.29 681.93 329.3 653.59 341.78 625.2 332.93 583.67 343.62 561.82 363.21 542.18 373.89 513.77 397 507.22 409.46 487.56 414.8 448.23 449.49 426.9 485.87 404.52" stroke="#aaa" stroke-width="0.6"/>
<path d="M 556.81 275.53 547.9 240.57 547.87 209.98 558.49 181.55 553.12 124.73 556.62 74.46 528.23 37.33 521.4 7.9" stroke="#aaa" stroke-width="0.6"/>
<path d="M 313.17 751.91 315.68 751.25 M 504.07 738.82 616.02 723.44 688 740.54 689.1 740.8" stroke="#aaa" stroke-width="0.6"/>
<path d="M 617.32 395.66 636.92 432.77 656.49 445.84 677.6 463.85" stroke="#aaa" stroke-width="0.6"/>
<path d="M 462.7 874.94 470 874.34 626.8 780.25 633.95 772.72 639.26 767.12 652.53 761.66 665.96 756.14 702.78 732.12" stroke="#aaa" stroke-width="0.6"/>
<path d="M 485.87 404.52 491.2 387.03 491.18 352.07 505.37 321.47" stroke="#aaa" stroke-width="0.6"/>
<path d="M 152.81 753.82 199.19 727.69 215.23 725.54 242.35 727.1 254.41 727.79 313.17 751.91" stroke="#aaa" stroke-width="0.6"/>
<path d="M 594.15 336.68 600.9 360.1 604.85 373.82 617.32 395.66" stroke="#aaa" stroke-width="0.6"/>
</g>
<g id="urban">
<path d="M 410.72 582.82 408.84 594.56 403.58 598.35 390.55 598.05 389.29 602.57 379.51 597.93 372.34 600.97 368.88 597.37 368.84 591.53 366.38 591.57 366.21 582.73 371.05 577.37 377.67 572.23 384.78 564.98 397.35 561.2 398.65 558.34 403.93 558.13 406.78 561.87 405.54 568.67 410.6 570.31 410.23 557.87 428.24 556.9 429.95 560.32 424 566.47 417.42 576.6 410.72 582.82 Z" fill="rgba(0,0,0,0.1)" stroke="none"/>
<path d="M 567.23 550.25 570.33 547.87 571.14 538.41 567.81 525.61 561.47 526.6 560.44 532.43 553.41 537.93 552.27 532.87 545.72 535.68 543.2 538.58 529.3 539.34 523.45 538.86 523.64 534.13 520.61 534.03 520.75 523.9 512.77 523.89 512.67 528.63 516.86 528.66 516.74 533.41 500 533.57 496.33 531.68 494.09 525.97 496.55 521.65 488.72 520.37 490.74 512.84 490.87 508.16 486.08 506.39 487.15 502.26 479.46 501.16 464.32 501.73 455.94 508.66 458.37 512.55 458.84 517.12 444.18 516.88 442.75 519.22 442.77 527.55 438.63 527.6 438.45 521.49 427.54 521.66 428.13 517.4 425.11 515.1 414.49 510.7 407.29 510.71 402.04 511.99 399.45 514.8 394.34 516.16 387.03 514.48 387.02 521.66 378.04 517.01 374.08 522.94 376.91 527.51 379.74 538.16 379.21 545.19 377.59 548.14 368.71 552.13 365.66 555.34 364.73 559.86 344.41 560.73 340.8 567.94 340.15 572.24 335.35 578.3 333.75 582.63 335.58 601.74 337.33 606.79 324.51 606.62 315.9 619.13 316.74 625.43 312.13 625.52 311.46 630.61 304.97 626.42 305.02 622.05 300.52 619.67 289.94 619.38 287.04 621.21 279.78 610.42 280.2 605.54 283.5 599.81 282.56 596 284.13 589.74 292.49 585.34 302.36 582.12 312.18 581.95 311.92 568.08 303.2 567.91 305.01 561.38 309.52 560.08 311.42 557.11 329.43 559.11 331.6 551.32 330.07 548.74 329.24 537.65 332.07 537.12 343.42 527.69 343.75 521.78 339.08 520.69 335.66 517.66 338.65 508.21 333.97 500.66 330.52 486.76 323.56 474.46 322.65 462.63 319.39 447.01 324.88 447.02 327.03 445.29 327.53 440.25 324.09 439.82 314.87 441.53 311.82 440.91 312.28 431.71 316.08 432.1 314.25 418.09 324.32 418.81 328.25 420.66 331.21 418.5 334.29 408.87 343.98 419.45 348.02 425.43 354.4 425.25 358.47 421.46 360.78 414.82 356.22 405.34 352.28 400.72 351.44 389.39 351.82 379.28 355.3 383.2 360.07 392.79 364.23 388.13 367.3 398.98 374.4 402.45 382.29 405.06 387.24 404.36 395.42 401.42 406.46 403.11 412.95 406.31 434.73 420.81 441.03 426.41 443.68 415.12 448.98 408.91 445.04 398.14 445.93 391.89 453.5 392.36 453.86 381.63 433.1 383.2 435.79 379.11 435.38 374.65 438.99 368.28 443.99 370.57 455.6 372.83 461.54 368.51 466.7 371.62 466.88 377.68 474.78 377.81 479.01 375.29 478.34 371.42 493.13 381.82 496.75 381.33 503.98 375.17 507.12 374.04 509.27 368.19 502.94 362.91 490.74 358.98 493.35 341.83 490.08 337.79 485.05 336.13 481.97 342.4 480 342.37 477.7 334.69 471.51 334.45 471.02 323.41 467.43 323.32 467.63 316.59 455.01 313.45 428.35 313.26 429.35 323.42 429.02 330.15 416.78 321.6 419.11 318.44 421.78 310.22 429.69 304.96 436.23 305.47 454.16 309.99 457.36 310.06 460.9 285.92 464.32 282.67 473.21 278.77 478.51 271.46 481.98 271.52 482.55 275.32 488.61 275.32 488.53 271.11 493.03 270.92 491.73 259.02 485.38 258 478.07 259.67 472.48 255.34 467.17 253.84 466.89 245.13 458.88 245.23 459.7 229.23 456.71 229.25 456.44 219.69 470.34 220.23 472.36 206.02 477.99 209.23 482.36 210.2 490.57 221.02 491.76 219 498.79 219.24 500.29 203.65 504.88 194.64 515.08 179.02 510.5 175.16 519.59 173.75 526.78 170.32 533.3 172.15 539.52 168.24 540.14 172.95 537.46 176.57 540.36 179.46 551.6 182.27 556.57 185.92 560.03 186.17 562.27 192.64 567.43 196.09 581.67 202.81 591.69 203.27 597.86 205.61 601.41 210.36 599.85 218.89 591.72 215.06 589.92 227.89 587.87 231.47 578.74 233.35 573.83 235.65 576.8 244.36 569.99 251.2 567.55 250.47 567.37 260.68 570.41 262.79 573.57 260.13 591.11 259.84 591.12 262.86 596.91 265.07 597.3 272.38 594.83 277.1 592.8 284.43 606.55 279.42 614.88 282.87 615.97 278.65 618.63 276.82 627.2 278.81 633.84 273.68 636.09 278.72 641.77 278.57 641.22 282.54 636.39 283.87 636.01 288.99 631.99 294.94 630.02 294.46 623.94 305.3 627.28 306.17 630.59 311.1 634.05 310.96 637.73 306.72 649.83 303.6 656.96 297.18 654.66 294.72 666.27 286.05 666.23 288.06 661.14 294.73 671.65 303.12 665.05 307.14 656.65 313.96 656.68 319.6 659.65 323.67 661.58 329.17 665.34 331.3 672.05 328.47 677.29 341.88 674.35 344.79 672.51 350.55 667.83 353.84 670.59 359.81 678.99 354.15 677.26 361.32 677.83 370.27 680.55 376.46 686.48 378.94 689.44 391.5 698.2 392.16 697.7 401.22 698.83 404.74 692.73 408.43 688.7 412.74 684.26 414.59 684.41 419.43 678.02 427.27 669.77 426 667.15 431.63 661.72 432.9 655.64 432.59 655.58 440.75 651.02 442.08 658.23 446.99 668.5 456.06 665.55 459.79 664.39 465.22 664.21 472.43 660.44 483.44 659.71 493.98 657.11 506.96 656.66 513.09 656.77 513.94 656.71 514.11 656.57 514.67 654.96 519.47 653.63 523.44 652.74 526.08 652.7 526.2 651.67 529.28 651.57 529.57 651.14 530.83 651.09 531 635.16 554.17 631.34 557.56 626.06 559.64 620.98 551.14 602.34 550.83 601.69 546.28 595.96 550.73 567.23 550.25 Z M 332.36 635.82 331.23 641.68 336.79 638.28 339.92 633.13 346.2 636.14 361 641.25 362.46 646.39 361.15 659.8 354.61 658.07 352.77 667.28 348.16 663.1 325.7 661.09 322.54 658.8 328.09 653.87 329.65 649.92 327.74 647.48 321.25 649.15 311.26 646.97 315.06 639.97 317.81 631.9 319.61 630.35 327.44 630.67 331.84 626.82 336.5 632.73 332.36 635.82 Z M 464.64 514.44 465.85 506.34 469.49 511.32 470.88 516.18 464.64 514.44 Z M 387.53 516.49 391.14 516.68 393.25 519.38 399.09 519.45 398.5 524.03 399.9 531.48 392.31 535.38 391.91 525.97 389.38 523.07 387.53 516.49 Z M 512.82 552.27 508.85 552.49 507.21 548.5 509.49 545.16 517.48 543.9 516.74 534 519.69 534.02 519.07 551.93 512.82 552.27 Z M 491.56 178.34 493.62 182.16 486.91 182.35 487.01 179.23 476.54 181.11 476.69 174.52 478.6 161.32 483.65 161.26 495.71 168.01 495.07 172.23 492.02 172.78 491.56 178.34 Z M 510.5 175.16 503.42 178.26 491.56 178.34 498.89 169.42 508.46 149.82 513.18 151.09 514.16 157.21 508.38 157.35 508.37 168.13 510.5 175.16 Z M 590.99 201.41 595.85 194.27 604.23 189.3 607.93 191.84 602.38 197.64 596.66 202.16 590.99 201.41 Z M 666 325.21 667.87 321.16 665.06 312.45 668.27 309.26 676.13 321.33 674.82 327.93 666 325.21 Z M 698.2 392.16 700.37 385.71 703.13 385.85 702.41 391.41 698.2 392.16 Z" fill-rule="evenodd" fill="rgba(0,0,0,0.1)" stroke="none"/>
<path d="M 656.77 513.94 656.66 513.09 657.11 506.96 659.71 493.98 660.44 483.44 664.21 472.43 664.39 465.22 668.68 466.3 671.69 469.59 671.65 469.71 671.01 471.61 669.82 475.15 669.75 475.36 668.47 479.2 667.16 483.11 664.42 491.25 664.06 492.34 663.59 493.75 663.26 494.72 662.71 496.36 662.12 498.13 661.39 500.29 660.88 501.82 660.78 502.09 660.35 503.39 659.5 505.93 658.89 507.75 658.84 507.86 656.77 513.94 Z M 696.85 996.03 693.82 996.05 692.69 1000.23 696.16 1001.77 690.25 1006.28 691.25 1011.48 694.22 1009.86 699.22 1010.21 700.5 1013.69 695.07 1014.28 690.02 1021.46 683.22 1018.89 677.49 1011.39 674.2 1009.76 674.18 1001.98 672.32 998.9 669.53 1007.95 666.3 1012.49 666.28 1012.49 661.24 1010.57 652.55 1007.28 652.5 1007.26 652.6 995.94 646.91 995.6 635.15 1000.55 627.41 997.35 627.44 997.74 627.4 997.72 621.59 995.5 619.88 994.84 615.56 993.2 613.28 992.32 620.02 984.18 615.42 982.31 615.39 979.73 609.15 979.12 605 981.56 599.53 980.77 600.69 976.55 605.03 971.7 608.5 974.61 616.09 976.79 627.29 977.06 634.83 956.65 636.23 947.38 633.36 936.93 631.65 915.31 637.08 912.65 636.89 908.18 631.15 908.38 627.62 905.78 621.11 910.58 621.21 902.03 617.56 902.07 618.84 894.76 624.85 890.34 627.23 886.32 621.72 882.24 619.71 876.01 626.9 872.91 624.03 866.95 615.73 868.42 605.6 865.61 603.06 861.35 607.37 860.12 617.72 860.44 620.73 856.76 616.34 853.07 605.91 852.59 600.01 853.95 597.19 856.94 592.32 857.2 583.84 861.54 584.85 868.44 589.65 868.62 591.6 875.07 585.51 875.67 578.07 873.68 576.61 860 577.39 850.49 580.2 846.08 581.15 839.8 584.59 835.47 589.41 833.47 590.95 828.92 597.91 827.7 602.55 824.34 604.8 830.39 598.71 831.15 599.56 835.99 602.56 839.94 607.85 839.24 621.81 839.95 624.93 841.88 625.08 828.49 623.1 824.67 629.67 823.03 630.13 812.86 632.4 813.05 639.41 801.57 640.09 794.33 638.44 788.38 632.26 774.83 626.49 780.67 614.06 788.27 611.86 781.93 623.22 781.88 623.37 778.73 610.27 778.83 610.56 774.58 607.06 774.47 601.58 780.33 596.5 780.19 594.98 777.8 601.46 774.1 601.47 766.7 590.29 762.31 584.11 761.21 584.48 766.3 579.31 767.65 577.32 762.85 573.5 764.16 560.05 764.71 558.53 765.51 558.22 776.69 564.16 778.04 566.07 784.34 565.65 791.18 560.44 790.44 556.3 788.17 553.42 794.04 546.59 789.88 541 788.76 538.73 793.74 533.76 791.83 533.3 786.21 525.29 781.63 519.86 775.76 519.16 771.5 526.29 771.99 529.67 768.37 530.94 759.66 526.38 758.21 527.13 754.74 525.06 750.27 531.53 750.03 536.77 747.33 537.07 737.21 543.6 733.46 543.75 727.79 547.75 724.01 547.03 719.31 550.97 713.12 555.83 720.24 555.85 707.47 559.73 706.42 557.5 698.31 551.86 698.31 548.57 695.54 543.84 694.28 536.79 697.99 533.02 689.57 535.11 687.13 544.91 683.35 543.27 679.66 537.65 677.47 534.37 673.19 529.98 663.69 527.09 664.78 524.63 668.97 521.94 669.41 522.05 668.8 522.38 667.1 522.39 667.08 524.79 667.14 526.64 663.31 526.65 658.43 532.56 658.84 535.5 655 532.34 652.28 529.47 646.85 533.25 636.27 537.45 632.83 537.08 627.13 536.56 627 536.57 626.98 536.78 626.39 536.9 626.05 536.91 626.03 536.94 625.94 536.96 625.9 537.07 625.59 537.13 625.43 537.52 624.33 538.06 622.81 538.54 621.49 538.77 620.85 538.82 620.67 538.98 620.2 539.16 619.66 539.78 617.72 540.18 616.46 542.22 610.11 542.63 608.83 542.74 608.47 543.57 605.91 544.4 603.32 544.49 603.03 544.73 602.27 545.26 600.64 545.36 600.31 545.44 600.05 545.54 599.74 545.84 598.82 545.93 598.55 546 598.32 546.05 598.14 546.45 596.91 547.55 593.51 548.21 591.44 548.83 589.5 548.96 589.09 549.71 586.71 550.03 583.7 550.42 580.08 548.77 580.23 548.04 583.13 549.79 583.57 549.25 586.7 546.52 585.93 545.6 584.98 544.95 585.54 544.18 586.44 540.44 585.84 540.26 587.14 539.42 587.03 538.66 586.95 538.54 587.91 538.36 589.16 536.99 588.92 535.76 588.78 534.56 591.55 535.92 582.75 541.69 583.17 541.75 579.34 551.37 579.34 557.28 575.66 557.04 571.57 552.57 571.64 552.72 565.1 557.12 565.07 557.23 559.86 560.01 557.19 564.59 556.3 567.23 550.25 595.96 550.73 601.69 546.28 602.34 550.83 620.98 551.14 626.06 559.64 631.34 557.56 635.16 554.17 651.09 531 650.69 532.2 650.68 532.22 649.36 536.17 647.36 542.1 646.79 543.82 646.54 544.55 646.32 545.22 646.11 545.83 650.55 549.67 662.5 559.71 665.97 562.64 666.89 563.74 667.95 564.64 668.69 565.25 676.19 571.55 676.34 571.32 681.72 575.83 681.6 576.08 680.6 578.21 679.61 580.25 678.46 582.67 676.66 585.47 675.3 586.48 671.32 589.18 671.19 589.27 670.8 589.53 670.67 589.62 670.38 589.82 669.79 590.22 666.94 592.55 662.84 600.93 660.49 604.41 658.59 606.9 657.86 607.83 657.44 608.38 656.87 609.11 656.8 609.21 656.62 609.44 656.26 609.89 656.23 609.92 656.09 610.1 656.07 610.12 656.02 610.19 656 610.21 655.93 610.28 655.91 610.32 655.89 610.33 654.52 611.81 653.98 612.38 653.54 612.85 653.41 612.97 651.88 614.2 649.88 615.44 649.75 615.51 649.45 615.67 649.43 615.69 649.34 615.74 649.31 615.75 649.23 615.79 649 615.92 648.92 615.96 648.34 616.3 646.33 617.91 645.31 618.94 643.82 619.86 639.91 621.06 637.79 621.71 636.75 622.03 636.2 622.19 633.58 622.55 631.03 622.68 628.84 621.95 628.03 621.71 627.66 621.59 625.92 621.04 623.18 620.23 619.24 619.06 618.11 618.7 616.37 618.05 614.25 617.18 611.89 616.23 608.67 614.98 606.79 614.28 604.01 613.56 600.68 613.21 598.67 614.38 597.03 616.92 596.18 617.74 595.72 618.11 594.29 619.2 594.01 619.35 593.86 619.41 594.48 624.86 594.62 625.99 594.63 626.11 594.65 626.32 594.67 626.69 594.69 627 594.83 628.42 594.93 629.32 594.95 629.55 595.23 632.54 595.76 637.32 596.62 644.99 597 646.92 598.34 649.4 602.59 654.17 605.12 657.57 610.14 663.74 611.29 665.15 611.71 665.05 614.63 664.77 617.26 664.6 619.93 664.05 621.86 663.09 623.84 661.99 625.35 661.21 628.32 660.7 631.81 659.95 632.85 659.75 633.69 659.78 634.44 660 638.49 662.4 642.34 663.08 643.28 667.06 643.29 667.12 643.34 667.33 644.54 669.57 644.27 671.24 645.15 675.05 647.02 676.85 647.38 679.3 648.3 680.55 648.63 682.52 651.32 684.51 652.52 684.77 653.9 685.74 655.58 687.93 657.73 688.69 658.94 689.74 659.5 689.3 661.23 690.82 663.49 690.56 664.91 690.88 665.07 691.03 667.46 692.18 671.23 691.45 670.47 696.21 668.16 698.08 663.89 699.8 663.18 698.08 659.85 699.47 657.94 699.12 655.81 698.87 654.87 700.6 654.32 700.98 653.56 698.28 655.5 697.75 655.47 696.67 655.99 696.68 656.14 696.67 656.23 696.64 656.26 696.63 656.33 696.59 656.39 696.54 656.49 696.45 656.55 696.35 656.59 696.23 656.61 696.13 656.66 694.85 656.65 694.79 656.62 694.7 656.57 694.58 656.51 694.5 656.44 694.43 656.39 694.39 656.24 694.33 656.18 694.31 656.11 694.3 655.48 694.29 655.5 694.53 655.55 695.09 655.57 695.27 655.58 695.3 655.58 695.51 653.87 695.45 653.2 696.63 651.24 696.59 651.34 691.7 650.17 691.53 647.52 691.69 643.72 693.48 643.94 694.09 644.29 696.03 644.89 697.39 645.56 698.19 647.08 699.1 649.65 699.71 650.7 700.09 652.09 700.93 652.95 701.94 654.29 704.85 654.38 705.09 654.5 705.38 654.63 705.71 654.98 706.32 655.21 706.7 655.68 707.25 655.99 707.53 656.36 707.87 656.92 708.39 657.27 708.69 660.86 711.94 660.71 712.12 659.98 712.78 660.75 714.77 661.86 715.59 665.04 715.75 665.42 714.33 670.07 715.21 672.51 715.2 677.19 715.23 679.54 714.88 681.21 714.51 684.96 713.92 688.63 712.31 691.79 711.49 695.09 712.04 698.61 711.23 700.35 710.83 700.67 715.54 700.51 719.28 700.53 720.9 701.18 726.46 702.64 731.6 702.7 731.85 703.26 733.85 704.06 736.03 704.17 737.46 704.11 740.39 704.85 742.33 705.73 744.54 706.74 747.24 706.81 747.44 707.69 749.96 707.48 752.66 707.44 752.8 709.72 753.29 711.85 754.25 716.84 755.09 718.61 756.14 720.14 756.83 721.67 756.83 724.66 756.82 726.41 756.2 727.39 757.72 729.06 758.55 729.2 758.57 729.62 758.6 729.76 758.61 729.78 758.62 729.86 758.62 729.88 758.62 730.02 758.63 730.43 758.66 730.46 758.66 730.57 758.67 730.62 758.67 730.77 758.68 731.39 758.7 731.59 758.71 734.08 758.75 736.14 758.8 740.37 760 738.86 764.76 737.51 767.48 735 772.18 733.7 773.34 732.3 775.86 729.85 777.36 728.5 778.87 726.63 781.87 725.2 785.19 721.94 786.42 720.43 787.65 719.24 789.9 718.15 795.03 716.36 799.37 713.57 802.28 713.45 802.44 713.33 802.6 707.56 807.97 706.88 808.53 704.94 810.26 704.36 810.77 703.97 811.1 701.47 813.07 701.13 813.42 701.69 815.67 701.5 821.24 702.81 826.04 703.66 829.09 703.95 830.14 704.75 833.05 705.31 838.38 705.64 839.98 706.34 844.96 706.79 849.01 700.87 848.53 699.56 848.45 697.44 848.72 691.84 850.3 690.19 850.68 688.66 850.57 687.15 850.39 686.58 849.6 685.35 847.89 682.18 843.43 679.78 847.1 679.71 847.19 677.31 850.59 675.66 852.28 672.54 854.52 671.45 856.08 668.7 858.26 665.56 859.1 664.71 859.27 663.87 859.44 661.38 859.93 660.76 860.06 659.5 860.31 657.67 860.69 657.13 860.8 656.93 860.84 656.33 860.96 656.13 861.01 654.39 861.34 653.08 861.58 651.86 861.62 653.05 864.17 653.16 864.3 653.35 864.52 653.92 865.3 654.53 866.21 655.92 868.24 657.85 870.95 660.78 873.13 661.88 873.76 664.77 874.75 666.71 875.15 667.5 875.32 667.91 875.41 668.47 875.53 669.11 875.66 669.76 875.8 673.47 877.14 675.01 877.94 675.68 878.29 677.97 879.7 677.17 880.31 677.53 880.88 677.07 881.82 674.96 884.17 673.35 884.3 673.28 885.49 672.36 888.51 673.18 890.01 672.02 893.43 671.88 896.76 669.54 903.86 668.59 905.13 667.66 908.36 665.02 909.24 660.96 909.64 659.79 910.34 663.52 915.95 665.45 917.87 666.71 919.04 666.74 919.07 666.83 919.16 666.87 919.19 667.06 919.38 667.36 919.66 667.65 919.93 667.85 920.11 668.02 920.27 668.3 920.53 669.34 921.5 669.64 921.79 669.87 921.99 670.09 922.21 670.3 922.41 670.46 922.58 670.64 922.77 670.65 922.79 670.89 923.11 671.01 923.29 671.14 923.49 671.26 923.71 671.39 923.97 671.55 924.38 671.8 925.08 672.1 925.9 674.71 932.29 675.55 934.53 676.11 935.91 677.07 938.16 677.52 939.2 678.59 941.78 679.72 943.17 682.61 946.6 685.35 949.83 686.89 951.1 688.1 951.97 688.98 952.57 691.08 952.77 696 953 698.32 953.01 698.65 953.21 699.1 953.64 688.95 954.14 687.57 954.15 686.15 954.18 683.8 954.76 682.19 956.2 681.02 958.19 681.02 958.21 680.81 959.58 680.81 961.22 680.85 962.51 680.91 964.58 682.74 964.59 684.25 964.59 684.23 966.85 684.35 968 686.04 970.52 686.92 971.82 688.05 973.52 689.87 976.77 691.6 979.27 692.28 980.65 693.15 983.13 693.73 984.14 694.47 985.4 695.03 986.36 695.71 987.51 696.94 989.77 697.4 991.38 697.46 992.1 696.85 996.03 Z M 605.16 942.81 603.94 946.47 604.81 957.12 598.67 952 595.12 946.45 593.6 937.03 586.78 942.66 592.13 929.84 601.23 921.96 604.09 928.42 610.26 922.37 616.81 924.53 617.91 927.01 613.2 936.04 609.12 936.94 605.16 942.81 Z M 607.64 896.27 604.16 896.89 597.37 900.89 600.92 905.3 600.79 916.07 598.31 918.99 590.25 918.84 590.13 921.86 583.89 923.13 583.89 918.34 577.89 915.73 572.28 919.17 572.44 912.05 584.7 911.49 584.96 906.43 588.23 903.18 588.39 893.13 586.72 886.79 592.29 882.52 597.31 882.89 604.7 877.49 609.09 879.09 615.94 879.39 612.77 886.4 618.58 886.72 618.38 894.84 607.64 896.27 Z M 563.86 906.3 564.03 900.88 570.65 901.21 571.14 906.95 563.86 906.3 Z M 527.84 624.83 525.73 612.11 527.99 622.63 527.84 624.83 Z M 526.1 609.87 526.45 607.79 527.82 610.67 527.65 612.33 526.43 609.87 526.1 609.87 Z M 689.63 466.77 689.03 458.64 686.35 454.94 685.59 445.34 687.85 443.73 694.59 443.79 700.21 447.72 705.59 450 710.7 454.14 708.62 464.87 717.86 465.47 720.84 461.8 725.6 465.23 731.62 456.88 731.9 454 740.96 452.27 748.63 449.27 748.95 453.48 748.43 453.48 747.2 453.47 746.93 453.52 746.71 453.56 746.23 453.64 745.75 453.7 744.93 453.72 744.38 453.86 743.85 454.25 743.73 454.28 743.52 454.32 740.79 454.04 740.42 454.1 738.96 455.36 738.9 455.46 738.59 455.96 738.21 456.51 737.23 458.69 734.5 463.45 734 464.76 731.47 468.26 729.91 470.7 729.38 471.58 729.36 471.61 729.26 472.03 729.22 472.23 729.18 472.43 729.03 473.12 728.98 473.28 728.89 473.7 728.76 474.25 728.49 475.44 728.39 475.92 728.28 476.2 723.85 475.12 722.13 474.7 722.02 474.67 712.85 472.43 708.97 471.49 705.51 470.65 702.92 470.02 702.29 469.86 701.7 469.72 696.8 468.52 689.63 466.77 Z M 774.03 419.12 772.45 413.77 766.4 417.13 765.11 411.96 770.88 409.3 776.12 414.39 778.19 413.41 776.97 415.08 776.55 415.65 776.43 415.83 775.52 417.08 774.03 419.12 Z M 782.42 402.2 782.44 402.14 788.45 379.66 784.59 394.13 782.44 402.17 782.42 402.2 Z M 705.92 1027.46 706.65 1023.59 706.66 1023.6 707.99 1025.59 708.88 1028.41 708.94 1028.62 706.05 1027.51 705.92 1027.46 Z M 568.74 769.69 567.42 774.57 562.12 771.51 561.88 764.94 568.68 764.74 568.74 769.69 Z M 503.32 742.28 509.59 736.26 513.95 738.42 513.46 746.62 505.91 746.24 503.32 742.28 Z M 523.46 699.85 524.94 702.2 519.52 705.59 516.45 702.93 523.46 699.85 Z M 526.1 603.05 524.66 602.26 524.79 602.26 526.1 603.05 Z" fill-rule="evenodd" fill="rgba(0,0,0,0.1)" stroke="none"/>
<path d="M 133.41 196.95 137.87 201.11 143.53 197.3 147.8 202.47 154.83 207.65 161.59 208.81 164 207.38 168.77 209.15 169.59 216.24 178.29 214.81 180.74 228.48 185.9 230.69 201.92 235.62 214.36 237.62 213.62 224.26 224.5 226.17 228.77 232.47 235.28 233.85 235.74 238.42 241.39 238.35 242.3 230.2 246.86 229.05 249.95 230.49 257.08 227.79 258.99 230.55 255.21 235.28 255.08 239.74 248.18 240.85 232.69 241.66 225.08 243.8 212.83 238.94 165.67 232.16 158.96 229.26 159.73 235.19 155.39 237.49 152.62 243.36 141.42 244.47 135.32 246.08 137.22 256.15 139.12 261.27 132.56 266.84 130.81 266.59 131.33 265.28 131.37 265.2 131.41 265.09 131.46 264.98 131.49 264.87 131.51 264.75 131.53 264.64 131.54 264.54 131.55 264.3 131.58 263.85 131.6 263.41 131.61 263.36 131.61 263.32 131.76 261.97 132.11 261.45 132.89 256.23 131.92 256.23 132.12 254.75 132 253.51 131.65 253.18 132.05 252.58 132.1 252.57 132.12 252.56 132.15 252.56 132.17 252.56 132.28 252.55 132.26 252.38 132.25 252.18 132.24 252.07 132.3 252.06 132.3 252.05 132.28 252 132.23 251.8 132.16 251.54 132.14 251.46 132.12 251.36 132.05 251.06 131.98 250.8 132.07 250.79 132.1 250.65 132.17 250.29 132.19 250.23 132.27 250.13 132.33 250.06 132.35 249.98 132.43 249.59 132.35 249.57 132.28 249.56 132.28 249.39 132.32 247.68 132.33 247.37 132.34 247.07 132.35 246.62 132.94 246.28 133.04 242.87 133.19 237.66 132.56 237.65 132.71 231.44 132.76 229.24 132.81 227.21 132.86 224.95 132.89 223.74 132.93 221.96 132.94 221.83 132.94 221.55 132.95 221.28 132.95 220.95 132.97 220.41 132.97 220.28 132.99 219.64 132.99 219.35 133 219.03 133.02 217.84 133.02 217.71 133.91 217.47 133.95 214.99 134.06 212.39 133.88 207.59 133.88 207.5 133.88 206.9 134.15 206.99 134.18 206.62 134.18 206.61 134.11 206.56 134.04 206.54 133.99 206.53 133.98 206.53 133.81 206.48 133.52 206.35 133.37 206.29 133.36 206.23 133.35 206.08 135.02 205.19 134.46 204.52 133.98 203.89 133.9 200.16 133.37 199.2 133.39 197.89 133.41 196.95 Z M 134.08 161.14 139.27 159.42 139.23 164.1 134.01 164.94 134.02 164.24 134.06 162.5 134.08 161.2 134.08 161.14 Z" fill-rule="evenodd" fill="rgba(0,0,0,0.1)" stroke="none"/>
<path d="M 359.14 287.5 355.55 282.79 348.56 280.12 347.76 285.4 343.71 294 341.15 292.73 337.81 295.4 340.15 299.81 344.34 302.13 346 311.76 334.59 311.68 331.53 306.8 326.36 303.23 324.75 296.17 323 293.93 310.33 294.2 308.56 290.21 309.19 283.95 299.55 281.85 297.81 279.33 288.46 280.74 285.07 273.96 286.27 270.31 290.18 268.76 292.4 270.52 308.87 270.65 305.83 260.75 305.29 254.22 293.74 258.07 297.26 245.93 297.56 239.27 291.5 236.03 293.17 233.16 301.9 230.94 302.97 222.11 307.53 213.84 310.56 224.15 317.05 224.87 314.34 210.04 321.68 210.62 324.95 213.25 327.46 211.98 343.95 214.62 358.89 218.1 365.21 217.55 366.67 219.31 365.97 228.67 358.7 233 358.45 245.72 351.89 252.38 347.08 253.47 346.74 259.17 358.91 258.44 357.86 267.62 378.51 273.65 378.64 280.36 377.14 283.76 362.58 277.99 358.29 284.43 365.26 293.06 377.13 293.19 377.11 300.62 371.85 300.44 363.71 293 359.14 287.5 Z" fill="rgba(0,0,0,0.1)" stroke="none"/>
</g>
</svg>