<?xml version="1.0"?>
<svg xmlns="http://www.w3.org/2000/svg" version="1.2" baseProfile="tiny" width="800" height="744" viewBox="0 0 800 744" stroke-linecap="round" stroke-linejoin="round">
<g id="district">
<path d="M 1 739.72 1.93 735.15 2.2 733.85 2.43 732.68 3.59 726.99 3.69 726.5 4.15 724.25 5.04 719.88 5.04 719.86 6.39 713.25 8.09 704.88 8.24 704.16 9.67 697.08 10.07 695.13 10.46 693.21 10.48 693.11 11.12 689.97 11.73 687.05 12.43 683.64 12.51 683.27 13.61 677.93 13.62 677.89 13.62 677.87 13.63 677.86 13.64 677.81 14.26 674.82 15.07 670.85 15.66 667.94 16.83 662.13 17.09 660.83 17.66 658.04 17.97 656.47 18.17 655.49 18.7 652.87 19.38 649.5 20.03 646.3 20.24 645.22 20.77 642.6 21.94 636.83 22.19 635.61 22.59 633.61 22.8 632.58 23.33 629.96 23.65 628.41 24.37 624.86 24.97 621.85 25.25 620.5 25.49 619.3 25.71 618.22 28.56 604.29 29.17 601.35 29.45 600 29.94 597.6 30.76 593.69 31.23 591.36 32.94 583.13 33.37 581.02 34.17 576.97 34.18 576.92 34.74 574.14 35.49 570.44 35.5 570.41 35.5 570.37 36.11 567.4 37.81 559.02 38.12 557.46 39.02 553.05 39.19 552.23 40.49 545.93 41.26 542.22 41.85 539.79 42.28 538 42.3 537.93 42.35 537.73 42.72 536.15 42.78 535.9 42.8 535.86 42.84 535.67 43.5 532.93 43.55 532.74 43.97 530.97 44.09 530.49 44.17 530.16 44.27 529.71 44.34 529.45 44.43 529.05 44.52 528.67 44.88 527.2 45.02 526.62 45.66 524.22 45.69 524.1 46.58 524.46 47.82 525.23 50.77 526.58 51.79 526.88 53.41 526.75 55.04 527.3 55.96 527.46 56.55 527.33 57.15 526.84 57.26 525.93 56.85 525.12 56.74 524.5 56.82 524.21 57.68 523.51 59.12 523.76 60.08 524.2 61.21 524.38 61.8 524.25 63.04 523.62 63.64 522.72 63.46 521.97 62.76 521.17 62.07 520.93 60.7 520.67 60.42 520.19 60.75 519.67 61.38 519.52 62.18 519.71 63.58 520.24 64.63 520.79 65.14 521.33 65.23 521.89 64.93 523.28 65.12 523.83 66.02 524.88 66.83 525.58 68.8 526.95 70.26 527.46 71.98 527.66 74.15 528.65 74.82 529.12 76.49 530.85 78.04 531.89 78.28 531.94 79.2 532.57 79.85 533.23 80.74 534.69 82.06 536.51 82.44 537.19 83.52 539.52 83.94 539.98 84.43 540.21 85.36 540.02 86.63 538.14 87.92 536.76 89.02 536.24 90.92 536.46 91.65 536.3 92.12 535.91 92.45 535.07 92.2 534.1 91.62 533.49 90.36 532.5 88.45 531.11 87.05 529.73 84.74 528.21 84.03 527.52 83.77 526.8 83.91 526.25 84.7 525.11 85.14 523.98 85.04 523.17 84.63 522.2 82.68 519.96 81.79 518.68 81.38 517.54 81.33 517.01 81.6 516.27 82.26 515.52 83.19 515.08 84.79 514.84 86.04 515.03 87.43 515.59 89.22 516.39 92.4 517.48 94.07 518.6 95.23 518.88 97.49 518.9 98.12 518.78 98.79 517.46 98.94 517.18 99.66 515.78 99.85 515.42 101.48 512.22 101.89 511.42 102.59 510.03 103.05 509.14 103.46 508.32 104.84 505.61 105.33 504.63 108.83 497.72 112.66 490.13 113.43 488.56 113.45 488.52 113.47 488.49 113.69 488.05 116.6 482.45 118.05 479.6 119.64 476.34 121.25 473.27 124.68 466.53 128.37 459.03 130.82 454.15 132.46 450.87 132.98 449.81 134.86 445.85 137.73 440.32 137.75 440.28 137.47 439.95 136.93 439.47 136.37 439.05 135.69 438.73 135.24 438.48 134.99 438.39 134.53 438.24 133.73 437.85 133.42 437.73 132.49 437.52 132.03 437.51 131.67 437.38 131.38 437.14 131.33 437.15 131.17 437.03 130.93 436.99 130.55 437.03 130.23 436.96 129.58 436.68 129.34 436.64 128.8 436.67 128.27 436.89 127.89 436.94 127.73 436.89 127.31 436.69 126.57 436.33 126.33 436.16 125.47 435.47 125.17 435.17 124.58 434.76 124.25 434.61 123.39 434.14 122.89 433.89 122.08 433.31 121.77 432.96 121.28 432.6 120.64 431.99 119.63 431.04 119.03 430.82 118.95 430.73 118.55 430.53 118.06 430.18 117.42 429.74 116.87 429.11 116.04 428.29 114.99 427.37 114.65 426.94 114.69 426.94 114.37 426.22 114.1 425.97 113.77 425.81 113.39 425.55 113.16 425.35 112.89 425.07 112.45 424.7 112.14 424.27 112.13 424.13 111.78 423.57 111.5 423.34 111.34 423.17 111.22 422.94 111.15 422.58 111.21 421.8 111.23 421.55 111.35 421.06 111.38 421.01 111.47 420.97 111.63 420.96 111.93 421.04 112.02 421.09 112.17 421.25 112.24 421.29 112.47 421.25 112.56 421.19 112.61 421.08 112.58 420.99 112.29 420.53 112.21 420.33 112.25 420.04 112.31 419.83 112.38 419.7 112.43 419.66 112.51 419.64 112.65 419.65 113.25 419.82 113.43 419.84 113.76 419.84 113.92 419.79 113.98 419.74 114.03 419.66 114.01 419.58 113.93 419.47 113.87 419.25 113.68 419.02 113.64 418.9 113.56 418.71 113.57 418.59 113.61 418.48 113.7 418.36 113.8 418.29 113.98 418.26 114.16 418.31 114.47 418.57 114.76 418.88 114.93 419.02 115.19 419.19 115.4 419.23 115.61 419.24 115.78 419.22 115.98 419.14 116.17 419.04 116.54 418.72 116.62 418.62 116.69 418.48 116.7 418.3 116.59 418.17 116.36 417.97 115.73 417.53 115.48 417.42 115.05 417.28 114.88 417.24 114.65 417.23 114.56 417.21 114.48 417.16 114.13 416.8 114.04 416.65 113.98 416.46 113.96 416.34 113.97 416.07 113.98 415.87 114.07 415.36 114.14 415.06 114.21 414.9 114.35 414.68 114.56 414.44 114.59 414.31 114.49 414.17 114.24 414.04 114.14 413.97 113.98 413.8 113.84 413.61 113.77 413.45 113.74 413.35 113.72 412.98 113.69 412.91 113.58 412.78 113.56 412.73 113.57 412.62 113.62 412.48 113.75 412.34 114.09 412.16 114.72 411.86 115.32 411.54 115.38 411.49 115.42 411.43 115.42 411.35 115.4 411.25 115.22 410.96 114.94 410.64 114.48 410.24 114.45 410.19 114.43 410.1 114.47 410.03 114.55 409.99 115.39 409.85 115.64 409.85 115.74 409.88 115.9 409.98 115.96 409.99 116.02 409.97 116.07 409.9 116.1 409.82 116.13 409.73 116.2 409.18 116.17 408.95 116.25 408.91 116.34 408.92 116.51 409.02 116.65 409.04 116.7 409.08 116.73 409.17 116.66 409.44 116.69 409.5 116.78 409.5 116.93 409.45 116.98 409.4 117 409.28 117.01 409.13 116.98 409.02 116.92 408.92 116.77 408.75 116.61 408.54 116.26 407.97 115.97 407.57 115.88 407.48 115.62 407.29 115.48 407.14 115.3 406.89 115.09 406.54 114.94 406.39 114.67 405.99 114.36 405.63 114.26 405.46 114.22 405.33 114.24 405.1 114.27 405.02 114.35 404.93 114.42 404.92 114.57 404.98 114.74 405.11 114.9 405.29 115.17 405.56 115.26 405.68 115.33 405.92 115.44 406.16 115.44 406.35 115.47 406.44 115.61 406.5 116 406.6 116.22 406.57 116.27 406.54 116.29 406.5 116.28 406.41 116.23 406.31 116.01 406.04 115.85 405.91 115.75 405.76 115.69 405.6 115.49 405.46 115.19 405.09 114.99 404.76 114.95 404.51 114.82 404.22 114.76 404.15 114.47 403.93 114.41 403.86 114.38 403.78 114.38 403.69 114.42 403.58 114.64 403.27 114.72 403.12 114.85 402.7 114.93 402.66 115.42 402.27 115.63 402.15 115.98 401.27 115.91 400.61 116.2 400.41 116.63 400.74 117.08 400.27 117.49 400.24 117.8 399.85 118.01 398.97 117.7 397.97 118.09 397.85 118.55 398.75 119.38 399.04 119.39 398.61 120.39 398 120.68 398.09 121.24 398.26 121.9 398.92 122.04 399.37 122.35 399.43 122.39 398.78 122.99 397.52 123.32 397.58 123.31 398.26 123.67 398.75 124.16 399 124.42 398.81 124.22 398.3 124.12 397 124.51 396.89 124.88 397.81 125.35 398.4 126 398.17 125.31 397.28 126.17 397.21 126.33 396.96 125.74 396.19 125.69 395.16 126.3 395.05 127.42 395.26 127.79 395.91 128.48 395.9 128.98 395.13 129.31 395.38 129.56 395.82 130.17 396.11 130.99 395.36 131.5 395.22 131.37 394.24 132.23 394.47 132.57 394.17 132.27 393.91 132.49 393.46 132.41 393.06 133.49 393.14 133.87 393.14 133.48 392.79 133.48 391.99 133.03 391.01 133.42 391 133.97 391.49 134.8 391.92 135.63 392.17 136.57 391.16 136.72 390.8 137.73 390.91 138.19 390.32 137.62 389.69 137.82 389.23 138.21 389.28 138.8 389.9 139.61 389.68 138.86 389.04 139.58 388.35 139.62 387.63 138.99 386.61 139.15 386.22 140.65 386.76 140.94 386.48 140.87 386 141.19 385.17 141.59 384.84 141.81 383.73 141.4 383.15 142.1 382.47 142.19 381.94 142.64 381.46 142.31 381.03 141.83 381.24 141.52 381.35 141.07 381.06 140.98 380.69 141.25 380.18 140.36 379.21 138.9 379.94 138.55 380.22 138.17 379.82 138.45 379.57 138.04 378.93 137.66 378.87 137 379.15 136.89 379.61 136.72 379.2 136.21 379.34 136.41 378.84 136.08 378.57 136.18 378.17 135.95 377.77 135.85 377.05 135.32 377.67 135.26 377.28 134.84 376.82 134.37 376.79 134.24 376.48 133.74 376.55 133.52 376.86 132.52 377.18 132.05 376.73 131.9 376.35 132.12 375.9 131.87 375.28 132.24 374.27 131.95 373.49 131.26 373.5 131.01 373.1 130.16 373.19 130.01 372.67 129.48 372.76 129.17 372.17 129.08 371.24 128.79 371.03 129.25 370.7 129.25 370.07 128.88 368.79 128.94 368.35 128.51 368.17 128.22 367.4 129.08 366.64 129.35 365.81 129.68 365.66 130.35 365.75 130.87 366.27 131.29 365.78 131.24 365.15 130.9 363.99 131.13 363.03 130.95 363.06 130.75 362.88 129.91 362.99 129.06 363.17 128.1 362.86 127.33 363.12 125.75 359.93 125.18 358.86 124.57 357.04 124.38 354.77 124.01 352.79 123.31 350.98 122.5 350 122.13 348.86 122.35 348.48 121.5 348.97 121.04 349.07 120.58 348.8 119.87 349.62 119.3 349.42 118.71 349.61 117.55 349.45 117.68 348.46 116.6 347.81 116.91 347.59 116.66 347.29 114.96 347 114.62 345.95 114.83 344.99 115.2 344.29 116.45 343.82 116.93 343.5 117.16 343.09 117.16 341.69 117.04 341.19 117.12 339.99 117.9 340.18 118.33 339.88 118.86 340.65 119.43 339.8 119.55 339.09 119.88 338.74 120.44 338.88 120.6 338.22 120.97 338.36 121.25 337.92 121.98 337.94 122.18 337.43 122.69 337.64 122.78 337.26 123.26 337.02 123.54 335.72 123.86 335.54 124.97 336.03 125.14 335.53 125.47 335.3 126.52 335.04 126.9 334.58 128.94 334.32 129.24 334.07 129.92 334.05 129.97 334.76 130.43 334.82 131.55 335.78 131.65 336.5 132.16 336.58 132.57 336.17 132.77 335.63 133.34 335.76 134.03 335.45 134.29 335.64 134.22 336.13 134.91 336.17 135.19 336.54 135.71 336.71 135.66 337.52 136.13 337.64 135.91 338.2 136.63 338 136.85 337.61 137.88 336.77 138.4 336.58 139.37 335.96 139.76 334.99 140.1 334.62 141.01 334.14 141.46 333.7 141.69 334.15 142.58 333.66 144.33 332.92 145.21 332.06 145.87 331.04 146.6 330.6 147.06 330.64 147.43 330.14 146.8 329.13 146.97 327.91 147.47 327.51 148.17 327.78 148.72 327.76 148.98 327.27 150.3 327.99 150.5 328.54 150.5 328.62 150.85 328.02 149.96 327.62 148.97 326.73 147.86 325.33 147.28 324.83 147.33 324.76 146.69 324.35 145.34 323.8 144.61 323.24 143.62 322.88 139.86 322.28 137.69 321.4 136.24 320.63 134.95 319.75 133.6 318.27 133.75 318.14 132.94 317.16 132.54 316.58 132.2 316.03 131.99 315.6 131.76 315.21 131.47 314.55 131.19 313.44 131.05 313.14 129.92 311.42 129.38 310.69 129.18 310.44 128.6 309.73 128 308.88 127.06 307.18 126.68 306.32 126.4 305.56 126.29 305.06 126.29 304.76 126.35 304.18 126.32 303.25 126.32 303.14 126.45 302.63 126.42 302.2 126.23 301.42 125.78 300.4 125.55 300.11 125.41 299.64 125.37 299.39 125.6 298.74 125.61 298.11 125.55 297.8 125.39 297.42 125.15 297.02 124.67 296.36 124.52 295.85 124.52 295.6 124.42 295.35 123.84 294.73 123.53 294.28 123.33 293.86 123.06 293.35 122.32 292.5 122.07 292.18 121.91 291.91 121.84 291.59 121.82 291.28 122.04 288.37 121.72 287.67 121.67 287.61 120.7 286.35 120.29 286.06 118.91 285.89 118.31 285.79 117.82 285.64 117.3 285.34 116.85 284.93 116.34 284.36 116.07 283.78 115.92 283.2 115.71 282.66 115.39 282.01 115.15 281.66 114.01 280.82 113.74 280.58 113.34 280.48 112.91 280.46 112.36 280.46 111.93 280.6 111.63 280.75 111.42 280.76 111.33 280.67 110.88 280.66 110.26 280.8 109.66 281.07 109.33 281.47 109.03 281.6 108.48 282.1 107.49 283.06 107.26 283.21 106.95 283.3 106.64 283.31 106.4 283.21 105.42 283.09 105.31 282.95 105.14 282.84 104.99 282.84 104.83 282.98 104.57 282.95 104.18 282.64 103.5 282.3 103.21 281.98 102.94 281.62 102.88 281.33 102.93 281.05 103.04 280.75 103.21 280.12 103.33 279.22 103.4 278.57 103.24 277.94 102.81 276.85 102.64 276.35 102.91 276.4 103.1 276.44 104.17 276.65 105.43 276.89 106.27 277.06 106.82 275.92 107.52 274.97 108.63 272.69 109.26 272.33 110.69 272.58 111.99 272.45 113.13 272.23 113.9 272.71 114.84 272.59 115.69 271.68 116.98 271.1 117.91 270.22 118.23 269.43 119.82 268.34 121 266.82 121.77 266.05 122.2 265.44 122.73 265.11 123.97 264.6 125.7 264.67 127.29 264.22 127.63 263.57 128.92 262.33 129.03 261.71 129.56 261.18 129.86 260.56 129.75 259.88 130.95 259.35 131.7 259.21 132.88 258.72 133.68 258.12 134.33 257.83 134.45 257.43 134.22 256.29 134.4 255.32 134.9 254.64 135.08 254.13 134.97 253.63 135.57 253.06 135.65 252.76 135.4 251.98 135.45 251.28 135.78 250.81 136 250.07 136.8 249.8 137.17 249.88 137.4 249.45 137.24 249.03 137.3 248.6 138 247.74 138.75 247.09 138.82 246.74 139.77 246.04 139.91 245.85 140.38 245.35 141.29 244.93 141.48 244.69 141.52 244.63 141.57 244.58 141.62 244.54 141.66 244.53 141.7 244.52 141.74 244.51 141.81 244.48 142.33 243.97 143.11 242.3 143.19 240.85 144.08 239.79 144.31 239.46 144.39 238.75 144.78 238.13 144.31 237.33 144.34 236.23 143.85 235.31 144.09 234.53 144.69 233.51 145.47 233.41 145.88 233.29 146.04 232.84 145.66 231.96 145.62 231.9 145.6 231.84 145.59 231.83 145.59 231.79 145.59 231.76 145.6 231.73 145.62 231.71 145.64 231.69 145.68 231.68 145.7 231.68 145.73 231.67 145.76 231.66 145.77 231.66 145.78 231.65 145.81 231.64 145.83 231.63 145.87 231.62 145.9 231.61 145.93 231.6 145.94 231.6 145.97 231.58 145.99 231.55 146.02 231.51 146.03 231.48 146.04 231.43 146.04 231.39 146.04 231.36 146.04 231.32 146.03 231.28 146.02 231.24 146 231.2 146 231.18 146.05 230.59 146.68 229.97 146.87 229.42 147.54 229.22 148.43 228.4 148.21 227.53 147.78 226.49 147.25 226.11 147.64 225.81 148.31 225.21 148.81 224.26 148.94 223.75 149.14 223.28 149.29 223.04 149.68 222.71 150.31 220.96 150.8 219.27 151.16 218.67 151.73 218.03 151.79 217.96 151.85 217.89 151.87 217.86 151.91 217.82 151.96 217.78 152.01 217.73 152.05 217.68 152.09 217.63 152.11 217.61 152.12 217.59 152.14 217.56 152.16 217.51 152.18 217.47 152.19 217.42 152.21 217.38 152.22 217.33 152.23 217.3 152.24 217.25 152.25 217.2 152.3 217.08 153.03 215.77 153.28 214.98 153.76 214.18 153.87 213.44 154.58 212.99 156.32 211 157.34 209.61 157.66 208.98 158.07 208.09 159.33 206.13 159.92 204.15 160.08 203.89 160.48 203.29 161.03 202.09 162.48 200.16 163.37 201.18 163.76 201.62 164.08 201.04 164.52 200.74 165.5 200.73 166.02 199.49 166.63 199.11 166.89 198.39 167.69 197.39 168.47 196.26 169.03 195.55 169.72 195.26 170.2 194.65 171.41 194.32 172.27 193.34 172.77 193 173.05 192.63 173.9 192.27 175 192.68 174.9 193.04 174.69 193.52 174.8 193.91 175.62 194.36 175.67 194.57 176.31 194.61 176.74 194.86 177.33 195.8 177.34 196.57 177.57 196.85 178.6 197.2 179.09 197.45 178.64 198 178.47 198.65 178.63 199.71 179.27 200.21 179.85 200.31 180.33 200.64 180.56 201.5 181.03 201.98 181.42 202.7 182.11 202.72 182.58 202.48 183.13 202.96 183.91 202.64 184.51 202.83 184.78 203.18 185.25 203.16 185.91 202.72 186.1 202.06 186.83 201.57 187.32 201.04 188.17 200.56 188.8 200.58 189.54 200.22 191.23 200.16 191.78 199.43 192.63 198.98 193.65 198.58 194.61 197.98 194.69 197.63 194.23 196.78 194.62 195.73 195.72 194.78 196.06 194.22 196.16 193.21 196.77 192.52 196.65 192.03 196.98 191.08 197.86 190.92 198.65 189.93 199.09 189.66 198.93 188.97 198.38 188.51 198.95 187.48 199.23 187.33 198.64 186.81 198.43 186.59 198.97 186.36 199.46 185.61 199.34 185.01 199.54 184.64 200.31 184.05 200.13 183.15 199.39 182.68 199.16 182.13 198.84 181.72 198.94 181.34 199.43 181.02 199.53 180.3 199.82 179.55 200.37 179.21 200.88 178.4 200.76 177.94 201.02 176.94 201.86 176.44 202.44 175.53 202.46 175.47 202.48 175.43 202.5 175.38 202.53 175.34 202.57 175.3 202.61 175.27 202.67 175.22 202.73 175.16 202.78 175.11 202.83 175.06 202.89 175.01 202.94 174.96 202.99 174.91 203.03 174.85 203.08 174.79 203.15 174.75 203.19 174.75 203.23 174.74 203.51 174.63 203.88 174.03 203.91 173.69 203.65 173.35 203.89 172.97 204.05 172.47 203.84 172.15 202.78 171.43 202.75 171.42 202.72 171.42 202.69 171.41 202.66 171.4 202.63 171.38 202.6 171.37 202.55 171.35 202.51 171.33 202.47 171.29 202.45 171.26 202.43 171.23 202.42 171.2 202.4 171.16 202.38 171.11 202.36 171.08 202.34 171.03 202.33 170.98 202.31 170.9 202.31 170.88 202.19 170.44 202.01 170.05 201.82 169.87 201.51 169.75 201.51 169.51 201.76 169.15 202.64 168.3 202.79 168.25 202.82 168.24 202.88 168.24 202.94 168.25 202.95 168.25 202.99 168.23 203.04 168.2 203.07 168.17 203.08 168.16 203.12 168.11 203.15 168.06 203.17 168 203.19 167.92 203.2 167.87 203.21 167.82 203.21 167.77 203.2 167.73 203.18 167.69 203.17 167.66 203.15 167.61 203.07 167.46 202.66 166.97 202.71 166.88 203.02 166.69 203.22 166.52 203.29 166.06 203.3 166.04 203.31 166 203.3 165.96 203.29 165.93 203.28 165.91 203.27 165.89 203.24 165.87 203.22 165.84 203.2 165.81 203.2 165.77 203.21 165.75 203.22 165.72 203.25 165.68 203.19 165.63 203.14 165.58 203.11 165.55 203.08 165.52 203.05 165.48 203.01 165.44 202.98 165.41 202.95 165.38 202.92 165.36 202.89 165.33 202.86 165.31 202.83 165.3 202.8 165.3 202.77 165.31 202.73 165.32 202.69 165.33 202.66 165.32 202.61 165.32 202.6 165.31 202.58 165.31 202.55 165.3 202.52 165.27 202.49 165.25 202.47 165.23 202.44 165.22 202.41 165.2 202.36 165.19 202.3 165.17 202.26 165.16 202.21 165.14 202.15 165.13 202.08 165.12 202.03 165.11 202 165.11 201.96 165.09 201.91 165.08 201.89 165.07 201.87 165.07 201.84 165.05 201.81 165.02 201.78 164.99 201.78 164.96 201.78 164.91 201.43 164.13 201.56 163.45 201.18 163.13 201.61 161.63 201.52 161.07 201.49 161 199.56 158.84 200.47 158.63 201.88 158.15 202.47 159.19 202.95 159.21 202.94 159.62 203.47 159.78 204.75 158.96 205.69 158.74 206.38 158.72 206.97 158.23 207.57 158.1 208.78 157.41 208.98 157.13 209.1 156.97 209.17 156.92 209.5 156.96 209.87 156.85 211.45 156.85 212.82 154.79 213.73 154.16 214.44 154.06 216.53 153.47 216.77 153.57 217.2 154.02 217.77 153.94 218.19 153.61 218.8 153.47 219.36 152.97 219.34 152.35 219.55 151.92 220.53 151.23 222.27 150.38 223.47 149.97 223.86 150.09 224.91 149.92 225.52 149.5 226.7 149.14 227.06 148.7 227.19 148.62 227.35 148.6 227.49 148.72 227.82 149.05 228.32 149.13 229.93 149.33 230.6 148.89 231.67 147.76 232.19 147.6 232.97 148.63 233.52 149.07 234.05 149.72 235.31 149.58 235.61 149.66 235.61 150.82 235.9 151.7 236.25 152.15 236.52 153.83 236.29 155.2 237.82 156.17 238.08 156.99 238.23 158.51 238.19 159.14 238.73 158.89 240.5 158.73 240.94 158.48 242.01 158.66 242.43 158.61 242.69 158.55 242.96 158.63 243.19 158.63 243.76 158.53 244.04 158.52 244.16 158.55 244.7 158.68 245.93 158.62 246.04 158.5 246.77 158.11 247.55 158.09 247.41 158.59 247.85 159.63 247.8 160.42 249.04 161.72 249.97 162.32 250.66 162.82 251.67 163.19 252.4 162.13 253.16 161.71 253.97 160.37 254.78 160.1 255.89 159.17 256.32 158.39 256.86 157.71 257.75 157.1 257.83 156.03 258.55 154.46 259.18 153.9 259.94 152.75 261.29 151.66 262.81 150.78 263.49 149.99 264.09 149.71 265.29 149.54 266 148.96 266.55 148.77 267.56 148.42 268.59 148.25 268.04 147.41 267.61 146.81 267.55 146.38 267.8 145.77 268.26 144.78 268.25 144.26 268.58 143.88 269.05 143.39 269.44 142.97 269.47 142.93 269.48 142.92 269.49 142.91 269.54 142.81 269.57 142.76 269.62 142.66 269.63 142.65 269.63 142.64 269.64 142.63 269.66 142.57 269.69 142.52 269.7 142.5 269.71 142.45 269.74 142.3 269.78 142.18 269.81 142.06 269.98 141.69 270.16 141.47 270.86 140.8 270.99 140.62 271.65 140.06 272.21 139.21 272.34 139.16 272.39 139.13 272.42 139.12 272.43 139.11 272.44 139.11 272.47 139.1 272.49 139.08 272.61 139.02 272.7 138.98 272.83 138.91 272.93 138.87 272.95 138.85 273.1 138.75 273.17 138.63 273.21 138.56 273.22 138.54 273.23 138.52 273.27 138.34 273.28 138.3 273.31 138.19 273.55 137.86 275.02 138.13 276.32 138.17 276.71 138.07 277.73 138.19 278.98 138.01 279.92 137.47 280.57 136.76 280.54 136.17 281 135.44 282.06 135.61 282.48 135.87 283.52 135.62 284.05 135.89 285.29 135.59 285.94 135.15 286.5 135.16 287.27 134.64 288.11 134.35 287.64 134.18 287.46 133.68 287.01 133.25 287.14 132.45 287.42 131.85 287.34 131.07 287.01 130.3 287.62 129.52 287.61 128.84 288.01 128.5 287.82 127.69 288.15 127.36 288.99 125.9 289.16 125.43 289.65 124.99 289.81 124.33 290.31 123.58 290.37 123.08 290.03 122.14 287.58 122.8 286.63 123.14 286.05 122.77 285.25 122.59 285.11 122.28 285.13 121.4 285.37 120.33 285.8 118.95 285.49 117.63 286.24 117.08 286.37 117 286.44 116.9 287.35 116.24 287.72 115.59 287.73 115.54 287.78 115.47 287.84 115.39 287.88 115.33 287.93 115.27 287.96 115.21 287.99 115.15 288.04 115.06 288.1 114.99 288.19 114.87 288.26 114.81 288.35 114.74 288.46 114.6 288.62 114.47 288.7 114.42 288.88 114.33 289.05 114.27 289.18 114.26 289.25 114.27 290.11 114.59 290.78 114.63 291.38 114.41 292.01 113.73 292.05 113.35 291.96 112.43 292.58 111.64 292.86 110.79 293.32 109.89 294.01 108.83 294.14 108.29 293.98 106.68 293.95 106.27 293.94 106.02 293.94 105.93 294.09 104.43 294.86 103.73 295.43 102.94 295.61 101.87 296.56 100.42 296.93 99.93 297.44 99.73 298.32 100.22 299.76 99.95 300.31 100.2 300.32 100.22 300.34 100.24 300.39 100.29 300.4 100.29 300.52 100.3 300.58 100.28 300.7 100.23 300.72 100.21 300.73 100.19 300.74 100.17 300.96 99.9 301.67 100.01 301.9 99.79 302.33 99.27 302.35 99.07 302.37 98.83 302.4 98.67 302.47 98.3 302.48 98.22 302.9 97.38 303.64 96.48 304.93 96 305.34 95.6 306.05 94.58 306.69 94.15 307.73 93.17 308.34 92.2 308.86 91.88 309.49 91.5 311.92 89.01 313.09 88.84 313.54 88.15 314.56 87.32 314.75 86.77 315.8 86.51 315.97 86.55 316.23 86.6 316.61 86.33 316.72 86.3 317.24 86.17 318.11 85.71 318.57 85.82 319.34 85.51 319.42 85.12 319.95 85.08 320.43 84.45 320.8 84.3 320.95 84.26 321.06 84.24 321.37 84.08 321.53 83.93 321.61 83.86 321.81 83.8 322.04 83.73 322.34 83.68 322.38 83.67 322.56 83.64 323.43 83.24 323.96 82.71 324.63 82.37 324.83 81.64 324.53 81.04 324.51 80.95 324.51 80.91 324.56 80.43 324.62 79.56 324.22 79.17 324.35 78.78 325.05 78.62 325.99 77.97 326.26 77.43 326.96 77.12 328.25 77.53 328.65 77.52 328.74 76.97 329.29 76.35 329.39 75.96 329.28 73.99 329.29 73.74 329.34 73.55 329.82 73.01 329.95 72.64 329.99 72.14 329.75 71.6 329.54 71.38 329.18 71.12 328.71 70.54 328.64 70.42 328.63 70.38 328.62 70.22 328.64 70.14 328.8 69.81 328.8 69.66 328.56 69.54 328.1 69.54 327.95 69.47 327.76 69.27 327.74 68.85 327.79 68.76 328.03 68.54 328.17 68.05 328.48 67.94 328.75 67.68 328.99 67.38 329.13 67.13 329.32 66.24 328.72 65.91 329.06 65.08 328.83 63.68 328.12 63.47 327.57 62.99 327.08 62.94 327.06 62.24 326.49 61.73 326.71 61.18 327.25 60.89 327.24 60.24 326.75 60.08 326.62 59.73 326.59 58.34 326.32 57.79 326.41 57.46 327.05 56.66 327.4 56.59 328.33 56.28 329.25 55.34 329.35 54.37 329.27 53.17 329.41 51.98 330.65 51.5 331.11 49.55 331.1 47.78 331.32 46.92 331.8 46.16 332.02 45.39 331.86 45.09 332.07 43.82 332.4 42.86 332.34 41.97 331.93 40.66 332.61 39.83 333.17 38.52 333.01 38.3 333.12 37.47 333.57 36.53 333.9 36.41 334.23 35.82 334.79 35.49 335.3 34.55 335.33 33.56 335.89 33.03 336.31 32.27 337.06 31.56 337.13 30.72 337.17 30.16 337.7 29.18 338.31 28.79 338.61 28.2 338.44 27.3 339.08 26.49 338.62 25.48 338.77 24.92 339.61 23.16 339.63 23.13 340.23 21.87 341.06 19.81 342.1 18.39 342.64 17.86 343.29 17.63 343.63 17.71 344.06 17.37 344.83 16.24 346.08 14.89 346.29 14.39 346.96 13.76 347.3 13.6 347.46 13.11 348.01 12.64 349.04 12.49 348.66 13 348.72 13.9 349.36 13.38 350.45 13.43 351.59 13.36 351.95 13.48 352.67 13.19 353.68 13.64 355.11 13.22 356.03 13.31 356.62 12.98 358.6 12.96 359.82 14.58 360.27 15.61 360.7 15.78 361.12 16.34 361.15 15.44 361.81 13.98 362.18 12.74 363.15 11.71 364.17 12.35 366.91 11.9 367.21 11.96 369.57 11.41 369.62 10.3 369.1 8.95 370.13 8.98 371 8.59 372.03 6.69 372.88 7.96 373.49 7.92 373.77 7 374.9 7.57 376.3 7.63 376.15 8.06 376.37 8.77 377.1 8.77 379.11 9.51 380.12 8.72 381.1 8.29 382.28 8.44 382.8 8.12 383.47 8.44 383.78 8.2 383.84 8.25 384.47 8.62 385.07 8.76 385.89 8.99 388.73 9.53 389.51 9.28 390.78 10.47 391.22 10.48 391.81 9.97 391.96 7.84 391.89 6.95 389.3 4.83 388.68 4.02 388.34 1 391.67 2.54 392.71 3.01 395.3 4.01 395.54 4.11 399.14 5.5 405.51 8.13 406.06 8.35 407.26 8.82 409.59 9.73 410.29 10.01 412.78 11.04 417 12.72 418.48 13.25 418.57 13.28 424.66 15.57 428.46 17.02 430.1 17.65 433.45 18.95 436.4 20.08 437.57 20.53 441.29 21.92 444.26 22.99 445.63 23.62 445.63 23.64 448.33 24.67 452.19 26.14 454.97 27.3 457.67 28.53 459.39 29.37 459.85 29.56 459.94 29.57 459.99 29.58 461.3 29.95 462.54 30.34 466.42 31.78 469.29 32.96 469.3 32.97 475.05 34.81 477.58 35.65 479.89 36.65 481.11 37.15 481.77 37.41 482.61 37.77 488.97 40.51 492.96 42.1 493.03 42.13 495.25 43.12 496.6 43.71 499.29 44.88 502.11 46.08 503.16 46.53 505.84 47.75 507.59 48.55 509.27 49.31 513.07 50.93 513.46 51.11 515.79 52.15 519.57 53.85 522.97 55.38 523.8 55.75 524.2 55.83 524.24 55.84 526.53 56.28 527.18 56.4 527.41 56.45 530.79 57.1 531.35 57.21 531.75 57.06 532.07 56.91 532.54 56.7 533.56 56.13 534.4 56.25 535.44 56.01 536.75 56.33 537.37 55.89 537.84 54.69 538.86 53.66 539.56 53.37 540.2 52.87 540.53 53.07 542.55 53.16 543.98 52.56 544.46 52.32 544.87 52.43 545.21 51.29 546.04 50.57 546.46 51.13 547.12 51.38 547.29 51.15 547.98 51.05 548.47 51.24 548.74 51.67 549.52 52.35 550.19 52.38 550.5 52.2 551.63 52.37 553.08 52.06 553.42 51.7 553.84 51.95 555 51.71 555.46 51.78 555.53 51.25 556.06 51.24 556.58 50.32 556.93 49.9 557.11 49.69 556.92 48.49 557.88 48.03 558.21 47.91 559.27 46.9 560.05 46.61 560.49 46.35 561.74 47.06 562.58 46.97 562.78 47.11 563.46 46.76 564.35 47.22 565.2 47.83 565.32 48.58 565.93 48.89 567.31 48.65 567.75 48.88 567.54 49.36 567.94 49.9 568.54 50.05 569.12 51.06 569.92 51.23 571.06 50.56 571.32 50.35 571.63 50.67 572.21 50.68 573.18 51.26 573.23 51.64 574.32 51.37 575.27 51.43 575.71 51.69 576.12 52.23 576.41 52.01 577.2 52.57 577.5 52.54 578.37 53.24 578.81 53.15 578.9 53.47 580.09 53.54 580.74 53.45 580.86 53.12 581.87 53.1 581.69 53.77 581.88 53.92 582.98 53.63 583.51 53.26 583.72 53.36 584.38 52.84 584.93 51.81 585.34 52.17 586.41 52.68 586.79 53.18 587.45 51.73 587.41 51.39 587.74 50.77 588.22 51.19 588.81 50.82 589.3 51.01 589.3 51.5 590.95 52.01 591.14 51.65 591.67 51.54 592.73 52.15 592.94 52.03 593.39 51.93 594 52.37 594.49 52.23 594.51 52.53 596.5 55 597.43 55.9 597.76 55.94 597.95 56.38 598.36 56.41 598.7 56.82 598.67 57.62 598.44 58 598.98 58.3 599.58 58.18 599.88 58.97 600.5 59.29 600.45 59.58 600.46 59.63 600.5 59.67 600.54 59.71 600.58 59.74 600.66 59.8 600.73 59.85 600.79 59.89 600.89 59.93 600.96 59.94 601.02 59.95 601.08 59.97 601.14 60.01 601.22 60.05 601.27 60.07 601.32 60.09 601.39 60.11 601.54 60.18 601.6 60.22 601.68 60.3 601.79 60.36 601.99 60.43 602.12 60.41 602.15 60.39 602.25 60.29 602.26 60.15 602.24 60.05 602.28 60.03 602.41 60.09 602.49 60.11 602.57 60.1 602.66 60.06 602.75 60.09 602.87 60.22 602.99 60.26 603.1 60.23 603.13 60.1 603.11 59.96 603.13 59.91 603.22 59.84 603.37 59.87 603.4 59.86 603.45 59.74 603.5 59.66 603.55 59.63 603.66 59.66 603.88 59.75 604.07 59.88 604.35 59.98 604.39 60.02 604.49 60.01 604.54 59.98 604.57 59.92 604.69 59.82 604.76 59.79 604.9 59.71 605.08 59.58 605.15 59.54 605.27 59.44 605.4 59.37 605.6 59.3 605.67 59.27 605.75 59.19 605.82 59.17 605.91 59.16 605.99 59.17 606.2 59.25 606.32 59.32 606.38 59.41 606.44 59.56 606.59 59.67 606.72 59.75 607.07 60.03 607.27 60.14 607.53 60.28 607.89 60.51 608.19 60.72 608.42 60.81 608.87 60.96 609.26 61.03 609.59 61.04 609.92 60.96 610.34 60.87 610.68 60.86 611.1 60.81 611.19 60.82 611.21 60.8 611.41 60.71 611.44 60.76 611.58 60.76 611.58 60.89 611.72 60.97 611.75 61.01 611.99 61.01 612.09 61.09 612.12 61.09 612.23 61.14 612.29 61.18 612.5 61.13 612.63 61.09 612.77 61.09 612.87 61 612.94 60.91 612.97 60.83 612.94 60.7 612.94 60.39 613.04 60.26 613.17 60.18 613.34 60.13 613.44 60.21 613.62 60.43 613.75 60.51 613.89 60.47 613.99 60.42 614.12 60.42 614.26 60.33 614.33 60.38 614.47 60.5 614.5 60.55 614.57 60.59 614.7 60.59 614.81 60.63 614.87 60.67 614.98 60.71 615.18 60.71 615.29 60.66 615.42 60.62 615.55 60.62 615.59 60.66 615.69 60.75 615.76 60.83 615.79 60.92 615.79 61.01 615.83 61.13 615.9 61.18 615.93 61.22 616.13 61.22 616.27 61.3 616.44 61.47 616.47 61.51 616.58 61.51 616.68 61.56 616.71 61.6 616.81 61.64 616.9 61.79 617.57 62.62 619.27 62.82 620.52 62.24 621.32 62.46 621.93 62.15 622.47 61.41 623.19 61.19 623.63 60.8 624.59 61.31 624.73 61.89 624.94 62.43 624.98 63.47 625.15 63.73 625.9 63.42 626.79 63.59 627 63.89 627.71 64.1 628.23 64.49 628.4 65.05 628.81 65.17 629.36 64.61 629.97 64.47 630 63.83 630.48 63.69 630.62 64.3 632.18 63.68 632.66 63.72 632.69 63.38 633.37 62.98 634.02 63.37 634.39 64.03 635.19 64.27 635.47 64.78 636.6 64.99 637.52 65.42 638.07 65.52 638.24 65.85 639.09 65.8 639.98 66.18 640.84 65.91 641.55 65.95 642.31 66.21 643.16 66.33 643.71 67.28 643.51 68.01 643.75 68.44 644.44 68.65 645.02 68.17 644.87 67.44 644.97 66.88 645.62 66.61 646.1 66.7 646 67.09 646.62 67.64 647.06 67.77 647.27 68.81 647.55 69.24 648.1 69.19 648.81 68.41 648.94 67.93 648.04 66.68 648.25 66.51 649.2 66.33 650.02 65.93 650.53 65.84 650.88 66.53 651.18 66.62 651.23 68.04 652.25 68.34 653.04 68.85 653.25 69.5 653.73 69.71 654.55 69.75 655.31 70.26 655.62 71.29 656.89 71.76 656.7 73.16 656.9 73.75 657.63 74.69 657.87 74.78 658.41 74.17 659.24 74.83 659.41 75.24 659.35 76.58 659.86 77.24 661.44 77.73 663.63 77.84 664.28 77.62 665.81 77.7 667.32 78.81 668.24 78.63 668.77 79.97 669.1 81.08 669.53 81.6 669.67 82.42 669.47 82.94 668.86 83.46 669 84.24 669.65 84.28 669.96 84.54 670.48 85.52 671.07 86.21 673.33 86.76 673.64 87.06 673.41 87.92 673.51 88.35 674.51 89.21 675.32 88.51 676.04 88.59 676.28 88.81 676.29 89.41 676.56 89.71 678.76 90.69 679.6 89.77 680.28 89.33 680.35 89.07 681.3 88.68 682.37 89.32 682.47 89.53 681.8 90.27 681.59 90.79 681.71 91.83 681.41 92.74 681.48 93.3 682.34 93.81 683.29 93.89 683.74 94.36 683.99 94.96 683.85 95.4 683.37 95.31 683.13 94.54 681.6 95.24 681.29 95.63 681.3 96.32 681.68 97.1 681.42 99.09 681.74 100.12 681.73 101.01 681.99 101.29 682.67 101.24 682.8 100.63 683.55 99.63 684.09 98.68 684.08 97.99 684.48 97.21 685.58 97.63 686.95 97.79 687.39 98.05 687.81 99.04 688.33 99.46 688.34 100.2 687.42 100.72 687.26 102.15 687.88 102.36 688.76 101.66 690.02 101.31 690.43 101.39 691.05 102.25 691.43 102.5 691.47 102.89 691.2 103.59 691.45 104.23 692.23 104.31 693.66 105.1 693.76 105.35 693.8 105.43 693.93 105.74 693.95 105.78 694 105.8 694 105.9 694.06 105.89 694.12 105.88 694.29 105.95 694.45 105.96 694.47 105.96 694.54 105.95 694.69 105.89 694.96 105.69 695.12 105.62 695.27 105.6 695.77 105.59 696.14 105.52 696.25 105.54 696.62 105.78 696.73 105.84 696.93 105.89 697.6 105.86 697.77 105.89 697.92 105.88 697.98 105.91 698.06 105.94 698.18 106.05 698.28 106.18 698.3 106.25 698.46 106.54 698.69 107.06 698.98 107.51 699.11 107.7 699.44 108.11 699.6 108.2 699.94 108.27 699.95 108.27 700.08 108.27 700.17 108.24 700.39 108.08 700.6 108.01 700.69 107.95 700.79 107.91 701.96 107.82 702.29 107.85 702.37 107.86 702.42 107.86 702.38 107.93 702.36 107.95 702.43 107.94 702.45 107.93 702.46 107.93 702.54 107.94 702.55 107.94 702.67 107.96 702.81 107.99 702.86 107.99 702.97 108 703.06 107.98 703.13 107.96 703.17 107.94 703.25 107.88 703.33 107.84 703.4 107.81 703.45 107.79 703.51 107.79 703.56 107.79 703.68 107.82 703.78 107.84 703.91 107.88 704.14 107.95 704.27 108.01 704.34 108.02 704.47 108.04 704.53 108.05 704.6 108.05 704.66 108.05 704.9 108.16 705.01 108.21 705.11 108.26 705.3 108.32 705.48 108.4 705.57 108.42 705.63 108.42 705.74 108.44 705.78 108.45 705.84 108.48 705.88 108.51 705.9 108.52 705.92 108.54 705.93 108.56 705.95 108.58 705.97 108.6 706.03 108.62 706.08 108.63 706.25 108.72 706.34 108.78 706.44 108.83 706.47 108.86 706.52 108.89 706.61 108.93 706.7 108.97 706.77 109 706.81 109.01 706.89 109.04 706.94 109.06 707.02 109.1 707.11 109.16 707.24 109.24 707.35 109.3 707.44 109.35 707.49 109.38 707.59 109.44 707.68 109.49 707.74 109.52 707.78 109.54 707.84 109.57 707.89 109.6 707.94 109.63 707.98 109.67 708.06 109.74 708.13 109.82 708.2 109.9 708.24 109.97 708.27 110.01 708.3 110.06 708.32 110.08 708.41 110.21 708.43 110.24 708.51 110.33 708.54 110.37 708.57 110.4 708.61 110.45 708.68 110.53 708.71 110.58 708.74 110.63 708.77 110.67 708.81 110.75 708.84 110.8 708.89 110.88 708.95 110.95 708.97 110.99 709 111.07 709.03 111.17 709.04 111.24 709.04 111.31 709.04 111.42 709.04 111.52 709.04 111.55 709.04 111.61 709.04 111.65 709.02 111.73 709.01 111.92 709.01 111.96 709.02 112.01 709.02 112.06 709.02 112.09 709.03 112.15 709.03 112.19 709.06 112.26 709.11 112.33 709.15 112.38 709.18 112.41 709.22 112.46 709.25 112.49 709.3 112.53 709.33 112.56 709.38 112.59 709.44 112.61 709.49 112.63 709.55 112.65 709.6 112.66 709.66 112.67 709.77 112.67 709.84 112.67 709.95 112.67 710 112.67 710.06 112.66 710.09 112.65 710.15 112.64 710.2 112.62 710.24 112.59 710.29 112.56 710.37 112.5 710.44 112.47 710.53 112.43 710.63 112.39 710.77 112.35 710.8 112.33 710.83 112.32 710.88 112.3 710.91 112.28 710.96 112.26 711.03 112.25 711.1 112.24 711.17 112.24 711.24 112.24 711.27 112.25 711.34 112.26 711.4 112.27 711.41 112.26 711.46 112.28 711.49 112.3 711.52 112.33 711.54 112.35 711.55 112.39 711.56 112.43 711.57 112.52 711.56 112.6 711.55 112.65 711.54 112.74 711.53 112.85 711.53 112.91 711.54 112.95 711.54 113.05 711.55 113.1 711.58 113.21 711.59 113.31 711.61 113.4 711.62 113.49 711.62 113.53 711.63 113.58 711.62 113.75 711.61 113.82 711.6 113.85 711.6 113.95 711.61 114.04 711.62 114.14 711.63 114.24 711.63 114.27 711.65 114.32 711.67 114.37 711.7 114.42 711.73 114.47 711.79 114.55 711.82 114.59 711.86 114.63 711.9 114.67 711.96 114.71 712 114.73 712.07 114.76 712.11 114.77 712.23 114.79 712.27 114.8 712.33 114.81 712.37 114.82 712.42 114.83 712.47 114.82 712.51 114.81 712.61 114.74 712.67 114.67 712.76 114.61 712.8 114.57 712.89 114.51 712.99 114.45 713.05 114.43 713.1 114.41 713.14 114.39 713.19 114.36 713.31 114.29 713.42 114.22 713.52 114.17 713.63 114.12 713.69 114.1 713.74 114.08 713.86 114.03 713.97 114 714.03 113.99 714.16 113.96 714.28 113.93 714.33 113.92 714.38 113.91 714.46 113.9 714.58 113.88 714.62 113.88 714.67 113.87 714.81 113.86 714.86 113.85 714.92 113.84 714.97 113.83 715.08 113.81 715.14 113.8 715.25 113.79 715.3 113.78 715.44 113.76 715.47 113.76 715.66 113.75 715.76 113.75 715.83 113.76 715.89 113.75 715.93 113.75 715.98 113.76 716.08 113.79 716.14 113.8 716.19 113.82 716.79 114.03 716.92 114.08 717.06 114.14 717.17 114.17 717.23 114.19 717.3 114.22 717.36 114.24 717.42 114.25 717.52 114.29 717.58 114.32 717.66 114.37 717.71 114.41 717.74 114.44 717.77 114.47 717.84 114.54 717.86 114.58 717.87 114.61 717.88 114.7 717.88 114.75 717.86 114.86 717.86 114.94 717.85 114.98 717.85 115.02 717.84 115.04 717.83 115.08 717.8 115.21 717.78 115.26 717.77 115.29 717.76 115.33 717.75 115.35 717.74 115.37 717.72 115.42 717.71 115.47 717.69 115.51 717.68 115.56 717.68 115.6 717.67 115.64 717.66 115.69 717.65 115.73 717.64 115.76 717.64 115.8 717.63 115.84 717.62 115.88 717.61 115.92 717.6 115.96 717.59 116 717.59 116.03 717.59 116.06 717.59 116.09 717.59 116.11 717.59 116.15 717.59 116.19 717.59 116.22 717.59 116.26 717.6 116.32 717.6 116.36 717.6 116.39 717.6 116.43 717.6 116.48 717.6 116.53 717.6 116.56 717.61 116.59 717.62 116.63 717.62 116.67 717.62 116.71 717.62 116.74 717.62 116.77 717.62 116.82 717.62 116.86 717.62 116.9 717.62 116.94 717.63 116.98 717.63 117.02 717.63 117.06 717.63 117.11 717.63 117.14 717.63 117.18 717.62 117.22 717.61 117.25 717.6 117.29 717.6 117.33 717.59 117.4 717.58 117.44 717.57 117.49 717.56 117.53 717.55 117.57 717.55 117.62 717.54 117.65 717.54 117.69 717.54 117.73 717.54 117.77 717.54 117.81 717.54 117.85 717.54 117.88 717.53 117.92 717.53 117.96 717.53 118 717.53 118.04 717.53 118.08 717.53 118.11 717.52 118.15 717.52 118.18 717.52 118.21 717.52 118.26 717.53 118.31 717.53 118.35 717.53 118.38 717.52 118.42 717.52 118.46 717.51 118.52 717.5 118.55 717.5 118.59 717.49 118.62 717.49 118.66 717.49 118.69 717.49 118.72 717.49 118.76 717.48 118.79 717.48 118.84 717.48 118.88 717.48 118.93 717.47 118.97 717.46 119.01 717.46 119.04 717.46 119.07 717.47 119.1 717.47 119.13 717.47 119.16 717.48 119.19 717.48 119.24 717.48 119.25 717.49 119.32 717.49 119.39 717.49 119.41 717.49 119.44 717.5 119.47 717.51 119.5 717.51 119.54 717.5 119.59 717.5 119.64 717.51 119.68 717.51 119.72 717.5 119.76 717.5 119.77 717.51 119.85 717.51 119.87 717.51 119.91 717.58 120.15 717.73 120.38 717.99 120.56 718.45 120.58 718.79 120.67 719.31 120.71 719.83 120.74 720.48 121.51 720.72 122.18 721.19 122.82 721.9 123.5 721.9 123.57 721.88 123.64 721.81 123.74 721.65 123.92 721.59 123.95 721.5 123.96 721.46 123.94 721.42 123.99 721.28 124.08 721.23 124.13 721.1 124.34 721.08 124.51 721.05 124.66 721.01 124.83 721.02 124.93 721.04 125.14 721.09 125.34 721.15 125.63 721.17 125.75 721.2 125.95 721.28 126.16 721.32 126.21 721.43 126.27 721.7 126.42 721.97 126.49 722.8 126.54 723.16 126.42 723.32 126.3 723.46 126.09 723.78 125.8 724.07 125.58 724.41 125.46 724.77 125.42 724.99 125.45 725.26 125.56 725.42 125.68 725.78 126.06 725.94 126.26 726.02 126.49 725.96 126.82 726 127.3 726.07 127.62 726.19 127.85 726.52 128.09 727.07 128.31 727.53 128.55 727.72 128.82 727.61 129.09 727.32 129.45 727.03 129.99 726.77 130.65 726.67 130.79 726.38 131.38 726.29 131.57 726.15 132.16 726.14 132.46 726.27 132.68 726.53 132.81 726.97 133.12 727.07 133.14 727.77 132.94 728.2 132.88 728.58 132.77 728.82 132.52 729.13 131.82 729.32 131.48 729.43 130.93 729.57 130.8 729.65 130.75 730.18 130.63 730.72 130.38 730.96 130.33 731.35 130.31 732.13 130.47 732.56 130.69 733.34 131.31 733.92 131.82 734.1 132.01 734.55 132.37 735.74 132.85 735.97 132.93 736.23 132.96 736.45 132.92 736.95 132.95 737.34 132.88 737.6 132.64 738.02 132.47 738.92 132.33 739.29 131.93 739.6 131.15 739.53 130.91 739.45 130.71 739.45 130.67 739.4 130.51 739.41 130.26 739.44 130.13 739.59 129.88 739.68 129.8 739.79 129.62 739.92 129.49 740 129.42 740.09 129.31 740.25 129.19 740.31 129.17 740.43 129.08 740.55 129.09 740.59 129.12 740.7 129.25 740.83 129.33 740.98 129.48 741.11 129.57 741.3 129.68 741.41 129.76 741.6 129.85 741.73 129.9 741.88 129.98 742.11 130.13 742.25 130.21 742.58 130.42 742.66 130.48 742.71 130.56 742.85 130.72 742.9 130.8 742.98 130.94 743.09 131.14 743.16 131.32 743.22 131.51 743.23 131.62 743.27 131.72 743.33 131.98 743.43 132.32 743.46 132.48 743.5 132.63 743.57 132.74 743.73 132.96 743.9 133.15 744.01 133.27 744.09 133.37 744.3 133.59 744.61 133.82 744.75 133.98 744.78 134.03 744.77 134.22 744.73 134.37 744.71 134.41 744.69 134.43 744.68 134.47 744.67 134.53 744.66 134.56 744.64 134.59 744.61 134.64 744.6 134.65 744.54 134.7 744.47 134.75 744.39 134.82 744.31 134.88 744.31 134.89 744.24 134.96 744.19 135.04 744.14 135.11 744.11 135.16 744.08 135.21 744.06 135.24 744.04 135.29 744.03 135.32 744.01 135.4 744 135.55 744 135.57 744.02 135.67 744.02 135.7 744.05 135.8 744.06 135.84 744.09 135.92 744.16 136.06 744.19 136.09 744.24 136.19 744.26 136.21 744.34 136.26 744.37 136.29 744.4 136.3 744.48 136.28 744.55 136.28 744.63 136.26 744.68 136.29 745.24 136.81 745.2 137.94 745.39 138.29 745.52 138.4 745.56 138.46 745.59 138.49 745.64 138.53 745.67 138.54 745.74 138.55 745.78 138.56 745.89 138.57 745.94 138.57 746.02 138.57 746.13 138.57 746.14 138.55 746.22 138.56 746.24 138.55 746.27 138.55 746.33 138.52 746.41 138.47 746.43 138.45 746.7 138.4 747.08 138.49 747.28 138.49 747.53 138.61 747.58 138.7 747.71 139.03 747.88 139.24 748.14 139.46 748.55 139.68 748.67 139.82 748.74 140.25 748.82 140.49 749.01 140.71 749.39 141.07 749.88 141.34 750.85 141.69 751.01 141.87 750.85 142.41 750.71 142.6 750.42 142.74 750.14 142.79 749.91 142.77 749.41 142.66 749.17 142.72 748.92 142.84 748.11 142.78 747.94 142.89 747.41 143.49 747.22 143.93 747.22 144.22 747.43 144.55 748.09 145.14 748.74 145.44 749.1 145.88 749.95 146.39 750.49 146.73 751.05 147.16 751.36 147.25 751.79 147.15 752.01 146.98 752.2 146.75 752.24 146.62 752.2 146.31 752.28 146.04 752.57 145.7 752.88 145.53 753.21 145.32 753.62 145.17 754.31 144.87 754.46 144.86 755.06 144.87 755.81 144.98 755.95 145.02 756.38 145.03 756.68 145 756.97 145.01 757.07 145.11 757.18 145.43 757.28 146.15 757.36 146.44 757.57 146.82 757.59 147.08 757.77 147.35 758.28 147.79 758.39 148.12 759.21 148.59 759.41 148.86 759.53 149.19 759.57 149.51 759.65 149.72 760.1 150.41 760.28 150.84 760.76 151.28 761.16 151.52 761.62 151.91 761.87 152.08 762.1 152.07 762.36 152.12 762.83 152.14 763.26 152.09 763.36 152.12 763.67 152.34 763.86 152.4 764.05 152.79 764.34 153.04 764.71 153.17 765.18 153.41 765.29 153.41 765.86 153.13 766.11 153.24 766.41 153.52 766.94 153.8 767.16 153.96 767.92 154.33 768.36 154.68 768.95 154.83 769.14 154.92 769.24 155.05 769.4 155.53 769.42 156.04 769.24 156.71 769.18 157 769.27 157.43 769.47 157.68 769.51 158.24 769.6 158.55 769.88 158.81 770.14 158.9 770.43 158.84 770.67 158.86 771.12 159.03 771.28 159.13 771.48 159.4 771.98 160.24 772.06 160.48 772.45 161.02 772.58 161.08 772.85 161.07 773.27 161.13 773.38 161.13 773.83 160.98 774.47 160.97 774.61 160.89 775.17 160.15 775.31 159.92 775.51 159.76 775.99 159.43 776.36 159.1 776.67 158.78 776.99 158.54 777.52 158.3 777.69 158.25 778.05 158.24 778.28 158.29 778.56 158.42 778.59 158.43 778.94 158.75 780.02 158.84 780.96 158.08 781.28 157.99 781.45 157.97 781.49 157.96 781.76 158 781.99 158 782.17 158 782.25 157.96 782.35 157.88 782.49 157.73 782.76 157.47 782.83 157.41 782.91 157.33 783.04 157.22 783.14 157.1 783.22 156.98 783.28 156.73 783.3 156.7 783.55 156.57 783.61 156.54 783.81 156.46 783.97 156.41 784.19 156.33 784.29 156.29 784.43 156.25 784.52 156.25 784.75 156.27 784.8 156.27 784.91 156.24 785 156.2 785.16 156.09 785.3 156.03 785.42 156.01 785.62 155.96 785.75 155.97 785.86 156.06 785.92 156.13 786.01 156.23 786.08 156.33 786.17 156.43 786.27 156.61 786.31 156.82 786.32 156.92 786.39 157.1 786.52 157.36 786.59 157.5 786.62 157.68 786.62 157.77 786.56 157.98 786.55 158.09 786.56 158.27 786.6 158.37 786.67 158.49 786.77 158.59 786.93 158.72 787.33 158.96 787.45 159.04 787.59 159.13 787.8 159.26 787.97 159.36 788.12 159.49 788.25 159.58 788.71 159.91 788.87 160.11 789.14 160.95 789.5 161.69 789.52 162.13 789.61 162.47 789.93 163.16 789.97 163.55 789.89 164.09 789.97 164.41 790.15 164.55 790.84 164.89 791.14 165.09 791.36 165.36 791.41 165.5 791.41 165.91 791.54 166.76 791.61 166.99 791.86 167.31 792.13 167.52 792.57 167.77 793.52 168.55 793.83 168.74 793.95 169.07 793.88 169.52 793.89 169.57 793.94 169.69 794.05 169.83 794.23 170.02 794.31 170.08 794.46 170.16 794.6 170.18 794.71 170.22 794.86 170.34 794.98 170.62 794.98 171.09 794.87 171.25 794.7 171.35 794.47 171.3 794.22 171.32 794.07 171.27 793.66 170.92 793.43 170.6 793.31 170.29 793.23 170.19 792.96 170.14 792.81 170.28 792.62 170.69 792.13 171.34 791.97 171.65 791.88 171.91 791.76 172.42 791.83 172.83 792.11 173.25 792.16 173.3 792.19 173.38 792.18 173.45 792.14 173.65 792.15 173.81 792.12 174.11 792.07 174.25 791.98 174.41 791.86 174.54 791.79 174.6 791.75 174.69 791.78 174.78 791.84 174.94 791.9 175.05 791.93 175.18 791.96 175.26 792.04 175.46 792.13 175.6 792.23 175.82 792.32 176.07 792.32 176.14 792.28 176.35 792.23 176.62 792.19 176.71 792.07 176.94 791.97 177.08 791.87 177.23 791.84 177.3 791.8 177.53 791.83 177.8 791.87 178 791.86 178.12 791.83 178.19 791.76 178.3 791.72 178.34 791.55 178.44 791.48 178.55 791.46 178.63 791.48 178.7 791.53 178.74 791.69 178.83 791.9 178.92 792.01 179.01 792.19 179.17 792.34 179.28 792.4 179.37 792.4 179.46 792.23 179.82 792.15 180.03 791.99 180.37 791.94 180.52 791.81 180.81 791.74 180.94 791.68 181.06 791.66 181.18 791.66 181.3 791.69 181.56 791.77 181.79 791.84 181.94 792.16 182.38 792.34 182.5 792.39 182.56 792.39 182.62 792.36 182.87 792.36 183.07 792.34 183.19 792.31 183.26 792.25 183.38 792.08 183.61 792.04 183.69 791.96 183.83 791.92 183.97 791.86 184.04 791.9 184.08 791.97 184.26 792.05 184.44 792.13 184.58 792.22 184.71 792.24 184.78 792.25 185.08 792.24 185.12 792.19 185.38 792.23 185.48 792.34 185.6 792.55 185.74 792.75 185.88 793.04 186.05 793.26 186.11 793.35 186.11 793.69 186.1 794.1 186.12 794.24 186.1 794.38 186.06 794.5 186.05 794.57 186 794.76 185.96 794.85 185.96 794.93 185.99 795.07 186.1 795.24 186.21 795.58 186.42 795.74 186.5 795.91 186.59 796.03 186.66 796.08 186.68 796.27 186.72 796.4 186.73 796.63 186.79 796.7 186.79 796.76 186.76 796.86 186.75 796.96 186.67 797.04 186.65 797.24 186.61 797.37 186.6 797.5 186.64 797.61 186.7 797.73 186.81 797.79 186.95 797.83 186.98 797.89 187.11 797.93 187.34 798 187.53 798.03 187.57 798.17 187.56 798.26 187.51 798.31 187.54 798.34 187.65 798.35 187.99 798.34 188.07 798.29 188.22 798.21 188.34 798.11 188.45 797.99 188.52 797.92 188.53 797.63 188.51 797.53 188.52 797.41 188.55 797.03 188.63 796.91 188.7 796.87 188.79 796.88 188.94 796.94 189.07 797.06 189.2 797.14 189.29 797.39 189.52 797.45 189.6 797.46 189.69 797.41 189.77 797.24 189.9 797.14 189.97 796.98 190.04 796.73 190.11 796.51 190.16 796.35 190.17 796.2 190.14 795.98 190.03 795.76 189.88 795.66 189.83 795.53 189.79 795.3 189.75 795.1 189.76 794.95 189.79 794.78 189.88 794.73 189.89 794.65 189.93 794.55 190.02 794.45 190.13 794.36 190.25 794.23 190.5 794.18 190.63 794.17 190.68 794.09 190.96 794.04 191.08 793.97 191.27 793.86 191.48 793.82 191.59 793.77 191.92 793.75 192.1 793.75 192.26 793.78 192.58 793.82 192.69 793.86 192.76 793.99 193 794.09 193.05 794.17 193.1 794.28 193.1 794.45 193.02 794.54 192.97 794.67 192.87 794.82 192.78 794.97 192.71 795.09 192.68 795.22 192.71 795.35 192.76 795.48 192.84 795.79 193.1 795.93 193.21 796.06 193.33 796.2 193.43 796.56 193.78 796.89 194.12 796.94 194.21 797.08 194.37 797.21 194.49 797.52 194.67 797.67 194.75 797.91 194.86 798.07 194.92 798.4 195.02 798.57 195.08 798.74 195.17 798.89 195.22 799 195.29 798.65 195.4 798.53 195.48 798.32 195.83 798 196.25 797.4 196.83 796.34 197.21 795.35 197.41 794.76 197.39 794.19 197.09 794.15 197.04 793.91 196.91 793.74 196.88 793.64 196.87 793.29 196.85 793.14 196.96 792.91 197.58 792.74 197.85 792.56 197.94 792.4 197.92 791.4 197.55 791.05 197.3 790.55 197.05 789.77 196.62 789.4 196.53 789.36 196.43 789.35 196.14 789.3 196.03 789.02 195.88 788.77 195.86 788.34 195.94 787.83 195.9 787.59 195.82 787.5 195.61 787.2 195.31 786.94 195.2 786.72 195.21 786.19 195.39 785.9 195.45 785.89 195.5 785.72 197.14 785.52 199.44 784.77 199.52 784.96 198.02 784.49 197.78 784.17 198.14 783.57 199.24 782.2 198.1 781.22 197.58 780.77 197.36 781.06 200.43 780.37 201.05 779.25 201.48 778.81 201.64 777.65 202.07 777.63 201.47 777.21 201.25 777.11 200.56 776.99 200.44 776.8 201.55 776.49 202.44 775.57 206.91 773.6 206.15 773.18 206 772.89 205.88 772.9 206.32 772.9 206.42 772.96 207.26 772.97 207.6 770.53 207.61 770.13 207.83 769.97 208.26 768.95 208.68 767.68 209.1 767.24 208.38 766.4 207.94 765.11 207.89 764.55 206.93 764.32 207.03 764.67 207.71 764.23 207.25 763.6 207.55 762.93 207.44 762.1 207.09 761.82 207.22 760.73 206.38 760.41 206.56 758.79 206.74 757.25 207.35 756.79 207.88 755.3 208.14 751.93 206.8 751.24 206.79 750.75 207.19 749.81 207.55 749.14 207.82 748.8 206.91 749.54 206.69 753.6 201.13 753.83 200.82 753.56 200.56 753.28 200.29 752.58 199.63 751.56 199.04 750.58 198.64 750.55 198.63 750.35 198.89 750.27 199.18 750.14 199.44 749.96 199.66 749.82 199.91 749.54 200.1 749.23 200.15 748.89 200.01 748.61 199.97 748.26 200 747.82 200.2 747.61 200.25 747.32 200.24 746.99 200.23 746.9 200.09 746.68 199.53 746.45 199.41 746.16 199.4 745.39 199.13 744.92 198.86 744.64 198.55 744.16 197.65 744.08 197.46 744.02 197.15 743.78 196.66 743.51 196.27 743.49 196.16 743.03 195.82 742.77 195.58 742.38 195.31 742.17 195.21 742.03 195.21 741.75 195.34 741.55 195.59 741.5 195.77 741.42 196.64 741.26 197.49 741.26 197.81 741.37 198.22 741.77 198.92 742.03 199.26 742.05 199.39 741.91 199.7 741.37 200.29 740.87 200.96 740.86 201.03 740.46 201.57 740.08 201.85 739.81 202.22 739.63 202.56 739.5 202.74 739.42 203.02 739.14 203.3 738.64 203.65 738.45 203.98 738.41 204.23 738.27 204.61 738.21 204.83 738.19 204.95 738.11 205.09 737.94 205.51 737.85 205.64 737.81 205.66 737.74 205.7 737.67 205.78 737.5 206.21 737.46 206.26 737.44 206.31 737.41 206.34 737.32 206.44 737.13 206.59 737.08 206.65 736.99 206.67 736.85 206.7 736.68 206.7 736.31 206.68 736.1 206.7 735.89 206.79 735.78 206.93 735.76 206.97 735.47 207.53 735.08 208.14 734.81 208.46 734.56 208.67 734.38 208.7 734.09 208.66 733.69 208.53 733.44 208.53 733.22 208.45 732.96 208.53 732.88 208.65 732.91 208.8 733.3 209.27 733.49 209.37 733.7 209.62 733.96 209.68 734.15 209.76 734.36 210.04 734.41 210.42 734.5 210.78 734.43 211.14 734.27 211.31 734.1 211.4 733.9 211.41 733.25 211.21 733.01 211.19 732.95 211.09 732.8 211.08 732.54 210.98 732.14 210.74 732.03 210.75 731.8 210.94 731.69 211.14 731.6 211.41 731.5 211.58 731.32 211.73 730.84 212.02 730.62 212.24 730.31 212.79 730.09 213.23 729.33 214.28 729.08 214.83 729.04 214.78 728.9 214.94 728.58 215.15 728.27 215.22 727.87 215.18 727.49 215.1 727.26 215.13 727.16 215.06 727.16 214.9 726.97 214.57 726.75 214.39 726.55 214.33 726.13 214.4 725.81 214.56 725.64 214.59 725.03 214.41 724.73 214.52 724.57 214.67 723.78 215.19 723.44 215.49 723.29 215.73 723.12 216.11 722.98 216.59 722.55 216.67 722.46 216.61 722.33 216.35 721.87 216.09 721.92 215.94 721.92 215.49 721.87 215.19 721.76 214.86 721.71 214.39 721.65 214.3 721.39 214.25 721.27 214.18 720.86 213.81 720.48 213.69 720.21 213.67 719.91 213.47 719.77 213.29 719.58 213.18 719.35 212.84 719.17 212.78 719.14 212.87 719.32 212.92 719.53 213.21 720.09 213.69 720.51 213.75 720.82 213.87 721.3 214.29 721.65 214.45 721.69 214.87 721.85 215.48 721.87 215.7 721.81 216.07 721.31 216.07 721.39 216.53 721.82 217.13 721.55 217.48 722.57 218.14 722.6 218.15 722.39 218.35 721.96 218.37 721.78 218.25 721.56 218.37 721.25 218.62 721 218.92 720.76 219.29 720.63 219.8 720.34 220.27 720.08 220.31 719.66 220.09 718.96 219.5 718.59 219.15 718.36 218.74 718.06 217.96 717.7 217.49 717.55 217.12 717.52 216.34 717.49 216.21 717.37 216.14 716.98 216.12 716.63 216.29 716.36 216.65 716.37 217.26 715.91 218.62 715.89 218.9 715.92 219.23 715.88 219.45 715.79 219.62 715.64 219.72 715.36 219.74 714.83 220.12 714.84 220.16 715.3 221.3 716.87 222.91 717.73 223.74 717.85 224.43 718.04 226.81 718.11 228.39 719.25 227.27 725.02 229.31 726.4 229.54 725.42 230.52 724.58 230.26 721.67 229.11 721.37 229.11 719.57 229.64 720 231.03 719.84 231.9 719.79 233.92 720.25 234.94 720.29 235.33 720.93 236.56 721.12 237.94 723.01 238.3 722.24 240.81 721.65 242.97 720.66 246.53 719.23 246.02 719.35 247.44 719.32 248.76 719.26 249.28 718.94 249.72 719.62 250.27 719.39 250.89 719.04 251.86 718.46 254.03 718.38 254.32 718.52 254.6 718.1 255.97 717.94 256.49 717.91 257.12 717.9 257.21 717.87 258.41 716.78 258.36 716.76 258.44 716.84 258.6 716.83 258.66 716.85 258.81 716.8 258.86 716.77 258.94 716.68 259.04 716.61 259.23 716.58 259.24 716.57 259.31 716.6 259.38 717.07 259.42 716.88 260.1 716.87 260.11 716.68 260.78 716.74 261.85 716.72 261.98 716.72 262.01 716.2 263.52 715.96 263.91 715.62 264.57 715.43 265.27 715.11 266.43 715.23 266.66 715.29 266.94 715.43 269.2 715.98 270.14 715.97 270.67 716.06 271.43 716.49 273.56 716.48 273.63 716.4 274.02 716.36 274.2 716.35 274.23 716.34 274.27 716.32 274.34 716.31 274.35 716.28 274.44 716.2 274.67 716.19 274.71 716.14 274.86 716.14 274.9 716.12 274.98 716.11 275.02 716.1 275.08 716.1 275.09 716.04 275.41 716.01 275.73 716.09 276.17 716.08 276.28 716.08 276.34 716.07 276.39 716.07 276.41 716.06 276.46 716.06 276.47 716.04 276.48 716.02 276.49 716.01 276.5 716.01 276.51 716.01 276.53 716 276.54 716 276.55 715.99 276.56 716.35 277.04 717.93 278.04 718.66 277.98 718.68 277.97 718.71 277.96 718.72 277.95 718.98 277.9 719.59 278.89 719.57 279.5 719.93 280.16 719.92 280.63 719.81 280.69 719.67 280.92 719.62 281.12 719.64 281.41 719.78 281.67 719.76 281.92 719.99 282.51 720.14 282.82 720.2 282.88 720.24 282.92 720.39 283.01 720.43 283.01 720.52 283 720.58 283 720.63 283.02 720.69 283.05 720.76 283.06 720.8 283.06 720.87 283.03 720.91 283 720.95 282.99 721.05 282.98 721.1 282.98 721.14 282.99 721.19 283.01 721.26 283.04 721.31 283.06 721.35 283.1 721.39 283.13 721.44 283.15 721.47 283.15 721.49 283.15 721.52 283.15 721.55 283.13 721.6 283.13 721.62 283.13 721.66 283.15 721.67 283.17 721.67 283.25 721.68 283.28 721.7 283.29 721.75 283.3 721.77 283.3 721.8 283.28 721.84 283.26 721.9 283.22 721.93 283.2 721.97 283.19 722 283.18 722.07 283.17 722.14 283.16 722.17 283.16 722.22 283.13 722.26 283.09 722.28 283.08 722.3 283.08 722.33 283.1 722.39 283.18 722.48 283.27 722.5 283.29 722.56 283.32 722.57 283.33 722.59 283.36 722.61 283.42 722.64 283.46 722.65 283.48 722.67 283.48 722.7 283.48 722.74 283.48 722.77 283.5 722.81 283.54 722.83 283.55 722.89 283.6 722.93 283.62 723.01 283.65 723.05 283.68 723.13 283.71 723.2 283.72 723.33 283.72 723.36 283.7 723.38 283.69 723.42 283.68 723.44 283.67 723.47 283.68 723.51 283.69 723.55 283.73 723.59 283.76 723.63 283.77 723.65 283.78 723.71 283.81 723.79 283.85 723.98 283.9 724.03 283.92 724.16 283.95 724.22 283.98 724.25 283.98 724.32 284.04 724.37 284.07 724.43 284.11 724.54 284.18 724.62 284.23 724.74 284.3 724.78 284.33 724.82 284.35 724.86 284.37 724.92 284.42 724.94 284.47 724.94 284.5 724.94 284.54 724.94 284.6 724.96 284.65 724.99 284.68 725.03 284.7 725.04 284.71 725.05 284.75 725.05 284.78 725.05 284.82 725.04 284.87 725.05 285.4 724.52 285.76 724.29 286.22 724.28 286.23 724.27 286.28 724.27 286.32 724.28 286.36 724.29 286.37 724.31 286.4 724.32 286.44 724.36 286.5 724.41 286.59 724.43 286.65 724.46 286.69 724.49 286.73 724.5 286.74 724.53 286.78 724.55 286.82 724.56 286.87 724.58 286.91 724.94 287.67 725.3 287.94 725.38 288 725.52 288.18 725.62 288.26 725.78 288.34 725.94 288.37 726.04 288.37 726.2 288.35 726.36 288.34 726.45 288.32 726.58 288.26 726.71 288.24 726.83 288.24 726.94 288.25 727.02 288.27 727.13 288.31 727.2 288.36 727.37 288.42 727.44 288.45 727.6 288.55 727.74 288.67 727.8 288.78 727.82 288.89 727.79 289.07 727.73 289.2 727.73 289.28 727.73 289.57 727.56 290.44 727.8 291.81 727.86 292 728.17 292.28 728.3 292.69 728.47 293.16 728.46 293.46 728.41 293.65 728.22 293.8 727.9 293.89 727.18 293.83 727 293.9 726.94 293.92 725.77 294.4 725.68 294.4 724.46 293.95 723.61 294 722.96 294.52 722.24 295.53 721.84 296.33 721.67 297.39 721.65 297.49 721.66 297.55 721.7 297.67 721.78 297.77 721.91 297.86 722.24 297.97 722.46 298.07 722.4 298.15 722.35 298.19 722.24 298.21 722.15 298.25 722.12 298.3 722.13 298.35 722.21 298.53 722.21 298.63 722.17 298.69 722.11 298.73 722.03 298.73 721.88 298.66 721.83 298.66 721.64 298.67 721.5 298.67 721.43 298.66 721.32 298.62 721.2 298.49 721.09 298.41 720.91 298.35 720.82 298.34 720.72 298.36 720.67 298.39 720.49 298.47 720.37 298.51 720.26 298.51 720.1 298.45 719.98 298.4 719.83 298.35 719.64 298.33 719.51 298.36 719.24 298.51 719.09 298.56 718.97 298.57 718.76 298.54 718.67 298.55 718.27 298.56 718.17 298.56 718.04 298.53 717.93 298.53 717.55 298.55 717.24 298.62 717.15 298.66 716.93 298.72 716.81 298.75 716.66 298.81 716.31 298.91 716.17 298.97 716.05 298.96 715.96 298.96 715.87 299.02 715.79 299.1 715.73 299.22 715.66 299.23 715.65 299.21 715.1 299.57 715.09 299.59 714.99 300.07 714.97 300.17 714.81 300.94 712.46 303 711.71 303.69 710.62 304.79 710.24 305.13 709.22 306.06 707.98 307.13 706.9 308.19 705.68 309.26 704.18 310.62 703.3 311.43 702.72 311.97 701.67 312.95 701.04 313.51 700.94 313.61 697.68 316.6 697.27 316.99 695.49 318.7 694.46 319.7 691.74 322.19 691.63 322.29 688.84 324.77 688.82 324.78 688.7 324.86 686.29 327.13 685.26 328.09 684.11 329.24 683.53 329.8 682.9 330.19 680.3 332.59 678.49 334.25 678.46 334.27 676.29 336.27 674.12 338.29 673.37 338.98 669.99 342.1 666.45 345.37 666.41 346.34 666.58 347.33 666.59 348.79 666.14 350.32 666.27 350.84 666.17 351.45 664.83 353.57 664.4 354.1 664.06 354.6 663.85 355.44 664.09 355.88 663.87 356.33 663.59 357.17 662.84 357.98 663.06 358.11 663.07 359.02 662.65 359.59 662.44 359.6 661.65 359.71 660.47 360.07 659.93 360.45 659.02 360.61 657.88 360.97 656.63 361.22 655.38 361.25 654.31 361.12 653.45 361.74 652.77 362.2 651.94 363.09 651.02 362.77 650.21 363.64 649.75 364.44 649.03 364.55 648.23 364 648.27 363.66 647.44 362.97 646.9 363.05 646.84 363.05 646.86 363.28 646.54 363.6 646.21 364.34 645.8 364.62 645.61 364.71 645.36 364.67 644.88 364.45 644.63 364.41 644.07 364.23 643.7 364 643 363.69 642.79 363.59 642.51 363.55 642.12 363.56 641.93 363.53 641.76 363.45 641.41 363.35 641.31 363.29 641.17 363.18 641.07 363.09 640.83 363.04 640.57 363.14 640.2 363.38 640.05 363.52 639.97 363.63 639.91 363.78 639.84 364.12 639.85 364.14 639.85 364.41 639.9 364.69 639.92 364.75 639.97 365.12 640.02 365.64 640.03 365.77 640.06 365.99 640.22 366.48 640.24 366.71 640.32 366.96 640.41 367.36 640.4 367.4 640.46 367.59 640.45 367.62 640.53 367.87 640.72 368.17 640.81 368.36 640.86 368.53 640.91 368.59 640.96 368.82 641.03 369.24 641.02 369.27 641 369.46 641.03 369.56 641.02 369.62 641.08 369.88 641.18 370.13 641.2 370.28 641.2 370.51 641.15 370.77 641.15 371.27 641.19 371.41 641.24 371.51 641.36 371.75 641.64 372.15 641.85 372.37 642.56 373.4 642.68 373.61 642.69 373.69 642.69 374.11 642.64 374.38 642.48 374.58 642.29 374.71 642.02 374.8 641.78 374.76 641.41 374.57 641.33 374.55 641.3 374.52 641.14 374.47 640.87 374.44 640.77 374.47 640.71 374.55 640.67 374.76 640.66 375.11 640.61 375.39 640.4 375.84 640.3 376.33 640.32 376.44 640.27 376.7 640.21 376.81 640.09 376.92 639.96 377.01 639.78 377.07 639.66 377.16 639.39 377.46 639.12 377.86 638.98 378.17 638.92 378.5 638.98 378.89 639.24 379.86 639.38 380.21 639.37 380.26 639.48 380.52 639.52 380.76 639.52 381.01 639.54 381.04 639.5 381.26 639.48 381.69 639.44 381.84 639.4 381.9 639.37 382.08 639.39 382.12 639.37 382.21 639.41 382.51 639.4 382.55 639.54 383.46 639.6 384.23 639.59 384.35 639.5 384.74 639.33 385.2 639.33 385.28 639.27 385.62 639.4 386.09 639.6 386.47 639.99 387.03 640.2 387.21 640.58 387.28 641.04 387.19 641.52 387.11 642.24 387.03 642.82 387 643.49 387.01 644.04 387.04 644.43 387.1 644.69 387.16 644.88 387.25 645.01 387.33 645.47 387.84 645.6 387.93 645.65 388 645.71 388.02 646.01 388.31 646.27 388.61 646.5 388.81 646.77 388.99 647.25 389.4 647.47 389.52 647.52 389.58 647.82 389.71 647.94 389.83 648.11 390.11 648.18 390.48 648.19 390.56 648.21 390.77 648.17 391.05 648.09 391.33 647.94 392.13 647.9 392.6 647.89 393.06 648.01 393.6 648.2 394.02 648.43 394.4 648.65 394.69 648.86 394.86 649.45 395.09 650.05 395.5 650.69 395.82 651.17 396.16 651.6 396.41 651.95 396.69 652.2 396.86 652.52 397.23 652.69 397.39 652.9 397.49 653.22 397.57 653.9 397.55 654.87 397.74 656.1 397.64 656.57 397.45 657.2 397.49 658.22 397.46 658.87 397.48 660.07 397.64 660.36 397.72 660.92 397.95 661.32 398.18 661.76 398.26 662.13 398.25 662.73 398.28 662.91 398.31 663.27 398.3 663.66 398.36 663.79 398.41 664.04 398.63 664.31 398.8 664.67 398.85 665.03 398.73 665.31 398.77 665.93 399.08 666.6 399.22 666.99 399.48 667.33 399.92 667.38 400.15 667.19 400.98 667.11 401.13 666.63 401.74 666.59 402.11 666.69 402.36 666.98 402.68 667.34 402.83 667.48 403 667.55 403.32 667.52 403.53 667.44 403.69 667.2 403.8 666.8 404.06 666.51 404.49 666.3 404.72 666.13 405.11 666.07 405.35 665.87 405.8 665.74 406.01 665.59 406.09 665.36 406.09 664.99 406.07 664.62 406.15 664.09 406.45 663.7 406.63 663.37 406.85 663.12 407.17 663.07 407.44 663.08 407.98 663.16 408.76 663.27 409.33 663.51 409.94 663.59 410.5 663.65 411.06 663.78 411.77 663.89 412.11 664.19 412.4 664.52 412.58 664.8 412.81 665.03 412.94 665.52 413.33 666.7 414.08 667.22 414.31 667.47 414.36 667.59 414.32 668.34 414.33 668.98 414.45 669.65 414.63 669.97 414.75 670.2 414.89 670.42 414.96 671.08 415.28 671.37 415.51 671.47 415.53 671.84 415.94 672.34 416.25 672.59 416.52 673.06 416.92 673.41 417.26 673.56 417.46 673.92 417.84 674.85 418.7 675.24 418.96 675.73 419.33 676.26 419.85 676.41 419.97 676.83 420.46 676.95 420.7 677.17 421.56 677.22 422.04 677.23 422.41 677.27 422.7 677.26 423.08 677.21 423.76 677.26 424.36 677.36 424.73 677.8 425.37 678.02 425.59 678.54 426.23 678.91 426.6 679.41 426.92 679.81 427.09 680.29 427.33 680.62 427.46 682.36 427.79 682.81 427.82 683.24 427.82 683.32 427.79 683.98 427.87 684.43 427.95 685.12 428.19 685.5 428.23 685.91 428.11 686.32 427.94 686.61 427.79 687.12 427.43 687.56 426.96 687.73 426.69 687.78 426.42 687.75 426.14 687.6 425.77 687.55 425.5 687.61 425.01 687.96 424.27 688.12 424.02 688.23 423.69 688.36 422.69 688.39 421.1 688.45 420.84 688.54 420.7 688.75 420.54 689.12 420.35 689.6 420.19 690.32 419.99 690.74 419.93 691.19 419.99 691.68 420.29 692.08 420.44 693.13 420.94 693.48 421.07 693.73 421.08 693.9 421.04 694.33 420.77 694.78 420.37 695.08 419.95 695.31 419.58 695.41 419.26 695.31 418.91 694.95 418.44 694.81 418.16 694.71 417.72 694.68 417.12 694.69 416.8 694.75 416.38 694.9 415.8 695.16 415.17 695.3 414.95 695.53 414.69 695.99 414.23 696.29 414.04 696.71 413.88 697.71 413.76 698.21 413.81 698.43 413.87 698.73 414.02 699.16 414.36 699.56 414.56 700.25 415.45 700.41 415.87 700.44 415.95 700.46 416 700.54 416.21 700.95 417.23 701.45 419.08 703.22 421.72 703.97 421.6 705.08 421.45 705.75 420.86 706.35 419.77 706.55 418.22 706.85 417.28 707.49 416.99 709.12 416.83 710.43 416.93 711.18 416.8 711.74 416.78 712.26 417.27 712.95 418.94 713.76 422.85 713.99 423.55 714.37 424.17 715.65 425.59 716.28 427.16 716.66 427.76 717.38 428.39 717.93 428.69 717.96 429.6 717.77 430.02 717.51 430.57 718.04 431.52 718.22 431.82 718.25 431.98 718.22 432.3 718.4 432.43 718.5 432.59 718.54 432.89 718.46 432.94 718 433.07 717.6 433.12 717.02 433.06 716.22 433.54 716.13 433.63 715.94 434.19 715.74 434.69 715.74 435.17 715.9 435.51 715.86 435.92 716.09 436.41 716.02 436.71 715.85 436.63 715.64 436.68 715.55 436.58 715.38 436.78 715.23 436.82 715.04 436.78 714.88 436.85 714.85 437.16 714.65 437.17 714.4 437.03 714.29 437.01 714.29 437.26 714.41 437.45 714.37 437.62 714.19 437.87 714.54 438.79 714.33 439.25 713.85 439.4 713.4 439.17 712.87 439.42 712.69 439.08 711.8 439.17 711.35 438.85 710.49 438.82 710.07 439.02 710 439.35 709.61 439.29 709.59 440.94 708.62 441.48 708.51 441.7 707.73 441.65 707.5 442.05 706.91 441.41 706.75 441.64 706.09 441.47 705.51 441.69 705.1 442.9 705.37 443.6 705.01 443.56 705.13 443.96 704.84 444.55 705.1 444.84 705.85 444.77 705.67 445.07 706.58 444.64 707.69 444.43 707.63 444.73 706.84 445.47 706.23 445.73 706.07 446.44 705.66 447.04 704.58 447.66 703.11 447.38 701.83 447.24 701.08 447.31 700.92 447.02 700.58 447.24 700.14 448.02 699.49 448.09 699.26 448.68 698.91 448.9 698.05 448.89 697.75 449.27 697.22 449.09 696.62 450.17 696.31 450.16 695.85 450.67 695.35 450.02 694.71 450.27 694.55 451.24 693.91 451.27 694.02 451.77 693.81 452.16 693.11 452.33 693.19 452.75 692.92 453.45 692.67 453.19 692.12 453.71 692.26 454.17 691.93 455.15 691.11 455.94 690.8 456.04 688.5 456.83 686.88 458.26 684.66 460.26 681.39 460.51 681.28 460.48 678.46 459.3 676.26 459.08 674.81 458.73 674.68 458.95 674.07 458.88 673.92 458.65 671.92 458.5 671.03 458.82 670.02 458.99 669.03 459.04 668.67 459.22 668.26 459.36 667.99 460.45 667.61 461.15 666.91 461.68 667.07 462.87 666.8 463.6 666.15 463.75 665.17 464.18 664.87 464.61 665.16 464.74 664.81 466.85 664.57 467.67 663.75 468.52 662.94 468.9 662.33 469.54 661.87 470.39 661.35 470.75 660.57 471.14 660.05 471.03 659.37 471.5 658.03 471.49 657.62 471.23 657.18 470.59 655.89 470.51 655.61 470.17 653.07 470.78 652.26 470.39 651.71 470.77 651.56 471.22 651.24 471.31 651.08 472.29 650.68 472.52 649.65 472.75 648.39 472.56 647.48 472.9 646.96 473.68 646.8 474.5 645.79 475.3 645.55 475.71 644.67 476.15 644.16 476.74 643.71 477.78 643.05 478.12 642.33 478.88 641.08 479.31 640.48 479.94 639.93 479.88 639.01 480.26 637.51 481.02 636.72 481.21 636.28 481.4 635.76 481.31 634.7 480.74 633.89 480.89 633.33 481.34 632.87 481.35 632.04 481.75 632.17 484.58 632.25 486.54 632.25 486.65 632.25 486.72 632.44 490.52 632.62 493.32 632.7 494.72 632.73 495.19 632.82 496.7 632.85 497.34 633.13 501.83 633.36 506.71 633.48 509.6 633.58 512.24 633.6 512.66 634.2 520.89 634.69 529.16 635.2 537.73 635.31 539.71 635.42 541.4 635.56 543.83 635.89 545.07 636.13 548.72 635.42 548.69 635.04 548.94 634.59 548.65 633.67 548.88 632.89 548.8 632.13 548.56 631.11 549.77 630.27 549.86 629.96 550.17 629.35 550.29 628.64 550.08 627.57 550.17 626.76 549.73 626.48 549.83 626.53 551.01 625.91 550.88 625.49 551.42 624.85 551.02 624.84 550.5 624.07 550.85 622.38 550.89 621.26 550.79 621.18 550.52 620.54 550.15 620.06 549.11 619.42 549.15 618.72 548.93 618.43 549.2 617.47 549.63 616.89 549.75 616.36 549.49 616.23 549.08 615.16 548.64 614.06 548.64 613.82 548.24 613.91 547.84 613.5 547.8 611.61 548.27 611.29 548.18 610.7 548.47 610.5 548.46 610.03 549.2 609.52 549.55 608.81 549.44 608.3 548.17 607.95 547.81 607.17 547.4 606.73 546.96 606.28 546.11 605.91 545.32 605.39 544.69 604.77 544.02 604.6 542.83 603.28 541.48 601.65 540.13 601.2 539.63 600.92 538.5 600.35 538.14 599.27 537.99 598.81 537.25 599.08 536.32 599.17 536.25 599.27 535.8 599.23 534.45 598.27 534.03 597.6 533.52 596.83 533.94 596.59 534.3 596.58 534.55 596.06 542.03 595.71 546.33 595.31 552.05 595.14 553.89 594.6 561.46 594.35 564.9 593.66 574.51 593.28 579.56 593.19 580.79 593.06 582.65 592.78 586.43 592.35 592.46 591.92 598.53 591.36 606.39 590.98 611.33 590.82 613.47 590.66 613.82 590.67 614.12 590.7 615.61 590.37 620.29 590.28 621.72 590.15 622.06 590.15 622.07 590.18 622.55 589.56 631.65 589.36 634.41 589.18 636.39 589.14 637.64 588.9 640.16 588.9 640.73 588.9 640.98 588.79 642.53 588.73 643.42 588.5 646.6 588.49 646.73 588.39 648.23 588.27 649.95 588.08 653.66 587.76 658.41 587.69 659.58 587.58 661.18 587.2 666.72 587.14 667.53 586.96 670.16 586.9 671.19 586.86 671.79 586.74 674.19 586.71 674.75 586.63 676.01 586.45 679.08 586.26 682.58 586.1 686.03 585.84 691.08 585.63 695.74 585.61 697.79 585.47 700.45 585.39 701.88 585.37 702.15 585.34 702.47 585.29 703.34 585.12 705.71 584.93 708.55 584.71 711.81 584.38 716.88 584.02 722.7 584 723.03 583.97 723.46 583.88 724.91 583.83 725.72 583.76 726.88 583.72 727.56 583.61 729.54 583.59 729.72 583.59 729.73 583.59 729.85 583.41 732.67 583.41 732.77 583.31 734.34 583.11 737.63 582.98 739.61 582.87 741.18 582.85 741.44 580.4 741.45 580.07 741.46 578.82 741.45 578.34 741.45 577.76 741.45 574.27 741.47 573.13 741.47 572.37 741.48 572.21 741.47 568.52 741.48 568.21 741.48 561.68 741.48 557.66 741.45 556.4 741.43 555 741.42 554.04 741.42 553.33 741.42 552.47 741.42 548.73 741.4 543.7 741.31 540.51 741.32 538.22 741.32 534.81 741.32 534.64 741.32 531.28 741.33 530.18 741.33 520.39 741.34 512.85 741.32 509.2 741.36 506.81 741.39 504.66 741.42 503.47 741.44 502.29 741.45 490.78 741.6 489.84 741.61 488.36 741.63 488.31 741.63 488.19 741.63 488.11 741.63 473.88 741.81 473 741.82 472.43 741.83 470.27 741.86 466.58 741.93 465.19 741.96 461.1 742.01 460.77 742.01 458.08 742.04 457.34 742.05 453.49 742.1 449.55 742.14 446.76 742.18 441.13 742.25 440.62 742.26 440.25 742.26 439.86 742.27 437.82 742.29 435.42 742.36 433.72 742.42 432.74 742.46 432.45 742.47 431.28 742.51 430.84 742.53 429.82 742.56 426.76 742.67 420.69 742.92 419.24 742.91 413.1 742.9 411.04 742.89 410.96 742.89 398.33 742.84 397.35 742.84 394.65 742.82 392.45 742.81 391.13 742.81 386.59 742.79 385.8 742.78 382.5 742.77 380.69 742.74 376.77 742.65 368.79 742.46 367.68 742.44 366.53 742.39 363.6 742.38 361.04 742.39 357.93 742.4 353.55 742.4 346.42 742.42 342.98 742.43 340.17 742.43 334.26 742.45 332.17 742.47 331.48 742.48 329.24 742.47 328.44 742.47 327.84 742.46 325.22 742.45 321.28 742.45 313.53 742.34 312.75 742.33 303.2 742.25 296.92 742.24 295.02 742.24 289.3 742.2 284.56 742.17 279.99 742.14 279.87 742.14 279.75 742.14 279.63 742.13 279.51 742.13 279.39 742.13 279.27 742.13 279.24 742.13 276.55 742.1 273.42 742.07 270.77 742.05 270.68 742.05 270.55 742.05 270.43 742.05 267.98 742.04 267.9 742.04 266.13 742.03 263.67 742.02 263.54 742.02 263.06 742.02 262.69 742.02 262.61 742.02 257.53 742 252.59 741.98 239.85 741.93 230.77 741.89 227.14 741.87 225.84 741.87 220.51 741.87 215.81 741.88 213.25 741.89 211.25 741.9 206.77 741.91 203.03 741.78 202.04 741.74 199.09 741.77 196.22 741.74 188.93 741.7 184.82 741.69 181.12 741.68 178.11 741.67 177.99 741.67 175.79 741.67 175.61 741.67 174.87 741.67 174.38 741.67 174.09 741.67 166.86 741.75 162.92 741.81 158.54 741.7 156.44 741.66 152.45 741.58 147.74 741.54 145.99 741.52 143.24 741.49 141.76 741.48 137.86 741.44 130.75 741.33 130.62 741.33 130.51 741.33 129.17 741.32 127.12 741.35 123.72 741.4 120.04 741.33 114.97 741.24 111.78 741.17 110.51 741.15 106.63 741.12 100.36 741.06 96.74 741.06 94.73 741.07 91 741.18 90.53 741.2 89.97 741.2 87.86 741.18 86.35 741.16 85.91 741.16 84.05 741.14 82.06 741.12 79.46 741.1 77.45 741.08 77.15 741.08 76.93 741.08 70.83 741.02 69.85 741.01 69.7 741.01 69.49 741.01 66.79 740.99 61.21 740.94 48.78 740.66 46.37 740.59 39.5 740.38 39.38 740.38 30.98 740.25 28.26 740.21 20.27 740.07 18.75 740.03 14.24 739.95 9.39 739.87 1 739.72 Z" opacity="0.5" fill="rgba(0,0,0,0.2)" stroke="rgba(0,0,0,0.8)" stroke-width="1"/>
</g>
<g id="roads" fill="none" stroke="black" stroke-width="1">
<path d="M 779.51 158.8 780.57 172.53 779.07 198.06 779.65 201.33" stroke="#aaa" stroke-width="0.6"/>
<path d="M 557.18 667.23 551.2 683.01 546.49 714.55 533.44 741.33" stroke="#aaa" stroke-width="0.6"/>
<path d="M 129.51 723.93 178.53 724.34 209.99 726.82 218.48 724.62 233.06 716.46 248.89 697.79 264.68 684.37 273.16 680.65 285.32 678.11 289.77 677.18 290.7 676.98 300.37 677.77 323.3 688.36 352.92 692.94 364.4 697.47 383.13 709.5 393.41 711.76 410.78 701.31 414.59 699.02 465.37 682.49 481.69 680.96 510.1 683.9 517.96 683.13 551.73 662.75 566.77 649.18" stroke="#aaa" stroke-width="0.6"/>
<path d="M 188.91 387.49 210.84 382.98 217.1 381.69 233.87 380.29 243.44 382.6 258.95 393.94 266.72 396.23 273.92 395.52 290.72 388.84 309.27 390.41 364.91 426.58 424.87 409.38 435.66 407.88 438.2 408.3 444.64 409.38 470.43 419.1 500.42 426.55 510.04 436.28 523.9 457.99 532.44 462.13 565.41 478.1 590.11 492.98 599.74 495.93 615.95 493.59 632.26 486.8" stroke="#aaa" stroke-width="0.6"/>
<path d="M 116.13 409.68 134.77 414.06 150.36 412.69 173.85 397.88 185.26 394.97" stroke="#aaa" stroke-width="0.6"/>
<path d="M 399.35 102.52 399.24 102.69 392.81 113.77 371.41 126.49 358.29 153.47 336.23 175.18 329.68 178.16 314.21 180.36 306.44 188.58 289.02 226.03 274.64 242.46 263.21 262.67 246.42 279.08 240.31 290.03 237.92 294.29 235.56 298.53 224.17 305.21 218.14 313.42 209.73 320.12 209.07 329.12 211.91 351.64 208.86 359.88 198.62 369.56 188.91 387.49" stroke="#aaa" stroke-width="0.6"/>
<path d="M 398.75 102.52 418.93 86.77 435.54 65.01 457.47 28.44" stroke="#aaa" stroke-width="0.6"/>
<path d="M 398.75 102.52 374.43 98.74 356.62 100.2 332.32 91.14 310.36 93.32 307.77 93.11" stroke="#aaa" stroke-width="0.6"/>
<path d="M 718.52 253.82 713.48 251.25 674.02 238.83 656.67 229.96 632.65 208.04 606.95 184.52 570.45 141.95 559.72 134.5 523.99 119.96 508.58 113.67 486.02 113.72 454.54 99.51 447.42 100.27 445.66 101.25 427.24 111.53 420.11 112.28 409.43 106.27 399.24 102.69 398.75 102.52" stroke="#aaa" stroke-width="0.6"/>
<path d="M 566.77 649.18 572.78 643.9 589.12 637.86" stroke="#aaa" stroke-width="0.6"/>
<path d="M 566.77 649.18 557.18 667.23" stroke="#aaa" stroke-width="0.6"/>
<path d="M 587 669.57 585.59 669.35 569.9 673.18 565.06 672.45 557.18 667.23" stroke="#aaa" stroke-width="0.6"/>
<path d="M 188.91 387.49 185.26 394.97 184.61 400.97 192.28 417.53 188 429.51 180.51 467.72 175.68 470.68 172.64 475.91 147.9 488.46 140.03 495.14 133.95 503.34 125.95 522.78 126.28 552.04 118.36 561.73 116.36 581.97 114.48 588.7 108.98 596.15 117.22 617.25 113.99 638.98 118.07 654.77 116.79 662.27 122.13 672.08 115.19 702.03 106.02 712.44 103.52 719.93 109 716.98 129.51 723.93" stroke="#aaa" stroke-width="0.6"/>
<path d="M 87.75 741.18 88.8 739.29 99.1 738.64 110.63 735.76 121.58 730.61 129.51 723.93" stroke="#aaa" stroke-width="0.6"/>
<path d="M 716.83 259.4 708.23 264.05 701.16 274.62 701.24 283.56 701.28 288.12 702.58 300.12 705.03 307.6 705.05 309.83" stroke="#aaa" stroke-width="0.6"/>
<path d="M 308.79 387.09 302.13 374.79 303.18 369.63 301.15 363.16 302.2 357.35 299.7 337.32 302.3 331.51 311.92 313.88 312.14 313.46" stroke="#aaa" stroke-width="0.6"/>
<path d="M 126.33 303.42 131.7 301.97 131.24 296.8 139.51 291.06 143.18 282.7 142.2 277.52 138.12 274.9 138.71 266.51 142.34 262.02 142.91 255.57 139.82 256.83 138.36 248.42 140.38 245.35 M 143.17 241.11 143.92 239.98 M 144.32 239.36 145.12 238.15 144.64 234.27 144.92 233.48 M 147.45 226.25 147.59 225.85 M 150.4 220.65 155 212.51 M 160.25 203.63 163.26 201.05 M 167.92 197.05 170.96 194.44 M 173.01 192.69 173.1 192.61 M 173.22 192.55 178.47 198.66 M 203.45 171.88 203.16 166.57 M 202.64 165.32 201.69 164.71 M 201.6 161.53 207.53 158.11 M 208.8 157.37 209.56 156.94 M 212.53 155.22 213.42 154.71 216.19 153.57 M 219.39 152.25 227.28 148.99 235.45 151.62 235.93 156.79 238.1 157.18 M 245.97 158.58 247.18 158.79 248.18 163.32 249.88 162.26 M 287.26 122.91 285.47 119.99 M 285.76 118.8 288.76 114.39 M 293.98 106.71 302.68 100.29 302.42 98.57 M 316.57 86.36 319.07 87.42 325.73 82.93 324.63 78.72 M 328.69 70.5 329.35 66.79 329.25 66.56 M 329.04 66.08 328.83 65.63 M 327.7 63.11 327.32 62.26 327.34 56.61 M 331.1 47.91 332.48 45.49 332.82 39.35 M 334.83 35.42 336.08 35.16 338.06 28.95 M 338.49 27.58 338.68 27 M 338.94 26.18 340.19 22.25 342.74 22.91 345.3 16.46 348.37 12.59" stroke="#aaa" stroke-width="0.6"/>
<path d="M 636.83 254.82 651.27 263.12 658.47 264.35 661.58 268.21 666.71 268.17 672.93 274.58 687.35 278.98 690.97 281.54" stroke="#aaa" stroke-width="0.6"/>
<path d="M 616.59 304.04 617.56 294.99 620.59 285.93 629.28 278.77 629.71 264.55 631.21 259.38 636.83 254.82 633.04 225.78 629.95 223.86 626.33 218.07 631.4 209 632.65 208.04 639.04 203.13 643.09 195.35 627.63 182.54 628.09 172.85 632.67 169.59 630.56 159.27 632.03 149.57 629.97 147 629.87 132.15" stroke="#aaa" stroke-width="0.6"/>
<path d="M 628.31 128.92 630.78 115.35 626.67 111.5 626.64 106.98 636.24 92.05 636.64 75.26 630.48 68.84 623.82 65.66 624.76 61.98" stroke="#aaa" stroke-width="0.6"/>
<path d="M 725.04 284.95 701.24 283.56 698.69 283.41 690.97 281.54" stroke="#aaa" stroke-width="0.6"/>
<path d="M 715.92 256.77 717.89 257.58" stroke="#aaa" stroke-width="0.6"/>
<path d="M 426.32 87.6 430.41 88.89 434.49 95.35 442.16 97.94 445.66 101.25 448.29 103.74" stroke="#aaa" stroke-width="0.6"/>
<path d="M 411.25 701.9 410.78 701.31 405.01 694.14 393.57 685.09 387.84 683.14 380.57 676.03 379.02 671.5 379.03 663.75 376.96 655.99 384.26 638.56 387.38 634.69 392.07 619.19 391.56 610.79 395.2 603.04" stroke="#aaa" stroke-width="0.6"/>
<path d="M 434.11 516.49 432.56 512.61 433.59 502.28 441.34 490.65 445.99 477.73 445.47 470.62 448.56 464.8 448.04 458.34 443.91 453.18 444.41 438.32 454.22 433.15 457.31 427.98" stroke="#aaa" stroke-width="0.6"/>
<path d="M 438.2 409.26 438.2 408.3 438.2 407.97 429.43 386.01 429.94 375.03 439.22 366.63 441.27 355.65 435.09 343.37 431.99 326.58 426.33 320.12 427.36 316.25 435.59 308.5 442.79 309.14 451.01 296.22 457.17 291.04 471.02 272.94 474.6 263.25 485.35 244.49 492.01 239.31 494.55 227.68 498.64 218.63 503.25 217.97 510.4 208.91 515.01 206.96 513.44 194.05 503.69 188.91 502.14 185.04 503.14 176.64 506.71 167.59 505.67 160.49 512.25 137.21 517.86 128.8" stroke="#aaa" stroke-width="0.6"/>
<path d="M 522.44 122.33 523.99 119.96 530.07 110.68 531.51 82.9 534.01 69.97 532.45 60.29 531.91 56.98" stroke="#aaa" stroke-width="0.6"/>
<path d="M 410.71 742.6 407.59 729.03 407.08 718.05 401.87 714.81 401.88 708.35" stroke="#aaa" stroke-width="0.6"/>
<path d="M 532.45 60.29 538.07 62.85 548.79 64.1 556.98 70.53 557 75.05 568.81 89.85 598 103.27 600.58 108.42 605.19 110.34 615.99 121.25 627.8 128.28 631.93 134.72 641.18 140.46 643.8 150.14 649.5 160.43 657.74 166.18 673.64 169.29 682.42 178.91 692.2 184.64 700.92 185.86 705.58 191.63 713.78 191.56 716.43 201.22 729.16 214.65" stroke="#aaa" stroke-width="0.6"/>
<path d="M 275.62 645.34 278.75 641.48 258.64 611.67 249.32 606.45 245.74 598.03 244.77 585.75 246.92 572.2 257.88 557.4 258.98 545.13 269.42 529.68 270.49 522.58 268.44 518.69 257.09 510.88 250.46 494.05 226.78 473.89 218.7 444.76 212.03 438.26 210.54 429.21 217.8 424.09" stroke="#aaa" stroke-width="0.6"/>
<path d="M 120.06 286.03 114.43 279.85 108.29 277.84 105.18 280.4 104.57 276.72" stroke="#aaa" stroke-width="0.6"/>
<path d="M 172.95 352.06 162.67 350.05 160.21 336.46 155.08 334.48 150.7 328.27" stroke="#aaa" stroke-width="0.6"/>
<path d="M 150.17 221.35 151.44 220.12 155.56 218.22 161.69 220.85 166.26 225.41 168.2 239.63 171.73 247.41 173.79 247.43 180.91 255.24 196.82 256.65 205.01 260.58 212.15 267.74 213.13 274.2 220.31 276.83 234.11 287.25 237.16 293.73 237.92 294.29 239.11 295.16 246.89 300.89 255.62 302.88 272.08 301.03 297.3 295.32 308.07 303.12 311.92 313.88 313.16 317.34 324.46 320.61 327.03 324.5 340.94 315.49 381.58 314.28 385.18 312.35" stroke="#aaa" stroke-width="0.6"/>
<path d="M 427.36 316.25 444.34 325.93 454.64 328.51 466.47 328.49 497.37 339.42 509.71 332.93 517.92 323.86 551.83 310.18 571.35 305.57 583.14 299.71 607.31 300.22 616.59 304.04" stroke="#aaa" stroke-width="0.6"/>
<path d="M 517.86 128.8 522.44 122.33" stroke="#aaa" stroke-width="0.6"/>
<path d="M 395.2 603.04 401.96 598.52 421.16 575.92 429.46 549.44" stroke="#aaa" stroke-width="0.6"/>
<path d="M 434.63 516.49 434.11 516.49" stroke="#aaa" stroke-width="0.6"/>
<path d="M 290.03 679 289.77 677.18 289.02 671.89 299.97 665.48 304.68 657.74 306.79 648.7 314.08 644.21 316.18 639.05 320.87 634.54 335.44 627.48 337.52 624.9 379.1 614 395.2 603.04" stroke="#aaa" stroke-width="0.6"/>
<path d="M 434.63 516.49 443.42 510.67 452.22 509.37 465.67 504.84 469.28 499.66 473.94 499.01 491.5 484.12 508.02 473.75 516.79 464.68 525.04 460.13 531.77 462.69 532.44 462.13 544.13 452.32 550.25 430.97 565.66 414.76 573.38 409.56 583.16 406.28 600.65 396.5 606.29 390.01 625.32 383.43 636.19 389.18 648.06 390.03" stroke="#aaa" stroke-width="0.6"/>
<path d="M 284.57 742.17 287.23 726.16 285.17 718.39 277.4 709.96 283.7 698.36 286.36 686.1 285.32 678.11 284.84 674.46 279.17 664.74 279.2 658.28 275.59 651.8 275.62 645.34" stroke="#aaa" stroke-width="0.6"/>
<path d="M 217.8 424.09 213.74 414.38 216.37 406.64 215.43 392.42 212.9 384.65 210.84 382.98 207.27 380.1" stroke="#aaa" stroke-width="0.6"/>
<path d="M 10.49 693.05 13.52 694.73 21.76 701.95 38.9 705.39 46.14 709.35 61.21 712.76 65.26 723.14 74.03 730.99 87.59 741.18" stroke="#aaa" stroke-width="0.6"/>
<path d="M 616.59 304.04 667.12 321.13 688.32 325.22" stroke="#aaa" stroke-width="0.6"/>
<path d="M 385.18 312.35 395.99 303.97 404.22 307.2 407.82 305.91 417.59 308.5 427.36 316.25" stroke="#aaa" stroke-width="0.6"/>
<path d="M 175.37 372.11 171.33 361.09 172.95 352.06" stroke="#aaa" stroke-width="0.6"/>
<path d="M 429.46 549.44 429.45 542.33 434.63 531.35 434.63 516.49" stroke="#aaa" stroke-width="0.6"/>
<path d="M 457.31 427.98 453.7 427.33 438.2 409.26" stroke="#aaa" stroke-width="0.6"/>
<path d="M 240.79 287.94 240.31 290.03 239.11 295.16 238.68 296.97 227.31 307.24 223.5 340.16 225 346.62 219.67 375.01" stroke="#aaa" stroke-width="0.6"/>
<path d="M 189.18 385.78 180.43 384.42 175.31 379.21 175.37 372.11" stroke="#aaa" stroke-width="0.6"/>
<path d="M 410.78 742.89 410.71 742.6" stroke="#aaa" stroke-width="0.6"/>
</g>
<g id="urban">
<path d="M 701.68 312.94 701.65 312.83 702.05 310.49 703.22 307.79 704.49 309.14 705.45 309.09 706.01 306.7 707.25 305.86 707.31 304.48 707.94 303.02 709.05 304.76 711.71 303.69 710.62 304.79 710.24 305.13 709.22 306.06 707.98 307.13 706.9 308.19 705.68 309.26 704.18 310.62 703.3 311.43 702.72 311.97 701.68 312.94 Z M 726.14 294.25 725.56 294.35 724.46 293.95 723.61 294 723.23 293.11 720.97 293.09 719.77 290.53 724.48 289.34 727.73 289.28 727.73 289.57 727.56 290.44 727.8 291.81 727.86 292 728.17 292.28 728.3 292.69 728.47 293.16 728.46 293.46 728.41 293.65 728.22 293.8 727.9 293.89 727.18 293.83 727 293.9 726.94 293.92 726.14 294.25 Z M 727.73 289.28 727.02 288.27 727.13 288.31 727.2 288.36 727.37 288.42 727.44 288.45 727.6 288.55 727.74 288.67 727.8 288.78 727.82 288.89 727.79 289.07 727.73 289.2 727.73 289.28 Z M 727.02 288.27 726.45 288.32 726.58 288.26 726.71 288.24 726.83 288.24 726.94 288.25 727.02 288.27 Z M 724.94 287.67 724.35 286.48 724.36 286.5 724.41 286.59 724.43 286.65 724.46 286.69 724.49 286.73 724.5 286.74 724.53 286.78 724.55 286.82 724.56 286.87 724.58 286.91 724.94 287.67 Z M 725.05 285.4 724.86 284.37 724.92 284.42 724.94 284.47 724.94 284.5 724.94 284.54 724.94 284.6 724.96 284.65 724.99 284.68 725.03 284.7 725.04 284.71 725.05 284.75 725.05 284.78 725.05 284.82 725.04 284.87 725.05 285.4 Z M 724.78 284.33 720.87 283.03 720.91 283 720.95 282.99 721.05 282.98 721.1 282.98 721.14 282.99 721.19 283.01 721.26 283.04 721.31 283.06 721.35 283.1 721.39 283.13 721.44 283.15 721.47 283.15 721.49 283.15 721.52 283.15 721.55 283.13 721.6 283.13 721.62 283.13 721.66 283.15 721.67 283.17 721.67 283.25 721.68 283.28 721.7 283.29 721.75 283.3 721.77 283.3 721.8 283.28 721.84 283.26 721.9 283.22 721.93 283.2 721.97 283.19 722 283.18 722.07 283.17 722.14 283.16 722.17 283.16 722.22 283.13 722.26 283.09 722.28 283.08 722.3 283.08 722.33 283.1 722.39 283.18 722.48 283.27 722.5 283.29 722.56 283.32 722.57 283.33 722.59 283.36 722.61 283.42 722.64 283.46 722.65 283.48 722.67 283.48 722.7 283.48 722.74 283.48 722.77 283.5 722.81 283.54 722.83 283.55 722.89 283.6 722.93 283.62 723.01 283.65 723.05 283.68 723.13 283.71 723.2 283.72 723.33 283.72 723.36 283.7 723.38 283.69 723.42 283.68 723.44 283.67 723.47 283.68 723.51 283.69 723.55 283.73 723.59 283.76 723.63 283.77 723.65 283.78 723.71 283.81 723.79 283.85 723.98 283.9 724.03 283.92 724.16 283.95 724.22 283.98 724.25 283.98 724.32 284.04 724.37 284.07 724.43 284.11 724.54 284.18 724.62 284.23 724.74 284.3 724.78 284.33 Z M 719.78 281.72 719.71 281.55 719.78 281.67 719.78 281.72 Z M 719.92 280.45 719.57 279.51 719.93 280.16 719.92 280.45 Z M 719.57 279.5 718.98 277.9 719.59 278.89 719.57 279.5 Z M 718.14 278.02 717.99 278.05 717.98 278.04 718.14 278.02 Z M 716.18 276.82 716.03 276.72 715.86 276.16 712.27 277.93 712.05 274.92 710.01 275.05 707.98 272.2 707.51 270.82 707.66 269.7 708.73 269.47 708.95 268.28 710.7 269.74 712.01 270.07 712.16 274.87 714.28 275.36 715.98 275.23 716.49 273.56 716.48 273.63 716.4 274.02 716.36 274.2 716.35 274.23 716.34 274.27 716.32 274.34 716.31 274.35 716.28 274.44 716.2 274.67 716.19 274.71 716.14 274.86 716.14 274.9 716.12 274.98 716.11 275.02 716.1 275.08 716.1 275.09 716.04 275.41 716.01 275.73 716.09 276.17 716.08 276.28 716.08 276.34 716.07 276.39 716.07 276.41 716.06 276.46 716.06 276.47 716.04 276.48 716.02 276.49 716.01 276.5 716.01 276.51 716.01 276.53 716 276.54 716 276.55 715.99 276.56 716.18 276.82 Z M 715.43 269.2 713.89 263.66 712.8 260.78 712.5 259.28 716.29 252.77 718.38 254.32 718.52 254.6 718.1 255.97 717.94 256.49 717.91 257.12 717.9 257.21 717.87 258.41 716.78 258.36 716.76 258.44 716.84 258.6 716.83 258.66 716.85 258.81 716.8 258.86 716.77 258.94 716.68 259.04 716.61 259.23 716.58 259.24 716.57 259.31 716.6 259.38 717.07 259.42 716.88 260.1 716.87 260.11 716.68 260.78 716.74 261.85 716.72 261.98 716.72 262.01 716.2 263.52 715.96 263.91 715.62 264.57 715.43 265.27 715.11 266.43 715.23 266.66 715.29 266.94 715.43 269.2 Z M 719.31 248.84 719.23 246.02 719.35 247.44 719.32 248.76 719.31 248.84 Z M 721.65 242.97 717.09 240.15 716.74 239.52 719.05 237.55 723.01 238.31 722.24 240.81 721.65 242.97 Z M 769.71 208.36 770.05 208.05 769.97 208.26 769.71 208.36 Z M 778.71 201.68 778.58 201.25 777.35 199.37 777.79 197.68 778.73 198.3 779.33 199.84 779.25 201.48 778.81 201.64 778.71 201.68 Z M 779.25 201.48 781.06 200.43 780.37 201.05 779.25 201.48 Z M 775.57 206.91 773.19 205.95 774.96 205.56 775.39 204.18 776.32 203.26 775.57 206.91 Z" fill-rule="evenodd" fill="rgba(0,0,0,0.1)" stroke="none"/>
<path d="M 448.83 104.5 448.43 103.79 442.96 105.14 438.53 105.88 436.61 106.39 432.61 107.82 430.41 112.67 429.01 114.94 427.94 115.67 425.58 116.44 424.49 117.42 422.87 119.93 420.87 122.38 419.77 122.49 418.65 121.41 416.18 121.1 415.94 119.79 416.79 115.07 414.41 115.02 412.51 116.8 410.8 119.6 409.48 120.49 406.91 121.24 410.12 116.34 413.31 110.92 409.79 109.7 411.6 108.36 411.64 107.04 409.98 105.01 413.82 102.31 414.81 100.98 416.47 101.14 418.21 98.71 416.54 98.14 417.05 96.23 416.31 94.19 417.26 92.47 415.01 90.75 411.77 89.68 413.14 88.98 414.43 89.66 415.61 90.9 416.99 88.76 416.95 87.4 417.81 85.39 418.78 85.59 419.79 82.82 421.59 83.68 423.22 84 424.94 81.79 424.62 81.02 426.01 78.69 427.84 76.8 427.73 74.24 427.96 72.58 429.43 73.37 432.96 71.09 434.26 69.53 434.65 68.01 435.54 67.38 437.76 68.94 439.13 66.69 442.39 60.37 443.35 59.15 443.24 57.39 440.75 56.14 440.04 56.61 438.59 56.41 439.18 53.27 441.47 48.5 442.75 48.3 442.52 50.45 443.04 51.56 442.67 53.09 445.24 54.23 446.65 55.45 450.01 55.94 451.76 56.6 453.42 58.42 451.9 60.09 451.41 61.64 450.01 60.91 449.68 61.84 448.35 63.33 448.54 65.73 449.21 66.26 448.07 68.31 447.34 70.4 444.26 70.32 443.33 69.52 438.28 68.24 437.82 68.98 440.38 70.53 442.53 69.83 443.14 70.48 443.85 72.56 443.84 75.74 442.71 78.23 442.96 79.01 445.76 81 447.49 81.49 448 82.68 446.16 84.12 446.69 85.55 447.93 86.74 447.05 87.55 445.94 89.41 442.56 89.5 442.84 91.85 443.97 92.04 443.22 93.43 444.59 94.05 445.89 93.26 448.51 95.47 447.94 96.99 446.13 98.2 446.85 98.87 449.54 98.18 450.48 98.2 450.46 96.77 451.51 95.39 452.15 96.75 451.56 99.81 450.07 100.56 450.36 102.21 450.98 103.21 456 104.28 461.92 106.11 461.7 107.57 458.1 105.34 453.44 105.94 449.95 105.45 448.83 104.5 Z M 466.15 108.61 468.01 109.12 471.63 111.75 470.56 111.99 468.51 113.68 468.5 114.56 469.39 116.2 468.06 116.96 468.29 118.57 468.14 120.94 466.76 121.79 466.48 123.33 464.66 121.27 462.79 120.02 461.99 118.35 462.63 117.27 462.53 116.22 460.94 115.08 460.1 113.2 459.93 111.9 461.91 110.52 463.67 109.67 464.6 108.25 466.15 108.61 Z" fill-rule="evenodd" fill="rgba(0,0,0,0.1)" stroke="none"/>
<path d="M 363.2 81.79 368.41 82.4 369.69 83.09 369.48 85.71 368.07 85.35 367.56 86.8 366.01 86.32 363.88 87.69 362.64 87.72 363.34 90.24 360.09 90.3 358.9 91.15 357.51 90.36 353.65 90.63 353.32 88.89 351.96 88.51 350.92 88.78 349.5 87.69 349.06 85.43 349.82 85.01 348.77 83.56 346.97 83.57 346.77 82.89 347.89 80.94 349.33 79.62 351.27 78.91 352.94 79.49 354.83 78.36 356.03 76.95 356.8 78.69 356.77 79.98 358.44 79.72 360.47 81.18 362.93 80.49 363.2 81.79 Z" fill="rgba(0,0,0,0.1)" stroke="none"/>
<path d="M 469.44 420.48 467.62 420.02 466 421.25 466.62 422.85 467.26 422.15 470.04 425.66 468.88 426.77 467.7 427.14 467.07 428.37 465.43 428.5 465.57 427.22 464.24 425.35 464.06 424.1 462.71 423.13 460.69 422.51 459.75 424.48 461.04 425.32 462.21 427.36 459.92 428.07 458.74 427.33 457.32 428.29 462.74 428.72 464.56 429.49 463.63 430.61 463.54 432.55 461.07 433.77 460.28 431.76 458.64 432.13 456.09 431.04 454.18 429.57 454.82 428.48 456.68 429.14 457.76 427.46 457.01 426.73 455.25 426.79 453.41 424.45 454.11 422.59 455.69 420.28 456.25 418.31 455.77 417.56 455.84 415.84 458.19 414.95 456.96 413.33 456.16 414.77 452.05 413.14 451.16 409.7 452.89 410.16 456.49 412.5 457.16 412.49 457.63 411.01 459.17 410.77 460.78 412.67 461.61 412.94 461.47 408.68 462.83 408.16 464.51 406.27 466.04 406.74 466.05 409.91 466.29 411.3 464.67 411.31 463.96 412.27 466.67 412.98 470.37 416.5 470.25 418.68 470.9 419.78 470.06 421.03 469.44 420.48 Z M 463.01 404.4 461.59 404.55 461.45 402.48 463.81 402.44 463.66 404.17 463.01 404.4 Z" fill-rule="evenodd" fill="rgba(0,0,0,0.1)" stroke="none"/>
<path d="M 475.5 143.42 476.16 142.88 479.58 141.66 480.02 140.09 480.92 138.96 480.94 137.5 482.08 138.12 484.11 138.24 487.09 139.39 488.97 141.83 490.4 142.51 493.2 146.89 491.91 148.19 495.11 149.84 496.92 152.64 497.29 153.65 493.55 154.93 490.21 154.76 489.41 154.94 487.21 158.17 485.84 161.03 485.92 162.47 483.81 160.26 483.37 158.29 481.8 156.81 479.81 156.14 477.38 153.05 476.79 151.91 477.47 150.69 479.81 148.89 480.56 147.36 480.11 145.87 479.07 145.22 477.6 146.07 476.33 145.66 474.95 146.37 473.28 145.31 472.81 143.84 474.32 143.98 475.5 143.42 Z" fill="rgba(0,0,0,0.1)" stroke="none"/>
<path d="M 148.77 479.74 149.35 480.33 149.67 482.44 152.28 485.93 155.29 487.6 157.89 488.77 159.12 490.24 158.09 492.59 157.35 495.24 154.89 496.42 152.95 498.59 154.19 500.45 154.4 501.45 151.71 506.12 151.03 508.65 150.01 509.2 148.38 507.22 148.37 505.29 143.8 505.68 143.05 504.16 144.82 503.13 146.7 499.82 145.22 496.66 145.91 495.41 142.59 492.91 142.98 492.28 143.19 489.86 143.95 488.95 145.59 488.63 146.77 487.4 148.47 486.35 147.78 480.44 148.77 479.74 Z M 148.77 479.74 148.74 477.87 149.91 477.78 149.55 479.47 148.77 479.74 Z M 156.5 482.85 158.46 480.82 159.82 481.6 158.76 483.62 156.47 484.14 156.5 482.85 Z" fill-rule="evenodd" fill="rgba(0,0,0,0.1)" stroke="none"/>
<path d="M 141.8 383.72 142.02 382.55 142.1 382.47 142.19 381.94 142.64 381.46 142.31 381.03 143.14 380.77 144.57 379.27 141.54 375 139.6 373.28 139.42 370.22 139.9 367.62 140.65 367.2 141.75 368.37 142.48 367.72 143.71 368.2 144.52 369.18 145.62 369.02 146.74 370.6 146.83 372.03 145.51 373.01 146.05 374.57 148.03 374.5 150 375.86 152.3 374.4 153.9 373.78 153.07 371.99 152.72 369.62 154.13 368.43 155.7 368.97 155.91 370.53 158.3 371.14 159.31 372.32 160.63 372.62 162.26 371.66 164.27 372.82 164.78 372.22 166.53 372.79 166.77 373.92 167.93 373.7 168.86 375.17 169.4 374.47 171.69 372.81 168.69 371.07 168.44 369.86 169.59 368.46 170.81 369.36 171.62 370.7 172.85 371.48 174.81 369.14 173.12 367.04 172.46 365.72 172.37 364.03 173.08 362.43 174.05 362.74 174.78 361.25 171.75 359 169.37 360.48 168.29 360.45 167.49 361.37 169.14 362.47 166.5 366.06 165.06 365.33 163.78 363.3 164.43 360.85 165.4 358.46 164.6 357.09 161.41 357.43 159.9 357.16 158.88 354.8 160.64 353.56 160.86 351.86 160.59 349.78 162.3 349.03 163.59 350.17 166.66 350.3 167.59 345.69 168.5 346.22 169.36 345.34 171.01 345.75 172.63 345 172.44 346.57 173.96 346.82 178.71 343.24 179.98 344.18 180.3 342.49 180.9 342.01 181.75 344.04 182.01 347.24 182.79 348.71 184.43 347.75 186.86 348.44 187.27 350.04 188.93 348.94 187.99 347.69 187.52 345.62 187.94 344.6 189.26 347.48 190.09 348.46 194.81 352.48 199.34 355.49 200.75 356.85 203.23 360.81 204.41 360.86 203.43 357.66 203.6 355.46 204.64 353.63 205.35 353.39 207.18 350.72 208.98 349.43 206.86 348.2 206.07 345.89 206.05 343.96 206.67 342.48 205.49 341.96 202.61 339.8 200.71 339.3 200.71 338.22 201.79 334.25 206.86 329.38 209.38 325.4 210.87 325 212.18 325.31 214.21 327.11 218.13 329.99 218.57 331.47 219.62 333.27 221.09 334.28 222.58 336.73 222.6 339.63 221.7 340.55 222.15 342.96 221.99 343.94 223.29 346.16 224.44 345.92 226.11 348.62 226.05 352.4 222.24 352.41 221.63 352.75 220.51 355.45 219.53 356.92 217.16 359.03 218.53 361.36 219.44 361.69 220.31 366.19 218.38 365.19 215.08 364.85 210.04 361.51 208.96 363.21 207.76 364.27 206.04 366.67 208.6 369.91 207.94 371.72 209.47 374.28 208.91 376.01 207.8 376.87 207.01 376.7 206.15 379.47 207.42 380.39 211.35 379.31 212.76 378.65 213.14 380.8 212.38 382.37 212.31 383.82 210.51 384.95 207.16 381.77 204.81 381.28 202.44 382.11 200.47 383.45 195.5 387.73 193.77 390.23 193.84 391.48 192.71 393.51 191.41 394.58 191.28 396.14 192.92 398.06 193.99 399.98 193.06 400.75 193.73 404.1 195.98 406.93 195.19 408.02 198.11 407.71 198.12 410.53 196.45 411.89 197 413.24 199.83 412.21 201.74 412.34 201.22 414.14 200 413.66 200.18 415.18 198.57 414.84 196.74 415.5 197.39 413.94 195.99 413.28 192.37 408.88 189.38 410.24 187.41 407.27 186.92 405.98 185.76 407.49 184.91 407.97 183.97 406.35 182.23 409.65 178.84 413.6 178.19 412.8 176.85 409.65 174.55 407.91 172.8 409.34 170.88 408.95 170.09 409.21 171.09 411.5 169.41 411.33 167.24 409.91 164.42 410.1 164.69 412.2 163.5 415.95 163.89 418.21 161.07 420.4 159.83 420.65 158.58 418.83 156.23 417.66 154.67 414.88 152.57 414.27 151.93 415.28 150.39 414.96 150.99 411.64 155.19 411.53 155.4 409.54 154.54 407.88 154.75 406.62 152.85 402.82 152.48 401.38 151.22 400.07 149.7 399.6 148.45 400.2 147.87 402.03 146.87 402.91 145.42 401.58 148.44 393.02 149.68 392.18 150.99 392.16 153.03 392.8 154.63 392.24 155.44 390.48 154.41 389.09 153.61 387.32 151.64 387.1 146.57 385.1 141.59 384.84 141.81 383.73 141.8 383.72 Z M 141.59 384.84 140.87 386 141.19 385.17 141.59 384.84 Z M 155.74 362.68 156.53 363.79 158.27 365.09 159.73 365.27 160.86 366.13 161.92 365.69 162.83 366.81 161.28 367.27 161.57 369.07 159.55 369.03 157.65 368.39 157.1 367.17 157.19 365.83 155.62 365.27 154.83 363.97 153.64 364.54 152.16 363.2 153.65 362.62 154.17 361.92 155.74 362.68 Z M 140.65 367.2 140.14 366.22 140.11 364.66 139.59 363.49 146.92 361.11 146.71 361.94 147.66 363.77 147.11 364.3 144.03 365.03 143.05 364.48 140.65 367.2 Z M 201.07 334.39 199.64 335.36 197.9 335.81 196.62 335.38 196.55 333.87 197.46 332.14 200.64 331.16 201.68 334.04 201.07 334.39 Z M 190.99 416.78 191.23 415.93 192.66 415.37 193.89 418.72 192.45 418.53 192.18 416.9 190.99 416.78 Z M 198.53 402.12 198.76 401.48 201.14 402.42 202.16 404.29 199.69 404.48 200.61 402.98 198.53 402.12 Z M 214.11 388.16 215.7 392.98 215.09 394.64 213.09 394.45 212.54 392.7 213.32 390.7 212.61 390.29 212.18 388.75 212.73 387.98 214.11 388.16 Z" fill-rule="evenodd" fill="rgba(0,0,0,0.1)" stroke="none"/>
<path d="M 558.31 655.62 560.18 654.21 562.91 653.09 562.53 655.41 563.15 657.62 562.81 658.95 560.82 663.36 559.08 668.05 560.21 667.48 561.75 668.1 563.03 667.25 562.76 669.83 564.09 672.5 568.06 674.41 568.36 677.38 564.01 677.41 563.59 676.05 562.56 674.64 563.15 673.1 562.14 672.09 561.31 672.21 559.62 673.35 556.63 671.96 558.02 669.35 557.77 667.55 556.79 665.05 553.92 667.17 554.25 668.66 552.67 670.03 550.15 670.84 549.8 670.29 550.98 668.86 548.63 667.86 549.83 666.67 548.86 664.83 547.75 664.36 543.66 665.89 543.85 667.51 542.58 668.12 542.58 670.96 541.22 670.95 539.39 670.08 539.32 669.55 543.16 666.11 544.89 664.85 545.65 660.38 548.03 658.21 549.16 658.28 550.51 656.74 550.37 655.34 552.62 655.21 553.12 653.81 554.82 653.71 555.94 652.89 557.2 655.18 558.31 655.62 Z" fill="rgba(0,0,0,0.1)" stroke="none"/>
<path d="M 285.77 666.62 286.64 667.39 288.12 667.56 291.57 669.19 292.6 668.6 292.52 670.67 292.95 672.21 291.71 673 291.47 675.55 288.7 675.42 286 676.53 285.65 679.12 287.74 678.99 287.82 679.71 285.53 680.1 286.87 681.78 285.42 682.06 283.11 681.48 284.92 678.79 285.04 677.99 283.17 676.95 282.85 676.21 280.16 675.46 279.54 674.57 277.6 674.4 276.52 672.23 274.94 670.16 276.1 669.48 277.91 669.5 276.48 667.79 275.53 665.73 276.91 664.78 276.64 662.83 274.94 657.34 274.17 657.01 273.47 654.48 275.03 654.75 275.62 652.72 276.7 653.87 277.62 655.96 279.19 658.45 280.29 658.83 280.59 656.56 281.53 657.08 282.23 656.57 282.22 654.42 283.13 653.79 283.89 654.47 285.54 654.96 285.02 658.36 283.48 660 283.23 662.45 281.13 663.08 280.95 665.78 281.18 667.15 283.27 665.97 284.78 665.93 285.77 666.62 Z M 268.12 656.44 270.09 655.27 273.44 657.46 272.65 659.28 270.89 658.94 269.28 659.86 268.8 659.38 268.89 657.24 268.12 656.44 Z" fill-rule="evenodd" fill="rgba(0,0,0,0.1)" stroke="none"/>
<path d="M 110.51 741.15 106.63 741.12 106.74 739.43 104.35 739.61 99.57 738.98 99.34 739.59 96.94 740.86 96.75 741.06 96.74 741.06 94.79 741.07 94.85 740.21 96.38 739.77 97.35 736.64 96.92 734.28 94.73 735.49 92.52 734.45 92.82 732.29 91.71 732.66 90.87 733.7 89.39 738.3 87.34 738.45 86.73 740.32 84.83 740.51 85.45 739.16 86.48 738.55 85.21 736.57 85.86 732.31 88.46 730.65 89.17 731.39 90.31 729.02 90.52 727.33 91.23 725.77 91.28 724.47 90.29 723.75 87.98 723.42 86.99 723.65 85.76 722.82 84.65 720.65 85.42 719.4 85.13 717.65 84.17 716.57 82.25 716.47 78.13 717.75 76.75 717.8 74.87 717.28 73.47 715.6 74.32 713.5 75.82 714.67 78.56 715.14 79.72 714.76 79.62 712.68 80.06 710.96 81.67 708.72 83.37 708.58 84.96 709.54 87.03 709.7 87.96 709.39 89.36 709.73 91.25 710.71 92.69 710.45 94.97 711.69 95.96 713.09 97.84 712.4 99.65 715.38 101.02 716.27 103.3 715.6 103.86 713.29 104.83 712.75 106.03 710.09 104.66 707.79 105.94 705.91 106.56 704.27 107.2 703.83 108.84 701.39 110.16 697.96 111.14 697.8 111.88 696.88 112.86 697.99 113.98 697.4 114.28 698.93 113.83 699.89 116.12 699.65 117.51 697.13 120.21 696.12 120.52 698.06 121.97 700.83 119.56 700.08 118.43 701.3 120 703.52 118.85 705.5 117.9 705.76 116.94 707.22 116.53 710.1 119.73 709.94 122.08 711.13 122.03 708.98 124.72 709.16 124.44 712.15 123.49 713.91 121.46 715.07 122.31 716.67 121.17 717.77 121.65 718.54 125.96 718.17 130.3 715.09 130.72 713.43 132.11 713.32 133.04 715.25 135.09 715.41 134.72 721.16 133.62 724.3 130.92 724.27 131.85 727.15 129.45 727.06 127.27 727.45 125.01 728.58 124.03 728.68 122.9 727.96 124.12 726.53 125.08 724.05 123 722.41 122.28 723.99 121.18 724.64 119.33 725.06 118.66 726.24 119.35 729.63 117.04 730.6 115.69 732.99 114.38 734.64 113.01 737.05 112.83 738.04 110.67 738.7 110.51 741.15 Z M 91.01 736.69 92.06 737.19 91.61 738.24 90.13 738.04 91.01 736.69 Z M 95.23 705.77 92.74 704.29 90.79 704.08 85.8 702.39 86.8 700.92 89.52 703.12 90.23 701.98 89.66 701.26 91.06 699.49 91.53 700.79 92.84 701.42 94.56 700.77 98.09 702.14 98.49 704.12 101.85 707.9 100.3 707.53 97.65 707.91 96.01 707 95.23 705.77 Z M 105 695.67 102.29 697.24 99.63 695.82 99.82 694.33 100.44 693.48 101.19 689.94 101.04 688.36 103.04 684.59 102.23 682.93 102.26 681.95 100.32 682.44 97.57 681.93 97.13 679.78 97.76 678.56 99.58 676.57 100.32 677.3 101.88 680.02 103.52 681.6 104.97 678.19 105.94 677.74 108.43 680.82 109.67 681.32 110.53 683.04 111.81 683.99 110.97 685.18 110.93 687.16 109.86 691.13 109.87 693.07 111.59 696.19 110.38 696.7 109 694.2 108.07 694.7 106.42 696.5 105 695.67 Z M 138.27 724.44 138.32 722.06 140.03 722.97 140.11 723.85 142.5 724.05 142.52 722.31 144.89 722.41 144.86 726.77 141.96 727.51 140.93 726.18 140.72 724.47 138.27 724.44 Z M 138.27 724.44 138.41 725.76 137.23 725.68 135.67 724.41 138.27 724.44 Z" fill-rule="evenodd" fill="rgba(0,0,0,0.1)" stroke="none"/>
</g>
</svg>