<?xml version="1.0"?>
<svg xmlns="http://www.w3.org/2000/svg" version="1.2" baseProfile="tiny" width="800" height="599" viewBox="0 0 800 599" stroke-linecap="round" stroke-linejoin="round">
<g id="district">
<path d="M 223.56 597.9 217.1 594.15 211.83 591.12 211.14 590.74 209.46 589.82 208.91 589.46 207.26 587.76 206.83 587.31 208.75 583.62 217.19 567.71 223.09 556.56 227.95 547.5 232.5 538.75 236.36 530.7 236.34 530.64 236.2 530.44 236.08 530.25 235.98 530.09 235.82 529.82 232.17 523.72 231.82 523.3 229.51 519.66 227.39 515.92 224.35 510.98 224.04 510.53 223.47 509.7 223.35 509.51 222.05 507.41 221.99 507.33 220.99 505.73 220.92 505.62 219.97 504.14 219.91 504.03 219.86 503.96 219.83 503.9 217.47 500.08 217.05 499.4 214.91 496.04 209.08 486.83 207.89 484.95 202.45 476.28 196.78 467.29 195.73 465.55 194.53 463.7 187.32 452.52 185.64 449.58 181.78 443.36 179.27 439.47 179.19 439.44 178.89 438.95 177.73 437.07 176.69 435.33 175.35 433.17 174.82 432.36 173.97 431.21 173.69 430.74 173.37 430.63 172.19 430.18 169.28 428.78 169.2 427.23 169.02 427.15 168.3 426.84 168.25 425.83 165.55 425.97 165.55 425.73 164.64 425.78 164.61 425.08 162.98 425.17 163.02 425.83 160.7 424.72 160.24 424.53 160.1 424.48 159.85 426.18 159.4 427.96 159.31 427.92 158.57 429.8 157.92 431.23 157.87 431.35 157.66 431.25 157.19 431.27 156.21 431.34 155.34 431.39 154.74 431.42 153.38 431.5 152.66 431.55 152.64 431.23 151.92 431.27 151.94 431.59 151.65 431.61 151.55 431.61 151.16 431.63 150.43 431.68 149.99 431.7 149.57 431.72 148.12 431.8 145.96 431.93 145.15 432.4 144.21 432.95 144.2 432.79 144.16 431.9 144.12 431.02 143.06 431.08 141.24 431.19 140.81 431.22 139.03 431.32 138.28 432.25 137.73 432.94 137.53 433.19 137.05 433.81 134.16 437.42 134.03 437.58 133.29 438.49 133.1 438.67 131.09 437.05 129.61 435.87 122.33 440.13 123.22 441.55 121.39 442.64 115.24 446.22 114.96 447.45 115.06 449.1 115.93 449.57 116.33 449.34 116.3 450.3 117.36 450.02 117.54 450.69 117.81 450.66 118.23 449.92 118.91 450.76 119.59 450.32 120.03 451.11 117.11 452.81 113.13 455.13 111.33 456.17 110.07 456.91 108.72 457.69 108.33 457.92 104.88 459.92 104.01 460.4 102.26 460.66 98.2 460.86 96.2 460.95 89.09 461.28 84.6 461.52 84.49 461.53 83.06 461.65 79.76 461.85 79.21 461.82 77.99 461.72 78.04 462.07 78.26 463.42 79.27 464.64 79.83 466.75 76.91 466.89 76.7 466.9 74.91 467.01 70.63 467.22 63.33 467.6 63.29 467.49 60.89 467.72 59.1 467.81 47.23 468.4 45.26 468.48 40.68 468.74 40.07 468.77 37.1 468.94 36.52 468.97 36.41 468.98 35.7 469.02 31.53 469.24 28.47 469.4 26.63 469.5 23.77 469.63 21.64 469.74 19.17 469.89 17.59 469.96 16.58 470.01 16.54 470 16.5 469.96 9.94 470.29 11.13 469.55 11.46 469.05 11.63 468.32 11.42 467.54 10.48 466.37 9.9 465.23 9.87 464.58 9.86 464.35 10.08 463.77 10.29 463.54 10.51 463.38 10.85 463.27 12.19 463.15 12.62 463.07 13.15 462.76 13.46 462.16 13.54 461.73 13.48 461.32 13.14 460.93 12.81 460.61 12.51 460.43 12.11 460.26 11.57 459.75 10.94 459.46 10.64 459.22 10.48 458.63 10.55 458.34 10.69 458.08 10.84 457.94 11.34 457.63 11.52 457.42 11.67 457.13 12 455.67 12.19 454.78 12.47 453.87 12.51 453.42 12.5 452.52 12.46 451.84 12.93 451 13.12 450.48 13.37 449.59 13.5 449.22 13.66 448.46 13.8 447.96 14.62 446.8 14.98 446.34 15.25 446.03 15.33 445.82 15.87 445.05 16.14 444.78 16.59 444.49 17.07 444.36 17.73 444.31 19.01 444.59 19.45 444.56 19.87 444.4 20.57 444.04 20.96 443.72 21.89 443.01 23.28 442.56 23.87 442.32 24.19 442.14 24.32 441.43 24.3 441.19 23.59 440.1 23.36 439.68 23.18 439.15 23.12 438.56 23.23 438.21 23.42 437.97 23.98 437.63 24.33 437.3 24.68 436.76 24.77 436.43 24.77 436.02 24.67 435.61 24.23 434.62 23.36 433.27 23.05 432.33 22.86 432.04 22.01 430.3 21.85 430.11 21.28 429.6 20.74 429.3 20.25 428.83 20.08 428.44 20.03 427.94 20.22 427.58 21.03 426.97 21.32 426.8 21.54 426.6 21.75 426.31 21.94 425.84 22.1 424.32 22.58 422.71 22.65 422.08 22.63 421.75 22.31 421.22 22.27 420.5 22.28 420.48 22.31 420.4 22.34 420.3 22.35 420.23 22.37 420.16 22.44 419.94 22.47 419.84 22.48 419.83 22.6 419.65 22.67 419.53 22.71 419.46 22.74 419.41 22.88 419.23 22.97 419.12 23.03 419.06 23.22 418.91 23.41 418.78 23.58 418.68 23.8 418.58 23.93 418.52 24.01 418.48 24.21 418.41 24.6 418.27 24.79 418.24 25 418.25 25.2 418.27 25.37 418.31 25.48 418.36 25.7 418.48 25.8 418.55 25.93 418.69 25.99 418.82 26.04 418.86 26.1 418.97 26.15 419.1 26.17 419.26 26.17 419.59 26.18 419.68 26.17 419.83 26.22 420.14 26.3 420.34 26.35 420.43 26.44 420.53 26.62 420.7 26.83 420.84 27.04 420.92 27.19 420.97 27.33 421 27.45 421 27.55 421 27.85 420.94 28.03 420.88 28.14 420.82 28.33 420.67 28.45 420.57 28.55 420.5 28.63 420.41 28.79 420.24 28.88 420.11 29.06 419.92 29.11 419.74 29.16 419.6 29.28 419.11 29.31 418.97 29.31 418.41 29.32 418.15 29.31 417.64 29.31 417.4 29.29 417.15 29.28 416.82 29.29 416.06 29.29 415.9 29.34 415.5 29.36 415.22 29.38 414.4 29.36 414.1 29.37 413.73 29.37 413.54 29.39 413.01 29.4 412.83 29.52 411.22 29.47 411.1 29.45 411.05 29.33 410.79 29.31 410.76 29.17 410.54 28.99 410.28 28.9 410.15 28.66 409.87 28.56 409.79 28.49 409.73 28.37 409.65 28.35 409.64 28.2 409.55 27.9 409.01 26.22 408.42 24.84 407.25 23.95 404.04 23.22 402.44 22.91 401.39 23.26 400.19 23.95 399.67 24.43 398.81 24.47 397.86 23.93 396.41 21.1 396.07 20.75 395.87 20.23 395.57 19.35 394.64 19.06 393.91 19 393.3 19.21 392.03 19.82 391.29 20.23 391.16 20.54 390.47 20.38 389.87 20.08 389.56 19.55 389.39 18.2 389.31 17.3 388.99 16.36 388.36 15.87 388.06 14.81 387.74 13.29 387.73 12.28 387.3 11.68 386.34 11.59 385.64 11.27 384.92 11.06 384.71 10.09 384.85 9.5 385.68 9.35 386.66 9.23 388.28 8.68 389.19 8.01 389.74 7.89 389.74 7.34 390.09 6.53 390.33 6.25 390.36 5.96 390.32 5.69 390.19 5.32 389.82 5.18 389.43 5.41 388.79 5.55 388.64 6.16 388.21 6.53 387.88 6.68 387.79 7.09 387.41 7.49 386.86 7.63 386.35 7.62 385.73 7.31 385.38 6.93 385.16 6.38 385.15 5.75 385.31 5.37 385.51 4.75 385.73 4.42 385.81 4.07 385.83 3.74 385.78 3.35 385.64 3.15 385.5 2.85 385.2 2.58 384.67 2.52 384.34 2.58 383.91 2.69 383.48 2.94 383.06 3.27 382.61 3.7 382.31 4.05 382.19 4.25 382.19 5.75 382.69 6.18 382.68 6.95 382.28 7.3 381.72 7.74 379.13 7.85 378.18 7.7 377.71 7.37 377.14 6.23 376.5 5.31 376.69 4.76 377.11 4.46 377.72 4.03 379.16 3.59 379.86 3.04 380.19 2.21 380.11 1.75 379.61 1 377.93 1.1 377.85 1.19 377.77 1.44 377.56 7.87 374.83 7.47 372.6 7.5 372.17 7.75 371.98 7.31 371.39 6.58 370.42 7.07 369.83 7.12 369.77 6.9 369.59 7 369.44 7.04 369.38 7.05 369.21 7.04 368.89 6.99 367.67 6.98 367.56 6.93 366.12 5.6 366.52 5.6 366.53 5.59 366.53 5.58 366.53 5.57 366.54 5.56 366.54 5.55 366.54 5.54 366.55 5.53 366.55 4.65 366.54 4.54 365.99 4.48 364.81 4.18 359.39 4.17 359.04 5.93 359.67 7.3 358.4 7.57 358.12 7.48 356.87 7.25 355.82 7.23 355.75 7.14 355.25 7.13 354.98 6.01 354.14 5.94 354.12 5.96 353.86 6 353.67 6.03 353.6 6.1 353.37 6.16 353.23 6.28 352.98 6.44 352.74 6.61 352.52 6.68 352.43 6.71 352.46 8.92 354.1 10.69 355.42 11.19 355.78 12.42 356.71 13.37 357.82 13.4 357.87 14.55 359.27 14.6 359.34 14.89 358.95 14.92 358.5 14.88 357.55 14.87 357.49 14.75 356.16 14.8 355.74 14.81 355.7 14.76 354.89 14.75 354.49 16.61 354.38 16.94 354.09 17.57 354.08 18.52 354.28 19.99 354.13 20.4 353.96 20.98 353.66 21.62 354.63 21.82 354.98 21.96 355.47 22.92 355.37 23.37 355.43 23.8 355.54 24.32 356.41 24.98 356.68 24.93 357.63 24.46 357.77 24.59 358.19 25.48 358.7 25.87 360.22 25.44 360.52 25.39 361.11 25.4 361.15 23.89 361.16 23.41 361.17 22.98 361.19 21.44 361.28 20.7 361.17 20.43 361.5 20.64 361.6 20.82 361.85 20.86 362.37 20.8 362.67 20.68 362.88 19.99 363.52 19.64 363.82 19.56 364 19.48 364.05 18.81 364.54 18.86 364.61 19.9 365.86 20.81 367.5 21.12 368.01 21.62 368.87 21.66 368.94 22.49 370.35 22.54 370.42 23.08 371.1 23.7 371.51 25.02 371.61 25.08 371.61 25.11 371.6 25.14 371.6 26.27 371.6 27.78 371.99 27.86 372.04 29.01 372.38 32.07 373.33 32.94 373.62 33.05 373.65 33.12 373.68 34.8 374.16 35.7 374.44 35.8 374.48 39.62 375.67 39.71 375.68 40.01 375.8 42.48 377.14 44.52 378.25 44.59 378.3 46.16 379.2 47.53 379.96 49.38 380.97 49.85 381.23 51.01 381.9 51.3 382.07 53.16 383.09 54.6 383.9 54.69 383.96 56.12 384.72 58.75 386.23 59.24 386.48 59.33 386.53 59.41 386.59 59.52 386.24 60.03 386.23 60.06 386.72 60.64 386.69 61.24 386.65 61.86 386.61 61.89 387.08 62.5 387.05 62.57 388.35 63.77 388.97 65.83 390.13 66.71 385.94 66.92 384.95 67.16 383.77 67.73 381 67.78 380.77 67.86 380.39 67.94 379.99 68.03 379.59 68.12 379.16 68.2 378.74 68.29 378.32 68.38 377.91 68.46 377.51 68.84 375.69 69.2 373.94 69.22 373.88 69.58 372.15 69.94 370.41 70.08 370.4 70.61 370.39 71.65 370.14 73.1 370.06 74.14 369.99 75.04 369.94 77.56 369.8 77.69 369.79 83.99 369.45 84.61 369.42 84.71 369.41 84.78 369.41 85.82 369.35 87.6 369.25 89.1 369.16 89.27 369.15 89.34 369.14 89.5 369.12 90.25 369.09 90.45 369.08 91.4 369.02 91.8 369 93.28 368.92 93.61 368.9 95.32 368.8 95.94 368.87 96.52 369.15 97.2 369.56 98.56 369.83 99.75 370.03 100.76 369.98 102.05 369.5 103.37 368.93 103.43 369.1 103.48 369.21 103.85 369.06 103.97 369.86 103.56 369.77 103.35 370.3 103.16 370.65 104.09 371.14 105.53 371.87 105.65 371.92 105.5 368.87 107.27 368.8 109.15 368.73 110.8 368.63 114.38 368.45 114.33 367.34 116.54 366.66 119.59 366.53 121.3 365.86 121.74 365.71 124.79 365.54 124.89 365.53 125.85 365.21 126.58 364.42 126.97 364.25 128.26 364.06 128.3 364.81 128.35 366.06 130.45 366 130.47 366.52 130.49 366.86 130.5 367.21 131.71 367.15 131.95 367.14 131.87 366.38 131.58 365.91 131.52 365.38 131.51 365.06 131.42 362.98 131.54 361.91 131.49 360.62 131.41 358.87 131.7 358.85 132.14 358.83 132.58 358.81 133.02 358.78 133.18 358.78 133.06 357.9 133.02 356.97 133.48 356.96 133.98 356.91 134.44 356.89 134.87 356.88 135.8 357.14 136.74 357.66 137.56 358.13 138.22 358.52 139.24 357.4 139.41 357.2 139.53 357.07 140.67 355.79 141.09 355.32 141.46 354.99 141.83 354.76 142.22 354.47 143.58 352.97 143.66 352.88 144.52 351.94 144.66 352.14 144.66 352.44 144.72 352.56 144.61 352.87 144.62 353.01 144.93 353.41 145.19 353.64 145.39 353.93 145.45 354.17 145.73 354.37 145.98 354.87 145.88 355.43 145.92 355.69 146.22 356.47 146.47 356.65 146.75 357.03 146.94 357.5 147.33 357.93 147.4 358.14 147.24 359.03 147.38 359.3 147.28 359.56 146.43 359.6 146.4 360.53 146.4 360.58 146.82 361.28 146.96 361.4 147.6 360.71 148.13 360.48 148.53 360.65 149.25 360.35 149.53 360.7 149.37 361.17 149.63 361.6 150.38 360.84 151.59 360.54 151.88 359.98 151.75 359.54 151.98 358.31 152.75 357.78 153.49 357.43 154.22 358.18 154.74 358.6 155.39 359.46 156.43 359.14 157.65 357.98 159.63 358.36 160.31 358.79 160.8 359.39 161.83 358.24 162.41 358.37 162.91 358.91 162.99 359.02 163.15 359.33 163.06 359.35 162.99 359.37 162.94 359.4 162.86 359.42 162.78 359.46 162.76 359.5 162.73 359.6 162.73 359.71 162.73 359.75 163.12 360.37 163.46 359.93 163.68 360.19 163.87 359.62 164.14 359.85 164.26 358.83 163.89 358.55 164.81 358.16 165.15 358.55 165.94 358.14 165.92 357.83 166.67 358.12 166.4 358.8 167.32 358.78 167.18 358.11 167.83 358.21 167.9 358.58 168.61 357.39 168.38 357.11 169.08 357 169.1 356.19 169.6 356.34 169.36 356.83 170.03 357.04 169.63 357.33 170.08 357.79 169.97 358.12 170.55 358.14 170.62 358.46 171.36 358.07 170.92 357.54 171.44 357.47 171.71 357.85 172.25 357.51 172.57 357.76 172.41 358.7 171.86 358.9 171.99 359.54 171.46 358.68 170.99 359.12 170.68 358.91 169.8 361.32 170.97 362.73 170.95 363.63 170.23 364.37 170.12 365.13 170.84 366.26 171.1 366.34 171.19 366.31 171.77 366.15 171.71 365.56 172.42 365.73 172.22 366.21 172.19 366.23 172.35 366.34 172.41 366.45 172.22 366.62 172.22 366.67 172.27 366.78 172.31 366.81 172.38 366.81 172.44 366.77 172.52 366.66 172.59 366.62 172.69 366.65 172.76 366.79 172.84 366.82 172.87 366.8 172.89 366.74 172.88 366.51 172.94 366.49 173.06 366.61 173.16 366.85 173.24 367 173.25 367.05 173.22 367.11 173.03 367.13 172.96 367.17 172.97 367.26 173.06 367.4 172.96 367.49 172.93 367.55 172.98 367.59 173.24 367.61 173.31 367.7 173.32 367.86 173.28 367.89 172.88 368.02 172.82 368 172.77 368.02 172.61 368.13 172.55 368.12 172.41 368.05 172.36 368.06 172.31 368.11 172.31 368.16 172.36 368.31 172.51 368.54 172.5 368.66 172.45 368.81 172.46 368.87 172.56 368.94 172.78 368.97 172.89 368.98 172.95 368.94 173.05 368.96 173.16 369.01 173.24 369.16 173.34 369.23 173.5 369.2 173.63 369.2 173.82 369.27 173.89 369.27 173.93 369.25 173.92 369.07 173.97 369.03 174.05 369.07 174.21 369.3 174.28 369.34 174.33 369.35 174.39 369.32 174.51 369.17 174.59 369.15 174.68 369.2 174.82 369.42 174.87 369.49 175 370.01 175.41 370.21 174.58 370.9 174.59 371.49 174.13 371.96 174.48 372.34 175.47 372.93 174.63 373.13 174.55 373.49 175.71 373.29 175.83 374.01 175.37 374.86 176.02 375.25 176.16 375.32 176.48 375.32 176.65 375.3 176.74 375.35 176.77 375.42 176.75 375.5 176.53 375.9 176.54 376.07 176.6 376.2 176.82 376.55 176.95 376.68 177.09 376.74 177.43 376.67 177.52 376.68 177.57 376.72 177.58 376.8 177.43 377.11 177.43 377.22 177.47 377.32 177.59 377.41 177.9 377.52 178.18 377.55 178.35 377.59 178.76 377.61 178.8 377.56 178.82 377.4 178.8 377.29 178.73 377.2 178.66 377.06 178.68 376.89 178.75 376.85 178.96 376.82 179.07 376.86 179.17 376.98 179.24 377.14 179.26 377.38 179.22 377.71 179.26 377.82 179.37 378.02 179.68 378.21 180.28 378.29 180.58 378.19 180.7 378.01 180.74 377.74 180.9 377.56 181.16 377.66 181.46 378.1 181.55 378.43 181.26 378.79 181.25 379.06 181.34 379.19 181.65 379.39 181.98 379.49 182.33 379.48 182.51 379.38 182.7 379.12 182.84 379.03 183.24 379.14 183.39 379.39 183.43 379.7 183.52 379.87 183.71 380.08 184.1 380.23 184.23 380.35 184.26 380.57 184.1 380.9 183.9 381.09 183.63 381.16 183.32 381.18 182.96 381.32 182.72 381.53 182.63 381.81 182.68 382.17 182.81 382.73 182.98 382.97 183.25 383.12 183.57 383.13 183.78 383.2 184.3 383.45 184.42 383.63 184.41 383.97 184.21 384.14 184.23 384.26 184.44 384.34 184.53 384.49 184.45 385 184.53 385.18 184.81 385.31 185.1 385.3 185.46 385.19 185.75 385.17 185.94 385.22 186.17 385.38 186.32 385.64 186.33 385.93 186.26 386.26 186.05 386.56 185.83 386.8 185.81 387.11 185.94 387.25 186.52 387.5 186.77 387.57 187 387.56 187.31 387.48 187.5 387.35 187.82 387.12 188.16 387.03 188.6 387.12 189 387.09 189.21 386.99 189.48 386.76 189.77 386.47 190.18 386.17 190.65 385.97 190.91 385.93 191.24 385.99 191.48 386.28 191.58 386.67 191.88 386.86 192.33 386.73 192.52 386.48 192.77 385.91 192.87 385.34 192.96 385.17 193.25 384.97 193.63 384.92 193.94 384.76 194.1 384.55 194.3 384.03 194.6 383.48 194.83 383.18 195.26 382.91 195.55 382.84 196.02 382.87 196.61 382.82 197.5 382.91 197.82 382.91 198.39 382.86 198.58 382.77 199.25 383.14 199.57 383.36 199.91 383.45 200.17 383.44 200.46 383.33 200.61 383.21 200.69 383.04 200.74 382.8 200.69 382.31 200.77 381.83 200.98 381.49 201.34 381.2 201.84 380.95 202.26 380.79 202.72 380.66 203.17 380.62 203.57 380.67 203.81 380.77 203.99 380.92 204.35 381.49 204.72 382.13 205.02 382.3 205.33 382.18 205.59 381.85 205.68 381.76 205.75 381.7 205.84 381.64 206.36 381.36 206.74 380.79 207.08 380.46 207.32 380.35 207.62 380.29 208.01 380.31 208.32 380.43 208.91 380.77 209.18 380.85 209.5 380.85 210.17 380.56 210.6 380.48 211.08 380.27 211.27 380 211.28 379.75 211.18 379.38 210.98 378.89 210.82 378.6 210.29 377.84 210.22 377.68 210.25 377.32 210.43 377.13 210.66 377.01 211.27 376.78 211.43 376.63 211.52 376.33 211.31 375.69 211.32 375.49 211.57 375.16 211.63 375.11 211.7 375.05 212.53 375.33 213.13 376.47 213.82 376.35 214.03 375.42 214.95 374.38 215.38 373.02 215.28 372.45 214.67 371.31 214.55 370.43 213.85 368.99 214.17 368.32 214.76 368.03 214.86 367.98 215.78 368.68 216.32 369.18 216.47 369.97 216.84 370.16 217.61 369.77 218.11 369.15 218.53 368.3 219.73 368.71 220.45 368.7 221.02 368.79 221.51 367.99 221.61 367.03 220.93 365.98 221.06 365 221.21 364.87 221.25 364.84 221.28 364.57 221.19 364.28 221.16 364.18 221.15 364.15 221.38 363.45 221.45 363.36 221.52 363.25 221.71 363.24 221.81 363.24 221.92 362.86 222.19 362.58 223.25 361.65 223.88 360.84 224.2 359.99 224.45 358.79 224.74 358.05 225.29 357.4 226 356.98 227.38 356.42 228.87 356.2 229.94 356.23 230.3 356.29 230.76 356.1 231.8 356.12 233.47 356.31 234.81 356.81 235.56 357.64 236.93 358.09 238.47 358.33 239.65 358.78 241.24 359.11 242.04 358.94 242.54 359.03 242.71 359.77 242.62 361.05 242.91 361.37 243.77 360.86 244.74 360.59 245.01 360.33 245.19 360.47 246.66 360.95 247.35 360.86 247.44 360.49 247.43 360.29 247.41 360.11 247.25 359.92 245.87 358.87 245.88 358.56 246.42 357.96 246.99 357.76 246.99 357.75 247.7 358.82 247.73 359.32 247.82 359.95 247.65 360.81 247.65 360.83 247.64 360.9 247.63 360.92 248.1 363.37 248.18 363.82 248.79 365.34 250.13 366.37 250.71 367.22 251.1 367.38 251.83 368.82 252.65 369.98 253.88 371.41 254.46 371.72 255.47 372.69 256.88 373.83 258.51 375.02 259.74 375.58 259.89 375.68 261.27 376.52 263.24 377.44 264.21 377.72 264.76 378.05 266.89 378.7 267.25 378.7 269.36 379.43 270.39 379.44 271.6 379.93 272.56 380.05 272.92 380.01 274.94 380.44 275.8 380.81 276.71 380.91 279.02 381.66 279.72 381.72 281.36 382.23 282.74 382.25 283.44 382.65 284.04 382.68 285.1 383.05 285.65 383.08 285.97 383.2 286.39 383.3 286.8 383.45 288.2 383.71 289.08 383.99 292.24 384.52 293.33 384.59 293.83 384.42 294.06 384.17 294.28 384.09 295.89 382.88 297.51 381.37 299.39 379.87 301.36 378.5 303.77 377.14 305.62 376.26 306.93 375.74 307.7 375.42 308.43 375.1 311.5 374.39 315.74 373.82 319.77 373.53 326.18 373.4 327.47 373.21 328.4 372.9 329.61 372.22 330.55 371.55 332.28 369.87 333.45 368.35 334.86 366.06 335.78 364.14 337.27 360.58 338.08 359.38 338.6 358.94 340.35 358.04 342.41 356.27 342.61 356.2 343.36 356.49 343.77 357.29 343.82 357.45 343.95 357.9 343.99 357.98 344.34 358.39 344.95 358.99 344.94 359.24 345.62 360.05 345.62 360.87 346.4 361.45 346.91 362.77 346.78 363.32 347.89 364.36 347.89 364.75 348.83 366.09 350.48 366.92 351.66 367.35 352.45 367.85 352.79 367.74 354.37 368.38 356.15 368.81 356.72 368.55 357.31 368.69 359.01 368.54 359.38 368.01 359.82 367.88 360.22 368.13 361.62 367.28 362.83 366.83 364.12 366.88 365.31 367.24 365.87 366.78 366.77 366.47 367.88 365.83 368.95 365.68 370.53 364.9 372.19 364.2 374.04 363.26 374.72 363.07 375.26 363.3 376.12 362.59 377.46 361.89 378.68 361.48 379.86 361.41 380.29 361.1 381.51 360.88 382.26 360.97 382.46 361.21 385.12 360.86 387.54 360.86 388.7 360.63 390.07 359.81 391.01 359.6 391.49 359.27 393.53 358.65 396.13 357.95 396.97 357.5 397.36 356.95 398.56 356.36 399.55 356.17 399.97 356.3 401.52 355.49 401.92 355.6 402.46 355.26 402.9 355.47 403.54 355.11 404.04 355.18 405.44 354.84 409.5 353.92 410.84 353.23 411.81 353.13 412.01 352.84 413.15 352.48 414.07 352.54 415.38 352.22 416.24 351.76 417.27 351.7 419.28 350.98 421.84 349.87 422.54 349.73 423.97 349.18 425.3 348.27 425.68 347.83 426.58 347.94 428.2 347.39 429.75 346.47 429.92 346.58 434.1 344.46 436 343.12 436.84 342.69 437.15 341.99 437.38 342.15 438.02 341.88 438.37 341.99 439.51 341.51 440.6 341.28 442.19 341.13 443.48 341.25 444.68 341.23 445.64 341.6 447.36 341.95 447.83 342.3 449.24 343.78 449.59 344.41 450.02 345.75 450.59 346.59 451.13 346.91 451.46 347.49 452.83 348.41 453.58 348.58 453.96 348.99 454.98 349.64 455.78 350.82 456.52 351.31 457 351.35 457.55 352.33 457.89 353.8 457.85 354.55 457.49 355.6 457.4 356.64 457.54 356.87 458.62 356.93 460.19 356.63 461.44 356.15 462.4 355.94 463.52 355.51 465.92 355.19 466.79 355.09 467.5 354.82 468.15 354.63 468.25 353.74 468.85 352.43 469.13 352.1 471.63 350.84 471.65 350.6 472.89 350.06 473.85 349.92 474.14 350.04 475.14 349.67 477.23 348.11 478.06 347.71 479.01 348.2 479.97 348.19 481.24 347.18 482.75 346.32 483.4 346.28 484.53 346.24 484.9 346.13 486.6 345.2 487.68 345.06 488.41 344.65 489.19 344.47 490.41 344.82 491.03 345.21 491.41 345.19 491.64 344.75 492.37 344.1 492.8 343.66 493.53 343.91 494.1 344.15 494.53 343.89 494.94 343.62 495.55 343.81 496.88 343.85 497.66 343.44 497.7 343.12 497.97 342.75 498.49 342.77 499.75 342.98 500.05 342.38 500.19 341.28 501.08 341.51 501.83 341.43 502.1 341.11 502.57 339.75 502.78 339.63 503.53 339.86 504.04 339.35 503.21 337.32 502.26 337.49 501.95 337.33 501.91 336.78 502.18 336.57 503.65 336.01 503.7 335.95 503.73 335.9 503.77 335.82 503.79 335.71 503.75 335.61 503.69 335.52 503.67 335.51 503.56 335.45 502.64 335.48 502.59 335.48 502.48 335.4 502.47 335.4 502.48 335.36 502.49 335.26 502.59 335.05 502.65 335.01 503.13 334.93 502.65 334.4 501.93 333.99 501.98 333.77 502.51 333.56 503.02 333.68 503.3 333.39 503.21 332.81 502.85 332.49 502.48 333.19 501.11 333.32 500.95 332.59 500.88 331.78 501.26 331.36 501.13 330.71 501.61 330.11 501.82 330.14 502.93 331.2 503.14 331.28 503.24 330.45 503.84 329.6 504.69 329.12 504.88 328.28 504.71 327.99 505.05 327.59 505.47 328.03 505.77 327.87 505.73 327.6 506.32 327.16 506.91 327.67 507.27 328.14 508.52 328.23 508.64 328.42 508.9 328.78 509.56 328.81 509.37 327.92 509.7 327.73 511.32 327.91 511.5 328.15 511.52 328.22 511.52 328.23 511.55 328.33 511.6 328.44 511.61 328.46 511.63 328.51 512.19 328.21 513.28 328.57 513.36 328.2 513.78 328.11 515.07 324.18 515.55 322.84 517.21 317.58 520.75 317.4 523.1 317.17 523.32 322.77 523.35 323.29 526.41 320.89 528.16 319.85 528.14 319.51 527.93 315.55 527.88 313.18 527.56 307.96 527.53 307.31 527.53 307.26 527.32 302.99 527.31 302.89 527.13 299.5 526.64 290.14 526.47 286.99 526.32 284.15 526.13 280.55 526.13 280.53 525.91 276.45 525.61 270.3 525.5 268.5 525.49 268.42 525.29 263.73 525.26 262.97 525.1 259.85 524.88 255.86 524.75 253.36 524.35 246.13 524.17 242.75 523.77 234.63 523.63 232.82 523.35 227.51 523.24 225.37 523.12 223.08 522.97 219.55 522.87 218.25 522.75 216.03 522.75 215.93 522.74 215.86 522.73 215.75 522.64 213.83 522.59 213.02 522.58 212.51 522.31 207.95 522.3 207.54 521.93 200.1 521.91 199.97 523.41 198.35 524.6 197.05 527.75 193.59 529.1 192.2 531.36 189.9 536 185.2 538.31 182.85 541.42 179.7 542.54 178.57 544.6 176.48 548.05 172.98 548.15 172.88 554.98 165.95 558.02 162.87 558.15 162.87 559.93 161.07 559.87 161.17 559.83 161.25 559.79 161.35 559.87 161.26 559.97 161.13 560.14 160.86 561.09 159.89 567.15 153.76 569.26 151.16 571.97 147.84 576.51 142.23 582.22 135.19 585.64 130.98 589.66 126.03 590.26 125.29 590.84 124.58 590.87 124.63 593.72 121.19 593.63 121.14 593.67 121.09 593.77 121.13 595.77 118.62 595.69 118.59 595.59 118.56 603.19 109.18 605.92 105.78 606 105.69 606.02 105.66 606.06 105.62 606.13 105.53 606.2 105.44 608.43 102.71 609.56 101.34 609.91 101.07 609.52 101.85 609.4 102.51 609.53 103.44 609.88 104.12 610.49 104.72 610.56 104.77 610.63 104.83 612.26 106.05 613.41 106.48 613.49 106.5 614.79 106.83 618.77 107.54 620.59 108 620.59 107.82 620.53 106.62 620.89 106.6 621.95 106.54 622.23 106.51 623.26 106.45 623.32 106.44 623.56 106.43 624.92 106.35 625.33 106.33 625.73 106.3 626.13 106.28 626.36 106.27 626.98 106.23 627.39 106.21 628.48 106.15 628.6 106.14 628.78 106.13 629.3 106.11 629.78 106.08 630.26 106.05 630.22 105.21 630.19 104.53 630.16 103.64 630.64 103.63 631.11 103.61 631.09 103.2 631.6 103.18 631.57 102.7 631.55 101.99 631.05 102.02 631.03 101.55 631.5 101.53 631.48 101.05 631.48 100.55 631.45 100.05 631.93 100.04 631.89 99.24 632.41 99.15 632.36 99.09 632.31 99.04 632.29 98.98 632.24 98.9 632.22 98.84 632.18 98.71 632.18 98.67 632.06 98.17 631.99 97.86 631.94 97.56 631.91 97.15 631.63 96.84 631.13 96.49 629.92 95.27 629.79 95.25 629.24 94.63 629.23 94.51 628.46 93.62 628.62 93.56 628.4 93.31 627.95 92.81 627.62 92.46 627.3 92.1 626.62 91.42 626.59 91.39 626.31 91.07 625.64 90.35 625.31 90.01 624.6 89.33 624.26 88.98 623.93 88.63 623.6 88.28 623.31 87.97 622.88 87.51 624.58 86.87 624.62 86.47 624.59 85.99 624.55 85.5 624.52 84.99 625.47 84.93 625.44 84.44 625.41 83.98 625.75 83.96 626.35 83.92 626.36 84.13 626.77 84.1 627.16 84.08 627.6 84.54 628 84.58 628.06 84.57 628.25 84.56 628.93 84.56 629.85 84.28 631.41 84.06 632.01 83.26 631.59 82.21 630.73 82.05 629.35 82.91 628.67 82.41 629.88 80.62 629.93 80.56 630.36 79.15 631.35 76.57 631.31 75.55 631.73 75.49 632.63 75.89 633.89 75.74 634.91 74.82 635.56 73.09 636.61 71.83 636.82 71 636.86 70.84 636.56 69.69 635.4 68.28 634.71 66.99 634.49 65.88 634.31 65.31 634.1 64.64 630.82 62.97 630.17 62.92 628.48 62.78 627.3 61.86 625.9 60.54 624.75 60.44 623.19 61.09 622.97 61.31 621.9 61.1 621.42 60.49 621.7 59.89 622.48 59.57 624.11 59.21 624.75 58.4 624.78 57.28 623.64 56.31 622.23 56.1 620.95 56.1 620.28 55.73 619.36 54.94 619.09 53.49 619.18 51.62 618.29 50.03 618.09 49.14 618.22 48.91 618.56 48.69 618.67 48.54 618.68 48.27 618.78 47.63 618.84 47.45 619.05 47.24 619.89 47.01 620.12 46.91 620.31 46.62 620.39 46.13 620.39 45.83 620.33 45.51 620.08 45.17 619.85 44.98 619.48 44.75 619.34 44.49 619.45 44.2 619.47 44.13 619.06 43.77 618.64 43.53 618.32 43.15 618.28 42.86 618.42 42.58 619 42.16 619.27 41.86 619.4 41.23 619.35 40.79 619.5 40.01 619.59 39.51 619.52 39.13 619.51 38.81 619.44 37.62 619.58 36.51 619.63 36.25 619.81 35.73 619.97 35.44 620.22 35.26 620.4 35.25 620.79 35.3 620.95 35.49 621.25 35.77 621.39 35.86 621.6 35.9 621.81 35.92 622 35.79 622.11 35.56 622.16 34.99 622.08 34.74 621.94 34.52 621.62 34.28 621.33 34.13 621.06 33.87 621.01 33.64 620.99 33.38 621.17 33.13 621.37 33.02 622.04 33.05 622.25 33.24 622.48 33.55 622.61 33.74 622.8 33.91 623.05 33.99 623.32 34.07 623.56 34.26 623.66 34.38 623.6 34.47 623.6 34.64 623.72 34.85 623.77 34.99 623.9 35.07 623.97 35.01 624.03 35.12 624.23 35.29 624.41 35.38 624.76 35.34 625.13 35.18 625.44 34.74 625.5 34.64 625.43 34.46 625.25 34.3 624.96 33.99 624.61 33.73 624.42 33.43 624.38 33.11 624.42 32.61 624.68 32.34 624.92 32.1 625.02 31.71 624.99 31.46 624.88 31.2 624.76 30.87 624.75 30.56 624.78 30.32 624.87 30.16 625.02 29.99 625.18 29.89 625.48 29.95 625.76 30.01 625.74 30.11 625.77 30.24 625.82 30.39 625.89 30.69 625.95 30.8 626.03 30.9 626.12 30.95 626.3 30.94 626.33 30.92 626.39 30.99 626.49 31.07 626.77 31.12 627.51 30.78 627.71 30.51 627.8 30.23 627.75 29.99 627.58 29.86 627.22 29.73 627 29.67 626.72 29.58 626.58 29.47 626.54 29.37 626.44 29.31 626.47 29.19 626.5 28.91 626.55 28.8 626.68 28.68 626.83 28.55 627.17 28.25 627.29 28.09 627.53 27.65 627.58 27.45 627.61 27.19 627.59 27.02 627.55 26.86 627.49 26.74 627.37 26.61 627.19 26.51 626.95 26.47 626.85 26.55 626.77 26.68 626.74 26.78 626.78 27.22 626.83 27.43 626.79 27.74 626.72 27.87 626.63 27.93 626.53 27.98 626.28 28.06 626.18 28.07 626.1 28.02 625.96 27.92 625.79 27.77 625.68 27.6 625.61 27.39 625.51 27.17 625.33 26.93 625.07 26.71 624.81 26.54 624.64 26.37 624.55 26.23 624.51 26.15 624.4 26 624.22 25.88 624.04 25.72 623.88 25.56 623.61 25.12 623.4 24.96 623.25 24.87 623.09 24.79 622.99 24.75 622.95 24.65 622.91 24.34 622.86 24.24 622.79 24.17 622.59 24.02 622.6 23.92 622.51 23.85 622.45 23.76 622.37 23.5 622.36 23.24 622.35 23.16 622.24 22.98 622.11 22.91 621.99 22.96 621.88 23.04 621.84 23.11 621.82 23.2 621.83 23.28 621.87 23.34 621.95 23.4 621.99 23.51 622.05 23.58 622.1 23.61 622.21 23.59 622.29 23.65 622.38 23.69 622.41 23.79 622.53 23.91 622.52 24 622.4 24.09 622.38 24.15 622.16 24.27 621.84 24.38 621.66 24.43 621.52 24.4 621.33 24.35 621.07 24.27 620.76 24.11 620.55 23.97 620.33 23.79 620.03 23.59 619.7 23.43 619.45 23.3 619.16 23.13 618.94 22.96 618.77 22.8 618.63 22.63 618.37 22.31 618.23 22.14 618.08 22 617.94 21.91 617.62 21.82 617.41 21.83 617.23 21.9 617.07 22.02 616.94 22.13 616.77 22.26 616.63 22.33 616.49 22.36 616.36 22.34 616.18 22.2 616.09 22.04 616.07 21.91 616.08 21.73 616.2 21.48 616.43 21.16 616.57 20.98 616.74 20.72 616.82 20.45 616.97 19.78 617.01 19.44 616.99 19.16 616.92 18.94 616.78 18.81 616.65 18.62 616.35 18.3 616.23 18.12 616.16 17.92 616.12 17.69 616.18 17.47 616.45 17.09 616.53 16.94 616.55 16.7 616.56 16.4 616.56 16.08 616.47 15.43 616.34 14.71 616.26 14.47 616.17 14.25 616.09 14.16 615.94 13.99 615.87 13.79 615.77 13.34 615.77 13.09 615.86 12.64 616.1 12.27 616.28 11.71 616.32 11.5 616.33 11.18 616.3 10.83 616.21 10.54 616.12 10.35 615.99 10.03 615.87 9.82 615.73 9.68 615.82 9.67 616.97 9.61 618.62 9.52 626.17 9.19 631.76 8.93 634.17 8.8 639.25 8.56 640.56 8.5 648.24 8.14 648.47 8.13 655.13 7.8 656.12 7.76 661.78 7.52 663.86 7.43 665.76 7.35 669.79 7.15 683.48 6.47 697.88 5.73 706.84 5.29 709.47 5.14 709.62 5.14 710.56 5.09 718.99 4.63 726.24 4.22 728.95 4.04 732.68 3.84 740.19 3.45 753.47 2.73 753.67 2.72 760.97 2.39 761.85 2.35 768.57 1.97 770.79 1.88 784.33 1.03 784.74 1.01 784.9 1 788.75 1.1 788.8 1.11 788.86 1.11 789.45 1.55 789.58 1.65 789.67 1.74 790.01 2.18 790.35 2.71 790.48 2.96 790.54 3.24 790.56 3.59 790.5 3.68 790.32 3.82 790.23 3.84 790.11 3.82 790.01 3.78 789.71 3.62 789.34 3.4 789.03 3.2 788.87 3.13 788.76 3.12 788.55 3.12 788.46 3.14 788.31 3.26 788.1 3.38 787.99 3.49 787.88 3.69 787.82 3.92 787.83 4.06 787.85 4.1 788.05 4.29 788.19 4.58 788.38 4.81 788.48 4.91 788.7 4.95 788.9 4.92 789.04 4.87 789.11 4.82 789.17 4.73 789.21 4.7 789.35 4.71 789.4 4.77 789.5 4.98 789.56 5.14 789.71 5.26 789.77 5.33 789.87 5.42 789.99 5.51 790.08 5.67 790.09 5.76 790.08 5.89 790.05 5.94 789.97 6.02 789.86 6.09 789.75 6.11 789.67 6.1 789.53 6.04 789.28 6.03 789.04 6.01 788.89 5.96 788.76 5.95 788.66 5.95 788.19 6.08 787.96 6.1 787.84 6.05 787.75 5.99 787.7 5.92 787.68 5.67 787.79 5.56 787.86 5.44 787.88 5.27 787.82 5.15 787.77 5.09 787.67 5.05 787.57 5.06 787.42 5.13 787.26 5.31 787.23 5.37 787.29 5.49 787.34 5.71 787.4 5.99 787.32 6.33 787.26 6.75 787.2 7.09 787.13 7.29 786.78 7.71 786.54 7.94 786.4 8.16 786.38 8.32 786.39 8.43 786.44 8.47 786.6 8.47 786.76 8.38 786.93 8.31 787.08 8.31 787.37 8.42 787.86 8.65 788 8.77 788.09 8.87 788.07 9 787.95 9.05 787.69 9.07 787.44 9.1 787.22 9.2 787.07 9.32 786.71 9.7 786.61 9.83 786.48 10.11 786.42 10.5 786.43 10.61 786.5 10.75 786.61 10.81 787.35 11.15 787.44 11.2 787.51 11.27 787.54 11.39 787.55 11.53 787.52 11.71 787.44 11.83 787.28 11.92 787.17 12.01 787.16 12.06 787.16 12.34 787.18 12.57 787.16 12.82 787.04 13.11 786.9 13.35 786.8 13.41 786.69 13.43 786.5 13.37 786.29 13.16 786.19 12.93 786.01 12.71 785.77 12.5 785.68 12.43 785.48 12.35 785.33 12.36 785.04 12.47 784.66 12.72 784.49 12.85 784.29 13.18 784.13 13.46 784.09 13.57 784.03 13.74 784.01 14.06 784.03 14.33 784.05 14.42 783.95 14.71 783.65 15.09 783.73 15.35 783.89 15.41 784.01 15.38 783.95 15.3 783.82 15.12 783.84 15.1 783.93 15.15 784.05 15.16 784.28 15.15 784.48 15.08 784.7 15.03 785.14 14.7 785.18 14.7 785.19 14.76 784.88 15.04 784.49 15.2 784.26 15.26 784.15 15.31 784.15 15.42 784.26 15.62 784.45 15.77 784.79 15.88 785.04 16.11 785.22 16.41 785.23 16.69 785.1 17.09 785.01 17.21 784.21 17.28 784 17.3 783.87 17.36 783.64 17.55 783.56 17.75 783.54 17.82 783.54 17.95 783.58 18.16 783.64 18.38 783.7 18.5 784.12 18.74 784.35 18.92 784.71 19.27 784.89 19.43 785.04 19.51 785.23 19.53 785.31 19.52 785.41 19.47 785.52 19.26 785.8 18.6 785.99 18.19 786.2 18.1 786.39 18.18 786.54 18.28 786.56 18.55 786.37 19.8 786.29 20.32 786.4 20.89 786.46 21.14 786.5 21.33 786.42 21.4 786.26 21.37 786.1 21.28 786 21.19 785.76 21.26 785.32 21.83 785.22 22.02 785.15 22.2 785.15 22.29 785.3 22.57 785.46 22.74 785.52 22.82 785.61 22.87 785.84 23.01 785.99 23.14 786.15 23.3 786.29 23.38 786.5 23.58 786.55 23.75 786.48 23.88 786.22 23.91 785.98 24.02 785.84 24.22 785.64 24.55 785.52 24.77 785.39 25.03 785.33 25.24 785.33 25.46 785.38 25.71 785.48 25.9 785.72 25.94 785.96 25.92 786.28 25.84 786.57 25.77 786.87 25.69 787.29 25.74 787.46 25.6 787.6 25.33 787.61 25.18 787.7 25.07 787.93 24.7 788.04 24.47 788.18 24.26 788.32 24.09 788.55 23.87 788.77 23.77 788.93 23.74 789.08 23.8 789.21 23.94 789.34 24.2 789.37 24.38 789.33 24.64 789.36 24.8 789.49 25.05 789.74 25.21 789.86 25.23 790.14 25.23 790.3 25.25 790.39 25.35 790.56 25.75 790.6 26.12 790.57 26.22 790.51 26.31 790.34 26.43 789.95 26.56 789.51 26.68 789.13 26.77 788.77 26.76 788.54 26.71 788.33 26.62 788.11 26.45 787.97 26.08 787.81 25.97 787.72 25.97 787.59 26.11 787.61 26.15 787.6 26.33 787.6 26.56 787.63 26.84 787.63 27.21 787.61 27.42 787.58 27.6 787.56 27.88 787.59 28.03 787.61 28.07 787.67 28.4 787.76 28.67 787.88 28.85 787.98 28.98 788.14 29.09 788.21 29.11 788.35 29.13 788.46 29.09 788.5 29.05 788.54 28.98 788.63 28.88 788.69 28.84 788.94 28.76 789.06 28.76 789.2 28.82 789.28 28.91 789.31 29 789.31 29.14 789.28 29.28 789.18 29.44 789.04 29.56 789.01 29.64 788.99 29.81 788.99 29.9 789.02 30.17 789.02 30.4 789 30.66 788.93 30.86 788.89 31 788.87 31.17 788.88 31.42 788.81 31.65 788.75 31.73 788.73 31.83 788.69 31.88 788.63 31.99 788.62 32.05 788.63 32.14 788.72 32.25 788.96 32.27 789.21 32.37 789.45 32.43 789.71 32.43 789.79 32.42 789.97 32.37 790.07 32.33 790.18 32.22 790.23 32.1 790.22 31.98 790.24 31.89 790.29 31.8 790.36 31.72 790.54 31.64 790.61 31.64 790.78 31.71 790.82 31.78 790.85 31.94 790.81 32.08 790.77 32.16 790.76 32.24 790.7 32.25 790.66 32.29 790.61 32.49 790.5 32.84 790.46 33 790.44 33.2 790.46 33.44 790.49 33.59 790.54 33.71 790.61 33.85 790.75 34.06 791.09 34.51 791.5 34.82 791.67 34.87 791.99 34.81 792.31 34.59 792.63 34.04 792.87 33.94 793.28 34.09 793.18 34.57 792.85 34.97 792.44 35.38 792.08 36.01 792.11 36.95 792.17 37.33 792.31 37.88 792.44 38.17 792.65 38.41 793.13 38.62 792.82 38.88 792.58 39.19 792.51 39.5 792.42 40.83 792.29 41.09 791.75 41.51 791.16 42.1 790.9 42.55 790.71 43 790.66 43.36 790.7 44.09 790.76 44.57 790.9 44.99 791.04 45.28 791.2 45.87 791.12 46.72 789.94 47.82 790 48.37 791.13 47.86 792.54 46.6 793.15 45.53 793.69 45.17 794.72 45.01 795.39 45.72 795.55 46.7 796.07 48 796.5 49.56 796.84 50.29 797.44 50.66 798.43 50.29 799 50.45 798.77 51.15 798.16 51.98 797.7 52.87 797.18 53.53 796.29 53.58 795.12 52.21 794.34 51.95 793.58 52.64 793.43 54.88 793.45 56.09 793.72 57.44 793.76 57.51 794.09 58.59 794.15 59.04 794.06 59.56 793.95 59.81 793.71 60.07 793.36 60.21 792.86 60.28 792.17 60.31 791.73 60.36 791.44 60.51 791.2 60.74 791.14 61.2 791.43 61.5 791.89 61.68 792.7 62.16 793.12 62.49 793.35 62.85 793.5 63.23 793.61 63.65 793.67 64.11 793.63 64.63 793.45 65.1 792.91 65.67 792.39 65.87 791.9 65.98 791.4 66.01 790.74 66.09 790.2 66.23 789.56 66.61 789.28 67.2 789.23 67.53 789.03 68.93 788.74 70.16 788.39 70.81 787.15 72.22 785.3 73.7 784.92 74.62 785.42 76.69 785.54 78.71 785.19 79.66 784.86 79.94 783.99 79.89 783.74 79.61 782.66 77.13 782.56 77.02 782.05 76.45 781.21 77.05 780.85 78.16 781.03 78.9 781.48 79.72 784.48 81.72 787.6 85.13 788.43 85.86 789.1 86.16 792.18 86.69 793.06 86.76 794.38 87.21 795.5 88.41 796.07 90.02 796.06 90.87 795.82 91.65 795.18 92.4 794.2 93.08 793.39 93.34 792.57 93.35 791.27 93.13 790.9 92.32 790.73 90.8 790.29 89.42 789.88 87.69 789.15 87.29 788.15 87.84 787.53 88.71 787.47 89.88 787.61 92.16 787.19 93.97 786.6 94.96 784.36 97.57 782.57 99.2 781.68 100.17 780.8 101.39 780.32 102.47 779.89 104.23 779.84 108.44 779.32 109.64 777.91 110.82 776.15 111.77 773.54 112.95 773.48 113.01 772.14 114.38 769.49 117.77 768.21 119.76 767.88 121.77 766.99 122.68 766.43 122.87 764.79 123.03 763.12 123.65 762.15 124.21 760.62 125.57 759.89 126.55 759.37 127.58 758.55 131.24 757.79 133.38 757.13 134.75 754.97 138.22 754.19 139.61 753.05 142.03 752.57 143.46 751.65 147 750.49 153 750.12 156.55 749.75 159.24 749.35 161.18 748.7 162.97 747.76 165.27 746.34 168.46 744.33 173.12 741.2 178.86 739.39 181.65 738.58 182.79 736.37 185.85 734.79 187.8 734.5 188.28 732.58 190.4 729.92 192.78 727.44 194.65 726.31 195.25 723.89 196.48 721.74 197.79 717.89 200.62 715.78 202.31 714.62 203.32 711.48 206.32 709.41 208.43 706.84 211.54 705.67 213.57 704.81 216.09 704.44 219.36 704.73 222.2 705.66 225.15 705.87 225.81 707.7 227.93 710.73 229.78 718.13 234.03 719.73 235.55 720.33 236.24 720.9 236.99 721.58 238.7 721.61 239.09 720.84 241.07 720.49 242.95 721.05 245.8 721.6 247 722.84 248.1 729.25 250 730.13 250.37 730.96 251.03 731.5 251.83 731.79 252.62 734.09 256.46 737 260.31 737.73 261.39 739.95 264.39 741.68 266.85 742.55 267.96 745.01 271.53 745.77 272.57 746.37 273.85 746.83 275.26 747.32 276.79 748.26 280.67 748.67 282.17 748.95 283.63 750.11 287.15 750.33 288.1 753.52 300.88 754.21 303.67 757.57 317.47 752.73 318.05 748.16 317.75 742.95 316.32 738.86 314.15 735.09 311.04 731.28 306.53 718.03 305.38 678.15 307.11 663.9 307.71 625.68 323.62 625.61 323.65 573.49 349.54 573.47 349.14 529.78 370.97 523.73 373.99 523.32 374.2 522.42 374.47 521.26 374.32 520.98 374.51 502.85 383.16 502.65 383.31 469.32 399.6 469.02 399.97 441.43 414.89 421.9 425.43 416.81 428.18 406.39 435.78 408.21 436.9 409.34 437.78 410.56 439.32 412.68 441.48 415.18 445.81 416.08 447.37 417.2 450.33 417.68 451.58 417.71 452.43 418.34 454.66 418.41 457.23 418.37 458.52 417.98 459.71 417.16 462.12 416.54 465.19 414.77 468.75 414.09 469.97 412.96 471.98 411.22 475.85 407.99 479.98 404.15 483.41 401.42 485.5 395.48 487.4 390.37 487.85 383.81 486.27 381.33 485.51 369.85 497.09 367.07 501.74 366.22 503.12 365.99 503.39 357.07 510.97 352.2 513.98 347.17 517.08 340.48 521.2 329.02 528.26 328.69 528.35 302.82 545.61 298.62 548.39 277.2 565.7 276.95 565.71 261.94 576.3 261.94 576.34 240.36 587.55 225.7 595.16 225.42 595.69 224.91 596.66 223.56 597.9 Z" opacity="0.5" fill="rgba(0,0,0,0.2)" stroke="rgba(0,0,0,0.8)" stroke-width="1"/>
</g>
<g id="roads" fill="none" stroke="black" stroke-width="1">
<path d="M 630.57 78.59 636.68 78.14 646.81 74.33 663.17 61.81 705.65 59.12 724.09 60.85 761.16 68.5 782.23 63.31 793.65 57.07" stroke="#aaa" stroke-width="0.6"/>
<path d="M 608.51 107.2 615.31 106.92 M 620.53 106.7 634.19 106.13 651.75 121.44 663.59 140.37 693.4 166.13 696.01 175.31 687.88 191.72 688.16 215.37 691.54 225.37 708.72 247.44" stroke="#aaa" stroke-width="0.6"/>
<path d="M 522.07 202.84 533.26 193.06 560.04 163.26 574.94 144.17" stroke="#aaa" stroke-width="0.6"/>
<path d="M 295.53 475.65 287.07 466.64 247.54 435.85 236.03 423.55 205.15 382.25" stroke="#aaa" stroke-width="0.6"/>
<path d="M 333.71 487.01 318.84 485.83" stroke="#aaa" stroke-width="0.6"/>
<path d="M 318.84 485.83 311.38 484.4 295.53 475.65" stroke="#aaa" stroke-width="0.6"/>
<path d="M 6.57 352.57 11.53 356.04 M 12.32 356.63 18.89 364.48" stroke="#aaa" stroke-width="0.6"/>
<path d="M 85.31 398.07 160 425.19 M 169.27 428.55 244.44 455.67" stroke="#aaa" stroke-width="0.6"/>
<path d="M 522.76 216.19 525.71 216.3 573.81 213.64 636.47 195.04 654.81 178.99 677.75 181.65" stroke="#aaa" stroke-width="0.6"/>
<path d="M 664.27 59.29 710.39 29.65 740.57 3.43" stroke="#aaa" stroke-width="0.6"/>
<path d="M 717.01 151.57 702.71 172.57" stroke="#aaa" stroke-width="0.6"/>
<path d="M 85.31 398.07 76.79 411.42 75.12 419.47 76.96 466.89" stroke="#aaa" stroke-width="0.6"/>
<path d="M 725.66 132.27 727.11 122.03 768.02 74.37" stroke="#aaa" stroke-width="0.6"/>
<path d="M 768.02 74.37 775.63 74.75" stroke="#aaa" stroke-width="0.6"/>
<path d="M 90.82 369.06 91.15 380.44 90.14 389.2 85.31 398.07" stroke="#aaa" stroke-width="0.6"/>
</g>
<g id="urban">
<path d="M 642.44 129.45 642.97 128.33 646.1 130.27 650.29 123.71 651.9 122.57 654.48 119.53 652.56 118 653.54 116.95 653.51 116.62 655.07 117.28 657.14 119.15 657.54 118.72 660.87 121.75 660.71 123.43 666.52 128.68 673.11 120.17 675.65 120.78 676.49 121.38 679.77 120.69 684.2 118.61 685.28 119.07 683.03 121.56 683.23 124.73 684.56 123.77 686.19 121.75 690.69 125.36 693.28 126.22 696 127.63 698.81 128.6 697.63 130.67 700.92 133.12 700.51 136.74 701.37 136.87 702.85 138.55 704.69 139.23 706.27 139.17 705.68 141.24 708.48 141.54 708.24 139.15 711.59 141.64 712.18 139.95 716.55 138.02 718.27 132.23 724.84 133 723.88 141.31 722.9 143.65 719.81 147.54 719.85 148.77 718.17 150.94 720.82 152.94 719.82 154.66 719.5 160.56 721.74 157.31 723.37 158.03 719.93 162.79 716.13 167.7 714.52 170.24 709.89 175.41 708.95 177.43 705.98 181.45 705.71 181.24 703.07 184.83 702.23 185.49 700.91 189.31 694.39 197.23 693.18 201.39 692.9 205.34 691.19 208.19 689.06 209.85 687.64 206.4 682.31 206.52 682.68 202.8 681.79 203.04 680.05 200.69 680.39 196.52 681.11 193.05 680.2 190.83 680.88 190.06 680.92 185.32 681.67 184.18 677.73 181.39 676.53 182.13 674.27 181.08 672.94 183.29 671.76 183.11 671.47 181.76 669.74 181.92 669.92 183.22 668.53 183.54 667.65 184.5 666.46 183.05 667.82 181.6 667.79 180.62 662.21 180.18 661.83 174.34 658.91 174.52 659.22 179.66 655.74 179.72 654.08 180.59 652.35 179.95 650.69 177.55 649.82 172.36 651.14 171.65 652.98 171.42 655.5 172 658.74 171.85 658.45 167.15 656.02 167.07 655.7 166.21 658.39 166.04 658.14 162.06 657.17 162.12 657.63 159.82 660.18 159.65 663.41 163.25 664.85 163.05 669.1 157.37 668.42 156.3 668.65 154.77 665.64 152.55 662.26 154.67 660.88 153.71 659.38 151.75 655.75 151.65 654.8 150.06 652.94 150.1 652.47 149.37 652.27 146.59 650.46 146.65 650.36 144.66 651.16 143.99 649.81 141.94 646.97 142.33 644.97 137.56 644.51 135.54 645.05 133.79 642.44 129.45 Z M 693.37 158.89 696.32 156.28 692.54 151.78 689.75 148.74 688.06 149.65 687.2 150.81 689.78 153.24 687.43 156.39 686.45 155.74 685.06 157.02 684.52 158.7 682.06 157.26 679.11 155.11 678.25 156.14 676.02 155.01 674.34 154.7 670.7 159.5 671.51 160.16 665.8 167.7 667.44 170.25 673.54 174.81 677.66 169.28 680.52 171.39 682.89 168.71 686.09 171.04 686.26 170.23 692.47 174.82 693.12 173.1 695.63 174.94 694.76 176.49 696.48 177.73 699.93 172.86 692.79 167.15 692.23 164.81 689.79 165.25 692.37 162.2 692.39 158.15 693.37 158.89 Z" fill-rule="evenodd" fill="rgba(0,0,0,0.1)" stroke="none"/>
<path d="M 653.43 115.71 653.51 116.62 653.54 116.95 652.56 118 654.48 119.53 651.9 122.57 650.29 123.71 646.1 130.27 642.97 128.33 642.44 129.45 639.38 129.63 639.12 130.89 633.75 130.89 633.63 127.5 636.05 127.44 634.24 123.5 636.99 123.56 638.38 125.96 639.87 125.15 634.56 116.38 632.47 112.73 627.19 113.49 625.96 113.2 623.64 111.53 623.53 109.74 619.85 110.05 615.99 110.09 611.13 108.52 606.71 110.08 606.62 114.1 607 115.57 606.28 121.97 600.57 117.32 599.78 118.28 598.13 115.73 595.77 118.62 595.69 118.59 595.59 118.56 603.19 109.18 605.92 105.78 606 105.69 606.02 105.66 606.06 105.62 606.13 105.53 606.2 105.44 608.43 102.71 609.56 101.34 609.91 101.07 609.52 101.85 609.4 102.51 609.53 103.44 609.88 104.12 610.49 104.72 610.56 104.77 610.63 104.83 612.26 106.05 613.41 106.48 613.49 106.5 614.79 106.83 618.77 107.54 620.59 108 620.59 107.82 620.53 106.62 620.89 106.6 621.95 106.54 622.23 106.51 623.26 106.45 623.32 106.44 623.56 106.43 624.92 106.35 625.33 106.33 625.73 106.3 626.13 106.28 626.36 106.27 626.98 106.23 627.39 106.21 628.48 106.15 628.6 106.14 628.78 106.13 629.3 106.11 629.78 106.08 630.26 106.05 630.22 105.21 630.19 104.53 630.16 103.64 630.64 103.63 631.11 103.61 631.09 103.2 631.6 103.18 631.57 102.7 631.55 101.99 631.05 102.02 631.03 101.55 631.5 101.53 631.48 101.05 631.48 100.55 631.45 100.05 631.93 100.04 631.89 99.24 632.41 99.15 632.36 99.09 632.31 99.04 632.29 98.98 632.24 98.9 632.22 98.84 632.18 98.71 632.18 98.67 632.06 98.17 631.99 97.86 631.94 97.56 631.91 97.15 631.63 96.84 631.13 96.49 629.92 95.27 629.79 95.25 629.24 94.63 629.23 94.51 628.46 93.62 628.62 93.56 628.4 93.31 627.95 92.81 627.62 92.46 627.3 92.1 626.62 91.42 626.59 91.39 626.31 91.07 625.64 90.35 625.31 90.01 624.6 89.33 624.26 88.98 623.93 88.63 623.6 88.28 623.31 87.97 622.88 87.51 624.58 86.87 624.62 86.47 624.59 85.99 624.55 85.5 624.52 84.99 625.47 84.93 625.44 84.44 625.41 83.98 625.75 83.96 626.35 83.92 626.36 84.13 626.77 84.1 627.16 84.08 627.6 84.54 628 84.58 628.06 84.57 628.25 84.56 628.93 84.56 629.09 85.97 630.04 86.75 632.36 87.58 634.13 89.4 639.2 88.91 642.77 89.49 645.28 91.09 650.08 94.87 654.81 96.88 653.4 97.88 649.26 98.03 643.98 98.48 643.73 96.2 639.57 96.53 639.62 99.81 640.48 103.09 641.75 106.16 649.84 113.6 653.43 115.71 Z M 595.77 118.62 598.72 119.58 595.36 123.7 598.67 126.84 598.86 129.99 596.1 129.23 594.77 130.49 591.88 128.02 591.32 128.71 592.25 130.68 592.09 134.45 590.02 132.72 588.24 132.5 585.56 135.8 585.99 136.77 585.97 139.52 584.5 136.91 577.75 145.16 577.37 143.28 576.49 142.25 576.51 142.23 582.22 135.19 585.64 130.98 588.08 132.38 592.32 127.26 590.38 127.27 590.29 125.26 590.84 124.58 590.87 124.63 593.72 121.19 593.63 121.14 593.67 121.09 593.77 121.13 595.77 118.62 Z M 621.46 60.42 621.82 61 621.42 60.49 621.46 60.42 Z M 629.93 80.56 628.67 82.41 629.88 80.62 629.93 80.56 Z M 631.41 84.06 628.93 84.56 629.85 84.28 631.41 84.06 Z M 651.2 68.63 653.91 66.07 653.66 63.24 656.07 61.91 656.25 60.17 655.65 58.14 654.03 56.37 652.24 56.11 653.36 54.56 653.51 52.94 653.06 51.18 651.73 49.39 651.41 48.03 651.97 46.56 657.39 46.35 656.94 42.87 659.69 46.62 665.72 48.91 671.75 50.38 674.97 49.66 679.84 49.46 680.72 49.06 690.26 42.67 690.29 43.13 685.16 46.58 681.26 49.46 681.7 60.23 680.65 60.3 680.68 63.17 674.04 63.97 673.94 67.37 675.22 67.99 674.55 70.09 677.26 70.24 675.17 73.42 676.7 74.59 678.23 73.32 679.75 74.47 679.48 75.43 666.43 75.4 666.21 71.7 665.12 71.77 665.69 78.69 663.95 80.15 662.14 80.33 661.5 81.65 659.56 80.32 658.94 75.38 657.19 75.38 657.13 74.21 652.63 74.72 652.49 71.46 643.94 77.26 645.13 78.87 641.63 80.41 641.2 79.11 639.5 80.3 636.89 80.79 636.77 79.89 639.58 78.75 638.63 77 640.88 74.99 641.87 76.25 646.58 72.55 651.2 68.63 Z M 636.07 82.5 636.96 82.75 637.15 85.04 636.25 85.72 636.49 88.46 633.87 88.03 630.95 85.98 636.07 82.5 Z" fill-rule="evenodd" fill="rgba(0,0,0,0.1)" stroke="none"/>
<path d="M 781.48 79.72 784.23 81.85 781.53 83.66 779.37 86.69 779.45 89.44 778.4 90.63 779.87 92.27 778.48 93.73 780.18 96 782.03 95.27 783.32 96.59 781.01 99.44 779.6 101.62 772.26 97.86 769.65 93.93 768.67 94.99 768.68 97.35 770.44 99.95 769.15 101.77 768.14 105.15 765.73 104.71 765.18 96.86 762.87 104.18 757.45 103.05 754.05 104.58 752.99 103.36 752.54 105.26 749.5 106.28 748.26 108.66 749.57 109.88 747.73 113.3 745.46 112.52 746.51 110.31 742.79 110.38 741.47 111.34 741.44 114.39 738.38 115.36 738.46 116.74 736.7 116.83 736.57 118.8 734.79 118.04 734.23 115.73 732.9 113.02 731.58 111.81 729.96 111.89 729.83 107.82 730.94 106.4 731.16 105.02 725.13 103.43 724.02 104.24 722.24 104.36 722.55 108.67 720.98 108.4 720.85 105.2 720.06 103.59 722.57 103.42 725.36 102.71 725.23 101.07 726.05 99.79 725.94 98.62 728.22 98.97 730.51 101.17 731.08 98.5 732.52 98.45 732.63 100.64 733.47 101.43 732.86 103.78 735.44 103.71 736.57 102.49 736.49 100.8 737.97 100.73 738.48 99.89 740.19 99.97 741.17 98.42 738.53 94.55 738.45 92.53 737.34 91.99 736.22 90.44 736.2 88.76 735.1 87.67 735.34 85.56 740.28 84.98 740.74 83.44 743.93 82.1 743.68 78.71 744.31 77.44 744.22 75.54 746.21 76.25 748.44 76.32 748.98 78.49 749.22 82.02 744.36 83.02 744 83.41 744.24 87.5 746.13 87.32 746.62 89.48 746.6 92.18 744.52 92.29 745.24 95.2 747.18 96.94 750.79 92.81 752.01 94.49 752.12 96.78 752.93 97.76 752.49 102.15 755.88 102.88 756.86 101.73 757.96 99.34 757.67 94.89 760.31 95.48 762.34 96.81 762.63 95.79 765.07 95.01 764.18 80.26 760.92 80.87 758.26 83.78 756.75 81.11 758.51 80.58 758.29 77.53 757.47 76.87 757.32 75.14 755.83 72.26 754.46 70.97 751.6 66.95 749.87 67.95 743.68 68.39 742.97 68.68 742.47 65.9 739.8 64.49 738.34 64.19 737.57 66.02 736.76 65.79 737.64 63.2 742.15 65.33 743.51 65.76 743 56.23 744.08 56.21 749.65 63.88 754.97 62.11 754.9 59.19 755.38 57.45 757.25 57.45 758.65 56.82 760.56 58.73 763.21 59.48 764.07 61 767.46 58.43 767.94 55.9 770.39 55.16 768 53 767.54 50.74 763.99 47.77 757.02 41.64 762.13 41.78 762.05 39.72 763.38 39.72 766.38 42.76 768.76 42.44 768.15 39.65 769.89 39.51 768.65 33.49 765.95 33.67 766.06 30.38 767.89 29.69 767.34 26.86 771.14 26.57 772.41 26.04 771.16 29.17 771.33 32.98 770.58 35.03 772.25 34.47 776.8 34.25 776.93 37.89 776.45 41.11 778 46.38 777.32 47.04 774.53 47.4 774.49 49.21 775.03 51.27 772.93 51.38 774.96 60.5 776.69 61.46 781.23 62.28 782.95 62.32 782.87 66.15 783.24 67.15 783.48 71.52 784.84 72.61 784.45 74.13 785.2 76.17 785.35 77.89 783.96 79.1 783.59 77.46 782.08 76.49 782.05 76.45 781.21 77.05 780.85 78.16 781.03 78.9 781.48 79.72 Z M 727.66 105.68 729.12 105.6 729.59 107.41 727.76 107.49 727.66 105.68 Z M 751.6 90.25 756.07 84.73 756.88 85.4 751.87 91.37 751.6 90.25 Z M 711.55 94.08 717.32 93.48 717.62 94.6 718.22 103.74 715.47 103.08 711.11 99.05 709.9 96.34 709.53 89.74 711.22 86.67 713.59 86.51 713.27 88.23 711.5 89.74 712.09 91.69 711.55 94.08 Z M 737.64 62.59 736.79 62.19 737.3 60.15 738.77 60.04 737.64 62.59 Z M 753.96 34.31 756.35 34.17 756.67 38.87 753.95 39.14 753.29 38.51 752.94 34.39 753.96 34.31 Z" fill-rule="evenodd" fill="rgba(0,0,0,0.1)" stroke="none"/>
<path d="M 319.81 486.58 316.7 487.81 316.76 488.54 313.27 488.65 310.9 489.27 310.27 488.92 313.16 486.19 312.67 484.65 311.24 483.93 311.48 482.86 314.17 484.23 315.39 484.33 316.12 482.6 318.04 481.55 318.98 481.95 322.33 479.52 322.8 480.41 328.26 479.16 328.01 478.43 330.35 477.8 331.4 478.68 332.44 478.41 332.7 476.19 334.95 475.91 335.34 474.1 336.5 474.38 341.14 474.46 345.28 474.05 347.42 473.09 350.37 471.14 351.63 469.6 352.75 471.62 353.27 469.3 354.47 468.88 355.22 462.61 356.36 464.44 355.98 465.45 356.74 468.41 357.95 471.8 359.05 470.64 363.51 461.11 365.21 460.94 372.9 458.97 374.67 460.6 374.87 461.78 367.74 467.1 357.64 475.31 355.56 477.12 349.01 483.65 342.33 489.04 337.79 492.25 335.16 493.88 334.97 494.67 328.23 499.12 316.25 507.95 314.6 508.02 312.92 509.5 309.6 511.7 289.49 526.46 280 533.27 264.26 544.79 249.03 556.1 238.69 564.06 228.88 571.95 223.7 576.55 220.5 579.81 218.94 581.75 217.13 584.71 215.92 585.62 214.89 584.08 216.72 580.81 218.08 579.26 219.58 578.38 221.54 575.98 224.02 573.69 227.15 572.94 232.93 568.04 231.62 567.88 230.33 565.83 232.43 563.7 232.1 561.77 233.71 561.6 235.79 560.52 237.41 558.28 241.74 555.13 242.66 556.39 244.02 555.71 244.5 554.53 245.84 555.34 246.82 552.77 249.07 552.13 251.08 550.81 251.34 550.02 249.3 548.71 252.2 548.05 253 545.54 255.93 544.8 257.48 542.4 258.63 542.73 257.81 539.9 258.48 538.5 261.23 540.06 262.54 539.63 263.46 537.69 264.92 537.72 265.88 535.6 267.11 534.3 265.88 533.24 265.41 531.62 264.12 530.17 266.06 529.27 267.47 529.41 273.29 537.09 276.38 533.4 282.06 529.26 282.49 527.84 281.49 525.74 282.59 524.83 283.29 526.07 284.56 526.63 287.2 524.97 292.36 522.32 301.78 516.64 303.31 515.27 305.72 512.28 307.49 510.73 309.18 509.83 308.4 508.28 313.07 505.97 312.86 504.15 314.66 503.2 314.31 501.31 310.07 492.97 313.71 492.87 315.68 491.4 317.47 490.96 319.01 489.8 321.82 490.65 323.82 490.11 326.98 488.71 327.84 487.74 328.88 488.8 330.21 489.09 328.56 485.69 327.27 486.11 326.16 485.01 324.39 484.65 319.81 486.58 Z M 190.12 439.14 190.05 436.99 175.24 431.66 175.35 433.17 174.82 432.36 173.97 431.21 173.69 430.74 173.37 430.63 183.74 434.31 185.61 432.01 185.99 433.47 188.32 434.95 190.52 434.88 192.06 435.43 192.17 437.34 194.68 438.24 195.95 434.73 198.93 435.75 200.19 435.25 200.58 434.18 202.02 434.13 202.01 430.72 204.18 432.07 207.9 432.1 207.78 428.56 208.63 427.99 208.56 426.13 212.2 425.95 214.91 423.27 214.84 421.69 216.63 420.9 217.54 419.45 217.42 416.15 216.41 417.59 211.63 420.18 208.87 420.25 207.95 419.84 207.71 415.88 209.49 415.63 208.99 406.04 208.47 406.61 208.18 400.76 211.45 400.61 210.99 391.7 212.48 389.67 220.11 389.33 223.01 387.82 227.71 393.22 232.31 389.19 234.45 388.36 241.92 388 246.51 387.93 245.95 390.39 246.09 393.28 245.79 394.62 248.64 397.21 249.66 397.39 250.43 398.97 249.69 401.69 247.83 402.28 248.12 405.01 246.07 405.13 246.19 408.28 242.35 409.11 239.49 407.81 236.76 410.28 232.88 411.06 230.47 411.25 229.99 408.74 229.12 407.93 227.84 408.74 228.76 411.49 226.27 413.55 224.97 411.79 224.37 413.37 222.1 413.94 220.24 416.07 220.43 421.5 222.55 421.44 222.85 430.51 223.57 430.57 239.36 422.2 243.57 422.04 243.84 428.57 246.69 429.34 248.52 429.28 248.27 422.05 248.54 421.9 253.28 427.04 255.13 426.94 256.28 426.18 263.29 434.23 265.79 434.08 267.78 434.4 272.03 434.25 272.92 435.08 275.86 439.6 277.42 439.37 274.72 428.15 283.83 427.83 283.62 421.26 287.53 420.56 290.23 420.88 291.28 421.49 291.57 423.94 291.19 424.86 291.32 427.56 292.6 427.51 292.66 426.03 296.27 426.19 296.25 425.21 298.04 424.96 299.53 425.7 299.57 426.77 302.34 426.9 302.72 434.77 304.25 434.72 305.24 435.41 305.67 436.95 304.48 441.58 304.16 445.89 303.35 447.63 305.69 448.45 304.06 449.53 304.04 452.17 301.52 451.57 300.16 452.38 298.46 452.39 298.41 451.22 295.35 451.24 294.52 451.9 293.2 451.08 291.21 451.19 291.09 452.02 287.71 462.02 287.1 461.87 284.34 458.9 283.27 458.26 282.84 456.87 279.92 453.55 273.4 452.44 270.01 452.61 270.31 458.98 268.42 459.05 269.21 461.01 271.67 461.22 274.06 462.17 275.13 461.98 278.4 463.08 280.6 463.1 280.38 465 271.09 465.07 271.36 464.17 267.94 463.11 267.62 464.52 257.6 461.04 257.02 463.58 253.34 462.59 253.11 463.43 250.39 462.72 249.82 464.78 243.14 462.79 241.68 461.96 238.47 461.02 238.37 458.57 232.15 458.94 232.21 460.89 230.96 461.05 231.12 466.39 216.27 466.9 203.83 456.44 203.67 454.38 200.44 454.51 200.37 452.52 197.91 452.29 197.68 448.22 199.72 442.58 197.82 441.9 197.18 443.69 196.21 443.34 196.85 441.55 193.67 441.97 193.49 440.35 194.55 438.6 192.19 437.96 192.12 439.87 190.12 439.14 Z M 244.19 437.66 244.15 436.71 233.55 437.15 231.42 437.84 231.41 439.89 229.92 439.36 230.61 444.16 228.38 445.71 226.84 445.77 226.95 450.04 224.83 450.25 224.26 450.94 224.43 455.92 232.99 455.64 234.25 453.42 235.15 453 236.58 453.51 236.66 456.36 241.49 456.13 240.96 452.95 237.42 449.9 236.81 448.35 237.2 446.9 238.98 445.69 243.55 447.57 244.64 447.52 244.19 437.66 Z M 293.59 516.22 294.86 515.58 296.05 516.84 292.92 519.24 291.97 520.49 285.97 523.64 284.52 520.83 282.1 523.36 282.23 521.7 281.01 521.89 280.34 520.44 283.78 519.24 284.82 519.7 286.09 517.46 286.61 518.61 289.14 519.45 293.59 516.22 Z M 281.17 468.45 281.29 466.82 282.24 466.32 282.38 463.51 280.12 460.72 279.94 459.42 285.84 464.46 287.65 465.48 288.46 467.2 284.63 470.55 281.16 469.29 281.17 468.45 Z M 294.24 482.4 294.2 483.36 289.69 481.77 290.36 479.83 291.27 480 294.42 479.42 295.35 480.11 297.03 478.82 298.89 479.04 298.66 475.56 300.8 477.5 301.94 478.07 297.38 481.85 296.41 484.03 294.4 483.46 294.24 482.4 Z M 190.12 439.14 191.08 439.98 190.2 442.3 190.46 446.54 187.46 446.62 187.37 447.46 185.64 449.58 181.78 443.36 181.89 439.4 190.12 439.14 Z M 207.71 415.88 205.7 415.98 205.51 412.37 207.54 412.26 207.71 415.88 Z M 229.21 418.76 230.86 418.69 233.22 421.25 231.68 422.83 229.41 420.51 229.21 418.76 Z M 337.56 471.99 334.51 472.08 335.75 469.92 340.39 468.36 341.25 470.92 340.69 471.87 337.56 471.99 Z" fill-rule="evenodd" fill="rgba(0,0,0,0.1)" stroke="none"/>
<path d="M 80.2 399.43 79.25 397.62 76.84 396.75 76.89 397.98 72.1 398.16 71.97 395.25 70.79 394.84 65.16 395.08 64.93 392.68 62.86 392.8 62.89 394.42 59.75 394.62 59.35 395.97 59.95 397.32 62.78 397.14 64.31 397.67 61.16 412.87 54.1 413.23 54.52 404.74 54.52 401.92 55.01 399.73 58.14 389.97 52.3 387.86 48.81 388.27 48.55 386.85 51.5 386.72 52.01 385.5 53.73 384.95 54.6 383.9 54.69 383.96 56.12 384.72 58.75 386.23 59.24 386.48 59.33 386.53 59.41 386.59 59.52 386.24 60.03 386.23 60.06 386.72 60.64 386.69 61.24 386.65 61.86 386.61 61.89 387.08 62.5 387.05 62.57 388.35 63.77 388.97 65.83 390.13 66.71 385.94 66.92 384.95 67.16 383.77 67.73 381 67.78 380.77 67.86 380.39 67.94 379.99 68.03 379.59 68.12 379.16 68.2 378.74 68.29 378.32 68.38 377.91 68.46 377.51 68.84 375.69 69.2 373.94 69.22 373.88 69.58 372.15 69.94 370.41 70.08 370.4 70.61 370.39 71.65 370.14 73.1 370.06 74.14 369.99 75.04 369.94 77.56 369.8 77.69 369.79 83.99 369.45 84.61 369.42 84.71 369.41 84.78 369.41 85.82 369.35 87.6 369.25 89.1 369.16 89.27 369.15 89.34 369.14 89.5 369.12 90.25 369.09 90.45 369.08 91.4 369.02 91.8 369 93.28 368.92 93.61 368.9 95.32 368.8 95.94 368.87 96.52 369.15 97.2 369.56 98.56 369.83 99.75 370.03 100.76 369.98 102.05 369.5 103.37 368.93 103.43 369.1 103.48 369.21 103.85 369.06 103.97 369.86 103.56 369.77 103.35 370.3 103.16 370.65 104.09 371.14 105.53 371.87 105.65 371.92 105.5 368.87 107.27 368.8 109.15 368.73 110.8 368.63 114.38 368.45 114.33 367.34 116.54 366.66 119.59 366.53 121.3 365.86 121.74 365.71 124.79 365.54 124.89 365.53 125.85 365.21 126.58 364.42 126.97 364.25 128.26 364.06 128.3 364.81 128.35 366.06 130.45 366 130.47 366.52 130.49 366.86 130.5 367.21 131.71 367.15 131.95 367.14 131.87 366.38 131.58 365.91 131.52 365.38 131.51 365.06 131.42 362.98 131.54 361.91 131.49 360.62 131.41 358.87 131.7 358.85 132.14 358.83 132.58 358.81 133.02 358.78 133.18 358.78 133.06 357.9 133.02 356.97 133.48 356.96 133.98 356.91 134.44 356.89 134.87 356.88 135.8 357.14 136.74 357.66 137.56 358.13 138.22 358.52 139.24 357.4 139.41 357.2 139.53 357.07 140.67 355.79 141.09 355.32 141.46 354.99 141.83 354.76 142.22 354.47 143.58 352.97 143.66 352.88 144.52 351.94 144.66 352.14 144.66 352.44 144.72 352.56 144.61 352.87 144.62 353.01 144.93 353.41 145.19 353.64 145.39 353.93 145.45 354.17 145.73 354.37 145.98 354.87 145.88 355.43 145.92 355.69 146.22 356.47 146.47 356.65 146.75 357.03 146.94 357.5 147.33 357.93 147.4 358.14 147.24 359.03 147.38 359.3 147.28 359.56 146.43 359.6 146.4 360.53 146.4 360.58 146.82 361.28 146.96 361.4 147.6 360.71 148.13 360.48 148.53 360.65 149.25 360.35 149.53 360.7 149.37 361.17 149.63 361.6 150.38 360.84 151.59 360.54 151.88 359.98 151.75 359.54 151.98 358.31 152.75 357.78 153.49 357.43 154.22 358.18 154.74 358.6 155.39 359.46 156.43 359.14 157.65 357.98 159.63 358.36 160.31 358.79 160.8 359.39 161.83 358.24 162.41 358.37 162.91 358.91 162.99 359.02 163.15 359.33 163.06 359.35 162.99 359.37 162.94 359.4 162.86 359.42 162.78 359.46 162.76 359.5 162.73 359.6 162.73 359.71 162.73 359.75 163.12 360.37 163.46 359.93 163.68 360.19 163.87 359.62 164.14 359.85 164.26 358.83 163.89 358.55 164.81 358.16 165.15 358.55 165.94 358.14 165.92 357.83 166.67 358.12 166.4 358.8 167.32 358.78 167.18 358.11 167.83 358.21 167.9 358.58 168.61 357.39 168.38 357.11 169.08 357 169.1 356.19 169.6 356.34 169.36 356.83 170.03 357.04 169.63 357.33 170.08 357.79 169.97 358.12 170.55 358.14 170.62 358.46 171.36 358.07 170.92 357.54 171.44 357.47 171.71 357.85 172.25 357.51 172.57 357.76 172.41 358.7 171.86 358.9 171.99 359.54 171.46 358.68 170.99 359.12 170.68 358.91 169.8 361.32 170.97 362.73 170.95 363.63 170.23 364.37 170.12 365.13 170.84 366.26 171.1 366.34 171.19 366.31 171.77 366.15 171.71 365.56 172.42 365.73 172.22 366.21 172.19 366.23 172.35 366.34 172.41 366.45 172.22 366.62 172.22 366.67 172.27 366.78 172.31 366.81 172.38 366.81 172.44 366.77 172.52 366.66 172.59 366.62 172.69 366.65 172.76 366.79 172.84 366.82 172.87 366.8 172.89 366.74 172.88 366.51 172.94 366.49 173.06 366.61 173.16 366.85 173.24 367 173.25 367.05 173.22 367.11 173.03 367.13 172.96 367.17 172.97 367.26 173.06 367.4 172.96 367.49 172.93 367.55 172.98 367.59 173.24 367.61 173.31 367.7 173.32 367.86 173.28 367.89 172.88 368.02 172.82 368 172.77 368.02 172.61 368.13 172.55 368.12 172.41 368.05 172.36 368.06 172.31 368.11 172.31 368.16 172.36 368.31 172.51 368.54 172.5 368.66 172.45 368.81 172.46 368.87 172.56 368.94 172.78 368.97 172.89 368.98 172.95 368.94 173.05 368.96 173.16 369.01 173.24 369.16 173.34 369.23 173.5 369.2 173.63 369.2 173.82 369.27 173.89 369.27 173.93 369.25 173.92 369.07 173.97 369.03 174.05 369.07 174.21 369.3 174.28 369.34 174.33 369.35 174.39 369.32 174.51 369.17 174.59 369.15 174.68 369.2 174.82 369.42 174.87 369.49 175 370.01 175.41 370.21 174.58 370.9 174.59 371.49 174.13 371.96 174.48 372.34 175.47 372.93 174.63 373.13 174.55 373.49 175.71 373.29 175.83 374.01 175.37 374.86 176.02 375.25 176.16 375.32 176.48 375.32 176.65 375.3 176.74 375.35 176.77 375.42 176.75 375.5 176.53 375.9 176.54 376.07 176.6 376.2 176.82 376.55 176.95 376.68 177.09 376.74 177.43 376.67 177.52 376.68 177.57 376.72 177.58 376.8 177.43 377.11 177.43 377.22 177.47 377.32 177.59 377.41 177.9 377.52 178.18 377.55 178.35 377.59 178.76 377.61 178.8 377.56 178.82 377.4 178.8 377.29 178.73 377.2 178.66 377.06 178.68 376.89 178.75 376.85 178.96 376.82 179.07 376.86 179.17 376.98 179.24 377.14 179.26 377.38 179.22 377.71 179.26 377.82 179.37 378.02 179.68 378.21 180.28 378.29 180.58 378.19 180.7 378.01 180.74 377.74 180.9 377.56 181.16 377.66 181.46 378.1 181.55 378.43 181.26 378.79 181.25 379.06 181.34 379.19 181.65 379.39 181.98 379.49 182.33 379.48 182.51 379.38 182.7 379.12 182.84 379.03 183.24 379.14 183.39 379.39 183.43 379.7 183.52 379.87 183.71 380.08 184.1 380.23 184.23 380.35 184.26 380.57 184.1 380.9 183.9 381.09 183.63 381.16 183.32 381.18 182.96 381.32 182.72 381.53 182.63 381.81 182.68 382.17 182.81 382.73 182.98 382.97 183.25 383.12 183.57 383.13 183.78 383.2 184.3 383.45 184.42 383.63 184.41 383.97 184.21 384.14 184.23 384.26 184.44 384.34 184.53 384.49 184.45 385 184.53 385.18 184.81 385.31 185.1 385.3 185.46 385.19 185.75 385.17 185.94 385.22 186.17 385.38 186.32 385.64 186.33 385.93 186.26 386.26 186.05 386.56 185.83 386.8 185.81 387.11 185.94 387.25 186.52 387.5 186.77 387.57 187 387.56 187.31 387.48 187.5 387.35 187.82 387.12 188.16 387.03 188.6 387.12 189 387.09 189.21 386.99 189.48 386.76 189.77 386.47 190.18 386.17 190.65 385.97 190.91 385.93 191.24 385.99 191.48 386.28 191.58 386.67 191.88 386.86 192.33 386.73 192.52 386.48 192.77 385.91 192.87 385.34 192.96 385.17 193.25 384.97 193.63 384.92 193.94 384.76 194.1 384.55 194.3 384.03 194.6 383.48 194.83 383.18 195.26 382.91 195.55 382.84 196.02 382.87 196.61 382.82 197.5 382.91 197.82 382.91 198.39 382.86 198.58 382.77 199.25 383.14 199.57 383.36 199.91 383.45 200.17 383.44 200.46 383.33 200.61 383.21 200.69 383.04 200.74 382.8 200.69 382.31 200.77 381.83 200.98 381.49 201.34 381.2 201.84 380.95 202.26 380.79 202.72 380.66 203.17 380.62 203.57 380.67 203.81 380.77 203.99 380.92 204.35 381.49 204.72 382.13 205.02 382.3 205.33 382.18 205.59 381.85 205.68 381.76 205.75 381.7 205.84 381.64 206.36 381.36 206.74 380.79 207.08 380.46 207.32 380.35 207.62 380.29 208.01 380.31 208.32 380.43 208.91 380.77 209.18 380.85 209.5 380.85 210.17 380.56 210.6 380.48 211.08 380.27 211.27 380 211.28 379.75 211.18 379.38 210.98 378.89 210.82 378.6 210.29 377.84 210.22 377.68 210.25 377.32 210.43 377.13 210.66 377.01 211.27 376.78 211.43 376.63 211.52 376.33 211.31 375.69 211.32 375.49 211.57 375.16 211.63 375.11 211.7 375.05 212.53 375.33 213.13 376.47 213.82 376.35 214.03 375.42 214.95 374.38 215.38 373.02 215.28 372.45 214.67 371.31 214.55 370.43 213.85 368.99 214.17 368.32 214.76 368.03 214.86 367.98 215.78 368.68 216.32 369.18 216.47 369.97 216.84 370.16 217.61 369.77 218.11 369.15 218.53 368.3 219.73 368.71 220.45 368.7 221.02 368.79 221.51 367.99 221.61 367.03 220.93 365.98 221.06 365 221.21 364.87 221.25 364.84 221.28 364.57 221.19 364.28 221.16 364.18 221.15 364.15 221.38 363.45 221.45 363.36 221.52 363.25 221.71 363.24 221.81 363.24 221.92 362.86 222.19 362.58 223.25 361.65 223.88 360.84 224.2 359.99 224.45 358.79 224.74 358.05 225.29 357.4 226 356.98 227.38 356.42 228.87 356.2 229.94 356.23 230.3 356.29 230.76 356.1 231.8 356.12 233.47 356.31 234.81 356.81 235.56 357.64 236.93 358.09 238.47 358.33 239.65 358.78 241.24 359.11 242.04 358.94 242.54 359.03 242.71 359.77 242.62 361.05 242.91 361.37 243.77 360.86 244.74 360.59 245.01 360.33 245.19 360.47 246.66 360.95 247.35 360.86 247.44 360.49 247.43 360.29 247.41 360.11 247.93 362.46 248.1 363.37 248.18 363.82 248.27 364.03 248.37 364.49 248.79 365.34 250.38 366.75 250.71 367.22 251.1 367.38 251.83 368.82 252.65 369.98 253.88 371.41 255.26 372.49 255.47 372.69 256.88 373.83 258.51 375.02 261.27 376.52 263.24 377.44 263.62 377.55 264.76 378.05 266.89 378.7 266.92 378.7 269.36 379.43 271.39 379.84 271.6 379.93 272.2 380 275.44 380.65 275.8 380.81 276.71 380.91 279.02 381.66 279.49 381.7 281.36 382.23 284.9 382.98 285.1 383.05 285.26 383.06 286.25 383.27 286.39 383.3 286.8 383.45 288.2 383.71 289.08 383.99 291.89 384.47 292.07 384.5 292.11 384.5 292.24 384.52 293.33 384.59 293.63 384.49 294.11 384.48 292.46 388.97 288.45 395.78 287.81 397.12 286.71 396.03 287.01 394.41 286.22 392.75 283.91 392.13 281.19 392.79 277.41 395.6 275.83 396.39 276.56 392.96 274.74 392.55 275.05 390.82 271.28 389.99 271.66 388.26 268.72 388.17 270.19 384.3 274.58 381.57 271.16 380.29 269.13 382 268.48 380.97 259.78 388.29 257.71 384.55 252.84 387.27 251.15 387.67 246.51 387.93 241.92 388 234.45 388.36 232.31 389.19 227.71 393.22 223.01 387.82 220.11 389.33 212.48 389.67 210.99 391.7 211.45 400.61 208.18 400.76 188.39 401.66 187.25 402.95 184.79 403.66 181.19 403.21 180.35 402.15 179.84 396.84 179.01 396.43 174.83 396.66 174.75 394.96 172.84 397.16 171.22 395.67 171.41 398 168 398.19 168.15 400.87 161.48 400.96 158.49 406.3 164.46 415.84 167.15 415.72 167.22 416.59 164.99 416.69 167.66 420.95 161.32 421.34 161.46 423.55 162.98 425.17 163.02 425.83 160.7 424.72 160.24 424.53 160.1 424.48 159.85 426.18 159.4 427.96 159.31 427.92 158.57 429.8 157.92 431.23 157.87 431.35 157.66 431.25 157.19 431.27 156.21 431.34 155.34 431.39 154.74 431.42 153.38 431.5 152.66 431.55 152.64 431.23 151.92 431.27 151.94 431.59 151.65 431.61 151.55 431.61 151.16 431.63 150.43 431.68 149.99 431.7 149.57 431.72 148.12 431.8 145.96 431.93 145.15 432.4 144.21 432.95 144.2 432.79 144.16 431.9 144.12 431.02 143.06 431.08 141.24 431.19 140.81 431.22 139.03 431.32 138.8 431.61 139.21 431.09 136.53 428.96 137.31 428.02 139.15 429.41 141.07 426.96 141.97 427.65 144.09 424.87 141.36 422.53 141.99 421.72 144.79 423.95 144.57 420.7 139.78 419.12 139.89 418.14 137.63 417.32 136.65 416.53 133.68 415.45 133.1 416.17 130.03 413.73 126.06 418.93 123.14 416.71 122.28 417.78 121.37 417.03 122.64 415.44 122.79 413.57 120.73 412.35 127.38 404.11 123.23 400.75 128.81 393.85 133.08 397.26 131.75 398.9 134.46 401.04 138.99 400.98 144.04 400.58 138.98 399.4 137.11 399.33 137.07 397.53 144.11 397.04 144.36 397.37 151.29 396.95 151 392.56 149.1 392.81 148.87 388.64 150.72 388.86 150.43 386.51 140.75 387.07 141.13 388.77 139.18 388.4 136.57 388.55 136.01 387.53 132.88 387.68 131.06 386.96 132.69 383.52 132.52 380 121.96 380.48 121.65 373.42 119.28 373.53 119.33 374.47 115.81 374.79 115.89 376.83 107.64 377.04 107.75 379.27 103.57 379.45 101.53 380.73 101.48 379.55 99.39 379.65 98.59 380.41 96.94 380.48 96.14 381.46 96.22 384.44 94.53 383.1 90.6 383.24 90.31 387.23 89.66 390.18 88.79 390.37 79.04 390.94 79.25 397.48 80.06 397.76 80.2 399.43 Z M 136.9 371.94 141.28 386.77 148.67 386.32 149.8 385.18 148.4 383 148.4 380.66 149.58 380.72 150.27 382.9 150.42 386.22 153.68 386.05 156.49 382.87 153.87 380.52 151.88 379.32 149.88 375.05 149.09 374.31 147.73 375.85 146.55 375.94 146.64 377.6 145.61 378.63 143.37 375.09 145.15 374.99 147.48 372.76 145.9 371.34 143.55 371.93 143.65 373.31 142.41 373.55 140.14 369.97 136.9 371.94 Z M 54.6 383.9 51.08 382.32 50.57 381.65 51.01 381.9 51.3 382.07 53.16 383.09 54.6 383.9 Z M 47.56 379.97 47.1 381.28 48 383.49 47.01 384.42 44.53 384.77 43.37 383.2 40.61 383.32 39.36 382.85 38.56 385.49 40.78 385.39 41.49 386.49 39.16 386.6 38.54 387.08 34.58 387.29 32.81 385.42 29.17 385.47 28.41 385.82 25.64 388.51 24.44 388.94 21.5 388.54 20.17 389.31 19.65 388.05 19.95 386.49 17.92 385.88 15.63 380.64 14.05 380.72 12.11 378.37 11.89 380.83 8.63 380.99 8.94 379.17 8.62 377.77 6.31 376.2 5.56 376.64 5.31 376.69 4.81 377.07 4.28 377.38 3.76 379.13 2.53 379.92 1.21 377.76 1.44 377.56 7.87 374.83 7.47 372.6 7.5 372.17 7.75 371.98 7.31 371.39 6.58 370.42 7.07 369.83 7.12 369.77 6.9 369.59 7 369.44 7.04 369.38 7.05 369.21 7.04 368.89 6.99 367.67 6.98 367.56 6.93 366.12 5.6 366.52 5.6 366.53 5.59 366.53 5.58 366.53 5.57 366.54 5.56 366.54 5.55 366.54 5.54 366.55 5.53 366.55 4.65 366.54 4.54 365.99 4.48 364.81 4.18 359.39 4.17 359.04 5.93 359.67 7.3 358.4 7.57 358.12 7.48 356.87 7.25 355.82 7.23 355.75 7.14 355.25 7.13 354.98 6.01 354.14 5.94 354.12 5.96 353.86 6 353.67 6.03 353.6 6.1 353.37 6.16 353.23 6.28 352.98 6.44 352.74 6.61 352.52 6.68 352.43 6.71 352.46 8.92 354.1 10.69 355.42 11.19 355.78 12.42 356.71 13.37 357.82 13.4 357.87 14.55 359.27 14.6 359.34 14.89 358.95 14.92 358.5 14.88 357.55 14.87 357.49 14.75 356.16 14.8 355.74 14.81 355.7 14.76 354.89 14.75 354.49 16.61 354.38 16.94 354.09 17.57 354.08 18.52 354.28 19.99 354.13 20.4 353.96 20.98 353.66 21.62 354.63 21.82 354.98 21.96 355.47 22.92 355.37 23.37 355.43 23.8 355.54 24.32 356.41 24.98 356.68 24.93 357.63 24.46 357.77 24.59 358.19 25.48 358.7 25.87 360.22 25.44 360.52 25.39 361.11 25.4 361.15 23.89 361.16 23.41 361.17 22.98 361.19 21.44 361.28 20.7 361.17 20.43 361.5 20.64 361.6 20.82 361.85 20.86 362.37 20.8 362.67 20.68 362.88 19.99 363.52 19.64 363.82 19.56 364 19.48 364.05 18.81 364.54 18.86 364.61 19.9 365.86 20.81 367.5 21.12 368.01 21.62 368.87 21.66 368.94 22.49 370.35 22.54 370.42 23.08 371.1 23.7 371.51 25.02 371.61 25.08 371.61 25.11 371.6 25.14 371.6 26.27 371.6 27.78 371.99 27.86 372.04 29.01 372.38 32.07 373.33 32.94 373.62 33.05 373.65 33.12 373.68 34.8 374.16 35.7 374.44 35.8 374.48 39.62 375.67 39.71 375.68 40.01 375.8 42.48 377.14 44.52 378.25 44.59 378.3 46.16 379.2 47.53 379.96 47.56 379.97 Z M 246.99 357.75 245.87 358.87 245.88 358.56 246.42 357.96 246.99 357.76 246.99 357.75 Z M 164.61 425.08 165.31 425.74 164.64 425.78 164.61 425.08 Z M 168.25 425.83 169.2 427.23 169.02 427.15 168.3 426.84 168.25 425.83 Z M 47.82 388.29 45.42 389.16 46.83 390.19 46.55 391.42 45.11 391.95 44.88 393.5 45.64 395.02 44.83 397.33 44.67 400.76 44.04 402.81 41.1 403.51 28.55 403.92 26 399.46 26.5 397.42 25.68 395.2 23.01 392.93 23.08 389.87 24.65 389.79 28.58 385.91 30.47 385.52 31.8 387.64 32.72 387.77 39.57 387.46 39.61 388.63 44.76 388.38 45.1 386.97 47.73 386.88 47.82 388.29 Z M 50.46 391.69 53.15 391.53 53.23 393.51 47.47 393.77 47.41 391.81 50.46 391.69 Z M 71.31 415.89 70.39 415.63 64.96 415.99 64.92 415.19 67.71 415.08 69.68 414.61 69.39 412.49 72.91 412.88 73.32 417.42 74.67 417.38 75.87 418.36 76.7 417.42 76.62 415.8 79.97 415.61 80.12 418.68 82.73 419.4 82.34 422.13 84.3 422.03 85.48 425.51 81.37 425.22 75.65 419.86 75.12 420.63 75.09 426.07 73.67 426.44 67.86 426.69 67.53 419.64 64.47 419.46 60.01 419.77 60.66 416.42 71.31 415.89 Z M 84.77 411.78 87.05 411.77 86.49 413.45 85.31 413.52 85.45 416.56 84.74 418.71 83.79 418.74 83.64 415.44 84.95 415.38 84.77 411.78 Z M 80.2 399.43 84.26 399.37 85.27 397.85 86.38 398.31 86.5 399.89 84.52 399.35 80.9 404.89 80.49 404.71 80.2 399.43 Z M 118.75 408.47 121.03 406.39 122.36 408.19 121.21 410.52 118.9 409.85 118.75 408.47 Z M 267.54 401.86 266.45 400.56 264 395.63 267.9 396.48 268.65 395.69 272.34 395.4 274.86 396.39 274.52 398.11 273.67 399.01 272.58 398.59 271.74 400.54 271.01 399.7 269.21 399.59 267.54 401.86 Z" fill-rule="evenodd" fill="rgba(0,0,0,0.1)" stroke="none"/>
</g>
</svg>