<?xml version="1.0"?>
<svg xmlns="http://www.w3.org/2000/svg" version="1.2" baseProfile="tiny" width="320" height="29" viewBox="0 0 320 29" stroke-linecap="butt" stroke-linejoin="round">
<style>
  path {shape-rendering: crispEdges;}
</style>
<g id="layer1">
<path d="M 1 11 1 1.01 64.6 1.01 64.6 11 1 11 Z" fill="#ffffff"/>
<path d="M 64.6 11 64.6 1.01 128.2 1.01 128.2 11 64.6 11 Z" fill="#f0f0f0"/>
<path d="M 128.2 11 128.2 1.01 191.8 1.01 191.8 11 128.2 11 Z" fill="#d9d9d9"/>
<path d="M 191.8 11 191.8 1.01 255.4 1.01 255.4 11 191.8 11 Z" fill="#bdbdbd"/>
<path d="M 255.4 11 255.4 1.01 319 1.01 319 11 255.4 11 Z" fill="#969696"/>
</g>
<g id="layer2" fill="none" stroke="black" stroke-width="1">
<path d="M 64.6 1.01 64.6 17" stroke="rgba(0,0,0,0.3)"/>
<path d="M 128.2 1.01 128.2 17" stroke="rgba(0,0,0,0.3)"/>
<path d="M 191.8 1.01 191.8 17" stroke="rgba(0,0,0,0.3)"/>
<path d="M 255.4 1.01 255.4 17" stroke="rgba(0,0,0,0.3)"/>
</g>
<g id="layer3" font-family="sans-serif" font-size="12" text-anchor="middle">
<text y="0" x="0" font-family="sans-serif" font-size="10" text-anchor="middle" fill="#555" transform="translate(64.6 28)">10</text>
<text y="0" x="0" font-family="sans-serif" font-size="10" text-anchor="middle" fill="#555" transform="translate(128.2 28)">25</text>
<text y="0" x="0" font-family="sans-serif" font-size="10" text-anchor="middle" fill="#555" transform="translate(191.8 28)">50</text>
<text y="0" x="0" font-family="sans-serif" font-size="10" text-anchor="middle" fill="#555" transform="translate(255.4 28)">75%</text>
</g>
</svg>