<?xml version="1.0"?>
<svg xmlns="http://www.w3.org/2000/svg" version="1.2" baseProfile="tiny" width="800" height="1119" viewBox="0 0 800 1119" stroke-linecap="round" stroke-linejoin="round">
<g id="nassau-2023-enacted">
<path d="M 299.45 736.68 300.41 736.16 302.95 734.73 304.13 733.63 301.15 729.77 299.58 726.79 295.95 720.84 295.16 719.45 292.9 715.43 292.83 715.32 291.93 713.38 291.01 711.26 290.49 710.02 290.42 709.79 292.5 709.27 302.24 706.59 304.6 706.04 304.64 705.68 309.47 702.34 315.92 698.48 318.97 696.8 321.29 695.39 321.81 695.65 323.64 696.59 323.28 695.5 328.7 693.4 330.78 692.8 332.77 692.21 335 691.62 337.02 690.93 342.18 689.37 342.21 690.44 349.15 688.37 351.15 689.41 349.81 691.92 348.32 694.47 346 697.53 345.82 697.58 342.21 697.69 342.15 700.05 342.09 702.24 342.02 704.48 341.96 706.88 342.9 712.99 344.94 719.5 349.18 719.23 351.74 719.02 353.02 718.97 356 718.15 357.08 717.59 357.83 717.19 359.68 716.23 363.95 714.02 365.88 713.02 367.08 716.97 367.92 719.77 368.54 719.7 370.55 719.59 373.88 719.64 374.79 719.65 376.02 719.64 376.93 719.66 378.44 719.65 377.44 715.1 379.48 714.66 381.51 714.21 383.55 713.76 387.05 713 387.27 714.04 387.49 715.03 387.93 717.07 388.51 719.68 389.37 719.69 389.45 724.99 388.4 725.05 387.14 725.11 387.53 729.11 387.57 732.93 387.1 742.17 385.78 741.88 387.26 754.41 386.74 756.02 383.61 758.09 380.49 760.13 376.76 762.88 377.65 763.5 379.46 764.78 377.13 765.76 369.01 768.88 370.81 774.1 368.3 774.92 366.1 775.65 367.69 780.44 365.2 780.73 363.72 780.5 362.12 780.25 360.16 779.94 358.09 779.61 358.04 779.98 353.21 779.21 352.57 779.11 350.63 778.81 348.37 778.46 347.73 778.36 347.26 780.49 348.04 780.61 347.72 782.73 347.41 784.86 345.12 784.64 344.69 785.57 341.82 784.12 340.38 783.89 335.53 784.12 335.19 784.85 334.81 785.7 334.2 787.27 333.37 789.54 332.56 791.82 331.49 794 330.19 796.09 329.58 797.31 329.18 798.3 328.82 799.3 328.42 800.59 328.08 801.3 326.9 802.61 326.31 803.12 324.47 804.92 322.09 806.71 318.54 811.34 320.63 812 320.38 812.96 324.6 815.76 323.05 818.21 319.17 832.18 328.48 835.39 329.31 832.08 329.97 829.46 330.44 827.2 330.71 825.03 330.8 823.94 336.29 824.93 341.81 825.86 343.42 826.01 342.35 831.8 341.94 834.24 340.69 834.8 339.78 835.05 339.38 838.58 337.34 838.84 336.71 843.65 338.82 843.98 340.72 843.95 348.45 844.95 347.95 850.68 346.85 852.1 346.67 853.61 346.33 854.2 348.02 854.8 350.23 862.39 348.99 862.64 348.23 862.8 347.92 868.57 346.3 868.47 344.56 869.85 341.64 875.4 338.36 877.52 336.16 878.94 335.1 879.62 331.22 882.13 330.05 882.91 327.68 884.48 327.41 884.66 325.21 886.11 323.02 887.51 321.1 888.65 318.14 890.37 310.78 888.45 310.17 890.12 308.93 893.27 308.51 894.28 307.7 896.2 305.21 902.16 303.65 905.88 302.82 907.87 302.68 908.5 300.52 907.96 299.33 907.99 296.42 908.07 293.55 907.9 287.7 908 286.14 907.82 283.24 907.27 278.98 908.64 275.04 907.58 270.61 906.74 269.63 905.69 269.22 907.19 264.15 907.98 263.21 906.51 261.06 903.13 259.6 900.82 261.3 896.18 262.44 892.12 262.18 891.12 261.42 888.18 261 886.16 261.27 883.9 260.95 882.93 257.84 882.23 258.31 879.85 258.37 879.26 260.16 879.27 259.88 876.85 259.45 872.66 257.98 867.88 257.68 867.28 256.17 864.42 255.27 862.73 258.18 861.15 259.71 859.51 262.54 856.87 264.71 853.53 265.3 851.53 266.05 849.49 265.73 847.37 266.91 845.17 266.39 844.96 268.44 840.25 275.51 831.76 272.28 824.81 283.07 833.6 285.1 835.23 287.39 835.08 288.28 835.55 290.07 835.13 290.79 833.82 291.78 832.05 292.8 830.32 294.1 828.71 295.5 827.13 297.07 824.8 298.87 819.8 299.54 817.83 300.36 815.75 301.3 813.81 301.9 812.56 302.82 810.66 305.28 806.79 306.25 804.88 306.97 802.09 307.7 800.08 308.43 798.1 309.23 795.88 310.56 792.32 313.75 784.35 314.74 779.03 314.8 778.72 314.94 778.01 315.09 776.96 315.22 776.01 315.55 773.92 316.01 771.89 317 768.01 315.68 767.31 306.19 763.97 313.55 755.44 313.95 753.01 313.14 745.04 312.83 741.52 305.34 735.95 308.23 745.73 306.35 748.79 301.39 748.47 300.98 747.43 301.15 744.53 299.45 736.68 Z" opacity="1" fill="#e10000"/>
<path d="M 506.01 575.59 503.96 576.13 503.68 576.21 501.97 576.67 499.98 577.2 497.57 577.84 488.91 580.2 487.89 580.48 485.86 581.05 483.83 581.63 483.57 581.71 481.82 582.29 479.81 583.04 477.83 583.84 475.83 584.65 474.83 585.05 473.32 585.69 472.63 585.97 470.47 586.88 469.39 587.32 468.31 587.8 467.46 588.2 466.28 588.78 465.56 589.13 463.65 590.07 461.74 591.01 460.18 591.75 459.8 591.87 457.81 592.58 455.82 593.13 451.24 594.17 449.84 594.44 448.47 594.72 442.71 596.1 442.22 596.22 440.59 596.63 436.68 597.64 418.24 603.67 418.54 605.98 419.34 608.53 421.51 614.68 429 635.68 429.2 636.22 415.48 636.9 417.49 637.9 418.39 638.41 419.4 639.06 420.3 639.73 420.6 639.98 422.86 641.81 423.29 642.19 423.78 642.62 424.39 643.22 429.97 650.14 433.61 657.73 433.71 658.06 435.64 669.07 435.45 680.43 435.43 680.77 435.18 692.39 435.17 692.84 435.11 696.48 436.81 710.56 438.64 720.22 442.16 740.74 443.88 751.9 446.01 764.57 448.24 774.3 448.55 775.67 448.21 775.64 435.88 775.9 425.24 774.54 421.29 774.75 415.19 777.43 410.87 781.27 403.32 787.84 397.86 789.69 387.24 790.43 381.76 792.51 373.83 796.7 373.34 795.26 366.19 794.61 364.8 793.64 364.2 787.65 357.07 786.36 357.38 784.27 355.92 784.04 352.21 785.61 350.39 785.84 344.69 785.57 345.12 784.64 347.41 784.86 347.72 782.73 348.04 780.61 347.26 780.49 347.73 778.36 348.37 778.46 350.63 778.81 352.57 779.11 353.21 779.21 358.04 779.98 358.09 779.61 360.16 779.94 362.12 780.25 363.72 780.5 365.2 780.73 367.69 780.44 366.1 775.65 368.3 774.92 370.81 774.1 369.01 768.88 377.13 765.76 379.46 764.78 377.65 763.5 376.76 762.88 380.49 760.13 383.61 758.09 386.74 756.02 387.26 754.41 385.78 741.88 387.1 742.17 387.57 732.93 387.53 729.11 387.14 725.11 388.4 725.05 389.45 724.99 389.37 719.69 388.51 719.68 387.93 717.07 387.49 715.03 387.27 714.04 387.05 713 383.55 713.76 381.51 714.21 379.48 714.66 377.44 715.1 378.44 719.65 376.93 719.66 376.02 719.64 374.79 719.65 373.88 719.64 370.55 719.59 368.54 719.7 367.92 719.77 367.08 716.97 365.88 713.02 363.95 714.02 359.68 716.23 357.83 717.19 357.08 717.59 356 718.15 353.02 718.97 351.74 719.02 349.18 719.23 344.94 719.5 342.9 712.99 341.96 706.88 342.02 704.48 342.09 702.24 342.15 700.05 342.21 697.69 345.82 697.58 346 697.53 348.32 694.47 349.81 691.92 351.15 689.41 349.15 688.37 342.21 690.44 342.18 689.37 358.1 684.35 361.12 683.49 363.21 683.36 364.2 684.58 364.81 684.68 367.09 685.04 368.93 685.35 369.12 685.36 369.08 685.16 369.98 684.12 367.51 675.65 369.26 675.12 367.42 668.98 365.67 669.53 363.74 662.92 362.99 663.16 362.17 660.29 362.15 660.03 362 659.1 360.1 652.93 358.96 649.12 358.4 646.46 353.81 631.19 351.76 623.29 350.3 617.82 362.67 615.81 363.12 615.72 366.12 614.98 370.09 613.86 372.41 613.3 373.04 613.12 375.1 612.52 381.78 610.81 389.45 609.39 389.46 605.33 389.14 603.21 389.06 602.99 388.04 601.14 387.3 599.19 387.45 596.85 386.43 596.83 386.16 595.9 385.86 594.88 385.58 593.9 385.26 592.88 384.98 591.9 384.67 590.82 384.43 589.88 383.87 587.89 383.72 587.43 383.25 585.9 383.1 585.43 382.67 583.89 382.51 583.43 382.06 581.9 381.89 581.45 381.47 579.92 381.29 579.43 380.89 577.92 380.71 577.44 380.31 575.96 380.14 575.46 379.71 574.09 378.68 571.38 371.77 572.75 363.27 576.46 361.41 577.49 358.87 578.88 355.08 580.77 351.84 582.63 346.32 583.84 344.67 583.39 342.68 581.02 340.54 576.86 340.5 576.59 341.22 576.1 343.69 574.41 344.12 574.15 344.26 574.46 348.35 571.55 351.78 569.02 358.94 564.76 364.91 562.19 376.82 558.5 380.51 557.67 383.91 556.88 385.21 556.55 386.52 556.14 388.14 555.53 392.33 553.61 394.49 552.6 395.23 552.26 400.17 549.94 407.78 546.61 409.94 545.98 415.04 544.52 417.33 543.87 424.43 541.84 427.39 540.69 443.3 531.05 443.61 530.83 445.11 529.76 451.91 524.84 459.39 519.7 459 519.4 455.85 516.87 461.22 513.16 463.9 516.02 464.22 516.37 465.34 518.26 466.3 519.06 467.35 519.9 470.75 522.7 472.42 523.93 474.03 525.17 476.02 526.47 481.05 530.38 481.35 530.61 481.54 530.78 482.06 531.6 482.96 533.61 486.39 536.25 490.37 539.38 491.73 540.49 491.98 540.65 493.86 542.13 495.87 543.7 496.44 544.14 503.69 550.34 504.52 559.51 505.85 572.7 506.01 575.59 Z" opacity="1" fill="#0000f8"/>
<path d="M 91.82 691.11 99 688.45 99.42 688.32 107.47 685.9 108.98 691.24 113.27 694.38 113.57 699.72 120.06 700.41 126.37 699.67 127.3 695.01 129.1 694.48 131.29 694.46 134.89 694.97 135.53 697.98 137.29 699.02 139.27 699.67 141.88 700.17 140.4 707.08 140.23 707.96 148.44 710.09 149.7 707.9 151.23 705.27 151.94 704.3 153.52 703.55 154.33 703.16 161.17 699.89 161.53 700.2 161.59 700.26 162.47 701.14 162.64 701.28 162.85 701.51 164.19 702.85 165.48 704.12 166.81 705.42 168.12 706.69 168.63 707.25 167.86 708.36 170.22 708.79 175.45 709.87 175.27 710.75 174.85 712.79 174.43 714.83 174.01 716.87 173.59 718.91 172.26 725.34 172.58 726.7 175.97 725.8 177.42 725.39 177.78 725.29 179.03 724.92 180.71 724.39 181.49 724.28 184.94 723.71 185.45 723.65 185.47 726.46 185.46 728.18 185.44 729.85 185.43 731.6 185.42 733.32 185.41 734.98 185.42 736.04 185.39 736.68 185.38 738.43 185.37 740.13 185.35 741.86 185.36 742.29 185.59 743.53 185.77 745.29 185.55 746.98 185.34 748.66 185.12 750.39 184.9 752.08 184.67 753.79 184.45 755.46 184.23 757.19 184.01 758.88 183.77 760.66 184.4 761.25 184.27 762.39 183.99 764.05 183.29 765.68 183.03 766.27 182.58 767.31 182 768.66 181.89 768.86 181.79 768.95 180.03 768.88 179.96 770.55 179.9 772.21 179.86 773.88 180.01 775.37 180.39 777.23 180.33 778.96 179.84 780.57 179.35 782.15 178.86 783.75 178.38 785.59 177.95 787.38 177.53 789.15 177.1 790.88 179.2 791.75 180.32 792.22 182.43 793.04 182.67 793.2 184.61 794 185.42 794.3 187.68 795.41 186.46 799.75 186.16 800.66 186.62 800.54 185.66 802.21 182.14 810.84 181.03 812.58 179.7 814.39 178.67 816.22 177.99 816.8 178.73 817.34 177.99 818.3 177.21 820.39 176.51 822.35 180.07 823.64 179.35 825.6 178.66 827.56 178.18 828.83 180.2 828.11 180.91 827.65 181.45 830.78 180.77 832.75 180.06 834.71 179.35 836.67 178.65 838.62 177.94 840.58 177.23 842.54 176.54 844.52 175.83 846.44 175.12 848.41 174.41 850.37 173.7 852.33 172.99 854.29 172.29 856.25 171.47 858.52 167.93 857.27 164.35 856 160.49 854.65 157.34 853.54 155.85 853 154.62 852.51 151.69 851.28 150.71 854.01 148.91 859.16 148.97 859.18 144.92 864.15 143.61 866.09 143.22 866.45 142.23 867.83 139.65 870.59 138.77 873.89 137.61 875.45 137.61 875.39 137.58 874.41 136.17 872.67 135.72 870.21 138.46 868.46 138.54 867.97 136.89 867.34 135.59 866.34 134.92 866.49 134.58 866.43 133.73 866.11 133.14 865.83 132.38 865.63 132 865.63 130.31 865.31 129.43 864.99 129.54 864.45 127.73 863.59 124.86 862.17 126.32 864.98 125.52 866.97 123.21 868.87 117.59 869.13 116.22 873.12 119.2 874.2 125.34 876.42 124.62 878.41 124.02 880.09 123.49 881.58 122.86 883.16 118.97 883.15 116.97 882.43 115.33 881.82 113.37 881.12 111.5 880.46 105.76 878.15 105.52 876.31 105.68 874.09 105.85 871.91 106.46 869.59 106.15 865.06 102.37 862.83 102.33 857.46 95.61 858.54 95.48 856.4 95.15 854.42 94.97 853.89 94.52 852.54 94.41 851.1 94.42 850.59 94.51 848.44 94.41 846.14 94.6 844.18 94.79 841.99 95 839.95 95.13 837.84 95.38 835.82 96.02 827.67 96.25 826.85 96.94 824.82 97.39 823.44 97.92 821.8 98.31 820.6 98.51 819.81 99.1 817.88 99.52 815.77 99.91 813.72 100.25 809.17 100.09 807.06 99.92 804.97 99.72 801.87 99.82 800.15 99.86 799.09 99.9 797.95 99.64 791.05 99.6 790.52 99.47 788.9 98.98 782.68 98.83 777.74 98.21 758.7 97.68 744.86 97.58 742.94 97.55 740.86 97.53 740.29 97.5 739.71 97.22 731.66 96.99 716.74 94.43 703.59 93.85 700.72 93.4 698.58 93.28 697.99 91.82 691.11 Z" opacity="1" fill="#88ff6e"/>
<path d="M 73.93 1072.61 74.43 1072.66 74.73 1072.69 103.25 1075.55 121.25 1078.39 146.34 1079.96 158.04 1080.69 167.49 1080.57 175.37 1080.47 183.38 1080.37 191.22 1079.43 192.97 1077.54 195.92 1075.62 195.93 1072.84 195.95 1050.8 191.12 1048.18 175.24 1039.57 174.52 1038.31 176.07 1034.53 176.16 1029.84 178.59 1025.53 178.15 1022.37 177.64 1020.76 174.72 1018.65 152.35 1010.09 150.63 1008.08 155.98 1004.8 157.62 1003.59 159.4 993.94 162.26 991.68 166.29 989.03 172.65 983.85 176.47 984.13 185.65 982.19 186.98 982.64 202.48 973.96 204.61 972.44 209.49 967.93 212.38 965 215.04 964.41 214.48 963.23 219.81 954.3 221.74 949.84 222.39 948.68 224.06 946.95 226.69 940.5 228.84 937.47 230.85 938.58 234.29 940.68 236.83 941.88 240.69 943.62 242.7 944.22 244.57 945.15 246.47 945.92 248.44 946.67 250.47 947.52 252.7 947.27 253.48 945.34 253.99 944.03 254.09 943.87 252.69 943.44 253.17 942.86 253.13 942.66 253.07 942.53 253.13 942.23 253.26 941.92 253.37 941.63 253.69 939.81 253.71 939.68 253.86 938.66 254.04 937.64 254.47 935.61 255.33 931.56 256.21 928.46 257.46 928.35 259.69 928.22 260.43 928.24 262.61 928.4 265.7 928.56 266.7 928.62 268.58 928.74 271.45 928.92 278.21 929.07 279.34 929.37 281.03 929.85 285 930.92 289.47 932.04 291.95 932.64 293.56 930.24 296.13 926.68 295.19 925.12 295.16 924.99 295.12 924.93 296.15 922.85 296.38 922.9 296.97 923.11 297.95 923.6 297.78 923.92 298.24 925.4 298.76 927.54 299.23 929.59 299.19 930.9 299.15 931.68 303.06 931.38 305.14 931.22 313.1 930.61 312.96 928.53 312.71 926.47 312.65 924.36 314.63 924.92 315.96 926.7 318.44 930.22 319.5 931.72 320.92 933.25 321.84 933.71 325.04 934.74 327.2 935.33 329.22 935.89 332.82 936.79 334.59 937.2 341.73 937.38 344.04 937.23 347.23 937 349.65 936.54 351.92 935.94 352.19 935.87 352.31 936.54 352.35 936.89 352.13 939.72 351.96 940.4 351.86 941.76 352.22 943.38 352.42 944.51 354.48 950.68 353.45 954.98 353.31 955.23 353.57 960.85 352.61 962.15 352.8 963.76 359.8 976.74 366.78 987.03 379.52 991.83 387.39 992.7 405.7 991.37 414.42 981.01 420.68 975.95 424.1 978.66 425.89 975.81 423.28 973.87 424.53 972.81 431.92 970.65 438.61 968.19 444.02 980.39 453.69 978.45 453.89 975.33 455.74 974.48 457.98 974.04 460.65 964.66 472.12 957.31 477.75 960.53 478.07 960.71 480.78 962.41 484.47 963.46 485.2 964.03 489.14 957.98 491.12 950.4 499.56 943.76 508.92 938.99 536.56 949.49 551.16 954.87 558.55 954.23 563.65 954.35 572.26 962.39 578.35 964.19 579.35 962.8 591.64 957.08 602.7 940.64 603.18 936.7 602.71 935.54 605.15 928.15 605.47 928.02 607.11 926.58 605.29 923.05 608.56 923.45 610.13 916.71 610.97 918.93 609.81 923.66 612.64 921.15 614.15 915.17 617.16 912.72 619.68 914.1 625.49 910.86 635.48 908.98 640.54 905.52 640.81 903.71 642.25 903.31 651.81 910.39 652.9 908.44 653.34 901.91 657.73 902.15 656.39 910.43 661.89 909.58 667.15 909.31 672.59 906.15 689.28 891.28 700.49 910.33 728.23 909.25 728.14 894.99 732.44 895.5 739.03 885.26 741.49 886.22 743.2 887.52 749.53 887.07 750.09 887.07 757.36 888.19 763.76 893.07 765.86 892.59 763.3 881.27 766.5 892.9 767.32 893.45 781.18 896.82 781.96 896.77 781.45 895.05 784.96 895.47 782.38 887.4 783.79 885.53 794.22 883.61 794.74 892.08 795.82 928.67 796.11 933.79 796.95 955.01 797.72 965.89 797.79 977.26 798.16 989.14 798.3 995.14 798.28 995.57 798.2 997.08 798.17 997.59 798.42 1002.56 798.26 1003.01 798.3 1003.15 798.2 1003.18 798.28 1007.14 798.49 1013.73 798.53 1015.87 798.55 1016.73 798.83 1020.16 798.65 1020.22 737.82 1039.06 677.7 1053.39 658.02 1058.07 637.48 1063.57 629.61 1065.68 596.57 1072.43 587.8 1074.23 557.95 1082.96 509.69 1097.06 453.44 1118 461.2 1099.74 451.17 1096.91 442.16 1094.38 434.15 1095.02 430.24 1095.34 409.15 1095.19 394.27 1091.62 366.77 1088.98 327.28 1097.58 305.44 1102.33 297.36 1104.08 284.16 1104.19 284 1104.2 257.51 1103.79 247.84 1103.64 237.58 1103.48 224.15 1103.27 211.87 1103.07 210.79 1103.06 204.15 1102.95 190.88 1102.74 183.02 1102.62 175.24 1102.5 167.39 1102.37 157.97 1102.22 148.7 1102.07 146.39 1101.81 119.48 1098.76 91.53 1095.59 76.78 1094.24 67.72 1093.41 61.81 1092.87 33.85 1100.2 33.58 1095.68 39.39 1089.37 50.05 1078.61 57.63 1074.34 60.15 1074.5 60.48 1074.52 74.37 1074.1 73.93 1072.61 Z" opacity="1" fill="#00c3ff"/>
<path d="M 448.21 775.64 448.55 775.67 448.24 774.3 446.01 764.57 448.63 763.99 451.49 762.57 455.43 760.69 456.7 760.08 458.55 759.19 460.61 758.2 462.01 757.51 462.58 757.23 464.2 756.43 464.75 756.16 466.42 755.36 468.55 754.54 471.04 753.97 477.84 752.31 480.14 751.5 482.57 750.52 487.67 750.32 489.51 749.57 493.96 747.65 495.85 746.93 496.7 746.62 499.49 745.24 502.05 742.94 506.36 740.44 507.68 739.65 508.86 738.91 513.6 735.56 518.77 729.94 521.46 729.56 524.04 729.43 526.61 729.24 526.94 729.21 529.84 729.07 532.75 728.96 533.35 728.97 533.88 736.54 533.98 740.63 533.53 742.15 533.19 743.05 533.16 743.27 533.22 743.45 533.32 743.57 533.43 743.65 533.97 743.92 534.86 744.3 535.39 743.39 537.45 744.46 535.44 747.74 536.05 747.84 539.23 748.21 543.66 748.85 543.66 750.31 543.63 751.32 543.69 754.36 543.72 758.41 543.72 759.98 543.74 763.49 543.74 769.06 543.75 770.3 543.76 771.15 543.78 773.14 541.18 773.4 537.38 773.61 531.56 774.08 530.18 774.09 527.72 774.14 523.13 774.32 518.23 774.82 514.15 775.42 510.39 775.97 508.73 776.23 508.41 776.26 505.93 776.29 503.39 776.24 501.31 776.18 500.47 778.08 500.02 781.66 500.67 783.54 500.46 790.62 500.56 793.8 501.8 793.73 501.95 796.23 502.08 798.72 502.22 801.21 502.37 803.71 502.44 806.33 502.37 808.39 502.24 812.57 502.04 818.82 501.79 822.77 499.32 821.52 497.1 820.12 494.23 818.29 493.33 818.28 491.85 818.28 491.18 818.28 488.84 818.28 489.31 819.74 489.88 821.56 490.13 822.34 490.46 823.35 490.78 824.32 491.4 826.31 491.46 826.49 492.08 828.46 492.15 828.69 493.16 831.9 493.79 833.87 494.43 835.86 494.69 836.66 494.81 837.03 495.08 837.87 495.83 840.26 496.71 843.05 497.44 845.35 498.88 849.79 499.98 853.18 500.54 854.94 500.86 855.97 501.18 857.08 501.38 857.76 501.54 858.3 501.96 859.6 502.09 860 502.94 862.56 503.1 863 505.39 870.3 506.63 874.13 508.35 879.47 513.33 876.18 513.51 876.06 515.21 875.03 517.46 873.62 519.47 872.36 521.27 871.2 523.13 870.03 524.97 868.83 525.53 868.46 526.81 867.65 527.28 867.34 530.33 865.45 531.61 873.57 531.62 873.87 532.33 876.08 533.23 876.57 534.35 877.74 534.84 877.88 534.93 883.85 541.03 898.54 540.91 902.29 541.4 903.61 542.88 904.41 545.94 903.18 546.43 907.59 545.41 908.4 549.79 916.48 554.26 922.92 559.34 930.81 558.55 954.23 551.16 954.87 536.56 949.49 508.92 938.99 499.56 943.76 491.12 950.4 489.14 957.98 485.2 964.03 484.47 963.46 480.78 962.41 478.07 960.71 477.75 960.53 472.12 957.31 460.65 964.66 457.98 974.04 455.74 974.48 453.89 975.33 453.69 978.45 444.02 980.39 438.61 968.19 431.92 970.65 431.42 969.56 430.86 966.31 429.84 959.3 428.75 951.88 427.73 944.88 426.71 937.87 425.68 930.87 424.59 923.45 423.57 916.44 423.09 913.18 422.58 913.25 420.95 913.51 418.78 913.85 418.23 910.22 418.16 909.67 417.73 906.79 417.29 903.75 414.55 904.16 407.29 905.06 407.81 908.03 404.72 908.55 402.02 909.03 399.39 909.5 396.68 909.98 389.3 911.29 388.85 908.39 388.61 906.72 388.03 902.82 386.95 895.58 384.3 896.61 384.17 895.8 384.05 895.61 383.93 895.58 383.74 895.54 383.51 895.45 383.11 895.17 382.98 894.89 382.93 894.67 382.94 894.28 382.98 894.05 383.12 893.57 383.33 893.1 383.42 892.84 383.53 892.48 383.61 892.16 383.63 891.97 383.7 891.72 383.93 891.43 384.23 891.28 382.26 886.97 382.28 884.09 382.21 881.2 382.19 880.76 384.17 880.79 384.53 879.5 383.91 870.19 383.55 865.4 384.43 857.81 384.83 849.47 385.92 838.78 386.91 831.91 388.88 833.43 390.14 829.46 395.56 830.09 402.78 829.72 403.04 829.69 405.15 829.71 407.21 829.42 410.93 828.59 413.07 828.76 415.17 828.74 417.57 828.27 417.66 830.35 417.94 832.61 418.01 833.21 419.33 833.07 419.33 832.39 424.65 830.35 426.92 829.15 427.32 830.66 426.42 834.17 427.94 835.24 430.85 834.9 433.33 834.67 435.77 834.05 437.09 833.74 438 834.75 438.74 835.56 439.76 836.66 440.78 837.8 442.9 839.89 443.9 840.7 445.21 841.76 445.33 841.85 446.95 843.16 448.49 844.41 450.19 846.18 450.88 847.11 451.47 847.91 452.16 848.85 454.43 852.01 461.49 853.07 463.46 853.29 462.1 842.29 457.52 827.91 456.27 822.45 454.87 810.8 454.78 808.59 453.84 800.45 449.6 785.09 448.67 777.91 448.33 776.36 448.21 775.64 Z" opacity="1" fill="#ffb800"/>
<path d="M 431.92 970.65 424.53 972.81 423.28 973.87 425.89 975.81 424.1 978.66 420.68 975.95 414.42 981.01 405.7 991.37 387.39 992.7 379.52 991.83 366.78 987.03 359.8 976.74 352.8 963.76 352.61 962.15 353.57 960.85 353.31 955.23 353.45 954.98 354.48 950.68 352.42 944.51 352.22 943.38 351.86 941.76 351.96 940.4 352.13 939.72 352.35 936.89 352.31 936.54 352.19 935.87 351.92 935.94 349.65 936.54 347.23 937 344.04 937.23 341.73 937.38 334.59 937.2 332.82 936.79 329.22 935.89 327.2 935.33 325.04 934.74 321.84 933.71 320.92 933.25 319.5 931.72 318.44 930.22 315.96 926.7 314.63 924.92 312.65 924.36 312.71 926.47 312.96 928.53 313.1 930.61 305.14 931.22 303.06 931.38 299.15 931.68 299.19 930.9 299.23 929.59 298.76 927.54 298.24 925.4 297.78 923.92 297.95 923.6 296.97 923.11 296.38 922.9 296.15 922.85 295.12 924.93 294.93 924.63 293.76 922.77 293.67 922.63 292.53 920.79 290.81 917.85 290.33 916.85 289.56 915.17 289.04 914.21 288.28 912.3 287.59 910.83 286.47 908.5 286.14 907.82 287.7 908 293.55 907.9 296.42 908.07 299.33 907.99 300.52 907.96 302.68 908.5 302.82 907.87 303.65 905.88 305.21 902.16 307.7 896.2 308.51 894.28 308.93 893.27 310.17 890.12 310.78 888.45 318.14 890.37 321.1 888.65 323.02 887.51 325.21 886.11 327.41 884.66 327.68 884.48 330.05 882.91 331.22 882.13 335.1 879.62 336.16 878.94 338.36 877.52 341.64 875.4 344.56 869.85 346.3 868.47 347.92 868.57 348.23 862.8 348.99 862.64 350.23 862.39 348.02 854.8 346.33 854.2 346.67 853.61 346.85 852.1 347.95 850.68 348.45 844.95 340.72 843.95 338.82 843.98 336.71 843.65 337.34 838.84 339.38 838.58 339.78 835.05 340.69 834.8 341.94 834.24 342.35 831.8 343.42 826.01 341.81 825.86 336.29 824.93 330.8 823.94 330.71 825.03 330.44 827.2 329.97 829.46 329.31 832.08 328.48 835.39 319.17 832.18 323.05 818.21 324.6 815.76 320.38 812.96 320.63 812 318.54 811.34 322.09 806.71 324.47 804.92 326.31 803.12 326.9 802.61 328.08 801.3 328.42 800.59 328.82 799.3 329.18 798.3 329.58 797.31 330.19 796.09 331.49 794 332.56 791.82 333.37 789.54 334.2 787.27 334.81 785.7 335.19 784.85 335.53 784.12 340.38 783.89 341.82 784.12 344.69 785.57 350.39 785.84 352.21 785.61 355.92 784.04 357.38 784.27 357.07 786.36 364.2 787.65 364.8 793.64 366.19 794.61 373.34 795.26 373.83 796.7 381.76 792.51 387.24 790.43 397.86 789.69 403.32 787.84 410.87 781.27 415.19 777.43 421.29 774.75 425.24 774.54 435.88 775.9 448.21 775.64 448.33 776.36 448.67 777.91 449.6 785.09 453.84 800.45 454.78 808.59 454.87 810.8 456.27 822.45 457.52 827.91 462.1 842.29 463.46 853.29 461.49 853.07 454.43 852.01 452.16 848.85 451.47 847.91 450.88 847.11 450.19 846.18 448.49 844.41 446.95 843.16 445.33 841.85 445.21 841.76 443.9 840.7 442.9 839.89 440.78 837.8 439.76 836.66 438.74 835.56 438 834.75 437.09 833.74 435.77 834.05 433.33 834.67 430.85 834.9 427.94 835.24 426.42 834.17 427.32 830.66 426.92 829.15 424.65 830.35 419.33 832.39 419.33 833.07 418.01 833.21 417.94 832.61 417.66 830.35 417.57 828.27 415.17 828.74 413.07 828.76 410.93 828.59 407.21 829.42 405.15 829.71 403.04 829.69 402.78 829.72 395.56 830.09 390.14 829.46 388.88 833.43 386.91 831.91 385.92 838.78 384.83 849.47 384.43 857.81 383.55 865.4 383.91 870.19 384.53 879.5 384.17 880.79 382.19 880.76 382.21 881.2 382.28 884.09 382.26 886.97 384.23 891.28 383.93 891.43 383.7 891.72 383.63 891.97 383.61 892.16 383.53 892.48 383.42 892.84 383.33 893.1 383.12 893.57 382.98 894.05 382.94 894.28 382.93 894.67 382.98 894.89 383.11 895.17 383.51 895.45 383.74 895.54 383.93 895.58 384.05 895.61 384.17 895.8 384.3 896.61 386.95 895.58 388.03 902.82 388.61 906.72 388.85 908.39 389.3 911.29 396.68 909.98 399.39 909.5 402.02 909.03 404.72 908.55 407.81 908.03 407.29 905.06 414.55 904.16 417.29 903.75 417.73 906.79 418.16 909.67 418.23 910.22 418.78 913.85 420.95 913.51 422.58 913.25 423.09 913.18 423.57 916.44 424.59 923.45 425.68 930.87 426.71 937.87 427.73 944.88 428.75 951.88 429.84 959.3 430.86 966.31 431.42 969.56 431.92 970.65 Z" opacity="1" fill="#005eff"/>
<path d="M 73.93 1072.61 73.42 1069.7 72.63 1069.32 71.49 1065.13 71.52 1061.92 71.52 1061.44 71.52 1060.41 71.61 1058.26 71.62 1057.4 71.89 1045 69.11 1039.92 66.54 1037.97 65.2 1036.22 60.41 1030.93 59.99 1029.83 60.42 1029.42 60.73 1028.87 60.55 1028.65 60.75 1028.53 60.39 1027.81 59.32 1025.62 57.52 1021.95 55.84 1018.52 55.09 1016.99 51.74 1017.09 51.16 1016.42 48.79 1016.39 46.7 1017.05 36.68 1020.94 33.73 1021.3 33.24 1021.02 24.06 1018.9 21.49 1018.47 13.53 1011.39 13.48 1011.34 11.46 1009.5 9.38 1007.6 5.97 1007.42 5.88 1006.57 4.22 990.72 3.95 987.79 1.67 982.7 1 980.28 1.53 977.91 3.43 974.33 4.25 972.22 49.09 947.75 53.66 945.97 57.91 939.46 58.45 938.89 59.94 937.35 62.1 937.21 64.09 937.94 64.79 938.72 64.63 939.74 62.76 942.4 61.73 944.42 61.62 944.63 61.5 944.96 61.4 945.36 61.46 946.46 62.42 947.04 63.71 947.08 65.06 946.79 65.73 946.62 67.26 946.24 67.68 946.14 68.8 944.43 66.91 939.98 64 933.75 62.26 931.05 64.24 929.89 63.68 924.75 64.16 910.51 69.34 906.75 75.01 903.77 80.43 901.57 85.46 900.73 87.27 900.48 88.13 900.3 90.55 899.54 91.16 899.3 91.72 899.06 92.89 898.44 93.56 898.2 93.96 898.03 97.43 896.42 97.78 896.29 97.91 896.18 98.25 895.85 98.61 895.65 98.8 895.53 102.51 891.79 102.38 890.5 99.24 875.24 98.7 873.17 97.85 871.25 96.92 869.35 96.03 867.31 94.72 863.19 95.5 860.85 95.61 858.54 102.33 857.46 102.37 862.83 106.15 865.06 106.46 869.59 105.85 871.91 105.68 874.09 105.52 876.31 105.76 878.15 111.5 880.46 113.37 881.12 115.33 881.82 116.97 882.43 118.97 883.15 122.86 883.16 123.49 881.58 124.02 880.09 124.62 878.41 125.34 876.42 119.2 874.2 116.22 873.12 117.59 869.13 123.21 868.87 125.52 866.97 126.32 864.98 124.86 862.17 127.73 863.59 129.54 864.45 129.43 864.99 130.31 865.31 132 865.63 132.38 865.63 133.14 865.83 133.73 866.11 134.58 866.43 134.92 866.49 135.59 866.34 136.89 867.34 138.54 867.97 138.46 868.46 135.72 870.21 136.17 872.67 137.58 874.41 137.61 875.39 137.61 875.45 138.77 873.89 139.65 870.59 142.23 867.83 143.22 866.45 143.61 866.09 144.92 864.15 147.57 864.93 152.55 866.85 159.5 869.51 161.54 870.15 164.66 871.25 172.15 873.94 173.57 874.38 183.18 876.52 182.99 877.08 182.77 877.75 182.63 878.2 183.23 879.41 185.11 880.21 186.92 880.95 187.23 884.63 184.79 890.4 184.14 892.35 183.57 894.37 182.77 896.45 182.4 897.38 182.08 897.99 181.23 898.92 181.72 899.32 182.02 899.46 183.35 900.75 184.44 901.84 184.67 902.02 185.3 902.56 186.62 904.05 188.14 905.74 190.16 904.74 190.53 904.58 192.09 904.02 193.4 903.55 194.04 903.32 196.51 906.7 200.33 905.48 201.46 904.67 202.04 903.84 202.89 903.17 200.63 899.37 201.88 898.19 203.55 899.45 205.15 901.36 207.08 902.96 211.82 906.94 211.25 907.57 210.45 908.49 209.81 909.2 208.79 910.38 208.45 910.78 206.56 913.03 206.37 913.29 204.63 915.55 203.31 917.31 202.49 918.4 207.12 921.05 207.71 921.36 207.6 922.88 207.96 928.74 208.15 930.94 208.45 933.33 208.68 935.45 208.92 938.52 214.15 938.23 217.98 938.23 217.2 939.32 214.68 940.25 214.25 941.89 220.99 949.23 221.74 949.84 219.81 954.3 214.48 963.23 215.04 964.41 212.38 965 209.49 967.93 204.61 972.44 202.48 973.96 186.98 982.64 185.65 982.19 176.47 984.13 172.65 983.85 166.29 989.03 162.26 991.68 159.4 993.94 157.62 1003.59 155.98 1004.8 150.63 1008.08 152.35 1010.09 174.72 1018.65 177.64 1020.76 178.15 1022.37 178.59 1025.53 176.16 1029.84 176.07 1034.53 174.52 1038.31 175.24 1039.57 191.12 1048.18 195.95 1050.8 195.93 1072.84 195.92 1075.62 192.97 1077.54 191.22 1079.43 183.38 1080.37 175.37 1080.47 167.49 1080.57 158.04 1080.69 146.34 1079.96 121.25 1078.39 103.25 1075.55 74.73 1072.69 74.43 1072.66 73.93 1072.61 Z" opacity="1" fill="#ff5700"/>
<path d="M 299.45 736.68 298.31 737.29 296.48 738.27 293.78 739.73 290.19 741.57 285.05 743.56 282.14 744.65 280.99 745.17 279.96 745.73 278.03 746.84 276.23 747.95 276.06 748.04 274.43 748.99 273.5 749.56 272.69 750.14 271.83 750.91 270.04 749.53 268.39 748.27 265.47 752.07 262.84 755.93 261.12 754.76 259.36 753.63 257.54 752.6 255.01 751.17 255.84 748.23 253.74 748.25 252.56 750.17 252.09 746.39 251.94 739.09 252.33 737.05 252.72 735 253.11 732.96 253.59 730.74 252.27 730.41 248.86 729.5 248.91 732.15 248.93 734.27 249.03 736.42 249.22 738.57 249.38 740.44 248.14 741.28 246.07 743.39 244.18 745.44 242.62 747.48 240.2 750.63 237.99 753.46 237.13 755.36 236.59 757.68 236.46 758.47 236.2 760.17 235.63 763.84 235.25 766.21 234.47 771.26 234.34 772.01 234.16 773.65 234.03 776.2 233.78 781.28 233.59 785.3 233.26 792.06 233.26 796.58 234.93 799.89 234.44 800.42 220.56 800.3 211.17 798.67 206.26 798.78 192.3 799.22 186.46 799.75 187.68 795.41 185.42 794.3 184.61 794 182.67 793.2 182.43 793.04 180.32 792.22 179.2 791.75 177.1 790.88 177.53 789.15 177.95 787.38 178.38 785.59 178.86 783.75 179.35 782.15 179.84 780.57 180.33 778.96 180.39 777.23 180.01 775.37 179.86 773.88 179.9 772.21 179.96 770.55 180.03 768.88 181.79 768.95 181.89 768.86 182 768.66 182.58 767.31 183.03 766.27 183.29 765.68 183.99 764.05 184.27 762.39 184.4 761.25 183.77 760.66 184.01 758.88 184.23 757.19 184.45 755.46 184.67 753.79 184.9 752.08 185.12 750.39 185.34 748.66 185.55 746.98 185.77 745.29 185.59 743.53 185.36 742.29 185.35 741.86 185.37 740.13 185.38 738.43 185.39 736.68 185.42 736.04 185.41 734.98 185.42 733.32 185.43 731.6 185.44 729.85 185.46 728.18 185.47 726.46 185.45 723.65 184.94 723.71 181.49 724.28 180.71 724.39 179.03 724.92 177.78 725.29 177.42 725.39 175.97 725.8 172.58 726.7 172.26 725.34 173.59 718.91 174.01 716.87 174.43 714.83 174.85 712.79 175.27 710.75 175.45 709.87 176.86 708.95 177.26 706.93 180.06 697.39 181.22 692.37 184.4 694.38 184.9 689.78 185.14 688.52 185.41 687.05 185.54 686.46 185.93 684.42 186.21 682.92 186.32 682.37 186.61 680.86 186.67 680.36 187.1 678.2 187.18 677.8 187.35 676.89 187.74 674.84 187.98 673.55 188.14 672.78 188.2 672.43 191.83 672.47 194.09 672.46 196.26 672.48 198.34 672.58 200.54 672.62 201.7 670.71 202.82 670.58 204.48 666.15 205.05 666.15 205.09 665.07 206.08 662.69 207.41 660.3 207.43 659.66 207.46 658.72 205.94 658.96 205.34 654.89 207.22 654.31 217.02 651.06 226.09 648.4 226.08 648.12 225.57 645.63 227.47 645.3 229.51 644.84 231.56 644.4 233.71 643.98 235.87 643.5 237.9 643.04 238.42 642.94 243.84 641.79 249.32 640.56 251.84 640 256.89 638.83 271.43 635.98 270.09 634.16 272.62 633.34 273.01 635.49 274.2 636.38 276.21 635.88 278.24 635.39 280.26 634.9 282.29 634.41 284.49 633.86 285.84 633.53 286.56 633.37 288.6 632.88 290.66 632.38 292.72 631.88 294.79 631.39 296.33 631.01 299.26 630.27 301.43 629.78 302.92 629.45 305.85 628.78 307.38 628.36 311.76 627.21 313.39 626.82 317.88 625.74 318.82 625.51 319.9 625.25 320.83 625.03 321.93 624.76 322.85 624.54 323.95 624.27 324.96 624.03 325.97 623.78 327.06 623.52 328.04 623.28 329.9 622.83 331.1 622.54 331.75 622.38 333.15 622.05 333.58 621.94 335.18 621.57 335.44 621.52 337.21 621.13 338.53 620.8 338.99 620.68 336.93 612.98 335.96 608.54 339.37 599.84 337.9 600.29 338.57 597.84 338.42 595.71 337.89 593.68 336.61 591.84 337.53 591.62 336.43 589.68 335.01 586.19 334.19 584.24 334.87 582.69 334.08 581.03 337.33 578.87 339.2 577.63 340.5 576.59 340.54 576.86 342.68 581.02 344.67 583.39 346.32 583.84 351.84 582.63 355.08 580.77 358.87 578.88 361.41 577.49 363.27 576.46 371.77 572.75 378.68 571.38 379.71 574.09 380.14 575.46 380.31 575.96 380.71 577.44 380.89 577.92 381.29 579.43 381.47 579.92 381.89 581.45 382.06 581.9 382.51 583.43 382.67 583.89 383.1 585.43 383.25 585.9 383.72 587.43 383.87 587.89 384.43 589.88 384.67 590.82 384.98 591.9 385.26 592.88 385.58 593.9 385.86 594.88 386.16 595.9 386.43 596.83 387.45 596.85 387.3 599.19 388.04 601.14 389.06 602.99 389.14 603.21 389.46 605.33 389.45 609.39 381.78 610.81 375.1 612.52 373.04 613.12 372.41 613.3 370.09 613.86 366.12 614.98 363.12 615.72 362.67 615.81 350.3 617.82 351.76 623.29 353.81 631.19 358.4 646.46 358.96 649.12 360.1 652.93 362 659.1 362.15 660.03 362.17 660.29 362.99 663.16 363.74 662.92 365.67 669.53 367.42 668.98 369.26 675.12 367.51 675.65 369.98 684.12 369.08 685.16 369.12 685.36 368.93 685.35 367.09 685.04 364.81 684.68 364.2 684.58 363.21 683.36 361.12 683.49 358.1 684.35 342.18 689.37 337.02 690.93 335 691.62 332.77 692.21 330.78 692.8 328.7 693.4 323.28 695.5 323.64 696.59 321.81 695.65 321.29 695.39 318.97 696.8 315.92 698.48 309.47 702.34 304.64 705.68 304.6 706.04 302.24 706.59 292.5 709.27 290.42 709.79 290.49 710.02 291.01 711.26 291.93 713.38 292.83 715.32 292.9 715.43 295.16 719.45 295.95 720.84 299.58 726.79 301.15 729.77 304.13 733.63 302.95 734.73 300.41 736.16 299.45 736.68 Z" opacity="1" fill="#38ffbf"/>
<path d="M 155.08 589.79 157.2 592.52 158.39 594.21 160.02 596.55 160.4 597.1 161.61 599.06 162.51 601.1 162.73 601.54 163.93 604.26 165.1 606.57 165.51 607.06 169.32 612.01 169.78 612.47 173.45 617.83 176.78 615.22 176.95 615.44 177.6 614.64 178.41 613.99 180.05 612.66 181.73 611.39 182.74 610.6 185.51 608.45 187.78 606.66 189.16 605.58 192.71 602.8 195.96 600.26 196.1 600.5 196.23 600.73 196.35 600.8 196.51 600.73 199.21 598.61 200.25 597.8 200.43 597.71 200.35 597.25 200.27 597 201.31 596.37 202.64 595.71 203.09 595.51 204.78 594.92 204.99 594.86 214.3 593.4 217.55 592.93 220.53 592.48 222.05 592.23 231.47 590.69 233.54 590.34 235.59 590.01 237.59 589.69 239.7 589.34 241.76 589.05 243.83 588.8 244.46 588.72 248.1 588.27 248.15 588.57 248.62 588.47 256 587.24 261.49 585.91 263.52 585.37 265.6 584.92 266.83 584.7 267.67 584.54 268.52 589.08 268.7 591.19 269.61 593.32 271.61 592.71 273.64 592.15 275.62 591.48 277.87 591.21 279.87 590.62 282.84 589.64 289.56 587.5 289.62 587.29 291.91 586.26 292.24 586.93 293.06 586.53 292.76 585.87 293.21 585.69 293.56 586.5 294.19 586.19 294.07 585.47 295.19 585.36 295.89 585.21 298.02 585.33 299.55 585.18 298.19 573.19 297.11 560.09 295.4 546.77 294.14 536.68 293.56 533.11 291.51 517.3 290.06 506.17 289.79 504.47 289.33 501.82 298.56 503.16 299.12 505.5 314.35 505.47 323.01 506.22 330.3 511.52 331.32 516.26 329.89 529.39 331.05 551.99 332.69 560.58 334.63 566.34 334.71 566.59 336.95 572.4 340.5 576.59 339.2 577.63 337.33 578.87 334.08 581.03 334.87 582.69 334.19 584.24 335.01 586.19 336.43 589.68 337.53 591.62 336.61 591.84 337.89 593.68 338.42 595.71 338.57 597.84 337.9 600.29 339.37 599.84 335.96 608.54 336.93 612.98 338.99 620.68 338.53 620.8 337.21 621.13 335.44 621.52 335.18 621.57 333.58 621.94 333.15 622.05 331.75 622.38 331.1 622.54 329.9 622.83 328.04 623.28 327.06 623.52 325.97 623.78 324.96 624.03 323.95 624.27 322.85 624.54 321.93 624.76 320.83 625.03 319.9 625.25 318.82 625.51 317.88 625.74 313.39 626.82 311.76 627.21 307.38 628.36 305.85 628.78 302.92 629.45 301.43 629.78 299.26 630.27 296.33 631.01 294.79 631.39 292.72 631.88 290.66 632.38 288.6 632.88 286.56 633.37 285.84 633.53 284.49 633.86 282.29 634.41 280.26 634.9 278.24 635.39 276.21 635.88 274.2 636.38 273.01 635.49 272.62 633.34 270.09 634.16 271.43 635.98 256.89 638.83 251.84 640 249.32 640.56 243.84 641.79 238.42 642.94 237.9 643.04 235.87 643.5 233.71 643.98 231.56 644.4 229.51 644.84 227.47 645.3 225.57 645.63 226.08 648.12 226.09 648.4 217.02 651.06 207.22 654.31 205.34 654.89 205.94 658.96 207.46 658.72 207.43 659.66 207.41 660.3 206.08 662.69 205.09 665.07 205.05 666.15 204.48 666.15 202.82 670.58 201.7 670.71 200.54 672.62 198.34 672.58 196.26 672.48 194.09 672.46 191.83 672.47 188.2 672.43 188.14 672.78 187.98 673.55 187.74 674.84 187.35 676.89 187.18 677.8 187.1 678.2 186.67 680.36 186.61 680.86 186.32 682.37 186.21 682.92 185.93 684.42 185.54 686.46 185.41 687.05 185.14 688.52 184.9 689.78 184.4 694.38 181.22 692.37 180.06 697.39 177.26 706.93 176.86 708.95 175.45 709.87 170.22 708.79 167.86 708.36 168.63 707.25 168.12 706.69 166.81 705.42 165.48 704.12 164.19 702.85 162.85 701.51 162.64 701.28 162.47 701.14 161.59 700.26 161.53 700.2 161.17 699.89 154.33 703.16 153.52 703.55 151.94 704.3 151.23 705.27 149.7 707.9 148.44 710.09 140.23 707.96 140.4 707.08 141.88 700.17 139.27 699.67 137.29 699.02 135.53 697.98 134.89 694.97 131.29 694.46 129.1 694.48 127.3 695.01 126.37 699.67 120.06 700.41 113.57 699.72 113.27 694.38 108.98 691.24 107.47 685.9 99.42 688.32 99 688.45 91.82 691.11 90.69 687.12 89.14 682.05 91.04 680.71 91.66 680.38 92.7 679.86 93.9 679.29 94.1 679.2 98.04 677.18 102.06 675.51 102.45 675.35 103.4 674.99 105.04 674.44 110.19 672.55 110.83 672.32 116.9 670.17 122.49 668.64 130.48 667.29 134.9 666.51 136.57 666.04 140.77 664.85 140.86 664.65 141.22 664 142.55 661.32 143.64 659.09 143.98 658.43 145.54 655.29 146.82 652.74 147.1 652.21 148.26 649.82 149.76 646.73 150.44 645.41 151.25 643.76 152.79 640.68 153.93 638.43 154.24 637.8 155.57 635.11 157.03 632.14 157.82 630.53 158.1 630.14 158.14 624.55 157.6 618.02 157.15 612.47 156.63 606.82 156.1 600.8 155.58 595.07 155.08 589.79 Z" opacity="1" fill="#dcff1b"/>
<path d="M 220.53 592.48 217.55 592.93 214.3 593.4 204.99 594.86 204.78 594.92 203.09 595.51 202.64 595.71 201.31 596.37 200.27 597 200.35 597.25 200.43 597.71 200.25 597.8 199.21 598.61 196.51 600.73 196.35 600.8 196.23 600.73 196.1 600.5 195.96 600.26 192.71 602.8 189.16 605.58 187.78 606.66 185.51 608.45 182.74 610.6 181.73 611.39 180.05 612.66 178.41 613.99 177.6 614.64 176.95 615.44 176.78 615.22 173.45 617.83 169.78 612.47 169.32 612.01 165.51 607.06 165.1 606.57 163.93 604.26 162.73 601.54 162.51 601.1 161.61 599.06 160.4 597.1 160.02 596.55 158.39 594.21 157.2 592.52 155.08 589.79 153.82 588.6 152.53 587.49 150.83 586.19 146.66 582.9 140.75 578.54 130.05 569.39 128.02 567.92 127.26 567.29 120.45 561.76 111.4 554.56 110.13 553.5 109.73 553.18 108.84 552.47 103.71 548.31 98.93 544.57 96.6 542.67 94.09 540.56 91.84 538.77 90.55 537.68 88.26 535.85 86.49 534.4 84.65 532.96 82.3 531.08 80.28 529.47 78.63 528.16 73.43 523.98 71.56 522.41 67.91 519.51 67.76 518.69 66.13 518.11 62.76 515.38 56.58 510.56 50.59 505.5 43.97 500.28 42.41 499.05 37.87 492.77 35.27 486.19 34.76 477.64 34.66 475.94 33.54 457.26 34.23 453.07 35.16 447.43 22.53 439.27 10.8 425.02 9.33 420.27 7.11 413.11 9.04 410.87 33.56 382.47 32.66 364.58 28.32 353.56 26.1 343.2 33.22 333.12 35.77 329.51 41.42 337.15 49.66 344.77 59.53 345.83 68.33 360 70.47 360.36 84.23 362.68 90.3 373.57 96.87 372.46 106.75 377.34 118.87 398.04 122.21 412.77 127.17 413.27 130.74 413.64 132.62 413.83 134.69 410.87 144.08 397.41 144.49 389.26 144.5 389.14 146.25 387.85 147.25 387.01 145.81 381.28 145.89 369.48 148.7 360.51 154.37 361.16 154.94 364.06 155.3 366.19 155.77 368.6 156.26 371.08 163.2 369.56 171.78 367.68 172.38 370.38 173.04 373.2 173.51 375.23 173.95 377.12 174.15 379.21 172.08 379.92 171.91 379.98 169.75 380.74 167.14 381.68 165.54 383.19 164.4 384.62 163.35 384.9 165.28 390.37 166.19 389.9 166.28 390.19 166.48 391.37 183.79 383.13 187.77 392.82 187.75 393.19 187.72 393.82 187.53 394.2 187.31 394.56 187.02 394.95 186.86 395.17 186.53 395.6 186.48 395.65 184.71 397.19 173.6 403.27 170.52 407.82 181.95 405.77 183.95 412.6 182.69 414.77 184.33 414.46 185.24 418.41 184.53 418.76 187.4 429.58 184.54 430.44 176.67 431.97 174.01 432.49 170.56 432.7 169.01 433.18 169.4 434.77 170.32 440.79 168.26 447.6 171.19 446.99 172.74 446.69 181.09 445.07 183.8 444.46 183.22 440.53 187.01 439.54 190.89 439.45 192.48 441.63 221.1 434.79 224.02 437.51 230.35 436.84 230.69 436.91 229.7 442.62 229.09 447.9 229.83 453.99 243.32 449.84 243.74 449.66 245.19 448.79 245.64 448.89 248.23 448.8 251.86 446.03 252.37 446.19 254.99 447.56 256.41 450.06 257.54 453.18 258.02 454.85 262.34 462.39 263.94 464.87 265.76 469.69 266.6 472.73 264.49 473.02 260.75 473.36 259.58 472.5 260.23 477.16 260.59 479.8 260.62 480.02 261.2 484.02 260.49 486.04 261.69 493.49 260.07 494.3 256.08 495.62 255.69 495.62 256.81 501.92 256.98 503.09 257.05 503.83 257.03 505.16 257.05 506.51 257.05 506.99 258.68 509.52 258.74 510.63 258.84 512.65 252.7 514.04 251.33 511.88 248.87 509.31 247.58 510.02 245.24 510.78 242.95 511.88 239.62 514.34 237.38 517 235.33 519.8 235.74 525.03 233.14 527.22 234.31 536.24 238.41 541.04 234.65 543.36 230.43 544.24 226.58 544.86 226.23 550.54 227.62 555.2 231.37 559.84 232.24 560.82 234.32 563.13 231.86 564.56 230.32 565.4 228.63 566.32 226.34 566.59 221.4 567.63 220.09 571.22 220.46 574.55 220.93 579.62 219.71 581.17 220.44 591.78 220.53 592.48 Z" opacity="1" fill="#002eff"/>
<path d="M 339.22 146.19 339.3 147.48 340.71 154.25 340.93 154.62 341.01 155.69 341.15 157.75 342.41 170.1 343.38 174.67 347.25 187.14 350.65 201.32 352.98 207.37 355.4 212.03 355.58 212.65 355.67 214.55 355.71 215.49 355.26 217.34 354.43 217.93 356.92 219.36 359.62 220.95 376.74 230.44 390.67 238.38 394.79 240.73 402.33 244.47 405.26 252.27 405.39 259.56 409.64 271.71 405.25 272.13 401.47 272.35 390.61 273.17 384.38 273.77 378.95 273.94 375.67 274.94 373.4 275.29 370.9 275.06 368.68 274.87 369.27 276.85 365.37 277.32 362.02 277.21 360.81 277.34 358.72 278.42 354.72 278.23 354.88 279.96 355.59 282 352.77 282.32 346.15 283 345.63 283.06 343.84 284.1 344 285.23 341.91 287.41 341.69 287.63 338.64 290.61 336.04 292.31 329.62 299.01 326.63 300.84 315.99 304.14 306.06 305.23 306.81 309.12 306.34 311.54 306.26 314.97 307.7 318.44 308.01 318.84 308.98 320.81 309.32 322.06 310.15 324.94 311.06 327.15 311.85 328.73 312.94 331.03 313.55 332.25 314.91 334.3 315.52 335.07 317.27 338.86 318.43 341.83 319.81 345.28 317.3 346.16 316.61 346.39 314.31 347.21 312.39 347.84 312.05 348 309.22 348.93 306.79 349.58 305.52 349.9 304.78 350.08 302.75 350.58 302.34 350.64 300 351.25 299.17 351.47 299.06 351.5 296.46 352.25 297.38 355.43 294.99 356.13 295.42 357.36 295.99 360.06 298.06 359.73 303.17 358.88 304.15 363.06 304.05 365.49 299.64 367.59 302.5 373.5 303.97 378.38 307.23 378.63 308.01 374.52 312.1 374.2 315.82 371.9 320.85 371.63 321.47 375.63 321.96 377.8 322.39 380.04 323.02 383.51 326.4 383.95 328.24 383.75 327.73 390.12 329.76 390.05 330.31 390.03 330.49 388.76 337.28 387.38 337.97 389.36 337.97 392.57 333.68 393.9 330.87 394.87 329.11 395.35 327.68 399.87 326.32 398.34 326.49 397.61 326.56 397.36 326.8 396.45 326.32 396.46 325.77 396.44 325.35 396.25 323.97 396.32 323.41 397.67 324.86 398.22 324.64 399.12 323.08 398.47 322.29 400.4 321.5 402.34 320.72 404.78 323.17 405.81 317.74 411.83 313.28 415.6 311.44 417.12 311.07 421.78 309.69 422.26 308.41 422.61 307.56 422.88 305.9 423.32 304.98 423.51 304.75 423.83 300.84 428.29 293.4 436.75 289.41 443.05 287.63 449.81 287.46 456.88 289.18 464.77 289.63 464.99 289.32 469.42 288.81 469.5 286.99 469.81 282.27 470.47 278.7 470.99 274.97 471.52 273.3 468.6 266.79 469.55 265.76 469.69 263.94 464.87 262.34 462.39 258.02 454.85 257.54 453.18 256.41 450.06 254.99 447.56 252.37 446.19 251.86 446.03 248.23 448.8 245.64 448.89 245.19 448.79 243.74 449.66 243.32 449.84 229.83 453.99 229.09 447.9 229.7 442.62 230.69 436.91 230.35 436.84 224.02 437.51 221.1 434.79 192.48 441.63 190.89 439.45 187.01 439.54 183.22 440.53 183.8 444.46 181.09 445.07 172.74 446.69 171.19 446.99 168.26 447.6 170.32 440.79 169.4 434.77 169.01 433.18 170.56 432.7 174.01 432.49 176.67 431.97 184.54 430.44 187.4 429.58 184.53 418.76 185.24 418.41 184.33 414.46 182.69 414.77 183.95 412.6 181.95 405.77 170.52 407.82 173.6 403.27 184.71 397.19 186.48 395.65 186.53 395.6 186.86 395.17 187.02 394.95 187.31 394.56 187.53 394.2 187.72 393.82 187.75 393.19 187.77 392.82 183.79 383.13 166.48 391.37 166.28 390.19 166.19 389.9 165.28 390.37 163.35 384.9 164.4 384.62 165.54 383.19 167.14 381.68 169.75 380.74 171.91 379.98 172.08 379.92 174.15 379.21 173.95 377.12 173.51 375.23 173.04 373.2 172.38 370.38 171.78 367.68 163.2 369.56 156.26 371.08 155.77 368.6 155.3 366.19 154.94 364.06 154.37 361.16 148.7 360.51 145.89 369.48 145.81 381.28 147.25 387.01 146.25 387.85 144.5 389.14 144.52 388.77 145.11 377.22 147.23 355.93 141.31 349.75 137.33 345.59 127.42 330.89 108.11 337.53 104.98 338.6 95.36 344.06 93.76 344.97 92.4 345.74 89.09 337.01 89.01 335.64 87.93 317.38 72.56 300.92 71.01 295.65 86.74 285.74 96.29 273.47 91.22 259.25 87 247.4 89.52 244.06 107.6 247.11 112.79 242.92 126.12 233.02 214.05 272.47 215.45 284.21 217.48 287.59 223.4 297.46 232.99 313.46 249.08 340.28 263.28 357.65 267.32 357.68 276.54 357.73 276.51 357.66 271.02 346.25 268.01 339.98 267.67 339.28 265.5 334.76 263.37 305.87 264.35 302.32 266.97 292.74 273.46 285.76 274.61 284.53 274.55 284.42 274.36 284.12 269.65 276.24 267.44 272.55 263.53 254.57 259.37 251.36 259.37 251.29 262.65 207.95 277.34 191.41 278.59 190.01 293.11 164.13 295.93 152.1 295.97 151.92 309.85 147.07 311.26 133.44 325.5 143.37 339.22 146.19 Z" opacity="1" fill="#ff2700"/>
<path d="M 533.35 728.97 536.34 728.74 538.42 728.63 540.5 728.51 542.58 728.35 544.66 728.19 547.61 727.99 552.71 726.88 555.54 725.63 556.5 725.19 560.55 723.85 566.14 733.5 572.85 743.3 574.85 750.83 578.43 751.46 585.85 751.53 597.88 749.75 606.64 746.97 612.08 745.57 638.69 742.87 643.55 742.52 644.11 742.47 657.69 738.34 657.74 738.96 658.23 742.08 658.94 747.52 659.14 748.49 659.61 751.33 660.02 753.76 660.24 755.78 660.57 757.9 660.91 760.49 661.05 761.09 661.29 761.31 661.65 761.88 660.83 762.12 660.93 762.76 661.24 762.93 661.64 765.42 662.87 773.14 657.39 773.6 655.85 773.68 649.83 774.04 643.11 774.46 635.12 774.84 633.85 774.6 633.45 774.48 632.93 777.64 631.92 786.61 631.92 798.89 632.64 806.12 636.13 821.94 636.85 824.65 636.43 823.84 636.17 823.48 635.91 823.28 635.7 823.27 635.43 823.37 633.98 824.19 633.77 824.31 633.58 824.42 633.43 824.47 633.31 824.52 633.2 824.68 633.18 824.83 633.27 825.02 633.82 825.3 632.31 825.2 632.31 825.69 632.8 831.2 637.26 840.59 637.79 842.66 639.77 842.27 640.31 842.15 643.7 841.47 648.19 840.88 651.48 840.48 657.15 839.82 657.1 836.5 656.97 830.13 656.95 829.56 656.91 828.03 656.86 825.97 656.79 822.82 656.78 822.31 656.72 819.74 663.2 819.22 663.38 821.71 663.41 822.19 663.02 828.02 664.19 831.05 662.63 841.07 665.66 845 663.35 847.46 663.24 847.47 663.13 847.49 663.07 848.95 662.78 851.86 659.93 856.82 658.14 862.79 656.08 865.13 654.48 867.71 652.75 872.61 652.07 878.94 652.09 881.58 653.59 882.56 654.83 884.16 655.02 885.18 653.65 887.71 654.64 888.3 654.78 889.41 654.25 892.95 655.47 897.39 653.34 901.91 652.9 908.44 651.81 910.39 642.25 903.31 640.81 903.71 640.54 905.52 635.48 908.98 625.49 910.86 619.68 914.1 617.16 912.72 614.15 915.17 612.64 921.15 609.81 923.66 610.97 918.93 610.13 916.71 608.56 923.45 605.29 923.05 607.11 926.58 605.47 928.02 605.15 928.15 602.71 935.54 603.18 936.7 602.7 940.64 591.64 957.08 579.35 962.8 578.35 964.19 572.26 962.39 563.65 954.35 558.55 954.23 559.34 930.81 554.26 922.92 549.79 916.48 545.41 908.4 546.43 907.59 545.94 903.18 542.88 904.41 541.4 903.61 540.91 902.29 541.03 898.54 534.93 883.85 534.84 877.88 534.35 877.74 533.23 876.57 532.33 876.08 531.62 873.87 531.61 873.57 530.33 865.45 527.28 867.34 526.81 867.65 525.53 868.46 524.97 868.83 523.13 870.03 521.27 871.2 519.47 872.36 517.46 873.62 515.21 875.03 513.51 876.06 513.33 876.18 508.35 879.47 506.63 874.13 505.39 870.3 503.1 863 502.94 862.56 502.09 860 501.96 859.6 501.54 858.3 501.38 857.76 501.18 857.08 500.86 855.97 500.54 854.94 499.98 853.18 498.88 849.79 497.44 845.35 496.71 843.05 495.83 840.26 495.08 837.87 494.81 837.03 494.69 836.66 494.43 835.86 493.79 833.87 493.16 831.9 492.15 828.69 492.08 828.46 491.46 826.49 491.4 826.31 490.78 824.32 490.46 823.35 490.13 822.34 489.88 821.56 489.31 819.74 488.84 818.28 491.18 818.28 491.85 818.28 493.33 818.28 494.23 818.29 497.1 820.12 499.32 821.52 501.79 822.77 502.04 818.82 502.24 812.57 502.37 808.39 502.44 806.33 502.37 803.71 502.22 801.21 502.08 798.72 501.95 796.23 501.8 793.73 500.56 793.8 500.46 790.62 500.67 783.54 500.02 781.66 500.47 778.08 501.31 776.18 503.39 776.24 505.93 776.29 508.41 776.26 508.73 776.23 510.39 775.97 514.15 775.42 518.23 774.82 523.13 774.32 527.72 774.14 530.18 774.09 531.56 774.08 537.38 773.61 541.18 773.4 543.78 773.14 543.76 771.15 543.75 770.3 543.74 769.06 543.74 763.49 543.72 759.98 543.72 758.41 543.69 754.36 543.63 751.32 543.66 750.31 543.66 748.85 539.23 748.21 536.05 747.84 535.44 747.74 537.45 744.46 535.39 743.39 534.86 744.3 533.97 743.92 533.43 743.65 533.32 743.57 533.22 743.45 533.16 743.27 533.19 743.05 533.53 742.15 533.98 740.63 533.88 736.54 533.35 728.97 Z" opacity="1" fill="#62ff95"/>
<path d="M 627.85 616.74 629.05 619 630.37 623.2 631.37 626.86 631.56 627.52 632.25 629.98 631.21 628.57 631.22 632.17 630.83 634.38 630.64 636.62 630.47 638.88 629.9 643.03 629.76 644.01 629.4 646.07 629.27 646.75 629.21 647.08 628.85 648.56 628.74 649.72 628.68 650.2 619.12 649.81 619.05 648.85 607.24 648.36 607.27 649.56 605.71 649.9 605.96 652.87 605.84 653.85 605.68 654.95 604.85 658.09 604.38 664.65 603.81 669.27 601.58 669.12 587.5 668.2 586.29 668.18 583.88 668.31 582.35 668.5 579.39 669.03 578.94 669.12 577.88 669.34 573.89 670.18 569.61 671.05 566.72 671.37 562.45 671.67 556.09 672.08 550.98 672.41 541.04 673.03 536.9 673.32 535.11 673.45 533.4 673.56 533.12 673.58 533.3 673.99 537.88 682.23 545 693.28 545.26 693.72 546.71 696.24 546.82 696.42 548.47 699.35 549.99 702.15 551.42 704.85 553.7 709.35 555.45 713.01 556.07 714.31 558.75 720.21 560.19 723.16 560.55 723.85 556.5 725.19 555.54 725.63 552.71 726.88 547.61 727.99 544.66 728.19 542.58 728.35 540.5 728.51 538.42 728.63 536.34 728.74 533.35 728.97 532.75 728.96 529.84 729.07 526.94 729.21 526.61 729.24 524.04 729.43 521.46 729.56 518.77 729.94 513.6 735.56 508.86 738.91 507.68 739.65 506.36 740.44 502.05 742.94 499.49 745.24 496.7 746.62 495.85 746.93 493.96 747.65 489.51 749.57 487.67 750.32 482.57 750.52 480.14 751.5 477.84 752.31 471.04 753.97 468.55 754.54 466.42 755.36 464.75 756.16 464.2 756.43 462.58 757.23 462.01 757.51 460.61 758.2 458.55 759.19 456.7 760.08 455.43 760.69 451.49 762.57 448.63 763.99 446.01 764.57 443.88 751.9 442.16 740.74 438.64 720.22 436.81 710.56 435.11 696.48 435.17 692.84 435.18 692.39 435.43 680.77 435.45 680.43 435.64 669.07 433.71 658.06 433.61 657.73 429.97 650.14 424.39 643.22 423.78 642.62 423.29 642.19 422.86 641.81 420.6 639.98 420.3 639.73 419.4 639.06 418.39 638.41 417.49 637.9 415.48 636.9 429.2 636.22 429 635.68 421.51 614.68 419.34 608.53 418.54 605.98 418.24 603.67 436.68 597.64 440.59 596.63 442.22 596.22 442.71 596.1 448.47 594.72 449.84 594.44 451.24 594.17 455.82 593.13 457.81 592.58 459.8 591.87 460.18 591.75 461.74 591.01 463.65 590.07 465.56 589.13 466.28 588.78 467.46 588.2 468.31 587.8 469.39 587.32 470.47 586.88 472.63 585.97 473.32 585.69 474.83 585.05 475.83 584.65 477.83 583.84 479.81 583.04 481.82 582.29 483.57 581.71 483.83 581.63 485.86 581.05 487.89 580.48 488.91 580.2 497.57 577.84 499.98 577.2 501.97 576.67 503.68 576.21 503.96 576.13 506.01 575.59 506.56 577.27 507.92 588.51 508.56 592.68 509.23 601 510.02 606.05 510.57 613.97 510.6 615.24 512.3 615.26 515.13 615.28 515.42 615.27 520.83 615.19 528.19 615.47 536.18 615.71 538.67 615.91 539.05 615.93 539.42 615.93 545.99 615.97 556.4 615.92 564.3 616.16 568.2 616.16 572.15 616.13 577.23 616.38 584.19 616.67 591.12 616.31 597.91 616.59 598.23 616.59 605.14 616.37 606.73 615.42 608.73 616.52 611.66 616.31 612.82 616.23 622.63 616.27 626.54 616.62 627.85 616.74 Z" opacity="1" fill="#ff8400"/>
<path d="M 286.14 907.82 286.47 908.5 287.59 910.83 288.28 912.3 289.04 914.21 289.56 915.17 290.33 916.85 290.81 917.85 292.53 920.79 293.67 922.63 293.76 922.77 294.93 924.63 295.12 924.93 295.16 924.99 295.19 925.12 296.13 926.68 293.56 930.24 291.95 932.64 289.47 932.04 285 930.92 281.03 929.85 279.34 929.37 278.21 929.07 271.45 928.92 268.58 928.74 266.7 928.62 265.7 928.56 262.61 928.4 260.43 928.24 259.69 928.22 257.46 928.35 256.21 928.46 255.33 931.56 254.47 935.61 254.04 937.64 253.86 938.66 253.71 939.68 253.69 939.81 253.37 941.63 253.26 941.92 253.13 942.23 253.07 942.53 253.13 942.66 253.17 942.86 252.69 943.44 254.09 943.87 253.99 944.03 253.48 945.34 252.7 947.27 250.47 947.52 248.44 946.67 246.47 945.92 244.57 945.15 242.7 944.22 240.69 943.62 236.83 941.88 234.29 940.68 230.85 938.58 228.84 937.47 226.69 940.5 224.06 946.95 222.39 948.68 221.74 949.84 220.99 949.23 214.25 941.89 214.68 940.25 217.2 939.32 217.98 938.23 214.15 938.23 208.92 938.52 208.68 935.45 208.45 933.33 208.15 930.94 207.96 928.74 207.6 922.88 207.71 921.36 207.12 921.05 202.49 918.4 203.31 917.31 204.63 915.55 206.37 913.29 206.56 913.03 208.45 910.78 208.79 910.38 209.81 909.2 210.45 908.49 211.25 907.57 211.82 906.94 207.08 902.96 205.15 901.36 203.55 899.45 201.88 898.19 200.63 899.37 202.89 903.17 202.04 903.84 201.46 904.67 200.33 905.48 196.51 906.7 194.04 903.32 193.4 903.55 192.09 904.02 190.53 904.58 190.16 904.74 188.14 905.74 186.62 904.05 185.3 902.56 184.67 902.02 184.44 901.84 183.35 900.75 182.02 899.46 181.72 899.32 181.23 898.92 182.08 897.99 182.4 897.38 182.77 896.45 183.57 894.37 184.14 892.35 184.79 890.4 187.23 884.63 186.92 880.95 185.11 880.21 183.23 879.41 182.63 878.2 182.77 877.75 182.99 877.08 183.18 876.52 173.57 874.38 172.15 873.94 164.66 871.25 161.54 870.15 159.5 869.51 152.55 866.85 147.57 864.93 144.92 864.15 148.97 859.18 148.91 859.16 150.71 854.01 151.69 851.28 154.62 852.51 155.85 853 157.34 853.54 160.49 854.65 164.35 856 167.93 857.27 171.47 858.52 172.29 856.25 172.99 854.29 173.7 852.33 174.41 850.37 175.12 848.41 175.83 846.44 176.54 844.52 177.23 842.54 177.94 840.58 178.65 838.62 179.35 836.67 180.06 834.71 180.77 832.75 181.45 830.78 180.91 827.65 180.2 828.11 178.18 828.83 178.66 827.56 179.35 825.6 180.07 823.64 176.51 822.35 177.21 820.39 177.99 818.3 178.73 817.34 177.99 816.8 178.67 816.22 179.7 814.39 181.03 812.58 182.14 810.84 185.66 802.21 186.62 800.54 186.16 800.66 186.46 799.75 192.3 799.22 206.26 798.78 211.17 798.67 220.56 800.3 234.44 800.42 234.93 799.89 233.26 796.58 233.26 792.06 233.59 785.3 233.78 781.28 234.03 776.2 234.16 773.65 234.34 772.01 234.47 771.26 235.25 766.21 235.63 763.84 236.2 760.17 236.46 758.47 236.59 757.68 237.13 755.36 237.99 753.46 240.2 750.63 242.62 747.48 244.18 745.44 246.07 743.39 248.14 741.28 249.38 740.44 249.22 738.57 249.03 736.42 248.93 734.27 248.91 732.15 248.86 729.5 252.27 730.41 253.59 730.74 253.11 732.96 252.72 735 252.33 737.05 251.94 739.09 252.09 746.39 252.56 750.17 253.74 748.25 255.84 748.23 255.01 751.17 257.54 752.6 259.36 753.63 261.12 754.76 262.84 755.93 265.47 752.07 268.39 748.27 270.04 749.53 271.83 750.91 272.69 750.14 273.5 749.56 274.43 748.99 276.06 748.04 276.23 747.95 278.03 746.84 279.96 745.73 280.99 745.17 282.14 744.65 285.05 743.56 290.19 741.57 293.78 739.73 296.48 738.27 298.31 737.29 299.45 736.68 301.15 744.53 300.98 747.43 301.39 748.47 306.35 748.79 308.23 745.73 305.34 735.95 312.83 741.52 313.14 745.04 313.95 753.01 313.55 755.44 306.19 763.97 315.68 767.31 317 768.01 316.01 771.89 315.55 773.92 315.22 776.01 315.09 776.96 314.94 778.01 314.8 778.72 314.74 779.03 313.75 784.35 310.56 792.32 309.23 795.88 308.43 798.1 307.7 800.08 306.97 802.09 306.25 804.88 305.28 806.79 302.82 810.66 301.9 812.56 301.3 813.81 300.36 815.75 299.54 817.83 298.87 819.8 297.07 824.8 295.5 827.13 294.1 828.71 292.8 830.32 291.78 832.05 290.79 833.82 290.07 835.13 288.28 835.55 287.39 835.08 285.1 835.23 283.07 833.6 272.28 824.81 275.51 831.76 268.44 840.25 266.39 844.96 266.91 845.17 265.73 847.37 266.05 849.49 265.3 851.53 264.71 853.53 262.54 856.87 259.71 859.51 258.18 861.15 255.27 862.73 256.17 864.42 257.68 867.28 257.98 867.88 259.45 872.66 259.88 876.85 260.16 879.27 258.37 879.26 258.31 879.85 257.84 882.23 260.95 882.93 261.27 883.9 261 886.16 261.42 888.18 262.18 891.12 262.44 892.12 261.3 896.18 259.6 900.82 261.06 903.13 263.21 906.51 264.15 907.98 269.22 907.19 269.63 905.69 270.61 906.74 275.04 907.58 278.98 908.64 283.24 907.27 286.14 907.82 Z" opacity="1" fill="#11fae6"/>
<path d="M 627.85 616.74 628.07 616.73 628.4 616.78 634.53 616.09 636.77 623.33 636.56 623.54 637.79 627.2 638.03 630.94 638.48 632.98 638.93 635.03 639.2 637.29 639.85 640.74 640.2 642.86 640.89 647.22 641.41 649.43 663.2 650.23 663.37 648.78 663.55 647.1 663.6 646.72 667.61 646.84 667.69 644.76 663.83 644.64 664 643.06 664.05 642.69 664.24 637.51 664.2 636.71 664.02 634.7 663.74 630.22 665.82 630.57 665.37 625.42 667.53 625.25 667.64 626.64 667.95 631 670.19 631.26 672.4 631.76 677.17 632.91 680.27 635.88 680.36 634.23 680.87 615.48 680.73 611.16 681.31 610.93 683.51 613.33 684.89 617.73 687.66 623.95 689.02 628.9 693.2 631.08 702.49 638.09 703.53 640.52 709.38 640.67 711.31 641.35 710.68 640.33 714.43 638.96 716.11 637.29 713.3 634.52 715.49 629.14 717.97 627.49 718.07 629 723.65 626.74 729.46 626.52 751.3 625.15 757.68 625.51 761.06 629.67 762.02 631.74 763.27 632.24 765.07 634.61 766.33 636.56 767.96 638.92 769.46 640.95 770.36 646.43 771.42 653.38 771.75 655.63 772.02 657.45 772.35 659.66 772.87 663.11 773.46 666.99 773.89 669.93 773.94 670.34 774.55 674.36 774.63 674.89 776.16 685.1 776.68 688.65 776.84 689.6 777.13 691.55 777.55 694.15 778.06 697.79 778.15 698.38 778.53 700.99 778.98 703.87 779.45 707.06 780.07 711.14 780.57 714.67 780.94 717.12 782.24 725.89 775.3 727.61 762.77 729.73 755.46 730.14 752.75 730.14 752.78 730.88 753.22 732.4 737.17 730.56 735.01 729.25 735.07 728.51 723.57 728.07 710.71 728.24 702.48 728.35 695.73 728.44 693.13 728.49 689.64 728.8 680.52 731.33 673.9 734.13 671.59 734.95 669.47 735.58 668.29 735.96 664.78 736.83 662.65 737.28 661.78 737.42 657.69 738.34 644.11 742.47 643.55 742.52 638.69 742.87 612.08 745.57 606.64 746.97 597.88 749.75 585.85 751.53 578.43 751.46 574.85 750.83 572.85 743.3 566.14 733.5 560.55 723.85 560.19 723.16 558.75 720.21 556.07 714.31 555.45 713.01 553.7 709.35 551.42 704.85 549.99 702.15 548.47 699.35 546.82 696.42 546.71 696.24 545.26 693.72 545 693.28 537.88 682.23 533.3 673.99 533.12 673.58 533.4 673.56 535.11 673.45 536.9 673.32 541.04 673.03 550.98 672.41 556.09 672.08 562.45 671.67 566.72 671.37 569.61 671.05 573.89 670.18 577.88 669.34 578.94 669.12 579.39 669.03 582.35 668.5 583.88 668.31 586.29 668.18 587.5 668.2 601.58 669.12 603.81 669.27 604.38 664.65 604.85 658.09 605.68 654.95 605.84 653.85 605.96 652.87 605.71 649.9 607.27 649.56 607.24 648.36 619.05 648.85 619.12 649.81 628.68 650.2 628.74 649.72 628.85 648.56 629.21 647.08 629.27 646.75 629.4 646.07 629.76 644.01 629.9 643.03 630.47 638.88 630.64 636.62 630.83 634.38 631.22 632.17 631.21 628.57 632.25 629.98 631.56 627.52 631.37 626.86 630.37 623.2 629.05 619 627.85 616.74 Z" opacity="1" fill="#ffe400"/>
<path d="M 769.46 640.95 767.96 638.92 766.33 636.56 765.07 634.61 763.27 632.24 762.02 631.74 761.06 629.67 757.68 625.51 751.3 625.15 729.46 626.52 723.65 626.74 718.07 629 717.97 627.49 715.49 629.14 713.3 634.52 716.11 637.29 714.43 638.96 710.68 640.33 711.31 641.35 709.38 640.67 703.53 640.52 702.49 638.09 693.2 631.08 689.02 628.9 687.66 623.95 684.89 617.73 683.51 613.33 681.31 610.93 682.72 600.31 682.76 594.45 680.89 586.18 680.71 577.62 678.95 578.45 673.93 558.77 673.4 558.63 669.7 557.42 667.63 556.36 665.76 555.24 665.91 550.67 665.86 548.47 665.82 546.63 665.79 546.11 665.76 544.03 664.36 538.45 663.27 536.45 662.98 535.88 662.37 534.78 660.26 535.54 655.44 537.3 653.6 535.77 653.34 535.36 650.16 536.83 646 539.15 642.97 540.43 641.66 540.87 640.71 541.19 636.54 542.03 634.03 542.47 630.17 543.4 627.85 542.34 627.19 540.68 626.22 540.96 625.17 541.26 623.17 541.84 620.59 542.58 620.4 541.77 618.11 541.94 617.86 539.8 617.35 535.46 616.95 532.11 616.71 530.04 616.49 528.35 616.45 527.92 616.22 525.82 615.99 523.74 615.76 521.63 615.54 519.6 615.31 517.39 615.08 515.35 614.85 513.25 614.62 511.18 614.4 509.12 614.17 507.04 613.95 504.98 613.88 504.36 613.73 502.89 612.99 495.88 612.54 491.57 612.01 486.52 611.5 481.69 611.36 480.39 611.01 477.1 610.86 473.72 611.29 468.18 611.61 464.66 611.64 464.38 612.07 459.64 612.25 457.64 612.45 455.41 612.69 452.79 612.8 451.53 612.87 450.82 598.56 456.42 593.47 459.01 593.08 458.33 584.99 451.59 582.89 450.05 578.79 447.91 571.87 444.52 567.74 442.63 566.18 441.92 562.47 440.26 558.84 438.7 557.71 438.19 556.06 437.29 554.36 435.52 554.25 435.36 553.66 435.81 552.92 436.22 551 438.11 550.21 438.91 549.38 439.87 548.99 440.37 548.22 441.44 539.3 453.39 531.29 459.23 533 448.13 533.4 439.73 533.29 441.07 532.91 445.39 532.72 447.61 532.5 449.77 532.36 450.56 532 451.85 531.71 452.65 531.37 453.43 530.65 454.12 530.46 454.04 528.06 456.93 525.34 457.75 522.55 454.15 521.92 452.87 516.94 451.27 512.27 449.32 512.1 449.74 507.86 447.13 507.31 446.66 505.41 444.73 498.64 451.11 496.32 452.13 474.94 456 473.44 454.63 472.4 454.64 474.39 458.17 471.58 467.61 467.21 471.11 467.93 477.68 464.22 481.54 467.62 492.97 467.96 496.89 468.7 501.58 468.78 502.63 468.91 502.98 469.02 504 468.79 507.45 461.22 513.16 455.85 516.87 459 519.4 459.39 519.7 451.91 524.84 445.11 529.76 443.61 530.83 443.3 531.05 427.39 540.69 424.43 541.84 417.33 543.87 415.04 544.52 409.94 545.98 407.78 546.61 400.17 549.94 395.23 552.26 394.49 552.6 392.33 553.61 388.14 555.53 386.52 556.14 385.21 556.55 383.91 556.88 380.51 557.67 376.82 558.5 364.91 562.19 358.94 564.76 351.78 569.02 348.35 571.55 344.26 574.46 344.12 574.15 343.69 574.41 341.22 576.1 340.5 576.59 336.95 572.4 334.71 566.59 334.63 566.34 332.69 560.58 331.05 551.99 329.89 529.39 331.32 516.26 330.3 511.52 332 511.74 333.65 511.56 333.87 510.16 335.11 502.27 333.26 500.47 335.55 499.38 336.12 495.87 336.19 495.4 336.61 492.57 337.3 488.64 338.25 483.33 338.98 479.07 339.46 476.23 339.68 474.92 339.74 474.6 339.98 473.27 342.14 473.46 347.92 474.64 348.68 470.02 346.82 467.66 343.7 464.66 342.29 463.18 338.89 459.78 337.75 458.6 336.81 455.29 335.53 449.95 336.27 446.17 340.05 443.42 343.03 444.58 356.63 438.68 358.1 435.77 361.53 434.97 364.76 436.5 367.38 437.11 370.68 435.17 361.33 426.87 360.37 426.02 350.88 418.17 347.85 407.18 353.07 405.46 363.55 399.74 371.76 394.16 375.86 391.41 385.27 385.92 388.57 384.13 397.78 378.02 408.27 372.3 409.56 371.63 414.71 368.97 419.57 371 421.09 371.69 430.55 377.11 429.52 379.54 434.35 383.95 436.64 384.42 441.05 386.81 449.26 393.46 450.85 391.05 458.39 380.18 458.53 377.51 456.09 372.25 456.27 358.99 454.35 353.71 458.09 351.23 463.91 345.93 462.71 341.2 463.09 340.31 464.44 334.12 469.11 327.26 469.77 327.2 471.61 324.99 479.12 320.19 482.32 312.97 490.28 309.34 497.4 302.96 503.25 299.22 506.4 297.21 511.13 297.04 516.44 302.28 520.05 306.03 527.44 316.82 527.69 317.31 530.85 320.07 532.93 323 538.08 324.45 538.38 325.81 546.72 323.92 547.15 323.82 545.41 319.94 544.42 317.67 546.44 315.57 551.22 315.19 551.45 315.14 557.82 313.59 560.94 312.29 562.3 312.71 566.94 312.17 569.47 314.68 578.13 319.5 581.96 319.06 583.99 322.97 589.86 320.15 592.22 319.24 608.11 317.73 609.29 324.91 615.8 323.85 616.05 325.42 619.28 325.27 620.17 332.68 624.4 332.76 625.61 337.52 626.61 340.22 643.3 332.54 642.28 324.61 640.98 317.06 641.75 311.8 643.33 314.24 643.34 315.24 649.6 323.8 652.18 325.02 656.7 331.25 658.66 328.37 660.81 328.64 675.21 326.36 682.56 323.76 689.69 323.91 695.07 320.16 699.22 318.59 706.75 318.36 712.54 322.15 717.13 319.22 722.03 318.88 721.52 321.03 723.46 333.94 723.71 336.3 724.24 339.14 725.29 345.88 730.68 382.13 730.82 382.98 734.7 407.63 735.27 411.27 737.67 426.67 737.69 427.64 737.73 427.94 737.93 429.4 742.09 455.28 745.78 483.64 746.48 486.58 746.74 487.54 746.89 488.57 747.04 489.75 748.9 498.55 751.2 515.84 756.46 550.72 757.54 559.08 758.25 562.79 762.13 590.47 763.19 598.26 763.57 601 763.98 603.74 766.06 617.61 766.17 618.36 766.48 620.38 766.81 622.78 767.25 625.86 767.76 629.24 767.99 630.81 768.43 633.69 768.75 635.83 769.15 638.46 769.46 640.95 Z" opacity="1" fill="#001bff"/>
<path d="M 506.01 575.59 505.85 572.7 504.52 559.51 503.69 550.34 496.44 544.14 495.87 543.7 493.86 542.13 491.98 540.65 491.73 540.49 490.37 539.38 486.39 536.25 482.96 533.61 482.06 531.6 481.54 530.78 481.35 530.61 481.05 530.38 476.02 526.47 474.03 525.17 472.42 523.93 470.75 522.7 467.35 519.9 466.3 519.06 465.34 518.26 464.22 516.37 463.9 516.02 461.22 513.16 468.79 507.45 469.02 504 468.91 502.98 468.78 502.63 468.7 501.58 467.96 496.89 467.62 492.97 464.22 481.54 467.93 477.68 467.21 471.11 471.58 467.61 474.39 458.17 472.4 454.64 473.44 454.63 474.94 456 496.32 452.13 498.64 451.11 505.41 444.73 507.31 446.66 507.86 447.13 512.1 449.74 512.27 449.32 516.94 451.27 521.92 452.87 522.55 454.15 525.34 457.75 528.06 456.93 530.46 454.04 530.65 454.12 531.37 453.43 531.71 452.65 532 451.85 532.36 450.56 532.5 449.77 532.72 447.61 532.91 445.39 533.29 441.07 533.4 439.73 533 448.13 531.29 459.23 539.3 453.39 548.22 441.44 548.99 440.37 549.38 439.87 550.21 438.91 551 438.11 552.92 436.22 553.66 435.81 554.25 435.36 554.36 435.52 556.06 437.29 557.71 438.19 558.84 438.7 562.47 440.26 566.18 441.92 567.74 442.63 571.87 444.52 578.79 447.91 582.89 450.05 584.99 451.59 593.08 458.33 593.47 459.01 598.56 456.42 612.87 450.82 612.8 451.53 612.69 452.79 612.45 455.41 612.25 457.64 612.07 459.64 611.64 464.38 611.61 464.66 611.29 468.18 610.86 473.72 611.01 477.1 611.36 480.39 611.5 481.69 612.01 486.52 612.54 491.57 612.99 495.88 613.73 502.89 613.88 504.36 613.95 504.98 614.17 507.04 614.4 509.12 614.62 511.18 614.85 513.25 615.08 515.35 615.31 517.39 615.54 519.6 615.76 521.63 615.99 523.74 616.22 525.82 616.45 527.92 616.49 528.35 616.71 530.04 616.95 532.11 617.35 535.46 617.86 539.8 618.11 541.94 620.4 541.77 620.59 542.58 623.17 541.84 625.17 541.26 626.22 540.96 627.19 540.68 627.85 542.34 630.17 543.4 634.03 542.47 636.54 542.03 640.71 541.19 641.66 540.87 642.97 540.43 646 539.15 650.16 536.83 653.34 535.36 653.6 535.77 655.44 537.3 660.26 535.54 662.37 534.78 662.98 535.88 663.27 536.45 664.36 538.45 665.76 544.03 665.79 546.11 665.82 546.63 665.86 548.47 665.91 550.67 665.76 555.24 667.63 556.36 669.7 557.42 673.4 558.63 673.93 558.77 678.95 578.45 680.71 577.62 680.89 586.18 682.76 594.45 682.72 600.31 681.31 610.93 680.73 611.16 680.87 615.48 680.36 634.23 680.27 635.88 677.17 632.91 672.4 631.76 670.19 631.26 667.95 631 667.64 626.64 667.53 625.25 665.37 625.42 665.82 630.57 663.74 630.22 664.02 634.7 664.2 636.71 664.24 637.51 664.05 642.69 664 643.06 663.83 644.64 667.69 644.76 667.61 646.84 663.6 646.72 663.55 647.1 663.37 648.78 663.2 650.23 641.41 649.43 640.89 647.22 640.2 642.86 639.85 640.74 639.2 637.29 638.93 635.03 638.48 632.98 638.03 630.94 637.79 627.2 636.56 623.54 636.77 623.33 634.53 616.09 628.4 616.78 628.07 616.73 627.85 616.74 626.54 616.62 622.63 616.27 612.82 616.23 611.66 616.31 608.73 616.52 606.73 615.42 605.14 616.37 598.23 616.59 597.91 616.59 591.12 616.31 584.19 616.67 577.23 616.38 572.15 616.13 568.2 616.16 564.3 616.16 556.4 615.92 545.99 615.97 539.42 615.93 539.05 615.93 538.67 615.91 536.18 615.71 528.19 615.47 520.83 615.19 515.42 615.27 515.13 615.28 512.3 615.26 510.6 615.24 510.57 613.97 510.02 606.05 509.23 601 508.56 592.68 507.92 588.51 506.56 577.27 506.01 575.59 Z" opacity="1" fill="#b5ff41"/>
<path d="M 330.3 511.52 323.01 506.22 314.35 505.47 299.12 505.5 298.56 503.16 289.33 501.82 289.79 504.47 290.06 506.17 291.51 517.3 293.56 533.11 294.14 536.68 295.4 546.77 297.11 560.09 298.19 573.19 299.55 585.18 298.02 585.33 295.89 585.21 295.19 585.36 294.07 585.47 294.19 586.19 293.56 586.5 293.21 585.69 292.76 585.87 293.06 586.53 292.24 586.93 291.91 586.26 289.62 587.29 289.56 587.5 282.84 589.64 279.87 590.62 277.87 591.21 275.62 591.48 273.64 592.15 271.61 592.71 269.61 593.32 268.7 591.19 268.52 589.08 267.67 584.54 266.83 584.7 265.6 584.92 263.52 585.37 261.49 585.91 256 587.24 248.62 588.47 248.15 588.57 248.1 588.27 244.46 588.72 243.83 588.8 241.76 589.05 239.7 589.34 237.59 589.69 235.59 590.01 233.54 590.34 231.47 590.69 222.05 592.23 220.53 592.48 220.44 591.78 219.71 581.17 220.93 579.62 220.46 574.55 220.09 571.22 221.4 567.63 226.34 566.59 228.63 566.32 230.32 565.4 231.86 564.56 234.32 563.13 232.24 560.82 231.37 559.84 227.62 555.2 226.23 550.54 226.58 544.86 230.43 544.24 234.65 543.36 238.41 541.04 234.31 536.24 233.14 527.22 235.74 525.03 235.33 519.8 237.38 517 239.62 514.34 242.95 511.88 245.24 510.78 247.58 510.02 248.87 509.31 251.33 511.88 252.7 514.04 258.84 512.65 258.74 510.63 258.68 509.52 257.05 506.99 257.05 506.51 257.03 505.16 257.05 503.83 256.98 503.09 256.81 501.92 255.69 495.62 256.08 495.62 260.07 494.3 261.69 493.49 260.49 486.04 261.2 484.02 260.62 480.02 260.59 479.8 260.23 477.16 259.58 472.5 260.75 473.36 264.49 473.02 266.6 472.73 265.76 469.69 266.79 469.55 273.3 468.6 274.97 471.52 278.7 470.99 282.27 470.47 286.99 469.81 288.81 469.5 289.32 469.42 289.63 464.99 289.18 464.77 287.46 456.88 287.63 449.81 289.41 443.05 293.4 436.75 300.84 428.29 304.75 423.83 304.98 423.51 305.9 423.32 307.56 422.88 308.41 422.61 309.69 422.26 311.07 421.78 311.44 417.12 313.28 415.6 317.74 411.83 323.17 405.81 320.72 404.78 321.5 402.34 322.29 400.4 323.08 398.47 324.64 399.12 324.86 398.22 323.41 397.67 323.97 396.32 325.35 396.25 325.77 396.44 326.32 396.46 326.8 396.45 326.56 397.36 326.49 397.61 326.32 398.34 327.68 399.87 329.11 395.35 330.87 394.87 333.68 393.9 337.97 392.57 337.97 389.36 337.28 387.38 330.49 388.76 330.31 390.03 329.76 390.05 327.73 390.12 328.24 383.75 326.4 383.95 323.02 383.51 322.39 380.04 321.96 377.8 321.47 375.63 320.85 371.63 315.82 371.9 312.1 374.2 308.01 374.52 307.23 378.63 303.97 378.38 302.5 373.5 299.64 367.59 304.05 365.49 304.15 363.06 303.17 358.88 298.06 359.73 295.99 360.06 295.42 357.36 294.99 356.13 297.38 355.43 296.46 352.25 299.06 351.5 299.17 351.47 300 351.25 302.34 350.64 302.75 350.58 304.78 350.08 305.52 349.9 306.79 349.58 309.22 348.93 312.05 348 312.39 347.84 314.31 347.21 316.61 346.39 317.3 346.16 319.81 345.28 318.43 341.83 317.27 338.86 315.52 335.07 314.91 334.3 313.55 332.25 312.94 331.03 311.85 328.73 311.06 327.15 310.15 324.94 309.32 322.06 308.98 320.81 308.01 318.84 307.7 318.44 306.26 314.97 306.34 311.54 306.81 309.12 306.06 305.23 315.99 304.14 326.63 300.84 329.62 299.01 336.04 292.31 338.64 290.61 341.69 287.63 341.91 287.41 344 285.23 343.84 284.1 345.63 283.06 346.15 283 352.77 282.32 355.59 282 354.88 279.96 354.72 278.23 358.72 278.42 360.81 277.34 362.02 277.21 365.37 277.32 369.27 276.85 368.68 274.87 370.9 275.06 373.4 275.29 375.67 274.94 378.95 273.94 384.38 273.77 390.61 273.17 401.47 272.35 405.25 272.13 409.64 271.71 405.39 259.56 405.26 252.27 402.33 244.47 394.79 240.73 390.67 238.38 376.74 230.44 359.62 220.95 356.92 219.36 354.43 217.93 355.26 217.34 355.71 215.49 355.67 214.55 355.58 212.65 355.4 212.03 352.98 207.37 350.65 201.32 347.25 187.14 343.38 174.67 342.41 170.1 341.15 157.75 341.01 155.69 340.93 154.62 340.71 154.25 339.3 147.48 339.22 146.19 347.16 147.82 354.9 141.03 357.51 134.7 365.37 132.16 367.59 131.44 374.25 135.05 383.26 132.8 384.53 131.44 389.76 125.87 397.93 117.16 400.05 114.9 408.55 114.02 428.16 112 442.45 107.11 456.53 94.22 465.27 92.96 482.61 103.89 485.45 105.68 505.26 113.58 507.06 114.29 509.04 113.33 528.36 103.95 546.13 99.33 551.31 93.37 554.24 89.99 568.25 84.82 568.81 95.56 582.07 100.97 589.72 104.1 591.34 112.88 592.3 112.98 600.65 113.91 599.27 128.54 598.59 135.73 588.17 132.52 578.34 136.93 573.5 150.29 572.41 153.32 569.21 169.15 571.46 180.59 570.58 180.76 557.24 183.39 541.92 185.11 540.2 170.4 552.76 163.79 563.62 146.83 563.63 146.71 565.69 126.1 563.42 111.4 554.94 107.97 554.1 107.63 551.56 108.44 545.36 110.4 540.3 116.88 539.38 118.07 533.7 124.59 531.76 126.83 524.93 127.64 507.7 129.68 507.7 131.31 507.73 137.31 505.1 156.4 509.55 171.1 507.42 182.02 513.5 192.89 513.59 193.09 515.57 197.36 521.8 210.84 522.45 210.76 553.54 206.86 567.84 219.32 569.81 219.25 583.72 218.69 593.55 214.27 602.71 222.82 604.01 224.03 605.6 214.21 604.86 212.04 602.22 204.3 601.7 202.78 591.7 176.66 598.22 168.44 597.62 159.18 620.59 154.69 629.9 155.72 637.63 168.55 642.12 186.73 638.88 193.84 642.35 201.44 646.09 209.61 653.07 215.39 656.54 218.28 672.47 226.36 688.99 241.53 698.59 236.68 700.53 236.77 701.73 238.78 705.42 240.58 701.38 262.32 701.45 262.49 703.14 266.99 709.49 279.69 712.04 285.86 716.23 293.91 716.28 294.01 716.73 295.13 717.14 296.99 717.5 298.67 718.15 302.03 718.85 306.04 720.6 311.02 721.76 313.66 722.03 318.88 717.13 319.22 712.54 322.15 706.75 318.36 699.22 318.59 695.07 320.16 689.69 323.91 682.56 323.76 675.21 326.36 660.81 328.64 658.66 328.37 656.7 331.25 652.18 325.02 649.6 323.8 643.34 315.24 643.33 314.24 641.75 311.8 640.98 317.06 642.28 324.61 643.3 332.54 626.61 340.22 625.61 337.52 624.4 332.76 620.17 332.68 619.28 325.27 616.05 325.42 615.8 323.85 609.29 324.91 608.11 317.73 592.22 319.24 589.86 320.15 583.99 322.97 581.96 319.06 578.13 319.5 569.47 314.68 566.94 312.17 562.3 312.71 560.94 312.29 557.82 313.59 551.45 315.14 551.22 315.19 546.44 315.57 544.42 317.67 545.41 319.94 547.15 323.82 546.72 323.92 538.38 325.81 538.08 324.45 532.93 323 530.85 320.07 527.69 317.31 527.44 316.82 520.05 306.03 516.44 302.28 511.13 297.04 506.4 297.21 503.25 299.22 497.4 302.96 490.28 309.34 482.32 312.97 479.12 320.19 471.61 324.99 469.77 327.2 469.11 327.26 464.44 334.12 463.09 340.31 462.71 341.2 463.91 345.93 458.09 351.23 454.35 353.71 456.27 358.99 456.09 372.25 458.53 377.51 458.39 380.18 450.85 391.05 449.26 393.46 441.05 386.81 436.64 384.42 434.35 383.95 429.52 379.54 430.55 377.11 421.09 371.69 419.57 371 414.71 368.97 409.56 371.63 408.27 372.3 397.78 378.02 388.57 384.13 385.27 385.92 375.86 391.41 371.76 394.16 363.55 399.74 353.07 405.46 347.85 407.18 350.88 418.17 360.37 426.02 361.33 426.87 370.68 435.17 367.38 437.11 364.76 436.5 361.53 434.97 358.1 435.77 356.63 438.68 343.03 444.58 340.05 443.42 336.27 446.17 335.53 449.95 336.81 455.29 337.75 458.6 338.89 459.78 342.29 463.18 343.7 464.66 346.82 467.66 348.68 470.02 347.92 474.64 342.14 473.46 339.98 473.27 339.74 474.6 339.68 474.92 339.46 476.23 338.98 479.07 338.25 483.33 337.3 488.64 336.61 492.57 336.19 495.4 336.12 495.87 335.55 499.38 333.26 500.47 335.11 502.27 333.87 510.16 333.65 511.56 332 511.74 330.3 511.52 Z M 777.26 49.6 772.49 43.9 762.91 34.32 758.88 32.77 761.11 33.06 763.06 33.31 777.11 48.71 777.17 49.05 777.26 49.6 Z M 743.77 30.8 743.17 30.92 738.67 33.18 729.57 31.5 725.32 29.52 717.63 27.4 743.77 30.8 Z M 707.61 26.09 706.75 26.53 703.49 26.62 691.45 22.19 684.13 18.5 677.94 16.32 676.07 15.16 700.76 25.2 707.61 26.09 Z M 662.41 7.99 661.63 7.62 653.6 1.77 653.25 1 662.41 7.99 Z M 632.01 23.69 632.32 25.62 632.53 26.57 628.76 43.12 627.37 47.79 631.95 23.97 632.01 23.69 Z M 662.81 135.08 663.86 136.86 670.16 142.05 670.25 143.91 665.39 140.25 662.81 135.08 Z" fill-rule="evenodd" opacity="1" fill="#0093ff"/>
<path d="M 657.69 738.34 661.78 737.42 662.65 737.28 664.78 736.83 668.29 735.96 669.47 735.58 671.59 734.95 673.9 734.13 680.52 731.33 689.64 728.8 693.13 728.49 695.73 728.44 702.48 728.35 710.71 728.24 723.57 728.07 735.07 728.51 735.01 729.25 737.17 730.56 753.22 732.4 752.78 730.88 752.75 730.14 755.46 730.14 762.77 729.73 775.3 727.61 782.24 725.89 782.34 726.56 782.36 726.72 782.76 729.41 784.41 740.31 784.86 743.45 785.9 750.24 786.2 752.33 786.99 757.41 787.74 762.28 788.42 766.58 789.96 776.84 790.55 780.5 790.84 782.33 791.1 783.88 791.32 785.25 791.39 785.8 791.64 787.4 791.73 788.04 792.51 793.1 793.07 796.85 793.56 800.15 794.08 803.45 794.6 806.89 795.1 809.95 795.47 812.7 798.2 829.98 798.6 832.6 799 840.7 795.86 848.44 795.75 851.85 797.37 871.96 798.05 879.45 794.1 878.51 794.22 883.61 783.79 885.53 782.38 887.4 784.96 895.47 781.45 895.05 781.96 896.77 781.18 896.82 767.32 893.45 766.5 892.9 763.3 881.27 765.86 892.59 763.76 893.07 757.36 888.19 750.09 887.07 749.53 887.07 743.2 887.52 741.49 886.22 739.03 885.26 732.44 895.5 728.14 894.99 728.23 909.25 700.49 910.33 689.28 891.28 672.59 906.15 667.15 909.31 661.89 909.58 656.39 910.43 657.73 902.15 653.34 901.91 655.47 897.39 654.25 892.95 654.78 889.41 654.64 888.3 653.65 887.71 655.02 885.18 654.83 884.16 653.59 882.56 652.09 881.58 652.07 878.94 652.75 872.61 654.48 867.71 656.08 865.13 658.14 862.79 659.93 856.82 662.78 851.86 663.07 848.95 663.13 847.49 663.24 847.47 663.35 847.46 665.66 845 662.63 841.07 664.19 831.05 663.02 828.02 663.41 822.19 663.38 821.71 663.2 819.22 656.72 819.74 656.78 822.31 656.79 822.82 656.86 825.97 656.91 828.03 656.95 829.56 656.97 830.13 657.1 836.5 657.15 839.82 651.48 840.48 648.19 840.88 643.7 841.47 640.31 842.15 639.77 842.27 637.79 842.66 637.26 840.59 632.8 831.2 632.31 825.69 632.31 825.2 633.82 825.3 633.27 825.02 633.18 824.83 633.2 824.68 633.31 824.52 633.43 824.47 633.58 824.42 633.77 824.31 633.98 824.19 635.43 823.37 635.7 823.27 635.91 823.28 636.17 823.48 636.43 823.84 636.85 824.65 636.13 821.94 632.64 806.12 631.92 798.89 631.92 786.61 632.93 777.64 633.45 774.48 633.85 774.6 635.12 774.84 643.11 774.46 649.83 774.04 655.85 773.68 657.39 773.6 662.87 773.14 661.64 765.42 661.24 762.93 660.93 762.76 660.83 762.12 661.65 761.88 661.29 761.31 661.05 761.09 660.91 760.49 660.57 757.9 660.24 755.78 660.02 753.76 659.61 751.33 659.14 748.49 658.94 747.52 658.23 742.08 657.74 738.96 657.69 738.34 Z" opacity="1" fill="#ff3a00"/>
</g>
<g id="district-labels" font-family="sans-serif" font-size="12" text-anchor="middle">
<text y="0" x="0" opacity="1" fill="#000" text-anchor="start" font-size="13px" font-weight="800" font-family="arial" class="g-text-shadow p" transform="translate(292 865.9)">1</text>
<text y="0" x="0" opacity="1" fill="#000" text-anchor="start" font-size="13px" font-weight="800" font-family="arial" class="g-text-shadow p" transform="translate(399.9 674.5)">2</text>
<text y="0" x="0" opacity="1" fill="#000" text-anchor="start" font-size="13px" font-weight="800" font-family="arial" class="g-text-shadow p" transform="translate(138.1 780.2)">3</text>
<text y="0" x="0" opacity="1" fill="#000" text-anchor="start" font-size="13px" font-weight="800" font-family="arial" class="g-text-shadow p" transform="translate(531 1019)">4</text>
<text y="0" x="0" opacity="1" fill="#000" text-anchor="start" font-size="13px" font-weight="800" font-family="arial" class="g-text-shadow p" transform="translate(465.3 906.4)">5</text>
<text y="0" x="0" opacity="1" fill="#000" text-anchor="start" font-size="13px" font-weight="800" font-family="arial" class="g-text-shadow p" transform="translate(392.8 951.5)">6</text>
<text y="0" x="0" opacity="1" fill="#000" text-anchor="start" font-size="13px" font-weight="800" font-family="arial" class="g-text-shadow p" transform="translate(118.2 960.7)">7</text>
<text y="0" x="0" opacity="1" fill="#000" text-anchor="start" font-size="13px" font-weight="800" font-family="arial" class="g-text-shadow p" transform="translate(260.5 683.4)">8</text>
<text y="0" x="0" opacity="1" fill="#000" text-anchor="start" font-size="13px" font-weight="800" font-family="arial" class="g-text-shadow p" transform="translate(234.4 617)">9</text>
<text y="0" x="0" opacity="1" fill="#000" text-anchor="start" font-size="13px" font-weight="800" font-family="arial" class="g-text-shadow p" transform="translate(123 480.7)">10</text>
<text y="0" x="0" opacity="1" fill="#000" text-anchor="start" font-size="13px" font-weight="800" font-family="arial" class="g-text-shadow p" transform="translate(311.4 240.9)">11</text>
<text y="0" x="0" opacity="1" fill="#000" text-anchor="start" font-size="13px" font-weight="800" font-family="arial" class="g-text-shadow p" transform="translate(579.4 835.9)">12</text>
<text y="0" x="0" opacity="1" fill="#000" text-anchor="start" font-size="13px" font-weight="800" font-family="arial" class="g-text-shadow p" transform="translate(484.7 672.5)">13</text>
<text y="0" x="0" opacity="1" fill="#000" text-anchor="start" font-size="13px" font-weight="800" font-family="arial" class="g-text-shadow p" transform="translate(218.2 852.2)">14</text>
<text y="0" x="0" opacity="1" fill="#000" text-anchor="start" font-size="13px" font-weight="800" font-family="arial" class="g-text-shadow p" transform="translate(658.6 694.1)">15</text>
<text y="0" x="0" opacity="1" fill="#000" text-anchor="start" font-size="13px" font-weight="800" font-family="arial" class="g-text-shadow p" transform="translate(662.6 406.3)">16</text>
<text y="0" x="0" opacity="1" fill="#000" text-anchor="start" font-size="13px" font-weight="800" font-family="arial" class="g-text-shadow p" transform="translate(559.9 540.7)">17</text>
<text y="0" x="0" opacity="1" fill="#000" text-anchor="start" font-size="13px" font-weight="800" font-family="arial" class="g-text-shadow p" transform="translate(465.4 242.8)">18</text>
<text y="0" x="0" opacity="1" fill="#000" text-anchor="start" font-size="13px" font-weight="800" font-family="arial" class="g-text-shadow p" transform="translate(720.9 812.6)">19</text>
</g>
</svg>