<?xml version="1.0" encoding="utf-8"?>
<!-- Generator: Adobe Illustrator 27.6.1, SVG Export Plug-In . SVG Version: 6.00 Build 0)  -->
<svg version="1.1" id="Layer_1" xmlns="http://www.w3.org/2000/svg" xmlns:xlink="http://www.w3.org/1999/xlink" x="0px" y="0px"
	 viewBox="0 0 320 29" style="enable-background:new 0 0 320 29;" xml:space="preserve">
<style type="text/css">
	.st0{fill:#FFFFFF;}
	.st1{fill:#F0F0F0;}
	.st2{fill:#D9D9D9;}
	.st3{fill:#BDBDBD;}
	.st4{fill:#969696;}
	.st5{fill:none;stroke:#000000;stroke-linejoin:round;}
	.st6{font-family:'Helvetica-Bold';}
	.st7{font-size:12px;}
</style>
<g id="layer1">
	<path class="st0" d="M1,11V1h63.6v10H1z"/>
	<path class="st1" d="M64.6,11V1h63.6v10H64.6z"/>
	<path class="st2" d="M128.2,11V1h63.6v10H128.2z"/>
	<path class="st3" d="M191.8,11V1h63.6v10H191.8z"/>
	<path class="st4" d="M255.4,11V1H319v10H255.4z"/>
</g>
<path class="st5" d="M64.6,1v16"/>
<path class="st5" d="M128.2,1v16"/>
<path class="st5" d="M191.8,1v16"/>
<path class="st5" d="M255.4,1v16"/>
<text transform="matrix(1 0 0 1 57.6493 28)" class="st6 st7">10</text>
<text transform="matrix(1 0 0 1 118.4686 28)" class="st6 st7">25</text>
<text transform="matrix(1 0 0 1 184.8493 28)" class="st6 st7">50</text>
<text transform="matrix(1 0 0 1 245.6685 28)" class="st6 st7">75%</text>
</svg>
